<svg xmlns="http://www.w3.org/2000/svg" width="1272" height="1072"><path fill="#0d253e" d="m791 81 2 2q30 31 30 74c1 47 1 47-4 65l105-49 19-10 35-19q10-3 19 0l17 11 8 7c14 9 14 9 16 16v3q1 4 4 7l4 2q4 2 6 6v10l2 1 4 4v5q1 6 6 10l1 11 1 4q3 4 2 7l1 4 3 3q4 2 4 6l-1 6 3 1q5 1 7 6 1 7-1 13l1 2v15l8 3q9-16 10-35v-9h-2v-2l2-7-6-4 3-10v-2l-2-1-6-4 4-9v-2l-2-1v-2l-2-1-5-2 4-9v-2l-2-1v-2l-2-1q-4-1-5-5l5-6-3-2v-2l-2-1-3-1v-6l2-2h2q-2-5-8-8l4-12-11-9 4-7 4-6c3-9 13-19 22-23 29-9 29-9 40-3l10 8 2 1 4 3q10 8 23 12 50 20 69 70c22 51 37 110 16 163q-11 27-31 46l-3 3c-18 20-43 33-67 45l-2 1-30 13-2 1-44 15c-11 4-16 7-22 17q-27 31-68 37l-3 1q-30 4-57-10c-4-2-4-2-9-1l-2 1-3 1-2 1-3 1-6 3 22 16c36 24 72 50 84 94v4l2 7 5 19 34 134 1 2q4 23 4 45v3l-1 22v16q3 12-3 23l-19 18-8 6-25 20-2 2c-27 20-27 20-42 23l-11 7q-10 9-25 9h-10c-7-1-7-1-13 3l-2 2-1 1h-2v2l-2 31-2 11h-9l-3 1h-12l-1 11H410l-6-1-1-11h-31l4-54v-3l8-100-2 1-40 14h-2l-16 5h-4l-3 1q-3 2-5 6l-1 2q-5 12-17 16c-15 5-30 1-45-3l-3-1q-33-8-61-30l-2-2c-23-19-31-46-36-74v-2c-7-40 0-84 7-123l-2 1c-26 10-54 18-81 7l-19-13-2-2c-23-21-34-53-35-83q-2-42 26-73 25-22 58-33l3-1 34-10c8-2 8-2 15-8l4-9q4-12 14-18l13-4c10-1 16-9 23-16q10-12 24-15l11 1 1-2q8-17 24-25 24-10 50-2l3 2 2 1q12 5 23 14 6 2 12-1l9-3 3-2 84-34 3-2 3-1 3-1 5-1-1-3-4-20v-3q-6-32 4-61 3-14-3-28l-2-7-1-3-1-5h-2c-26-7-50-29-64-52a84 84 0 0 1-9-61q8-24 30-37l2-1c25-15 52-19 80-22l1-3q7-32 34-49l3-2c84-48 195-2 259 58M398 602l-2 1-5 2-10 4-54 22 1 28v6l1 2 2 5 1-1 20-15q7-6 16-7 8-1 11-6l3-5 7-11 19-27q-6-1-10 2"/><path fill="#f9b570" d="m607 204 2 1v1l-36 2q-6 11-7 21 5 3 10 2h10l18-1q23-4 44 2l9 2q9 2 17 6l3 2 9 4-8-11 7-3h3l3-1h3l14-1v2q1 22 8 43l1 17q0 8-3 14-1 14 6 26l19 30c5 8 0 22-1 31q-10 45-48 70l-22 13-52 24a104 104 0 0 1-89-1l-7-3q-4-2-6-7l-4-14-1-3-22-101-2-8q-8-36 4-69l3-15c0-15 0-15 3-18q7-5 16-4l-1 2q-6 8-4 18l5 7h9l3 1 7-1q6-6 5-13l2 1q0 16-3 32h-4l-4 1h-3q-4 0-8 3-4 6-3 14 5 15 18 24 12 4 23 1l1-8-2 1q-7 4-15 2-10-2-15-12-3-7-2-16 2-3 6-4l21-2-6-2v-2c4-22 7-45-5-65l-5-15-4-8-6-1h-21c5-11 21-17 31-21 26-7 54-7 76 10"/><path fill="#fdfdfd" d="m791 81 2 2q30 31 30 74c1 47 1 47-4 65l105-49 19-10 35-19q10-3 19 0l17 11 8 7c14 9 14 9 16 16v3q1 4 4 7l4 2q4 2 6 6v10l2 1 4 4v5q1 6 6 10l1 11 1 4q3 4 2 7l1 4 3 3q4 2 4 6l-1 6 3 1q5 1 7 6 1 7-1 13l1 2v15l3 1 4 4q0 5-3 7l-2 3-2 2-2 2-12 12-3 2-7 4-4-13 8-5-6-5v-2l-2-1-3-4 1-6 1-3v-3l-5-3 4-11-10-4 1-12-8-4 1-11-6-4 2-11-9-5 3-11-8-4 3-11-5-2q-6 0-6-4l-1-6q0-7-5-12l-22-15-2-2-4-2-5-3-12 5-3 2-84 43-6 1v2l-2 1-73 33v-2l3-23v-3c7-58 7-58-14-110a268 268 0 0 0-129-77q-20-6-42-5h-3q-20 0-40 4l-3 1q-26 5-47 23l-1 2h-2l-1 2-3 6q-6 14-9 28l-2 4-6 1h-6l-40 7q-23 5-40 20l-2 2q-13 12-14 29-1 33 20 58 22 20 51 30l3 2 1 7 8 29q2 9-2 17c-9 28-5 56 2 83v6l-113 46-2 1-4 2q-6 4-11 1l-7-5-25-13-2-1q-18-5-35 1-17 8-23 27l-1 2h-3q-13-4-23 3l-18 16-5 5q-2 4-5 3l-6 1q-6 0-10 3l-4 1-1 2-4 9-2 3-3 8q-1 4-5 6l-4 1-2 1-13 4-48 17-6 2c-16 3-30 18-39 31q-6 10-9 20l-1 3c-8 24-2 54 9 76 9 17 22 33 41 40q28 6 54-6l4-1 21-10c5-3 5-3 8-3l-1 4-1 6-1 4-8 44v2l-1 7v3l-1 32v10c0 29 3 60 23 83l2 3c18 21 49 32 74 38l4 1q15 6 29-2 7-5 9-14 1-4 6-6l16-5 28-8 23-9 11-4 5 4 2 1-3 40v3l-1 3v3l-1 7h3v3l6 103 1 18h-31l4-54v-3l8-100-2 1-40 14h-2l-16 5h-4l-3 1q-3 2-5 6l-1 2q-5 12-17 16c-15 5-30 1-45-3l-3-1q-33-8-61-30l-2-2c-23-19-31-46-36-74v-2c-7-40 0-84 7-123l-2 1c-26 10-54 18-81 7l-19-13-2-2c-23-21-34-53-35-83q-2-42 26-73 25-22 58-33l3-1 34-10c8-2 8-2 15-8l4-9q4-12 14-18l13-4c10-1 16-9 23-16q10-12 24-15l11 1 1-2q8-17 24-25 24-10 50-2l3 2 2 1q12 5 23 14 6 2 12-1l9-3 3-2 84-34 3-2 3-1 3-1 5-1-1-3-4-20v-3q-6-32 4-61 3-14-3-28l-2-7-1-3-1-5h-2c-26-7-50-29-64-52a84 84 0 0 1-9-61q8-24 30-37l2-1c25-15 52-19 80-22l1-3q7-32 34-49l3-2c84-48 195-2 259 58"/><path fill="#f8cf2d" d="m967 219 1 3 17 34 23 48 20 41 12-7 4-1a165 165 0 0 1 1 101q-6 41-38 65l-14 7-3 2q-15 6-31 4h-3q-13 1-25-6l1-2 1-10v-12c1-23 1-23-5-45l-1-4c-6-24-22-45-40-61l-2-2q-4-2-9-1l-16 7-2 1-27 11-10 4q-7 1-11 7-1 6 3 11l2 8 6 16c9 23 9 23 6 31q-3 8-10 11-12 1-22-5l-6-6v-2l-3-1-3-4-2-2-5-5-5-5v-2l3 1q14 4 28-3l2-2 4-1 2-4 1-2c4-12-3-25-7-36l-4-10-1-3-1-7 36-13 2-1 38-10 3-1q8 0 14 5l17 20q18 23 29 49 4 10 14 14l-18-38-2-3q-9-16-21-31l-5-8h-2l-4-5-2-1v-2l-2-1-5-3c-12-6-32 1-43 5l-27 9q-10 2-19 6l-2 1-3 1-2 1-4 3q0 7 3 14v2l11 26q2 5 1 12-2 6-8 9-17 5-32-3l-3-1q-7-3-11-9l-2-2c-5-4-5-4-5-8l4-13q4-12 5-24h3q20 2 33-11a81 81 0 0 0 24-62v-13l9-4 2-1 70-34 23-12c23-11 23-11 45-24z"/><path fill="#fefefe" d="m1148 116 2 1 4 3q10 8 23 12 50 20 69 70c22 51 37 110 16 163q-11 27-31 46l-3 3c-18 20-43 33-67 45l-2 1-30 13-2 1-44 15c-11 4-16 7-22 17q-27 31-68 37l-3 1q-30 4-57-10c-4-2-4-2-9-1l-2 1-3 1-2 1-3 1-6 3 22 16c36 24 72 50 84 94v4l2 7 5 19 34 134 1 2q4 23 4 45v3l-1 22v16q3 12-3 23l-19 18-8 6-25 20-2 2c-27 20-27 20-42 23l-11 7q-10 9-25 9h-10c-7-1-7-1-13 3l-2 2-1 1h-2v2l-2 31-2 11h-9l-4 1h-12l4-51v-3l1-9 1-5 7-3q5-3 6-8h4c14 2 29 3 40-6l1-2h2l1-4h2c22-4 41-20 57-34 8-6 8-6 10-6v-2l4-3 9-8 8-7q7-6 7-16v-5q-2-11 0-23v-26c-1-28-10-56-17-82l-4-16-11-46-1-2-14-55q-5-17-17-29l-3-4q-25-25-54-43l-22-15-9-6-1-1v-2l-2-1-4-3 2-1 38-16 4-1 4 3 9 5 3 2c18 6 41 5 59-1l2-1q20-6 35-20l3-1 1-2 4-6 6-8q4-5 10-6l2-1 13-5a721 721 0 0 0 77-32l2-1q22-11 40-25l4-2v-2l4-4 2-2 4-1 1-2 4-5c19-18 28-44 32-69v-3l1-6v-3q1-28-8-54l-1-2q-7-31-22-61l-1-2a91 91 0 0 0-62-51q-12-4-20-13l-5-4-2-2q-6-4-13-3l-13 3h-3q-7 2-13 8 2-9 9-16l2-3c16-17 45-17 62-3"/><path fill="#012850" d="m501 97 1 2 4-1 23 1h3a161 161 0 0 1 49 8 208 208 0 0 1 60 21q32 13 59 34l2 1 7 6 6 4v-31h1v3c-2 18-2 18 4 35l10 7 4 4 5 6 14 20 1 3 11 17 2 3 1 2 1 4 3 1v2l2 1 2 7-10-7-2-3-3-2-15-13-2-1v-2l-2-1-4-2h-10l-3 1-32 5-2 1-11 1q0 4 3 7 4 3 3 5l-11-4-3-2-6-3-12-2-9-3q-22-6-45 0h-26q-5 0-8-3c-2-9 3-14 7-22l35-2a85 85 0 0 0-70-11q-21 4-37 19l-1 2 2 1-2 1c-9 1-9 1-17 6l-4 17-1 12c-27-7-59-22-74-47q-15-25-11-55 9-24 33-36 36-16 75-15z"/><path fill="#f7ce2d" d="m488 439 1 2 2 11 1 4 6 27c3 11 3 11 10 20l2 1v2l-2 1h-3l-3 1-8 5-5 2-4 2-3 1-20 9-3 1-10 4-3 1-3 2-4 1-16 5-3 2-27 11-84 36-2 1-11 4-2 1-38 16-37 15h-2l-43 17-3 2-29 11q-9 3-20 0-4-1-7-6h2q30-2 57-15l9-4 26-11 12-5 16-7q18-6 27-21 3-7 0-15-5-10-17-14l-11-2q4-4 9-5l19-8 2-1 8-3 19-7q6 0 11-4l6-2 2-1 13-5 5-2 25-10-56 21-18 6q-15 4-28 10l-20 7-8 3-15 6-3 1-74 29q-21 6-31 24-5 16 1 31 4 12 16 17 16 4 31-3l32-12 7-2 4-2 2-1 10-4 8-4 2-1 6-1 11-5 9-4 11-4 3-1 19-9 17-6 45-19 11-4q6-4 14-6l18-9 13-5 9-4 36-15 25-9 12-5h5l-5 6h-3l-1 2q-4 8-13 10l-16 6-15 6-68 28-42 17-2 1-14 6-3 1-58 25-29 15-18 9a411 411 0 0 1-67 31l-3 1h-15q-16 1-28-11a97 97 0 0 1-26-68 70 70 0 0 1 39-63l2-1q14-7 29-12l2-1 15-3 6-2 5-1v2q-1 8 3 14v2l2 1 9 5-9 5-9 4-11 4-31 13c-13 5-23 10-29 23q-7 25 6 48 9 17 24 30l-6-10a84 84 0 0 1-17-56q1-8 7-14h2l1-3q7-5 16-8l7-3 27-11 41-17 19-7 3-1 3-1 4-2 7-1h8q12 1 23-6l2-1 4-5q6-4 14-3 12 1 23-4l3-1q10-4 16-13l1-2q1-4 5-6l19-6q6-4 13-6a459 459 0 0 0 57-23l22-9 3-2 39-16 2-1 6-2 2-1 2-1z"/><path fill="#e5e5e5" d="M921 608h7q15 1 24 12l3 3 2 2q9 8 11 20l1 3 8 32 5 21 15 54 3 16 2 9 5 18 1 4q5 23 6 47-3-1-5-6c-9-17-21-36-37-48l-2-2v-2l-2-1-6-4-2-1-2-2a259 259 0 0 0-79-41l-14-5-16-5-41-14v-3l-3-26q-4 10-6 22-2 6-8 8-6 6-8 15l-7 21c-9 21-9 21-9 44l1 12v2l1 6h-3l-61 3q-3-10-3-22l-1-2q1-14 13-26l59-70 11-14h2l1-2 7-9 2-2 29-29 13-12 2-2 4-2v-2l7-5 2-1c21-14 43-14 68-14"/><path fill="#f9b570" d="M301 627v2l7 88v3q2 29 13 57c8 20 1 48-6 67l-1 4-5 13c-9-3-14-18-19-26v3q3 23 3 47v3q1 11-4 19-7 3-15 0c-29-7-61-19-78-46l-1-4h-2q-7-16-9-33v-2l-1-30v-3a265 265 0 0 1 4-50q3-27 11-54l1-3v-3l1-3q3-5 9-8l3-2 3-1 4-2 48-23 17-7 10-4q3-2 7-2"/><path fill="#f3fdfe" d="M536 748q25 8 46 24l6 4 32 23 2 2q10 7 17 17l2 3 10 21-2-15c-5-16-5-16-3-23l2-2q6 2 11 6l2 2q17 11 30 24l2 2c11 10 8 32 8 46v9q2 20-6 38l-1 2-9 16a79 79 0 0 1-30-8q0-4 3-7l6-10 1-2q6-14 2-30h-2l-1 3-4 16q-3 14-13 23l-2 2q-6 3-14 1l-9-5-2-1-12-10-2-2-4-3v-2l-2-1-6-5q-12-10-28-16l2 2 2 4 1 3q3 3 2 7l-16 8c-26 12-26 12-34 10l-8-5v-2l-2-1-6-5v-2l-3-1-3-4-1-2-1-2 34-21 29-18q-25 5-48 17c-11 6-11 6-14 6q-8-5-11-13t2-15l7-8 2-2 23-19 22-17h-2l-23 11-17 11-2 1-8 5-2 1-9 1-6-4-2-2c-16-13-16-13-17-20q0-5 5-9l7-8h2l1-3 4-3 8-7 11-11 2-2 2-1 2-2 3-1v-2l10-8 2-1c12-10 12-10 20-8"/><path fill="#e5e5e5" d="m792 501 12 7 2 2 19 14 3 2 3 2 3 2 2 2 6 4 8 5 2 1 2 2v2l-2 1q-36 15-68 39l-4 2v2l-4 3-2 2-5 2v2l-4 3-14 12-4 2-1 3h-2v2l-3 3-23 23-9 9-14 16-1 2h-2l-1 2-5 7-15 18-2 2-2 2-1 2h-2l-1 2-4 5-17 2h-9l-87 5-4-9-1-2c-8-16-8-16-10-24l-3-8v-28q1-24 8-46l3-9 3-14 4-12q7 0 14 3l2 2 23 15v2l3 1q5 3 6 7l-3 15-4 15-6 32-4 22v3l-1 2v6l14-29q11-29 31-54l2-2q8-8 18-9 6 0 11 3l9 18q2 6 6 10l8-6 3-4h2l1-2 5-6 16-18 2-2 4-2 1-2 4-6 2-2 3-1 1-2 5-6 14-15 1-2 2-2 3-1 1-2 5-6 5-6h2l1-3h3l1-3h2l1-2 5-6 6-6 1-2h2l1-2q2-4 7-8l1-1zm11 233 10 4 17 5 25 7q32 7 60 23l8 4 13 9 2 2 22 20 6 8 14 17 15 21 4 4 9 12 1 2c9 15 9 15 8 22l-3 3-2 2-2 2-2 2-22 19q-5-1-8-6l-2-3-2-3-34-39 2 4 1 3 8 20q8 19 18 37l-12 8-2 2-9 5-2 1-2 1-6 1-1-3-14-18-1-4h-2l-3-4-9-12-2-2-18-23h-2l-3-3-7-8-1-2-8-9-4-3v-2l-3-1v-2h-2l-6-4v-2l-2-1-8-6a128 128 0 0 0-30-19l-25-13-2-1-1-9v-2l-1-19 48 8-25-18-3-2-3-1-6-6v-5l1-3 1-2v-3c3-13 3-13 9-15"/><path fill="#f9b570" d="M785 837h3q16 1 28 10l2 1 12 8 2 1 11 9 2 2 17 17 1 2q5 5 4 6l2 1q4 2 7 6l2 3 3 6h2l4 5 3 3 7 11h2l5 6 1 2 15 24q0 3-3 5c-15 5-34-1-48-5l-4-1-2-1-16-4v2l2 1 7 5 14 14c-28 6-62 11-88-3q-19-10-39-16l-2-1-35-10 1-2 6-13 1-3q4-13 3-28v-22q1-19-3-39c22-6 48-4 71-2"/><path fill="#223d88" d="M469 711h1v2c-1 25-1 25 6 48v6l-4 4-2 2-2 2-2 3c-6 5-6 5-8 5l-1 2-4 5q-12 10-13 25 1 14 13 23l7 7 2 2-9-4v21l2 56 2 118v4q0 8 5 15c11 9 26 11 39 14v1h-90l-7-1c-5-20-2-41 0-61l1-13 8-94 7-84 4-54v-3l3-14q16-3 32 2l7-29 1-3v-3z"/><path fill="#fcfdfd" d="M680 63q29 21 34 56 2 27 1 54l-11-7-17-12-3-2a365 365 0 0 0-108-45l-6-2-11-2-2-1-40-3 5-18 1-2q3-9 9-15l2-3c36-38 109-28 146 2"/><path fill="#ec9157" d="m274 637 2 1-2 1-2 1v3l-5 10-1 2-23 39-2 3q-14 27-14 57v15q-1 20 3 41v2q5 22 15 40l1 5 3 1 4 7 7 10 2 4 3 1v2h2l2 3q9 10 23 13 0 4-3 8-4 3-11 2c-28-5-61-18-78-42-5-6-5-6-5-9h-2q-7-16-9-33v-2l-1-30v-3a265 265 0 0 1 4-50q3-27 11-54l1-3v-3l1-3q3-5 9-8l3-2 3-1 4-2q17-10 35-16l17-9z"/><path fill="#4c4c4d" d="M1154 168q23 9 35 31l1 3a202 202 0 0 1 23 56 138 138 0 0 1-1 106l-1 3a127 127 0 0 1-28 34l-4 2-1 3-3 3-3 1-2 2-2 1-10 7q-14 10-31 16l-15 7-2 1-25 10-9 4-11 3-6 3-6 1 3-10 7-30 2-9 19-5a225 225 0 0 0 43-15q26-10 44-31l1-1h2l1-2 3-5 7-12 1-3q6-11 5-24v-3a203 203 0 0 0-9-51l-7-26-4-13-16-51v-2z"/><path fill="#446ece" d="m563 115 5 1 19 4 3 1 26 10 6 2 34 16a273 273 0 0 1 44 27l2 2v2l2 1q4 2 7 6l9 7 7 8 2 2 3 4 3 3-9 3-3 1h-3l-3 1q-24 6-50 6h-3q-15 0-25-10l-12-11-3-5-2-1q-4-1-6-6l-18-18-3-3q-19-16-43-27l-3-1-30-11q-23-5-46-5h-2q-32-2-58 18l-1 2h-2c5-11 17-18 28-23q19-6 37-9h2c26-5 61-6 86 3"/><path fill="#b1b1b2" d="m886 610-10 9a98 98 0 0 0-28 33q-14 21-8 44 3 9 8 14l2 2 14 12 8 6v2h2l4 5 2 2 1 2q-4 1-9-1l-43-14-3-1-18-7v-3l-3-26q-4 10-6 22-2 5-8 9-6 5-8 14l-7 21c-9 21-9 21-9 44l1 12v2l1 6h-3l-61 3q-3-10-3-22l-1-2q1-15 13-26l1-2 67-80 2-2h2l1-2 7-9 2-2 29-29 13-12 2-2 4-2v-2l7-5 2-1q14-10 33-12"/><path fill="#656565" d="M880 381q11 6 18 17v2h2l3 4 1 2 2 3 1 2q9 13 13 26v2l5 23 1 2v39l-2 1-10 4-3 2-16 7-15 7-2 1-3 1-6 3q-4 3-7 1v-2l-3-27a184 184 0 0 0-34-84l-2-2-2-4-3-6 18-7 15-7 16-6 3-1 2-1 4-2z"/><path fill="#e4e5e5" d="m382 668 7 5 1 2 10 10 5 5 11 12 6 8q6 5 8 11l-11 11-2 2-1 1-2 1q-4 5-5 12v3l-1 4v3l-3 34-5 61q-3-4-4-10a186 186 0 0 0-34-66l-30-37q-6-8-6-18l-1-7q-1-5 2-10l6-6q6 2 11 6a246 246 0 0 0 36 26 113 113 0 0 0-18-26l-5-7-2-1-2-4q-5-3-4-6 2-4 5-5l10-7 2-1 4-4q4-5 12-2"/><path fill="#b1b1b2" d="m754 464 2 1 2 2 2 1 6 5 3 2v2l2 1 10 7 2 2v2h-2l-1 2-7 8-1 2-31 31-5 4-7 6-2 2-2 2-3 2-9 11-14 14-6 6-2 2-3 4h-2l-1 2-5 7-7 10-2 2h-2l-1-2q-6-14-20-23-10-2-17 4l-11 8-10 8 8-16 2-3 14-21q13-18 34-28 7-3 13-9l11-7 8-6 14-9 26-17c7-4 7-4 12-10l1-8z"/><path fill="#223d88" d="M699 64c11 2 22 11 31 17l6 4 3 2 3 2 2 1v2l2 1 8 5 2 1 2 2v2l2 1q4 2 7 6l3 2 2 4 3 1c12 17 13 34 13 54v3q0 42-6 83-5-2-8-6v-2h-2l-17-26q-8-18-23-32-2-2-2-5v-24c0-35-1-66-26-92l-4-4z"/><path fill="#b2b2b2" d="m792 501 12 7q0 4-4 7l-1 2-2 2-13 14-6 7-10 12h-2l-1 2-7 9-3 3-1 2-16 18-10 12-10 13-9 10-2 3h-2l-1 2-6 8-19 23-2 2-7 7-1-2q-2-10-11-15-6-3-13-2-12 7-22 17l-2 1a203 203 0 0 0-26 31l-8 9 4-27 3-10v-3l1-6q1-7 4-13l1-2q9-18 21-33l2-2q8-8 18-9 6 0 11 3l9 18q2 6 6 10l8-6 3-4h2l1-2 5-6 16-18 2-2 4-2 1-2 4-6 2-2 3-1 1-2 5-6 14-15 1-2 2-2 3-1 1-2 5-6 5-6h2l1-3h3l1-3h2l1-2 5-6 6-6 1-2h2l1-2q2-4 7-8l1-1z"/><path fill="#eb9157" d="m566 229 5 2h15l18-1q23-4 44 2l9 2q9 2 17 6l3 2 9 4-8-11 7-3h3l3-1h3l14-1v2q1 22 8 43l1 15v3c0 6 0 6-2 8l-1 1-1-1q-9-15-25-20h-7c-10 0-10 0-13-3l-3-6q-3-9-13-14l-1 1 2 2q3 8 1 15l-6 9-17 1h-3q-5 0-8-4-5-8-3-17l5-8q-10 1-17 8-4 6-6 14l-3 6-6 2-9 6-4 3-2 2-7 4z"/><path fill="#223d88" d="M473 123h2a169 169 0 0 1 62 11l26 11 3 1q16 10 31 24l5 4q7 5 12 12l2 2-4-1q-19-18-43-31l-3-1q-28-13-59-18h-3l-39-3c-12 0-27 1-37 10q-8 9-8 23 1 11 5 21v-2q-1-11 5-19 9-7 21-5h3q26 1 50 14l2 1 10 8-3 4-2 1-2 1-3 1q-9 4-18 11l-3 1-1 3h-2l-1 2-4 6q-7 9-9 20-22-5-39-20v-2l-2-1c-12-7-18-22-22-35q-5-17 4-33h3l1-3q26-20 60-18"/><path fill="#122840" d="M631 365q8 0 15 6l4 5-1 2-7-3v2c0 20 0 38-14 54q-19 17-46 15l-36-4c-15-2-26-13-36-23l1-2 2 1 2 2 3 2q2 3 6 3c2-14 2-14-2-28l-1-2q-2-6-8-7l-10-3-3-3 14 2c38 11 81 7 115-11l2-1-1-3-5-2q2-2 6-2"/><path fill="#b1b2b2" d="m803 734 10 4 17 5 25 7q32 7 60 23l8 4 18 13 4 3h-8l-38-12-6-2q-10-3-22-2l-3 2q-2 14 6 27v1l-14-2q-10-3-21-2l-4 4c-2 15 12 36 21 48l-1 2-5-4v-2l-2-1-8-6a128 128 0 0 0-30-19l-25-13-2-1-1-9v-2l-1-19 48 8-25-18-3-2-3-1-6-6v-5l1-3 1-2v-3c3-13 3-13 9-15"/><path fill="#656565" d="M1118 277q5 2 9 6l10 7q3 2 4 7l1 4v2l2 19q0 14 11 24l8 3c-1 7-9 14-14 19l-2 2-4 2v2l-8 6-3 1a179 179 0 0 1-45 20l-2 1-19 5v-2a283 283 0 0 0-2-49l3-2 18-12h2v-2l3-2a87 87 0 0 0 28-61"/><path fill="#ea9157" d="M785 837h3q16 1 28 10l2 1 12 8 2 1 11 9 2 2 17 17 1 2q5 5 4 6l2 1q4 2 7 6l2 3 3 6h2l4 5 3 3 7 11h2l5 6 1 2 15 24q0 3-3 5l-5 1h-4v-2q-3-18-15-31l-2-2-20-18a131 131 0 0 0-47-25q-44-18-92-9l-13 2v25h-1v-27q0-20-4-40c22-6 48-4 71-2"/><path fill="#ebebeb" d="m604 58 4-1c11 0 17 2 26 8l8 3 2 1 17 5 14 6 1 4 1 5q1 7-1 13l-7 5q-4 4-6 10-3 5-8 6-6 0-11-4l-5-3-3-2-2-1-2-1-12-2-6-3v-4h-2c-25 1-25 1-38-4l-5-1-5-2-7-1q-5-1-9-5l-6-3q-7-3-7-6l1-7q5-2 11-2h7v-4q-1-4 2-6 6-4 14-2h3l14 2 1-3q8-2 16-1"/><path fill="#223c87" d="m465 849 7 4v4q-1 18 9 33l1 1v6c0 9 2 13 8 20l1 3h2l3 3q11 15 28 18 18 0 33-9l27-10 4 3 2 1 2 2 5 4 2 1 13 10q-6 9-17 12-27 11-58 10h-3q-14 1-27-5v-2l-12 4q-8 3-17 2h-9l-1-12v-10z"/><path fill="#b0b1b1" d="m1146 163 5 19 23 79 3 14 4 12v2l1 3v2l3 5 1 13v3q1 14-9 25-7 4-15 2-5-1-8-6-4-9-5-20l-1-10c-2-12-2-12 0-16l4-4 4-6-2-1-2-2-3-2-2-2q1-5 4-8v-3l-3-1q-4-1-5-4l-1-2 2-3 2-5-2-1-2-1-3-2-3-3 1-2q3-3 2-7l-4-3-3-2-2-1 6-12-2-1-7-4 4-11-9-6 5-10-7-5c3-7 3-7 7-9 12-5 12-5 19-4"/><path fill="#e5e5e5" d="m314 430 16 10-14 4v-8q-3 5-2 11v11c-1 42-1 42-10 55q-15 12-34 12h-8q-2-2-2-5v-55q-1-20 14-34c12-7 29-8 40-1"/><path fill="#aeafaf" d="M648 802q6 2 11 6l2 2q17 11 30 24l2 2c11 10 8 32 8 46v9q2 20-6 38l-1 2-9 16a79 79 0 0 1-30-8q0-4 3-7l6-10 1-3 4-11h2a71 71 0 0 0-14-57l-2-4-4-4v-6l-2-10c-5-16-5-16-3-23z"/><path fill="#e78f56" d="m781 273 2 1q13 7 17 20 2 8 1 15v3q0 28-19 49-8 8-19 7-7 0-12-5l-1-4v-3l-1-3v-32l3-19 2-13 1-5q1-8 7-13 10-3 19 2"/><path fill="#f7cf2d" d="M946 192q3 1 5 5l10 10 1 3q-10 7-21 12l-16 8-18 8-14 7-27 13-3 1-30 14-16 8-2 1-7 2-3-5-10-12v-2l11-5 4-2 81-40 2-1 2-1 5-1v-2l36-19 3-1 2-1z"/><path fill="#f6ce2d" d="m480 405 2 8 1 2 1 13-2 1-28 12-16 6-12 5-3 1-72 30-30 12-1-8 1-3v-7l1-9 30-12 16-6 15-7 14-5 7-3 2-1 9-4 16-6 20-8 16-7 3-1 3-1 3-1z"/><path fill="#223c87" d="M882 563q9 3 16 9l1 3-4 1-31 8-2 1-32 13q-15 7-29 17l-3 2-10 7-2 2-2 2-4 1-1 3-4 3-16 14-2 3-13 15-1 1h-2l-1 2-4 6a294 294 0 0 0-42 64q-4 9-5 20-5-4-6-11l-1-3-2-3-1-3q1-6 4-10l1-2 2-2 1-3a515 515 0 0 1 68-87l4-3 3-3 7-8 38-29 17-11 8-4 21-12c11-6 17-8 29-3M647 732h13v2l10 48 1 2 2 12-12-7q-7-6-16-4l-7 3q-5 0-9-3l-3-1-2-2v-2l-2-1q-6-1-10-6-22-15-47-29l-2-2-2-1-3-3 17-2h4z"/><path fill="#fafafb" d="M912 608h15q18 2 28 15l2 2q9 8 11 20l1 3 8 32 5 21 15 54 3 16 2 9 5 18 1 4q5 23 6 47-3-1-5-6a156 156 0 0 0-39-50v-2l-2-1-3-4 8 4 11 6 3 2 2 1q-5-31-14-63l-7-28-5-21-12-44-1-2q-7-19-24-27-7-4-14-5z"/><path fill="#646565" d="m1002 197-1 4v3l-2 6h6l3 1q3 0 5 2l-6 11 11 2-4 9-1 2-1 2h4l3 1 7 2-6 13 9 2q0 7-3 13l10 2q1 8-3 14l10 3-4 11 8 4-1 8-1 5h3l8 3v2l-10 5-3 2-2 1-3 2-6 2-1-3-14-27-1-2-13-28-1-2-11-25-7-13-6-14-3-5v-6l4-2 2-1 2-1 5-2 2-1 6-3z"/><path fill="#f5b370" d="M739 428v13l-2 15v3c-1 9-1 9-5 11l-4 3-2 1-6 4-3 2-5 3-12 8-8 6-41 29-8 6q-17 12-29 29l-7-9-2-2-1-3-2-3-4-9h-2l-3-5-2-3-1-4 2-1a276 276 0 0 0 53-20l21-10 2-1a279 279 0 0 0 48-29q15-15 23-34"/><path fill="#afafaf" d="M562 879h13l3-1q11 0 20 6l43 20 3 1q7 3 16 3-3 14-13 24l-2 2q-6 3-14 1l-9-5-2-1-12-10-2-2-4-3v-2l-2-1-6-5q-12-10-28-16l2 2 2 4 1 3q3 3 2 7l-16 8c-26 12-26 12-34 10l-8-5v-2l-2-1q-4-1-6-6l3-1q31-3 50-27z"/><path fill="#7c7c7d" d="M881 383q7 2 11 9l2 1 4 7h2l3 4 1 2 2 3 1 2a98 98 0 0 1 13 28l5 23 1 2v39l-2 1-10 4-3 2-16 7-15 7-2 1-3 1-6 3q-4 3-7 1l-1-12-1-3-1-18 3-1q23-4 37-24 12-18 6-39a174 174 0 0 0-24-50"/><path fill="#fcfcfc" d="m442 570-1 2-27 35-1 2-28 41-2 2-3 3h-4c-12 0-22 11-30 18l-15 11-5 4-3 1q-5-35-4-70l23-10 76-31 3-2 15-6zm-44 32-2 1-5 2-10 4-54 22 1 28v6l1 2 2 5 1-1 20-15q7-6 16-7 8-1 11-6l3-5 7-11 19-27q-6-1-10 2"/><path fill="#f3fce0" d="m228 574 6 6q-4 9-12 13l-39 17c-56 23-56 23-73 22q-1-12 5-22 6-6 14-9l3-2 38-16c43-18 43-18 58-9"/><path fill="#e5e5e5" d="m780 485 3 4h-2l-1 2-7 8-1 2-31 31-5 4-7 6-2 2-2 2-3 2-9 11-14 14-6 6-2 2-3 4h-2l-1 2-5 7-3 3-7 8v-3l-3-15c-1-15 5-23 14-34l2-3a111 111 0 0 1 26-25q25-19 52-33l3-1 6-4 2-1q4-3 8-1"/><path fill="#b0b0b1" d="M464 577q2 5-1 9l-1 3-2 8q-7 27-7 54v39q1 9-6 15l-4 4-11-12q-14-16-32-29l10-15 28-39 17-25z"/><path fill="#ea9057" d="m335 765 14 17 1 2c28 38 28 38 31 57l5 16-5 3-3 1-30 12-4 1c-22 8-22 8-27 8l6-14 1-2 1-2 1-2 3-5h2v-3l3-8 6-15 1-4c6-19 4-42-6-60z"/><path fill="#e5e5e5" d="m245 457 5 2 2 1 2 1v51q2 12-6 22-11 8-26 6-5-1-9-5l1-9q3-19-3-38v-10l11-11 2-1q8-10 21-9m281 56 9 3q10 4 22 5c14 2 14 2 18 5l3 6q2 6 6 10l10 15 2 4 5 8 2 3 1 4-3 3-5-3-19-7-3-1-22-8q3-5 7-8l3-2 2-2c-19 1-34 12-48 24l-3 1q-2-32 13-60"/><path fill="#fcd8a6" d="M293 635h7q2 3 2 8v2l2 31c3 52 3 52 17 101 8 20 1 48-6 67l-1 4-5 13c-9-3-15-19-20-27q5 1 9 4 3 4 7 4a157 157 0 0 0-2-75l-5-19q-7-23-6-47v-4z"/><path fill="#446ecd" d="M709 73q6 2 10 6l11 7 20 15 8 7v2l3 1 5 6 2 2a58 58 0 0 1 12 41q1 24-4 46l-1 8v12l-1 9-2-1-1-6-1-3v-4q-1-10-5-21l-1-4h-2q-13-16-12-37c-1-25-3-47-21-66l-6-5-7-7-6-5-1-1z"/><path fill="#f9d5a5" d="m511 257-1 2q-6 8-4 18l4 6v2l-12 1h-2v2l-2 21q-7 32 0 63l10 43 1 2 6 28 4 21 1 4q1 8 8 15l9 5c19 12 43 13 65 15-5 5-15 4-22 4a109 109 0 0 1-49-10l-7-3q-4-2-6-7l-4-14-1-3-22-101-2-8q-8-36 4-69l3-15c0-15 0-15 3-18q7-5 16-4"/><path fill="#fafbfb" d="m852 542 2 4-2 1q-36 15-68 39l-4 2v2l-4 3-2 2-5 2v2l-4 3-14 12-4 2-1 3h-2v2l-3 3-23 23-9 9-14 16-1 2h-2l-1 2-5 7-15 18-2 2-2 2-1 2h-2l-1 2-4 5-18 2h-3l-51 2v-1l3-1 46-7h2c13-1 13-1 23-7l5-8 3-4 1-2 23-27 14-14 2-2 2-2 3-5h2l1-3h2l1-2 5-6 2-3 3-2 3-3 2-2 2-2 4-2 1-3h2l1-2 6-7 7-6 3-1 1-3 5-4 3-2 29-20 3-1 29-16 1-1c14-7 14-7 20-5"/><path fill="#b1b1b2" d="M546 569q7 0 14 3l2 2 23 15v2l3 1q5 3 6 7l-3 15-3 13-1 4-1 4h-1l-1-3q-3-7-11-11-17-4-32 3l-10 6a256 256 0 0 1 11-49z"/><path fill="#5d91fb" d="M597 125q16 4 30 10l2 1a345 345 0 0 1 71 40l2 2v2l2 1q4 2 7 6l9 7 7 8 2 2 3 4 3 3-9 3-3 1h-3l-3 1q-24 6-50 6h-3q-15 0-25-10l-12-11-3-5h-2v-2q7 2 13 6l7 4 2 1 10 1h3l23-2h3q11-1 18-8 2-6-1-10-14-14-31-22l-7-5-26-14-3-1-36-18z"/><path fill="#13293c" d="m970 241 4 11 4 9 1 2 31 73 17 47c5 19 11 44 3 63q-6 11-16 17h-3l1-1q15-18 12-40l-2-16v-4l-4-16-2-8-8-23-1-2a464 464 0 0 0-30-71l-12-29-33 15-18 9-3 1-13 6-2 1-40 19-3-1 26-13 23-13 42-23 19-10 3-2z"/><path fill="#223c87" d="M694 962q30 4 59 16l3 1 5 5 2 2 2 3 6 8 2 2 9 12 2 2 4 5 1 2 2 2 3 6-13-5-40-19-10-4-38-20v-13z"/><path fill="#fcd8a7" d="M712 934h7q21 3 41 14l9 4 8 3q18 9 38 12l4 1 32 2-1-3-2-3-2-4-2-7 16 13 2 1 8 9c-28 6-62 11-88-3q-19-10-39-16l-2-1-35-10 2-4 1-3z"/><path fill="#f1fbfb" d="M507 683c11 5 15 18 20 29l1 3 6 15h-3q-19 4-33 19l-4 3-3-1q-12-25-4-52c4-9 9-19 20-16"/><path fill="#c9caca" d="M198 486h8q4 14 4 27v3q1 7-3 13l-22 17q-8 3-16 1-6-1-10-6v-9l6-7q8-9 12-22 3-11 11-16 5-2 10-1"/><path fill="#cacacb" d="M693 75q22 23 22 55v43l-11-7-23-16-17-10-2-1v-1l3-1q18-4 29-21a42 42 0 0 0 3-22l-3-14z"/><path fill="#c8c9c9" d="M302 426c10 1 19 8 28 13l-9 4h-3l-2 1v-8q-3 5-2 11v11c-1 42-1 42-10 55q-15 12-34 12h-8l-2-4v-6h3c13-1 13-1 23-7h2q6-16 5-32l3-29v-2l1-7 1-2q0-6 4-10"/><path fill="#223c86" d="m522 580 2 1-4 13-6 19v3a200 200 0 0 0-7 50h-2q-14 3-22 14l-8 15v-10l1-3 1-3 4-16 6-26 9-50q4 4 4 9l2 10 1-2z"/><path fill="#f2cb2e" d="M249 567q6 5 9 13 1 9-5 14-13 10-27 15l-10 4-16 8-3 1-9 4-4 2c-31 13-31 13-40 13v2q-9 3-19 2h-3c-6 0-6 0-9-2l-2-5h2l48-12 2-1q27-8 50-21l3-1c14-6 14-6 25-16v-7l-1-6-4-2-2-1-3-1-9-4q14-5 27 1"/><path fill="#fbfcfc" d="M955 806c8 1 13 12 18 18l7 8 15 22 4 4 9 12 1 2c9 15 9 15 8 22l-3 3-2 2-2 2-2 2-22 19q-5-3-8-7l-2-2q-4-4-3-7l4-4 10-13 1-2 3-5 1-2q2-6 0-12l-2-3-2-4-6-8-4-7-22-37z"/><path fill="#e99157" d="m510 316 3 8q5 13 17 22 12 4 23 1l1-8-2 1q-8 4-17 1l-5-2q4-4 8-3l15-5q19-7 39-6l-5-7q9 1 15 7l1 7q-4 6-11 8l-6 4a67 67 0 0 1-44 14q-18-3-31-17-6-12-1-25"/><path fill="#b1b1b1" d="m853 997-6 63-6-4-1-3-2-2-4-5-1-2-6-7q-14-18-26-38l12-1h22z"/><path fill="#112740" d="m663 257 9 11c6 9 6 9 6 12h-8l-1-2q-5-13-17-20l-1 1 2 2q3 8 1 15l-6 9-17 1h-3q-5 0-8-4-5-8-3-17l5-8q-11 1-17 8-4 6-6 13l-2 5-4 1q-1-14 9-25c16-16 44-15 61-2"/><path fill="#e2e2e3" d="M636 378q2 6 1 12c-11 13-37 16-53 18h-23q-14 0-27-4l-1-11h25l42-3h2c11-2 25-12 34-12"/><path fill="#0d243d" d="M594 206c16-1 16-1 22 3l3 4v2l2 1 7 4 9 6 2 2v1h-2c-17 0-17 0-33 2l-21 1h-9q-5 0-8-3-2-10 5-19 2-3 5-4z"/><path fill="#afafaf" d="m547 804 4 3v1l-2 1h-3l-3 1-23 11-15 9-2 2-2 1-8 5-2 1-9 1-7-5-2-1-4-4c20-16 51-41 78-26"/><path fill="#c7c7c8" d="M240 457h2l8 2 2 1 2 1v51q2 12-6 22-11 8-26 6-5-1-9-5v-3h4c12-1 12-1 23-5q3-8 2-17v-2c1-27 1-27-9-50z"/><path fill="#fbfbfb" d="m382 668 7 5 1 2 10 10 5 5 11 12 6 8q6 5 8 11l-3 2-4-4-3-2-2-2v-2l-2-1-6-4-2-3-2-2-13-11-1-2-5-2q-13 3-24 10l-6 1-4-5-2-2-2-5q2-4 5-5l10-7 2-1 4-4q4-5 12-2"/><path fill="#fafafa" d="m777 484 5 2 1 3h-2l-1 2-7 8-1 2-31 31-5 4-7 6-2 2-2 2-3 2-9 11-14 14-6 6-2 2-3 4h-2l-1 2-5 8-3 3-2 2h-3q4-16 16-28l6-6 4-5 6-6 12-12 2-3 2-2 2-2 5-1 1-3h2l1-3 4-3 7-7 5-6q10-8 18-17l4-3z"/><path fill="#e99057" d="m724 340 14 20 3 5a124 124 0 0 1-30 83q-2-5 1-11a221 221 0 0 0 11-58z"/><path fill="#b0b0b1" d="M565 524h7l4 5 6 11 19 29 2 3 1 4-3 3-5-3-19-7-3-1-22-8q3-5 7-8l3-2 2-2h-9l8-5 3-1 7-1z"/><path fill="#fafafb" d="M939 873q4 2 5 7l2 4 5 13q7 20 18 38l-12 8-2 2-9 5-2 1-2 1-6 1-2-3-8-12-1-4h4q6 0 10-5 8-7 8-18l-4-20-4-12z"/><path fill="#e78f57" d="m527 237 5 7 2 3q4 7 3 16l-1-1c-9-9-19-9-31-9q-8 0-14 5-3 11-2 21l-3-3v-3l-1-2-1-3-1-3-3-19c9-12 35-16 47-9"/><path fill="#f4b370" d="m335 765 14 17 1 2 16 22c7 11 7 11 7 15-24 10-24 10-32 10l2-10q4-28-8-54z"/><path fill="#afafb0" d="m563 857 1 4h-3l-11 2-3 1-33 14c-11 6-11 6-14 6q-6-3-9-10c19-14 48-31 72-17"/><path fill="#14283f" d="M775 281q6 1 9 6 5 11 3 24-4-4-6-12 0-4-4-7h-4l-3 10 5 7q3 5 1 10l-2-3-6-8v6l5 6 3 5q-1 6-6 10-6 6-6 14l4-2 3-2 5-3q-1 8-6 13-5 2-10 1-4-4-4-10 1-10 9-18l1-6-2-1q-4-1-5-6 0-17 10-32z"/><path fill="#aeafaf" d="M507 683c11 5 15 18 20 29l1 3 6 15-3 1h-4l-2 1q-6 0-10 3l-1-3c-4-22-4-22-16-39l-6-3c5-6 7-8 15-7"/><path fill="#f4b26f" d="m781 273 2 1q12 6 17 18v8l-5 5-1 1h-6v-2c-2-10-2-10-7-19q-4-4-9-3l-7 9-1 3-1 3-1 2-2 5q-4-1-6-5-2-9 1-18 2-8 9-11 9-1 17 3"/><path fill="#e1e1e2" d="M452 595q1 6-1 11l-1 2q-6 16-17 30l-2 5h-2v2l-4 6-1 2-2 3-3 4-1 3-7 10q-6 0-11-6l2-3 44-62z"/><path fill="#e4e4e4" d="m186 488 3 1q3 7 2 16v2q-1 16-12 28l-7 4-10-5-1-4 4-5q7-8 10-18l2-4 1-2q2-7 8-13"/><path fill="#fbc997" d="M630 510h2q1 11-5 18-8 6-17 9l-4 2-5 2q-3-2-3-6h-2l-3-5-2-3-1-4 2-1 24-7 3-1z"/><path fill="#b45f61" d="m589 418-1 4 3-1c9-2 21-5 31 0q4 2 4 6l-16 4q-27 4-54-2 5-5 13-8l2-1q9-3 18-2"/><path fill="#afb0b0" d="m975 175 12 7 3 2 3 2 3 1 2 2v3l-4 2-4 2-2 1-10 5-5 2-7-7-8-10-2-4 7-5 2-1 2-1 2-1z"/><path fill="#636465" d="m843 469 3 7 1 3v3l1 2 5 37-7-5-2-1-1-2-2-2-12-13-2-2-1-2q1-4 5-5 7-6 10-16z"/><path fill="#e1e1e2" d="m1117 139 24 18-4 3-4 1-2 1h-10l-5-4-25-20 1-2q14-6 25 3"/><path fill="#e2e2e2" d="m792 501 11 7q-1 4-6 7l-2 2-2 2-2 2-8 4v2l-5 4-3 2-6 3-8 7-3 2-3 3h-7l7-10h2l1-3h3l1-3h2l1-2 5-6 7-8h2l1-2q2-4 7-8l1-1z"/><path fill="#fafbfb" d="M333 699q6 2 11 6 11 10 23 17l12 9-1 2-3-2-20-10-4-1q-5-2-12 1l-2 2-9 5q-2-3-2-7l-1-4c-1-8-1-8 2-12l2-2 2-2z"/><path fill="#e79057" d="m523 450 1 1q13 10 28 10h3l26-2q-1 5-7 7l-6 3q-15 9-31 4-7-1-11-8l-2-3-1-6z"/><path fill="#fad6a5" d="M534 232q18 16 21 40 1 18-8 35h-5v-8c4-20 5-43-6-60l-2-3z"/><path fill="#f8f8f8" d="m623 257-2 2q-5 8-3 17l5 8 1 2h-28q2-14 11-24c11-7 11-7 16-5"/><path fill="#f9f9fa" d="m526 513 4 1q2 7-2 13-5 15-8 32h2l10-1v2l-5 3-14 10q-2-32 13-60"/><path fill="#dedfe0" d="M1085 138q7 3 12 8l3 3 2 1 12 10 5 4-4 8-9-6-3-2-2-2-11-8-2-2-2-1-2-2-5-4z"/><path fill="#d7d9db" d="m537 428 2 1 22 4 3 1h49q-18 9-39 7h-3q-14 0-27-4l-3-1q-3 0-5-4z"/><path fill="#f5f5f5" d="m511 257-1 2q-6 8-4 18l4 6v2l-11 1h-7v-10c0-11 0-11 3-15q7-5 16-4"/><path fill="#dedfe0" d="M1105 224q5 1 9 5l11 8 8 6 2 1 5 4-3 7-14-8-2-2-19-14z"/><path fill="#dcddde" d="M1114 257c13 3 26 16 36 24l-4 8-10-7-4-4-2-1-9-8-2-2-7-5z"/><path fill="#dedfe0" d="M1093 175q6 2 10 6l3 2 2 2 11 8 4 3 3 2-3 7q-6-1-10-6l-11-8-6-5-3-2-4-4z"/><path fill="#dddedf" d="m1088 158 7 5 2 1 3 2 2 1 20 15-3 6-10-5-4-3-2-2-6-4-2-1-4-3q-6-3-6-7z"/><path fill="#adadae" d="m380 804 1 1 10 8c10 7 10 7 12 13l-3 24v3q-3-4-4-10-5-18-15-34z"/><path fill="#dcdddf" d="m1102 207 5 3 2 1 2 2v2l2 1 11 7 3 2 2 2 2 1q3 3 3 7l-2 3-9-5-2-2-3-2-17-13q-3-1-3-5l3-1z"/><path fill="#dddedf" d="M1096 192q15 7 26 17l7 4v2h2l-2 6-3 1-5-3-3-2-4-4-8-6-12-10z"/><path fill="#f8f8f8" d="M649 257q9 2 15 10c6 9 6 9 6 14l-7 2-2 1-12 1 3-7q2-6 1-13l-3-6z"/><path fill="#dcddde" d="m1110 241 13 8 5 4 2 1 15 11-2 5q-5 1-8-3l-2-1-2-2-5-4-3-1-13-9-3-4z"/><path fill="#1b2c41" d="m523 450 1 1q13 10 28 10h3l26-2-10 5-2 1q-17 6-35 1-6-3-10-11z"/><path fill="#dcbb31" d="m296 528 3 1q-8 6-18 7-15 4-28 10c-14 6-14 6-19 6l2-4 5-1q10-2 16-11 6-4 14-3 13 1 25-5"/><path fill="#f8f8f9" d="M302 426q-3 6-10 5-13 2-22 12l-7 17h-1q-2-13 7-24 14-13 33-10"/><path fill="#172a40" d="M587 318q9 1 15 7l1 7q-5 8-15 9l-4-1 2-1 2-2 2-1 4-5q0-8-7-13"/><path fill="#f2d0a2" d="M533 310h8l-6 3q-5 1-8 5-2 10 2 18l-4-1q-5-7-5-16v-3l2-5z"/><path fill="#f5d2a2" d="m524 450 18 6q6 3 13 2h3l4 1h12l-1 2c-13 2-30 4-41-3l-8-7z"/><path fill="#f6f7f8" d="M235 459q0 4-3 6l-3 2q-10 8-18 18l-1-6 5-6 2-1c13-13 13-13 18-13"/><path fill="#185893" d="m650 275 1 3q-6 7-15 6h-2q-6 2-11-3l-2-2 1-2 2 1h12q7 1 14-3"/><path fill="#f0f1f3" d="M639 259h6q4 3 3 7l-1 5-5 1q-3 0-5-4 0-5 2-9"/><path fill="#1c2d41" d="M680 234v3l3 4q4 3 3 5l-11-4-3-2-8-4 9-3h2z"/><path fill="#3d483c" d="m357 509-3 1-34 14-2 1h-8l10-5 16-5 3-2 9-3 3-1z"/><path fill="#eef0f1" d="M522 262q6 1 7 3 1 4-1 8l-4 1-4-3q0-5 2-9"/><path fill="#1b5d9a" d="m530 276 2 1-4 6-8 1h-2q-5 0-8-3l-1-2 1-2 2 1q9 3 17-1z"/><path fill="#f4f5f6" d="m186 488 3 1-4 9-7 9q-2-5 2-11z"/><path fill="#28383c" d="m883 287 2 1v3l-3 1-23 11h-6l2-1 7-4 2-1 17-9z"/><path fill="#1b2c40" d="M574 334h6v4l-9 1-2-1-7-1h-2q7-4 14-3"/><path fill="#25363c" d="M311 525h2l-7 5-2 1-3 1-2 1-8 2 2-4 7-3z"/><path fill="#c8ae35" d="m247 544 3 3-6 3-4 1-6 1 2-4 5-2z"/><path fill="#e7e9ec" d="m535 271 2 1v12h-6l1-3q3-4 3-10"/><path fill="#484a4d" d="m500 382 17 3-2 2q-8 0-15-4z"/><path fill="#23384f" d="m1098 175 10 6-2 3-10-7z"/><path fill="#17558e" d="m530 276 2 1-4 6-7-1q3-5 8-5z"/><path fill="#d4b633" d="m305 523 2 1v3l-9 2z"/><path fill="#162b3c" d="M313 525q-4 4-10 5l3-4z"/><path fill="#598bf0" d="m597 125 10 3-1 2q-5-1-9-5"/><path fill="#4e5052" d="M289 834q5 5 4 6h-2v7h-1z"/><path fill="#efcea2" d="M534 232q4 3 5 8l-4-2z"/><path fill="#424c3b" d="m883 287 2 1v3l-6 2 1-4z"/></svg>