<?xml version="1.0" encoding="UTF-8"?>
<svg version="1.1" xmlns="http://www.w3.org/2000/svg" width="775" height="322">
<path d="M0 0 C78.21 0 156.42 0 237 0 C237 78.21 237 156.42 237 237 C184.53 237 132.06 237 78 237 C78 220.5 78 204 78 187 C81.57972656 186.96261719 85.15945313 186.92523438 88.84765625 186.88671875 C92.36276935 186.84034276 95.87778269 186.7891678 99.39282227 186.73754883 C101.81235555 186.70455007 104.23196118 186.67644258 106.65161133 186.65356445 C130.42343674 186.42277003 154.3629859 184.83343209 173 168 C173.33 167.34 173.66 166.68 174 166 C174.66 166 175.32 166 176 166 C176.26941406 165.43796875 176.53882813 164.8759375 176.81640625 164.296875 C178.07238047 161.8595389 179.48314559 159.57400653 180.9375 157.25 C189.50913069 143.0336369 190.49724936 124.19633618 186.8125 108.125 C185.46866952 103.72875456 183.51213507 99.84276895 181.140625 95.9140625 C179.82002268 93.69798327 178.86189901 91.42898811 178 89 C177.34 89 176.68 89 176 89 C174.64613064 87.34997172 173.31321858 85.6825613 172 84 C171.34 83.67 170.68 83.34 170 83 C170 82.34 170 81.68 170 81 C168.96166016 80.60941406 168.96166016 80.60941406 167.90234375 80.2109375 C164.6741491 78.86404606 161.65366626 77.26171 158.5625 75.625 C125.38219261 58.64677254 79.98400471 66.41230006 47 66 C47 122.43 47 178.86 47 237 C31.49 237 15.98 237 0 237 C0 158.79 0 80.58 0 0 Z " fill="#FEFEFE" transform="translate(533,0)"/>
<path d="M0 0 C78.21 0 156.42 0 237 0 C237 78.21 237 156.42 237 237 C183.87 237 130.74 237 76 237 C76 220.5 76 204 76 187 C81.42566406 186.96132813 81.42566406 186.96132813 86.9609375 186.921875 C90.52579001 186.88328928 94.09050586 186.83818262 97.65527344 186.79248047 C100.10279644 186.76452897 102.55040537 186.74318835 104.99804688 186.72900391 C129.24616251 186.58018159 152.05566297 184.85724905 171 168 C182.63846056 155.7149583 187.38585757 141.465626 187.15234375 124.73046875 C186.23601386 108.30701759 181.20429128 94.10520796 169.05078125 82.65234375 C136.388089 56.33554599 78.79567485 66.42244594 45 66 C45 122.43 45 178.86 45 237 C30.15 237 15.3 237 0 237 C0 158.79 0 80.58 0 0 Z " fill="#FEFEFE" transform="translate(266,0)"/>
<path d="M0 0 C78.21 0 156.42 0 237 0 C237 78.21 237 156.42 237 237 C228.75 237 220.5 237 212 237 C211.28199219 235.39382812 210.56398437 233.78765625 209.82421875 232.1328125 C203.18810402 217.30204346 196.5142388 202.48873191 189.8125 187.6875 C183.50535792 173.75693721 177.21033915 159.82104531 170.9375 145.875 C170.57113434 145.06052399 170.20476868 144.24604797 169.82730103 143.40689087 C167.2175989 137.60486446 164.60873994 131.80245908 162 126 C158.83391821 118.95807022 155.66741178 111.91633167 152.5 104.875 C152.12175079 104.03410828 151.74350159 103.19321655 151.35379028 102.32684326 C145.59991725 89.5371002 139.81750034 76.76096848 134 64 C123.44 63.67 112.88 63.34 102 63 C101.67 64.65 101.34 66.3 101 68 C100.03551723 70.33010955 99.03630719 72.59956659 97.96484375 74.87890625 C97.65486954 75.55026108 97.34489532 76.22161591 97.02552795 76.91331482 C96.35347517 78.36796461 95.67910762 79.82154673 95.00268555 81.27416992 C93.16580725 85.22032171 91.34713853 89.17485433 89.52734375 93.12890625 C89.15032318 93.94718903 88.77330261 94.7654718 88.38485718 95.60855103 C84.50881727 104.03662776 80.74912074 112.51490323 77 121 C71.74930563 132.8721075 66.41773543 144.70320055 61 156.5 C53.48974444 172.85705863 46.16369834 189.29258785 38.88085938 205.75195312 C35.92899689 212.42171124 32.96366537 219.08548027 30 225.75 C28.35 229.4625 26.7 233.175 25 237 C16.75 237 8.5 237 0 237 C0 158.79 0 80.58 0 0 Z " fill="#FEFEFE" transform="translate(2,0)"/>
<path d="M0 0 C6.80625 -0.04125 13.6125 -0.0825 20.625 -0.125 C22.74244629 -0.14320801 24.85989258 -0.16141602 27.04150391 -0.18017578 C59.09758691 -0.34452893 59.09758691 -0.34452893 71.16015625 9.8203125 C78.7276744 17.75736975 80.55117413 26.24039597 80.40698242 36.87597656 C80.03659774 46.64364338 76.5158475 53.78345927 69.5 60.625 C60.18787907 68.50716978 47.78028879 69.15820596 36.1328125 69.09765625 C35.21491943 69.09664917 34.29702637 69.09564209 33.35131836 69.09460449 C29.94253275 69.08939659 26.53376504 69.0754354 23.125 69.0625 C15.49375 69.041875 7.8625 69.02125 0 69 C0 46.23 0 23.46 0 0 Z " fill="#FEFEFF" transform="translate(342,92)"/>
<path d="M0 0 C6.765 -0.061875 13.53 -0.12375 20.5 -0.1875 C22.59923828 -0.21481201 24.69847656 -0.24212402 26.86132812 -0.27026367 C59.5677722 -0.5176962 59.5677722 -0.5176962 71.0546875 9.85546875 C78.88078157 18.24984766 80.3908873 27.13117443 80.2734375 38.359375 C79.66635711 46.44221682 76.80689896 53.34256468 71.17578125 59.21484375 C60.79809522 67.72939045 48.70281868 69.33292643 35.7421875 69.1953125 C34.82832275 69.19329834 33.91445801 69.19128418 32.97290039 69.18920898 C29.60688145 69.17886061 26.24093489 69.15093948 22.875 69.125 C15.32625 69.08375 7.7775 69.0425 0 69 C0 46.23 0 23.46 0 0 Z " fill="#FEFFFF" transform="translate(611,92)"/>
<path d="M0 0 C0.81926971 0.00359528 1.63853943 0.00719055 2.4826355 0.01089478 C3.34109573 0.01074875 4.19955597 0.01060272 5.08403015 0.01045227 C7.93559249 0.0111517 10.78709036 0.01894547 13.63864136 0.02676392 C15.61019353 0.02862799 17.58174615 0.03005194 19.55329895 0.03105164 C24.75324778 0.03487765 29.95316886 0.04470865 35.15310669 0.05575562 C40.45492172 0.06596794 45.75674121 0.07054887 51.05856323 0.07559204 C61.46938274 0.08633084 71.88018162 0.10340826 82.29098511 0.12442017 C83.39990927 2.32033537 84.50638511 4.51742994 85.61154175 6.71524048 C85.92135231 7.3281192 86.23116287 7.94099792 86.55036163 8.57244873 C89.55597744 14.55825609 92.18386505 20.67950539 94.72848511 26.87442017 C95.39654175 28.4715686 95.39654175 28.4715686 96.07809448 30.10098267 C99.29098511 37.8592992 99.29098511 37.8592992 99.29098511 40.12442017 C59.03098511 40.12442017 18.77098511 40.12442017 -22.70901489 40.12442017 C-19.33753731 30.00998743 -19.33753731 30.00998743 -17.33401489 25.71426392 C-16.90604614 24.78678345 -16.47807739 23.85930298 -16.03713989 22.90371704 C-15.37971802 21.49702759 -15.37971802 21.49702759 -14.70901489 20.06192017 C-11.11543543 12.37521183 -11.11543543 12.37521183 -7.95901489 4.50332642 C-6.07750028 -0.58264278 -5.24158299 0.00971316 0 0 Z " fill="#FFFEFE" transform="translate(81.70901489257813,196.87557983398438)"/>
<path d="M0 0 C2.27827779 2.27827779 3.04148356 4.12566614 4.29296875 7.08984375 C4.75123047 8.1677417 5.20949219 9.24563965 5.68164062 10.35620117 C6.42704102 12.12894409 6.42704102 12.12894409 7.1875 13.9375 C7.71105509 15.17250818 8.23515544 16.40728534 8.75976562 17.6418457 C9.89561325 20.31577003 11.02922826 22.99062651 12.16162109 25.66601562 C15.09069817 32.57919841 18.0518512 39.47868113 21.01065063 46.37918091 C21.98228469 48.64616719 22.9525942 50.91371628 23.92260742 53.18139648 C24.5317282 54.60400822 25.14085876 56.02661577 25.75 57.44921875 C26.0375264 58.12210434 26.3250528 58.79498993 26.62129211 59.48826599 C28.1796955 63.12573559 29.78558749 66.73622344 31.4375 70.33203125 C33 74 33 74 33 77 C11.22 77 -10.56 77 -33 77 C-31.79376482 73.38129446 -30.650908 70.0214131 -29.15234375 66.55859375 C-28.79914063 65.73875 -28.4459375 64.91890625 -28.08203125 64.07421875 C-27.70433594 63.20410156 -27.32664062 62.33398438 -26.9375 61.4375 C-26.12363334 59.55080911 -25.3098331 57.66408956 -24.49609375 55.77734375 C-24.08085449 54.81683105 -23.66561523 53.85631836 -23.23779297 52.86669922 C-21.31570681 48.41519318 -19.40838862 43.95739051 -17.5 39.5 C-17.13293945 38.64438477 -16.76587891 37.78876953 -16.38769531 36.90722656 C-14.44223641 32.37235337 -12.50349282 27.83475321 -10.57421875 23.29296875 C-9.97480469 21.8853125 -9.97480469 21.8853125 -9.36328125 20.44921875 C-8.60474039 18.66752975 -7.84808869 16.8850347 -7.09375 15.1015625 C-4.90461878 9.96646288 -2.54454756 4.96901535 0 0 Z " fill="#FEFFFE" transform="translate(120,95)"/>
<path d="M0 0 C1.98 0 3.96 0 6 0 C7.73510742 1.78833008 7.73510742 1.78833008 9.10546875 4.26953125 C9.86827148 5.60274414 9.86827148 5.60274414 10.64648438 6.96289062 C11.40928711 8.37344727 11.40928711 8.37344727 12.1875 9.8125 C13.21900985 11.65439058 14.25403157 13.49431989 15.29296875 15.33203125 C15.7418042 16.15421143 16.19063965 16.9763916 16.65307617 17.82348633 C17.92477694 19.87844596 19.21818458 21.38227765 21 23 C21.59167969 21.92621094 22.18335938 20.85242188 22.79296875 19.74609375 C23.59092473 18.30977298 24.38911434 16.87358198 25.1875 15.4375 C25.57486328 14.73302734 25.96222656 14.02855469 26.36132812 13.30273438 C27.54368174 11.18231508 28.76105197 9.08781144 30 7 C30.39783691 6.3105127 30.79567383 5.62102539 31.20556641 4.91064453 C32.42578125 2.97265625 32.42578125 2.97265625 35 0 C36.98 0 38.96 0 41 0 C41 12.54 41 25.08 41 38 C38.69 38 36.38 38 34 38 C33.67 30.74 33.34 23.48 33 16 C32.0925 17.670625 31.185 19.34125 30.25 21.0625 C27.88239407 25.40498102 25.47429491 29.71756649 23 34 C20.83203125 34.5 20.83203125 34.5 18 34 C15.82210138 31.58028768 14.29579188 28.81906512 12.6875 26 C10.3671875 22.04 10.3671875 22.04 8 18 C7.67 24.6 7.34 31.2 7 38 C4.69 38 2.38 38 0 38 C0 25.46 0 12.92 0 0 Z " fill="#FFFFFF" transform="translate(553,270)"/>
<path d="M0 0 C3.485625 -0.061875 6.97125 -0.12375 10.5625 -0.1875 C12.18973999 -0.22846802 12.18973999 -0.22846802 13.84985352 -0.27026367 C20.50249433 -0.32717615 25.79691342 0.10688954 30.9375 4.75 C32.47226793 8.0000968 32.38000524 10.45328447 32 14 C30.5 16.4375 30.5 16.4375 29 18 C29.639375 18.474375 30.27875 18.94875 30.9375 19.4375 C33.78824 22.97932849 34.2378443 26.49681456 34 31 C33.08840274 33.80813867 32.21285345 34.84390112 29.81713867 36.60083008 C26.48613013 38.2552204 24.30940054 38.34563129 20.60546875 38.29296875 C19.52160889 38.28547607 18.43774902 38.2779834 17.32104492 38.27026367 C15.9569751 38.24295166 14.59290527 38.21563965 13.1875 38.1875 C8.835625 38.125625 4.48375 38.06375 0 38 C0 25.46 0 12.92 0 0 Z M8 6 C8 9.3 8 12.6 8 16 C10.10388569 16.05402274 12.20816714 16.09280256 14.3125 16.125 C15.48425781 16.14820313 16.65601563 16.17140625 17.86328125 16.1953125 C21.16393661 16.25320618 21.16393661 16.25320618 24 14 C23.67 11.69 23.34 9.38 23 7 C18.01354726 5.67027927 13.12222534 5.93170366 8 6 Z M8 22 C8 25.3 8 28.6 8 32 C10.4377963 32.05397335 12.87439685 32.09365616 15.3125 32.125 C16.34793945 32.15013672 16.34793945 32.15013672 17.40429688 32.17578125 C21.17135396 32.21217794 22.78431704 32.14378864 26 30 C26.58350505 27.54290625 26.58350505 27.54290625 26 25 C23.5288676 22.4123626 22.15422021 22.01308429 18.546875 21.70703125 C17.29390625 21.74183594 16.0409375 21.77664063 14.75 21.8125 C13.48671875 21.83957031 12.2234375 21.86664063 10.921875 21.89453125 C9.47554687 21.94673828 9.47554687 21.94673828 8 22 Z " fill="#FFFFFF" transform="translate(612,270)"/>
<path d="M0 0 C6 0 6 0 8.7109375 2.4921875 C9.61737727 3.60503928 10.50464794 4.73370273 11.375 5.875 C11.84397705 6.45983154 12.3129541 7.04466309 12.79614258 7.6472168 C13.75134311 8.84207104 14.69874736 10.0432003 15.63818359 11.25048828 C17.62121702 13.7980712 19.65893618 16.30111638 21.6875 18.8125 C23.3271875 20.8853125 23.3271875 20.8853125 25 23 C25.33 15.41 25.66 7.82 26 0 C28.64 0 31.28 0 34 0 C34 12.54 34 25.08 34 38 C26 38 26 38 24.16137695 36.81005859 C23.77425537 36.26172363 23.38713379 35.71338867 22.98828125 35.1484375 C22.31635742 34.24158203 22.31635742 34.24158203 21.63085938 33.31640625 C21.19580078 32.67574219 20.76074219 32.03507812 20.3125 31.375 C19.41352402 30.13225976 18.51378984 28.89006763 17.61328125 27.6484375 C17.1848291 27.03838867 16.75637695 26.42833984 16.31494141 25.79980469 C15.00743511 24.01017669 13.61665224 22.34052001 12.16796875 20.6640625 C10 18 10 18 10 16 C9.34 16 8.68 16 8 16 C7.67 23.26 7.34 30.52 7 38 C4.69 38 2.38 38 0 38 C0 25.46 0 12.92 0 0 Z " fill="#FFFFFE" transform="translate(687,270)"/>
<path d="M0 0 C2.31 0 4.62 0 7 0 C7 5.28 7 10.56 7 16 C13.27 16 19.54 16 26 16 C26 10.72 26 5.44 26 0 C28.64 0 31.28 0 34 0 C34 12.54 34 25.08 34 38 C31.36 38 28.72 38 26 38 C26 32.72 26 27.44 26 22 C19.73 22 13.46 22 7 22 C7 27.28 7 32.56 7 38 C4.69 38 2.38 38 0 38 C0 25.46 0 12.92 0 0 Z " fill="#FFFEFF" transform="translate(205,270)"/>
<path d="M0 0 C3.135 -0.061875 6.27 -0.12375 9.5 -0.1875 C10.95696289 -0.22846802 10.95696289 -0.22846802 12.44335938 -0.27026367 C18.34160649 -0.32605466 22.64582918 0.47828115 28 3 C31.42046489 6.50597651 32.26023332 9.29757172 32.4375 14.0625 C32.24761594 18.14194466 31.83035044 20.88661452 29 24 C22.0588249 28.2250631 15.90758492 28.10543447 8 28 C8 31.3 8 34.6 8 38 C5.36 38 2.72 38 0 38 C0 25.46 0 12.92 0 0 Z M8 7 C8 11.62 8 16.24 8 21 C16.09837597 21.73418712 16.09837597 21.73418712 23.3125 18.875 C25.26364613 16.10643492 25.26364613 16.10643492 25 12.875 C23.9592643 9.88288485 23.52983928 8.8161583 21 7 C16.63769798 6.59256208 12.39034742 6.86959364 8 7 Z " fill="#FFFFFF" transform="translate(414,270)"/>
<path d="M0 0 C1.0725 0.66 2.145 1.32 3.25 2 C3.25 3.32 3.25 4.64 3.25 6 C1.25 7.75 1.25 7.75 -0.75 9 C-1.29914062 8.5153125 -1.84828125 8.030625 -2.4140625 7.53125 C-6.5278728 4.83457167 -11.01301332 5.25385615 -15.75 6 C-19.42003939 7.85635714 -21.43093126 10.04279377 -22.75 14 C-23.15109454 18.25160217 -23.01378256 20.5006973 -21 24.3125 C-18.37508574 27.44781426 -16.55468677 28.81829945 -12.4609375 29.23046875 C-11.30464844 29.20919922 -11.30464844 29.20919922 -10.125 29.1875 C-8.96097656 29.17783203 -8.96097656 29.17783203 -7.7734375 29.16796875 C-5.6812732 29.12050633 -5.6812732 29.12050633 -3.75 28 C-3.2816735 25.41394668 -3.2816735 25.41394668 -3.125 22.4375 C-3.05023437 21.42558594 -2.97546875 20.41367187 -2.8984375 19.37109375 C-2.84945312 18.58863281 -2.80046875 17.80617188 -2.75 17 C-0.44 17 1.87 17 4.25 17 C4.41249454 19.41936317 4.53097817 21.82781859 4.625 24.25 C4.67527344 24.93191406 4.72554687 25.61382812 4.77734375 26.31640625 C4.8359375 28.328125 4.8359375 28.328125 4.25 32 C-1.23028257 36.78559887 -6.22550552 37.30102346 -13.21875 37.21875 C-18.9000012 36.72777767 -23.83588839 34.12568521 -27.75 30 C-31.04203622 24.30425479 -32.5194389 18.93305088 -31.48046875 12.390625 C-29.74753373 6.7192013 -26.194412 2.52683055 -21.125 -0.5 C-14.35235764 -3.40626798 -6.58060289 -3.26696597 0 0 Z " fill="#FEFFFF" transform="translate(766.75,272)"/>
<path d="M0 0 C9.24 0 18.48 0 28 0 C28 2.31 28 4.62 28 7 C21.07 7 14.14 7 7 7 C7 9.97 7 12.94 7 16 C12.94 16 18.88 16 25 16 C25 17.98 25 19.96 25 22 C19.06 22 13.12 22 7 22 C7 25.3 7 28.6 7 32 C14.26 32 21.52 32 29 32 C29 33.98 29 35.96 29 38 C19.43 38 9.86 38 0 38 C0 25.46 0 12.92 0 0 Z " fill="#FEFFFF" transform="translate(347,270)"/>
<path d="M0 0 C2.05078125 0.03255208 4.1015625 0.06510417 6.15234375 0.09765625 C8.43570962 5.1858881 10.71424573 10.27624371 12.98828125 15.36865234 C13.76298906 17.10167111 14.53902659 18.83409607 15.31640625 20.56591797 C16.43186782 23.05151921 17.54257103 25.53919833 18.65234375 28.02734375 C19.00232422 28.80447723 19.35230469 29.58161072 19.71289062 30.3822937 C22.15234375 35.86991284 22.15234375 35.86991284 22.15234375 38.09765625 C19.51234375 38.09765625 16.87234375 38.09765625 14.15234375 38.09765625 C11.15234375 32.34765625 11.15234375 32.34765625 11.15234375 30.09765625 C4.88234375 30.09765625 -1.38765625 30.09765625 -7.84765625 30.09765625 C-8.34265625 32.57265625 -8.34265625 32.57265625 -8.84765625 35.09765625 C-9.50765625 36.08765625 -10.16765625 37.07765625 -10.84765625 38.09765625 C-12.79296875 38.390625 -12.79296875 38.390625 -14.97265625 38.28515625 C-16.25140625 38.22328125 -17.53015625 38.16140625 -18.84765625 38.09765625 C-14.5359416 28.00509372 -10.22159215 17.91344398 -5.84765625 7.84765625 C-5.41247681 6.83928711 -5.41247681 6.83928711 -4.96850586 5.81054688 C-2.49186676 0.13170543 -2.49186676 0.13170543 0 0 Z M1.15234375 10.09765625 C0.15005007 12.24244541 -0.8495848 14.38840347 -1.84765625 16.53515625 C-2.40453125 17.73011719 -2.96140625 18.92507813 -3.53515625 20.15625 C-4.91557097 22.71303278 -4.91557097 22.71303278 -4.84765625 24.09765625 C-0.55765625 24.09765625 3.73234375 24.09765625 8.15234375 24.09765625 C5.90252482 16.75428538 5.90252482 16.75428538 2.15234375 10.09765625 C1.82234375 10.09765625 1.49234375 10.09765625 1.15234375 10.09765625 Z " fill="#FFFEFF" transform="translate(269.84765625,269.90234375)"/>
<path d="M0 0 C23.65714286 0 23.65714286 0 29.4375 5.1875 C32.29516845 10.33130322 32.49749679 14.24412898 30.9375 19.75 C28.22931279 24.29276564 25.34535177 26.36035861 20.25 27.75 C15.81854197 28.09088139 11.44460395 28.06006222 7 28 C7 31.3 7 34.6 7 38 C4.69 38 2.38 38 0 38 C0 25.46 0 12.92 0 0 Z M7 7 C7 11.62 7 16.24 7 21 C15.09837597 21.73418712 15.09837597 21.73418712 22.3125 18.875 C24.26364613 16.10643492 24.26364613 16.10643492 24 12.875 C22.9592643 9.88288485 22.52983928 8.8161583 20 7 C15.63769798 6.59256208 11.39034742 6.86959364 7 7 Z " fill="#FFFEFF" transform="translate(158,270)"/>
<path d="M0 0 C2.31 0 4.62 0 7 0 C7.01458252 0.73114014 7.02916504 1.46228027 7.04418945 2.21557617 C7.1188291 5.54007371 7.21543801 8.86358467 7.3125 12.1875 C7.33505859 13.33798828 7.35761719 14.48847656 7.38085938 15.67382812 C7.41630859 16.78564453 7.45175781 17.89746094 7.48828125 19.04296875 C7.51446533 20.06414795 7.54064941 21.08532715 7.56762695 22.13745117 C8.06162705 25.40800518 9.06411054 27.3384116 11 30 C14.09173752 31.54586876 16.59429552 31.29359521 20 31 C22.89093125 28.85211936 23.88118135 27.63830483 24.54589844 24.06738281 C24.57731934 22.4020752 24.57731934 22.4020752 24.609375 20.703125 C24.64160156 19.49785156 24.67382812 18.29257812 24.70703125 17.05078125 C24.72121094 15.79652344 24.73539063 14.54226563 24.75 13.25 C24.79447266 11.34541016 24.79447266 11.34541016 24.83984375 9.40234375 C24.91053951 6.26816515 24.96324012 3.13473044 25 0 C27.64 0 30.28 0 33 0 C33.08755672 4.35403865 33.14057969 8.70784877 33.1875 13.0625 C33.21263672 14.29162109 33.23777344 15.52074219 33.26367188 16.78710938 C33.31631874 23.29777171 33.23999169 28.27686507 30 34 C29.34 34 28.68 34 28 34 C28 34.66 28 35.32 28 36 C22.27933198 38.98469636 17.43586561 39.78719678 11 39 C6.77149226 37.43388602 3.90746456 35.44588393 1 32 C-0.13917218 28.58248347 -0.11338481 25.96512063 -0.09765625 22.36328125 C-0.09443359 21.06455078 -0.09121094 19.76582031 -0.08789062 18.42773438 C-0.07953531 17.05598892 -0.07107037 15.68424413 -0.0625 14.3125 C-0.05748335 12.92903805 -0.05292073 11.54557437 -0.04882812 10.16210938 C-0.03702529 6.77469605 -0.02056019 3.38736967 0 0 Z " fill="#FFFFFF" transform="translate(502,270)"/>
<path d="M0 0 C1.134375 0.020625 2.26875 0.04125 3.4375 0.0625 C7.80885285 8.5446615 11.90855687 17.13387148 15.875 25.8125 C16.32407715 26.78912598 16.7731543 27.76575195 17.23583984 28.77197266 C17.65172363 29.68769043 18.06760742 30.6034082 18.49609375 31.546875 C18.87048584 32.36897461 19.24487793 33.19107422 19.63061523 34.03808594 C20.4375 36.0625 20.4375 36.0625 20.4375 38.0625 C17.7975 38.0625 15.1575 38.0625 12.4375 38.0625 C9.4375 32.3125 9.4375 32.3125 9.4375 30.0625 C3.1675 30.3925 -3.1025 30.7225 -9.5625 31.0625 C-10.5525 33.3725 -11.5425 35.6825 -12.5625 38.0625 C-15.2025 38.0625 -17.8425 38.0625 -20.5625 38.0625 C-19.1198122 33.47068629 -17.32925791 29.1063724 -15.33984375 24.73046875 C-15.03430069 24.05325272 -14.72875763 23.37603668 -14.41395569 22.67829895 C-13.77243252 21.25827611 -13.12946094 19.8389068 -12.48510742 18.42016602 C-11.49585655 16.24087209 -10.51227176 14.05908392 -9.52929688 11.87695312 C-8.90397917 10.49464083 -8.27833965 9.11247405 -7.65234375 7.73046875 C-7.35754623 7.0763652 -7.06274872 6.42226166 -6.75901794 5.74833679 C-4.17484077 0.07324282 -4.17484077 0.07324282 0 0 Z M-0.5625 9.0625 C-3.19615987 13.9846313 -5.20725824 18.64153298 -6.5625 24.0625 C-2.2725 24.0625 2.0175 24.0625 6.4375 24.0625 C4.4575 19.1125 2.4775 14.1625 0.4375 9.0625 C0.1075 9.0625 -0.2225 9.0625 -0.5625 9.0625 Z " fill="#FFFEFF" transform="translate(20.5625,269.9375)"/>
<path d="M0 0 C1.19367188 -0.01675781 2.38734375 -0.03351563 3.6171875 -0.05078125 C7.41079715 0.34209815 9.8475402 1.41317696 13.125 3.3125 C12.465 5.2925 11.805 7.2725 11.125 9.3125 C9.990625 8.961875 8.85625 8.61125 7.6875 8.25 C2.98617438 7.04733531 -1.1400555 7.50142154 -5.875 8.3125 C-6.205 9.6325 -6.535 10.9525 -6.875 12.3125 C-3.6666389 14.55835277 -0.60657039 15.75986298 3.125 16.8125 C6.84847133 17.87238528 9.97715343 18.97700093 13.125 21.3125 C14.86508654 24.79267308 14.70964868 28.51556815 14.125 32.3125 C11.26791147 36.14916174 8.5871444 37.80759416 4.125 39.3125 C-3.42698432 40.29654644 -9.26101679 38.9706043 -15.875 35.3125 C-15.125 30.5625 -15.125 30.5625 -12.875 28.3125 C-12.029375 28.786875 -11.18375 29.26125 -10.3125 29.75 C-5.39632717 31.98462401 -1.69933399 32.81004563 3.5625 31.375 C4.408125 31.024375 5.25375 30.67375 6.125 30.3125 C6.125 28.9925 6.125 27.6725 6.125 26.3125 C4.94421875 25.92578125 3.7634375 25.5390625 2.546875 25.140625 C0.98937414 24.61520302 -0.56790613 24.08912687 -2.125 23.5625 C-2.90230469 23.30984375 -3.67960937 23.0571875 -4.48046875 22.796875 C-8.77039641 21.33023307 -12.13973028 20.13467953 -14.875 16.3125 C-15.95048846 11.89192612 -15.4361407 8.25441474 -13.125 4.375 C-8.88777916 0.4908809 -5.73774761 0.01850886 0 0 Z " fill="#FFFFFF" transform="translate(317.875,269.6875)"/>
<path d="M0 0 C2.31 0 4.62 0 7 0 C7 10.56 7 21.12 7 32 C13.6 32 20.2 32 27 32 C27 33.98 27 35.96 27 38 C18.09 38 9.18 38 0 38 C0 25.46 0 12.92 0 0 Z " fill="#FFFFFF" transform="translate(462,270)"/>
<path d="M0 0 C2.31 0 4.62 0 7 0 C7 10.56 7 21.12 7 32 C13.6 32 20.2 32 27 32 C27 33.98 27 35.96 27 38 C18.09 38 9.18 38 0 38 C0 25.46 0 12.92 0 0 Z " fill="#FFFFFF" transform="translate(94,270)"/>
<path d="M0 0 C2.31 0 4.62 0 7 0 C7 10.56 7 21.12 7 32 C13.6 32 20.2 32 27 32 C27 33.98 27 35.96 27 38 C18.09 38 9.18 38 0 38 C0 25.46 0 12.92 0 0 Z " fill="#FFFFFF" transform="translate(54,270)"/>
<path d="M0 0 C2.64 0 5.28 0 8 0 C8 12.54 8 25.08 8 38 C5.36 38 2.72 38 0 38 C0 25.46 0 12.92 0 0 Z " fill="#FFFFFE" transform="translate(661,270)"/>
</svg>
