<svg xmlns="http://www.w3.org/2000/svg" width="775" height="322"><path fill="#fefefe" d="M533 0h237v237H611v-50l10.85-.11 10.54-.15 7.26-.09c23.77-.23 47.71-1.82 66.35-18.65l1-2h2l.82-1.7a97 97 0 0 1 4.12-7.05c8.57-14.22 9.56-33.05 5.87-49.12a54 54 0 0 0-5.67-12.22A38 38 0 0 1 711 89h-2a263 263 0 0 1-4-5l-2-1v-2l-2.1-.79c-3.23-1.35-6.25-2.95-9.34-4.58C658.38 58.65 612.98 66.4 580 66v171h-47zM266 0h237v237H342v-50l10.96-.08 10.7-.13q3.66-.05 7.34-.06c24.25-.15 47.06-1.87 66-18.73 11.64-12.29 16.39-26.53 16.15-43.27-.91-16.42-5.95-30.62-18.1-42.08C402.4 56.34 344.8 66.42 311 66v171h-45zM2 0h237v237h-25l-2.18-4.87a11005 11005 0 0 0-20-44.44q-9.47-20.9-18.88-41.81l-1.11-2.47-17.33-38.53-1.15-2.55A8449 8449 0 0 0 136 64l-32-1-1 5q-1.43 3.48-3.04 6.88l-.93 2.03L97 81.27l-5.47 11.86-1.15 2.48A1855 1855 0 0 0 79 121a2758 2758 0 0 1-16 35.5 3897 3897 0 0 0-22.12 49.25l-8.88 20L27 237H2z"/><path fill="#fefeff" d="m342 92 20.63-.12 6.41-.06c32.06-.16 32.06-.16 44.12 10 7.57 7.94 9.4 16.42 9.25 27.06-.37 9.76-3.9 16.9-10.91 23.75-9.31 7.88-21.72 8.53-33.37 8.47h-2.78l-10.23-.04L342 161z"/><path fill="#feffff" d="m611 92 20.5-.19 6.36-.08c32.7-.25 32.7-.25 44.2 10.13 7.82 8.39 9.33 17.27 9.21 28.5-.6 8.08-3.46 14.98-9.1 20.85-10.37 8.52-22.47 10.12-35.43 9.99l-2.77-.01-10.1-.06L611 161z"/><path fill="#fffefe" d="M81.7 196.88h2.5l17.06.03 15.6.02 15.9.02L164 197l3.32 6.6.94 1.85c3 5.98 5.63 12.1 8.18 18.3l1.35 3.23C181 234.73 181 234.73 181 237H59c3.37-10.11 3.37-10.11 5.38-14.41l1.3-2.81 1.32-2.84c3.6-7.69 3.6-7.69 6.75-15.56 1.88-5.09 2.72-4.5 7.96-4.5"/><path fill="#fefffe" d="M120 95c2.28 2.28 3.04 4.13 4.3 7.09l1.38 3.27 1.5 3.58 4.98 11.73q4.41 10.35 8.85 20.7l4.74 11.08.87 2.04q2.34 5.46 4.82 10.84C153 169 153 169 153 172H87a123 123 0 0 1 3.85-10.44l1.07-2.49 1.14-2.63 2.44-5.66 1.26-2.91 5.74-13.37 1.11-2.6 5.82-13.6 1.2-2.85q1.15-2.67 2.28-5.35A237 237 0 0 1 120 95"/><path fill="#fff" d="M553 270h6c1.74 1.79 1.74 1.79 3.1 4.27l1.55 2.7 1.54 2.84 3.1 5.52 1.36 2.5A23 23 0 0 0 574 293l1.8-3.25 2.39-4.31 1.17-2.14q1.77-3.17 3.64-6.3l1.2-2.09c1.23-1.94 1.23-1.94 3.8-4.91h6v38h-7l-1-22-2.75 5.06A599 599 0 0 1 576 304c-2.17.5-2.17.5-5 0-2.18-2.42-3.7-5.18-5.31-8l-4.69-8-1 20h-7zm59 0 10.56-.19 3.29-.08c6.65-.06 11.95.38 17.09 5.02 1.53 3.25 1.44 5.7 1.06 9.25-1.5 2.44-1.5 2.44-3 4l1.94 1.44c2.85 3.54 3.3 7.06 3.06 11.56-.91 2.8-1.79 3.84-4.18 5.6-3.33 1.66-5.51 1.75-9.21 1.7l-3.29-.03-4.13-.08L612 308zm8 6v10q3.15.08 6.31.13l3.55.07c3.3.05 3.3.05 6.14-2.2l-1-7c-4.99-1.33-9.88-1.07-15-1m0 16v10q3.66.08 7.31.13l2.1.05c3.76.03 5.37-.04 8.59-2.18.58-2.46.58-2.46 0-5-2.47-2.59-3.85-2.99-7.45-3.3l-3.8.11-3.83.08z"/><path fill="#fffffe" d="M687 270c6 0 6 0 8.71 2.5q1.36 1.65 2.66 3.38l1.43 1.77 2.84 3.6q2.99 3.81 6.05 7.56L712 293l1-23h8v38c-8 0-8 0-9.84-1.19l-1.17-1.66-1.36-1.83-1.32-1.94-2.7-3.73-1.3-1.85a80 80 0 0 0-4.14-5.14C697 288 697 288 697 286h-2l-1 22h-7z"/><path fill="#fffeff" d="M205 270h7v16h19v-16h8v38h-8v-16h-19v16h-7z"/><path fill="#fff" d="m414 270 9.5-.19 2.94-.08c5.9-.06 10.2.75 15.56 3.27 3.42 3.5 4.26 6.3 4.44 11.06-.2 4.08-.61 6.83-3.44 9.94-6.94 4.23-13.1 4.1-21 4v10h-8zm8 7v14c8.1.73 8.1.73 15.31-2.12 1.95-2.77 1.95-2.77 1.69-6-1.04-3-1.47-4.06-4-5.88-4.36-.4-8.61-.13-13 0"/><path fill="#feffff" d="m766.75 272 3.25 2v4c-2 1.75-2 1.75-4 3l-1.66-1.47c-4.12-2.7-8.6-2.28-13.34-1.53-3.67 1.86-5.68 4.04-7 8-.4 4.25-.26 6.5 1.75 10.31 2.62 3.14 4.45 4.5 8.54 4.92l2.34-.04 2.35-.02c2.09-.05 2.09-.05 4.02-1.17.47-2.59.47-2.59.63-5.56l.22-3.07.15-2.37h7q.24 3.63.38 7.25l.15 2.07c.06 2 .06 2-.53 5.68-5.48 4.79-10.48 5.3-17.47 5.22A22.5 22.5 0 0 1 739 302c-3.3-5.7-4.77-11.07-3.73-17.6 1.73-5.68 5.29-9.87 10.36-12.9a25.3 25.3 0 0 1 21.12.5M347 270h28v7h-21v9h18v6h-18v10h22v6h-29z"/><path fill="#fffeff" d="m269.85 269.9 6.15.1a9128 9128 0 0 1 12.5 27.93l1.06 2.35c2.44 5.5 2.44 5.5 2.44 7.72h-8c-3-5.75-3-5.75-3-8h-19l-1 5-2 3c-1.95.3-1.95.3-4.12.19L251 308q6.46-15.15 13-30.25l.88-2.04c2.48-5.68 2.48-5.68 4.97-5.8M271 280l-3 6.44-1.69 3.62c-1.38 2.56-1.38 2.56-1.31 3.94h13c-2.25-7.34-2.25-7.34-6-14zm-113-10c23.66 0 23.66 0 29.44 5.19 2.86 5.14 3.06 9.05 1.5 14.56-2.71 4.54-5.6 6.61-10.69 8-4.43.34-8.8.31-13.25.25v10h-7zm7 7v14c8.1.73 8.1.73 15.31-2.12 1.95-2.77 1.95-2.77 1.69-6-1.04-3-1.47-4.06-4-5.88-4.36-.4-8.61-.13-13 0"/><path fill="#fff" d="M502 270h7l.04 2.22.27 9.97.07 3.48.1 3.37.09 3.1c.5 3.27 1.5 5.2 3.43 7.86 3.1 1.55 5.6 1.3 9 1 2.9-2.15 3.88-3.36 4.55-6.93l.06-3.37.1-3.65.04-3.8.09-3.85q.1-4.7.16-9.4h8q.13 6.52.19 13.06l.07 3.73c.06 6.5-.02 11.49-3.26 17.21h-2v2c-5.72 2.98-10.56 3.79-17 3a22 22 0 0 1-10-7c-1.14-3.42-1.11-6.03-1.1-9.64l.01-3.93.04-8.27z"/><path fill="#fffeff" d="M20.56 269.94 24 270a606 606 0 0 1 12.44 25.75l1.36 2.96 2.4 5.27C41 306 41 306 41 308h-8c-3-5.75-3-5.75-3-8l-19 1-3 7H0c1.44-4.6 3.23-8.96 5.22-13.33l.93-2.05 1.93-4.26 4.83-10.7.9-1.97c2.58-5.68 2.58-5.68 6.75-5.75M20 279a64 64 0 0 0-6 15h13l-6-15z"/><path fill="#fff" d="m317.88 269.69 3.61-.05c3.8.39 6.23 1.46 9.51 3.36l-2 6-3.44-1.06c-4.7-1.2-8.83-.75-13.56.06l-1 4c3.2 2.25 6.27 3.45 10 4.5 3.72 1.06 6.85 2.16 10 4.5 1.74 3.48 1.58 7.2 1 11-2.86 3.84-5.54 5.5-10 7-7.55.98-13.39-.34-20-4 .75-4.75.75-4.75 3-7l2.56 1.44c4.92 2.23 8.62 3.06 13.88 1.62L324 300v-4l-3.58-1.17-4.67-1.58-2.36-.77c-4.29-1.46-7.65-2.66-10.39-6.48a14.8 14.8 0 0 1 1.75-11.94c4.24-3.88 7.39-4.35 13.13-4.37M462 270h7v32h20v6h-27zm-368 0h7v32h20v6H94zm-40 0h7v32h20v6H54z"/><path fill="#fffffe" d="M661 270h8v38h-8z"/></svg>