<?xml version="1.0" encoding="UTF-8"?>
<svg version="1.1" xmlns="http://www.w3.org/2000/svg" width="930" height="601">
<path d="M0 0 C306.9 0 613.8 0 930 0 C930 198.33 930 396.66 930 601 C623.1 601 316.2 601 0 601 C0 402.67 0 204.34 0 0 Z " fill="#1E3A8A" transform="translate(0,0)"/>
<path d="M0 0 C236.61 0 473.22 0 717 0 C717 108.9 717 217.8 717 330 C480.39 330 243.78 330 0 330 C0 221.1 0 112.2 0 0 Z " fill="#FEFEFE" transform="translate(108,60)"/>
<path d="M0 0 C236.61 0 473.22 0 717 0 C717 108.9 717 217.8 717 330 C480.39 330 243.78 330 0 330 C0 221.1 0 112.2 0 0 Z M12 12 C12 112.98 12 213.96 12 318 C240.69 318 469.38 318 705 318 C705 217.02 705 116.04 705 12 C476.31 12 247.62 12 12 12 Z " fill="#A8C4FB" transform="translate(108,60)"/>
<path d="M0 0 C8.65523491 6.01103601 14.1624415 13.83260311 17.68359375 23.6796875 C18.27527344 25.32517578 18.27527344 25.32517578 18.87890625 27.00390625 C24.67238405 46.71388493 24.11167833 72.22682827 17.68359375 91.6796875 C17.32136719 92.79730469 16.95914063 93.91492188 16.5859375 95.06640625 C12.40483769 106.36246236 5.6007193 114.55203368 -5.31640625 119.60546875 C-9.88492508 121.48819819 -14.3847532 122.38705887 -19.31640625 122.6796875 C-20.18910156 122.74414062 -21.06179688 122.80859375 -21.9609375 122.875 C-32.49712413 123.29814003 -44.42649539 121.48793968 -52.6171875 114.36328125 C-53.17792969 113.80769531 -53.73867188 113.25210938 -54.31640625 112.6796875 C-54.92871094 112.09316406 -55.54101562 111.50664062 -56.171875 110.90234375 C-70.97722202 95.46563865 -71.93861656 71.64174052 -71.62109375 51.53515625 C-71.06561121 34.97856293 -67.50289352 17.0893458 -55.87890625 4.4921875 C-41.21897028 -8.26429437 -16.75270485 -9.54875926 0 0 Z " fill="#203C8B" transform="translate(449.31640625,144.3203125)"/>
<path d="M0 0 C16.74861628 2.09357703 28.80241855 5.44271224 40 18 C49.07997195 29.90026627 52.09308606 42.15866258 51 57 C48.33826362 70.44557122 41.70254443 81.42359862 31 90 C21.01734703 96.45833739 11.78835178 99 0 99 C0 66.33 0 33.66 0 0 Z " fill="#FFFFFF" transform="translate(0,399)"/>
<path d="M0 0 C16.74861628 2.09357703 28.80241855 5.44271224 40 18 C49.07997195 29.90026627 52.09308606 42.15866258 51 57 C48.33826362 70.44557122 41.70254443 81.42359862 31 90 C21.01734703 96.45833739 11.78835178 99 0 99 C0 66.33 0 33.66 0 0 Z " fill="#FFFFFF" transform="translate(0,249)"/>
<path d="M0 0 C16.74861628 2.09357703 28.80241855 5.44271224 40 18 C49.07997195 29.90026627 52.09308606 42.15866258 51 57 C48.33826362 70.44557122 41.70254443 81.42359862 31 90 C21.01734703 96.45833739 11.78835178 99 0 99 C0 66.33 0 33.66 0 0 Z " fill="#FFFFFF" transform="translate(0,99)"/>
<path d="M0 0 C0 32.67 0 65.34 0 99 C-14.57715565 99 -26.13164075 94.43571941 -36.7421875 84.390625 C-46.02724352 74.55938922 -50.87741602 62.50136109 -51.03515625 48.98828125 C-50.42653065 37.63221825 -46.86852667 28.01381453 -40 19 C-39.2575 17.96875 -38.515 16.9375 -37.75 15.875 C-27.79169472 5.46404448 -14.39548686 0 0 0 Z " fill="#FFFFFF" transform="translate(930,399)"/>
<path d="M0 0 C0 32.67 0 65.34 0 99 C-14.57715565 99 -26.13164075 94.43571941 -36.7421875 84.390625 C-46.02724352 74.55938922 -50.87741602 62.50136109 -51.03515625 48.98828125 C-50.42653065 37.63221825 -46.86852667 28.01381453 -40 19 C-39.2575 17.96875 -38.515 16.9375 -37.75 15.875 C-27.79169472 5.46404448 -14.39548686 0 0 0 Z " fill="#FFFFFF" transform="translate(930,249)"/>
<path d="M0 0 C0 32.67 0 65.34 0 99 C-14.57715565 99 -26.13164075 94.43571941 -36.7421875 84.390625 C-46.02724352 74.55938922 -50.87741602 62.50136109 -51.03515625 48.98828125 C-50.42653065 37.63221825 -46.86852667 28.01381453 -40 19 C-39.2575 17.96875 -38.515 16.9375 -37.75 15.875 C-27.79169472 5.46404448 -14.39548686 0 0 0 Z " fill="#FFFFFF" transform="translate(930,99)"/>
<path d="M0 0 C200.97 0 401.94 0 609 0 C609 1.98 609 3.96 609 6 C408.03 6 207.06 6 0 6 C0 4.02 0 2.04 0 0 Z " fill="#A8C4FB" transform="translate(159,432)"/>
<path d="M0 0 C13.53 0 27.06 0 41 0 C41 41.58 41 83.16 41 126 C32.75 126 24.5 126 16 126 C16 92.01 16 58.02 16 23 C10.72 23 5.44 23 0 23 C0 15.41 0 7.82 0 0 Z " fill="#213C8B" transform="translate(313,141)"/>
<path d="M0 0 C5.90958856 3.47551622 9.37932258 8.68755484 11.3359375 15.18359375 C13.1753727 22.31029149 13.10332783 29.36876133 13.02368164 36.67919922 C13.00003957 38.99612255 13.00314839 41.31189215 13.00976562 43.62890625 C12.96762697 66.37115565 12.96762697 66.37115565 6.6875 75.5 C1.46355214 80.46275047 -2.50138429 81.80328228 -9.6875 81.875 C-10.97398437 81.90335937 -12.26046875 81.93171875 -13.5859375 81.9609375 C-19.17273585 81.26990793 -22.14736898 78.69222709 -26 74.75 C-31.45151347 67.0884135 -32.45940248 58.90639279 -32.515625 49.64453125 C-32.52132507 48.90224777 -32.52702515 48.15996429 -32.53289795 47.39518738 C-32.54230306 45.82947189 -32.54886397 44.263737 -32.55273438 42.69799805 C-32.56240088 40.33671303 -32.59344992 37.97631426 -32.625 35.61523438 C-32.71096821 23.490198 -31.9062998 11.91411705 -23.3125 2.5 C-16.77701746 -2.80291346 -7.6207579 -3.26395749 0 0 Z " fill="#FCFDFD" transform="translate(434.3125,162.5)"/>
<path d="M0 0 C2.08818136 0.06608169 4.17524757 0.18485472 6.2578125 0.3515625 C7.32773437 0.39667969 8.39765625 0.44179687 9.5 0.48828125 C12.13338377 0.60584303 14.7551831 0.76973771 17.3828125 0.9765625 C16.13845201 5.00720043 14.66215687 8.55602292 12.58203125 12.22265625 C12.02386719 13.21265625 11.46570313 14.20265625 10.890625 15.22265625 C10.28992188 16.27582031 9.68921875 17.32898438 9.0703125 18.4140625 C8.44511719 19.52007812 7.81992187 20.62609375 7.17578125 21.765625 C5.24933245 25.17186613 3.31623521 28.57427629 1.3828125 31.9765625 C-0.2580242 34.87611037 -1.89693127 37.77674191 -3.53564453 40.67749023 C-4.59719503 42.55626091 -5.65937801 44.43467433 -6.72216797 46.31274414 C-10.68435505 53.31563772 -14.62474355 60.33052867 -18.5546875 67.3515625 C-19.1331543 68.38474609 -19.71162109 69.41792969 -20.30761719 70.48242188 C-23.90304637 76.90668124 -27.49269811 83.33411015 -31.0703125 89.76831055 C-32.25773347 91.88840551 -33.45678043 94.00203534 -34.66796875 96.10864258 C-37.34235823 100.77203461 -39.84899971 105.35527608 -41.91015625 110.32421875 C-45.91296535 119.43585231 -45.91296535 119.43585231 -49.6171875 121.9765625 C-57.12709531 123.93268262 -65.0183868 123.02640931 -72.6171875 121.9765625 C-71.36974467 117.89168166 -69.86910363 114.39904156 -67.67578125 110.73828125 C-67.09658936 109.76181641 -66.51739746 108.78535156 -65.9206543 107.77929688 C-64.99700073 106.23725586 -64.99700073 106.23725586 -64.0546875 104.6640625 C-59.82115176 97.50866919 -55.64276399 90.3527701 -51.8046875 82.9765625 C-47.98759482 75.6470848 -43.99151022 68.43747732 -39.90966797 61.25244141 C-37.4103008 56.85140235 -34.92080963 52.44477184 -32.4296875 48.0390625 C-31.88594482 47.07830811 -31.34220215 46.11755371 -30.78198242 45.12768555 C-27.80200041 39.8582738 -24.83431301 34.58229829 -21.8828125 29.296875 C-21.2643042 28.18948975 -20.6457959 27.08210449 -20.00854492 25.94116211 C-18.82499247 23.82037389 -17.64277447 21.69884017 -16.4621582 19.57641602 C-15.37820548 17.63400731 -14.28088538 15.69898485 -13.16894531 13.77246094 C-11.57689618 10.99366323 -11.57689618 10.99366323 -10.29199219 8.04785156 C-7.70500507 2.72524316 -6.12108922 0.40314364 0 0 Z " fill="#203C8B" transform="translate(579.6171875,145.0234375)"/>
<path d="M0 0 C5.52152899 4.27247275 8.69481106 9.83886915 10.03515625 16.6796875 C10.79367652 26.75925492 9.9093838 34.54293308 3.41015625 42.4921875 C-3.05428112 49.16666074 -8.77260803 51.03106821 -18.02734375 51.1796875 C-24.16219173 51.10905835 -28.98710653 50.39477918 -33.96484375 46.6796875 C-35.03734375 45.9165625 -36.10984375 45.1534375 -37.21484375 44.3671875 C-43.56558753 38.1607788 -45.21014705 31.73524713 -45.33984375 23.0546875 C-45.36971761 14.79549792 -43.74334056 8.91740461 -38.1328125 2.625 C-27.22680485 -7.74323607 -12.38347284 -8.32129984 0 0 Z " fill="#213D8C" transform="translate(531.96484375,149.3203125)"/>
<path d="M0 0 C5.89299845 3.63422602 10.11845658 8.26518703 12.4453125 14.89453125 C14.0204613 24.16679892 13.98962299 34.04393204 8.82421875 42.125 C8.26734375 43.0325 7.71046875 43.94 7.13671875 44.875 C0.09057188 51.73071047 -7.78127977 53.46430782 -17.33203125 53.3359375 C-24.99513482 52.76752048 -31.13444188 49.96694909 -36.17578125 44.125 C-42.16843914 36.4331581 -42.2647047 27.51817006 -41.45361328 18.17333984 C-40.49192552 11.08321655 -37.13057496 6.59732468 -31.73828125 2.125 C-22.71523301 -4.5898266 -9.90140134 -5.27098629 0 0 Z " fill="#213D8C" transform="translate(604.17578125,215.875)"/>
<path d="M0 0 C4.38253554 2.19126777 7.16669816 4.41674539 9 9 C9.71062194 13.73747957 9.47089401 17.05821199 7.3125 21.375 C4.29420769 24.80116965 2.27674756 26.65677173 -2.33203125 27.3515625 C-6.71657771 27.60135675 -9.97795127 27.5537931 -13.5 24.75 C-17.52133193 20.32653488 -18.46160527 17.13540039 -18.31640625 11.25 C-17.67698796 6.70302551 -15.18835099 4.01858656 -11.8125 1.125 C-7.79880044 -0.48047982 -4.26304489 -0.67667379 0 0 Z " fill="#25408D" transform="translate(650,192)"/>
<path d="M0 0 C4.12326498 1.7409341 6.69835882 4.16393137 9 8 C9.61595345 13.54358109 9.28102593 17.29719617 6 22 C1.28553403 25.28916231 -2.44613115 25.52893989 -8 25 C-11.74150586 23.33710851 -13.84005024 21.44865928 -16 18 C-16.79114046 13.63554182 -17.04175261 8.990905 -14.9453125 4.984375 C-10.53554482 -0.39084477 -6.56624836 -0.62698552 0 0 Z " fill="#F4F5F9" transform="translate(181,311)"/>
<path d="M0 0 C13.88888889 0 13.88888889 0 19 4 C21.5881608 8.17952994 21.67999953 12.21512528 21 17 C18.93505543 21.05614112 17.26610406 23.41482092 13 25 C9.765625 25.1953125 9.765625 25.1953125 6.25 25.125 C3.15625 25.063125 3.15625 25.063125 0 25 C0 16.75 0 8.5 0 0 Z " fill="#26418E" transform="translate(296,311)"/>
<path d="M0 0 C0.99 0 1.98 0 3 0 C3 24.75 3 49.5 3 75 C-21.75 75 -46.5 75 -72 75 C-72 74.01 -72 73.02 -72 72 C-48.24 72 -24.48 72 0 72 C0 48.24 0 24.48 0 0 Z " fill="#A8C4FB" transform="translate(915,513)"/>
<path d="M0 0 C0.99 0 1.98 0 3 0 C3 23.76 3 47.52 3 72 C26.76 72 50.52 72 75 72 C75 72.99 75 73.98 75 75 C50.25 75 25.5 75 0 75 C0 50.25 0 25.5 0 0 Z " fill="#A8C4FB" transform="translate(12,513)"/>
<path d="M0 0 C24.75 0 49.5 0 75 0 C75 24.75 75 49.5 75 75 C74.01 75 73.02 75 72 75 C72 51.24 72 27.48 72 3 C48.24 3 24.48 3 0 3 C0 2.01 0 1.02 0 0 Z " fill="#A8C4FB" transform="translate(843,12)"/>
<path d="M0 0 C24.75 0 49.5 0 75 0 C75 0.99 75 1.98 75 3 C51.24 3 27.48 3 3 3 C3 26.76 3 50.52 3 75 C2.01 75 1.02 75 0 75 C0 50.25 0 25.5 0 0 Z " fill="#A8C4FB" transform="translate(12,12)"/>
<path d="M0 0 C4.56955559 2.72228844 4.56955559 2.72228844 5.6171875 5.83203125 C6.61347825 11.47429009 6.97395988 17.9442682 4 23 C2.3125 25.3125 2.3125 25.3125 0 27 C-4.22454007 27.61447856 -6.24237555 27.47763281 -9.875 25.1875 C-13.44957981 21.50778549 -13.18742954 18.05763824 -13.25 13.125 C-13.28867187 11.30355469 -13.28867187 11.30355469 -13.328125 9.4453125 C-12.97719855 5.76058479 -12.22102379 3.92183227 -10 1 C-6.79337112 -0.60331444 -3.47896647 -0.48652213 0 0 Z " fill="#F9FAFC" transform="translate(518,159)"/>
<path d="M0 0 C0.87269531 -0.04898438 1.74539063 -0.09796875 2.64453125 -0.1484375 C5.1875 0.375 5.1875 0.375 7.4765625 2.3984375 C9.60686842 6.10458616 9.81528307 9.2122442 9.75 13.375 C9.77384766 14.07367188 9.79769531 14.77234375 9.82226562 15.4921875 C9.81127551 19.3753613 9.30275351 21.22332958 6.9375 24.3359375 C3.39983031 26.95903918 1.5345643 27.10167397 -2.72265625 26.875 C-4.8125 26.375 -4.8125 26.375 -7.3125 24 C-10.44553769 18.51718404 -10.43395933 13.64683297 -9.8125 7.375 C-7.7032411 2.24566585 -5.41536213 0.20614849 0 0 Z " fill="#FAFBFC" transform="translate(589.8125,227.625)"/>
<path d="M0 0 C2.95224902 0.87769565 3.81803152 1.7725394 5.75 4.1875 C7.32923797 7.74078543 7.41323619 10.14312892 7 14 C5.76043745 16.78901573 4.71549246 18.44350587 2.3125 20.3125 C-1.15434463 21.34318354 -4.44898249 21.58479058 -8 21 C-11.44312714 18.8755173 -12.71617547 17.85147359 -14 14 C-14.37066773 8.99598565 -14.09881835 6.01698676 -11 2 C-7.27624573 -0.48250285 -4.30855244 -0.40992301 0 0 Z " fill="#25408E" transform="translate(428,513)"/>
<path d="M0 0 C2.48907384 1.93594632 3.49301431 3.35771962 4.6875 6.3125 C4.89613531 10.80618353 4.5379258 14.21517638 1.75 17.8125 C-2.10527873 20.61633907 -5.63437237 20.97568284 -10.3125 20.3125 C-13.75562714 18.1880173 -15.02867547 17.16397359 -16.3125 13.3125 C-16.88529236 6.2098747 -16.88529236 6.2098747 -14.4375 2.375 C-10.35296656 -1.5894001 -5.28084449 -1.5699808 0 0 Z " fill="#26418E" transform="translate(317.3125,513.6875)"/>
<path d="M0 0 C2.8100346 1.79363911 4.50940468 3.01880935 6 6 C6.55112923 10.59876684 6.61753151 13.97787887 4.1875 18 C0.88008738 21.02392011 -2.48016904 21.53017803 -6.92578125 21.47265625 C-10.31859422 20.69952938 -11.91334771 18.73470421 -13.92578125 16 C-15.68195718 12.73031972 -15.72241182 10.61205908 -15 7 C-11.2260091 0.84825659 -7.13922493 -1.02575071 0 0 Z " fill="#27428E" transform="translate(349,477)"/>
<path d="M0 0 C3.58552881 1.63687185 4.79315055 2.68972583 7 6 C7.43145362 11.35002483 7.45651329 14.64735364 4 19 C0.28957469 21.47361688 -2.69862675 21.54607278 -7 21 C-9.87472735 19.75011855 -11.44101438 18.74531416 -13.3125 16.25 C-14.63780889 11.91262545 -14.60880922 8.30459119 -12.6875 4.1875 C-9.17211626 -0.36947892 -5.41385643 -0.69787993 0 0 Z " fill="#243F8D" transform="translate(547,513)"/>
<path d="M0 0 C3.02508145 1.73602105 5.41790069 3.83580137 7 7 C7.04259733 11.41308343 6.80364944 14.96303299 4.0625 18.5 C0.20722127 21.30383907 -3.32187237 21.66318284 -8 21 C-11.44312714 18.8755173 -12.71617547 17.85147359 -14 14 C-14.57279236 6.8973747 -14.57279236 6.8973747 -12.125 3.0625 C-8.5135633 -0.44271798 -4.88427301 -0.83367925 0 0 Z " fill="#26418E" transform="translate(232,477)"/>
<path d="M0 0 C4.38633687 2.34982332 4.38633687 2.34982332 6 5 C7.05628779 9.95642733 6.77877845 13.7279952 4.125 18.0625 C0.83323915 21.06381136 -1.49764865 21.3335441 -5.9609375 21.29296875 C-9.13134567 20.83745033 -10.8192402 19.24684343 -13 17 C-14.72869779 13.54260443 -14.48966895 9.78024432 -14 6 C-10.40061871 0.24098994 -6.67055043 -1.03764118 0 0 Z " fill="#25408E" transform="translate(635,477)"/>
<path d="M0 0 C12.00763359 -0.60644614 12.00763359 -0.60644614 16.375 2.0625 C18 5 18 5 18.0625 8.6875 C17.5365625 10.3271875 17.5365625 10.3271875 17 12 C15.02 12.99 15.02 12.99 13 14 C14.65 17.63 16.3 21.26 18 25 C16.35 25 14.7 25 13 25 C11.41796875 23.3203125 11.41796875 23.3203125 10.1875 21.125 C9.76855469 20.40570313 9.34960938 19.68640625 8.91796875 18.9453125 C8 17 8 17 8 15 C6.68 15 5.36 15 4 15 C4 18.3 4 21.6 4 25 C2.68 25 1.36 25 0 25 C0 16.75 0 8.5 0 0 Z " fill="#2C4691" transform="translate(321,311)"/>
<path d="M0 0 C6.27 0 12.54 0 19 0 C19 1.98 19 3.96 19 6 C15.37 6 11.74 6 8 6 C8 7.65 8 9.3 8 11 C10.64 11 13.28 11 16 11 C16 12.98 16 14.96 16 17 C13.36 17 10.72 17 8 17 C8 20.3 8 23.6 8 27 C5.36 27 2.72 27 0 27 C0 18.09 0 9.18 0 0 Z " fill="#314B94" transform="translate(683,192)"/>
<path d="M0 0 C6.27 0 12.54 0 19 0 C19 1.98 19 3.96 19 6 C15.37 6 11.74 6 8 6 C8 7.65 8 9.3 8 11 C10.64 11 13.28 11 16 11 C16 12.98 16 14.96 16 17 C13.36 17 10.72 17 8 17 C8 20.3 8 23.6 8 27 C5.36 27 2.72 27 0 27 C0 18.09 0 9.18 0 0 Z " fill="#324B94" transform="translate(662,192)"/>
<path d="M0 0 C11.30769231 0 11.30769231 0 15 3 C17.55782957 5.55782957 17.38443138 6.75394953 17.5 10.3125 C17.39602054 14.4826238 17.21401918 15.70500059 14.6875 19.1875 C10.25493286 22.15678594 5.0969258 21.31078816 0 21 C0 14.07 0 7.14 0 0 Z " fill="#C3CADF" transform="translate(444,477)"/>
<path d="M0 0 C11.41176471 0 11.41176471 0 16 4 C17.73498116 7.46996232 17.60794181 11.21507195 17 15 C14.5625 18 14.5625 18 12 20 C11.67 20.33 11.34 20.66 11 21 C7.3308423 21.14310287 3.67284559 21.04221662 0 21 C0 14.07 0 7.14 0 0 Z " fill="#2B4590" transform="translate(465,513)"/>
<path d="M0 0 C12 0 12 0 15.25 1.5625 C17.6502204 4.90566413 17.58527499 6.97623447 17 11 C15.625 12.9375 15.625 12.9375 14 14 C13.34 14 12.68 14 12 14 C13.98 17.63 15.96 21.26 18 25 C16.35 25 14.7 25 13 25 C11.41796875 23.3203125 11.41796875 23.3203125 10.1875 21.125 C9.76855469 20.40570313 9.34960938 19.68640625 8.91796875 18.9453125 C8 17 8 17 8 15 C6.68 15 5.36 15 4 15 C4 18.3 4 21.6 4 25 C2.68 25 1.36 25 0 25 C0 16.75 0 8.5 0 0 Z " fill="#223D8C" transform="translate(641,311)"/>
<path d="M0 0 C5 1 5 1 6.9140625 3.109375 C7.47867188 3.98078125 8.04328125 4.8521875 8.625 5.75 C9.19476563 6.61109375 9.76453125 7.4721875 10.3515625 8.359375 C11.93024157 10.88825427 13.46619349 13.44365582 15 16 C15.33 10.72 15.66 5.44 16 0 C17.65 0 19.3 0 21 0 C21 8.25 21 16.5 21 25 C16 25 16 25 14.42260742 23.43945312 C13.98795166 22.72724609 13.5532959 22.01503906 13.10546875 21.28125 C12.62529297 20.51425781 12.14511719 19.74726563 11.65039062 18.95703125 C11.16763672 18.14621094 10.68488281 17.33539063 10.1875 16.5 C9.68541016 15.68917969 9.18332031 14.87835938 8.66601562 14.04296875 C7.42794798 12.03847828 6.21184616 10.02045104 5 8 C4.67 13.61 4.34 19.22 4 25 C2.68 25 1.36 25 0 25 C0 16.75 0 8.5 0 0 Z " fill="#2F4993" transform="translate(194,311)"/>
<path d="M0 0 C5.64028777 2.92086331 5.64028777 2.92086331 7 7 C4.625 7.125 4.625 7.125 2 7 C1.34 6.34 0.68 5.68 0 5 C-2.10417968 4.64360439 -2.10417968 4.64360439 -4.4375 4.6875 C-5.21996094 4.67074219 -6.00242187 4.65398437 -6.80859375 4.63671875 C-9.53714217 5.08904496 -10.39843056 5.76689687 -12 8 C-12.38272538 12.01861644 -12.47103902 14.74389595 -11.0625 18.5 C-8.12932381 20.63321905 -5.66274013 20.60598459 -2.09765625 20.47265625 C0.29888717 20.15770499 0.29888717 20.15770499 2.0625 17.5 C2.371875 16.675 2.68125 15.85 3 15 C0.03 15 -2.94 15 -6 15 C-6 13.68 -6 12.36 -6 11 C-1.38 11 3.24 11 8 11 C7.63303189 18.2170395 7.63303189 18.2170395 4.625 21.9375 C0.87602849 24.88312047 -2.19693853 25.3462181 -6.93359375 25.28515625 C-10.35340256 24.81323556 -12.4265947 23.20577598 -15 21 C-17.74637397 16.58887195 -17.67014565 12.04243738 -17 7 C-13.04382775 0.21799042 -7.41638146 -1.06498211 0 0 Z " fill="#304A93" transform="translate(579,311)"/>
<path d="M0 0 C1.65 0 3.3 0 5 0 C8.59883451 8.18587357 11.5198846 16.40965617 14 25 C12.35 25 10.7 25 9 25 C8.505 22.525 8.505 22.525 8 20 C4.37 20 0.74 20 -3 20 C-3.33 21.65 -3.66 23.3 -4 25 C-5.65 25 -7.3 25 -9 25 C-7.8799608 21.58168693 -6.75310727 18.16565812 -5.625 14.75 C-5.30789063 13.78191406 -4.99078125 12.81382812 -4.6640625 11.81640625 C-4.3546875 10.88183594 -4.0453125 9.94726562 -3.7265625 8.984375 C-3.44377441 8.12553711 -3.16098633 7.26669922 -2.86962891 6.38183594 C-2.05562726 4.15235809 -1.10768876 2.096545 0 0 Z " fill="#2B4691" transform="translate(484,311)"/>
<path d="M0 0 C5 0 5 0 6.57739258 1.56054688 C7.01204834 2.27275391 7.4467041 2.98496094 7.89453125 3.71875 C8.37470703 4.48574219 8.85488281 5.25273437 9.34960938 6.04296875 C9.83236328 6.85378906 10.31511719 7.66460937 10.8125 8.5 C11.31458984 9.31082031 11.81667969 10.12164062 12.33398438 10.95703125 C13.57205202 12.96152172 14.78815384 14.97954896 16 17 C16.33 11.39 16.66 5.78 17 0 C18.32 0 19.64 0 21 0 C21 8.25 21 16.5 21 25 C16 25 16 25 14.42260742 23.43945312 C13.98795166 22.72724609 13.5532959 22.01503906 13.10546875 21.28125 C12.62529297 20.51425781 12.14511719 19.74726563 11.65039062 18.95703125 C11.16763672 18.14621094 10.68488281 17.33539063 10.1875 16.5 C9.68541016 15.68917969 9.18332031 14.87835938 8.66601562 14.04296875 C7.42794798 12.03847828 6.21184616 10.02045104 5 8 C4.67 13.61 4.34 19.22 4 25 C2.68 25 1.36 25 0 25 C0 16.75 0 8.5 0 0 Z " fill="#2A4490" transform="translate(537,311)"/>
<path d="M0 0 C1.98 0 3.96 0 6 0 C7.33834986 3.78991493 8.66982663 7.58220836 10 11.375 C10.3815625 12.45523437 10.763125 13.53546875 11.15625 14.6484375 C11.5171875 15.6796875 11.878125 16.7109375 12.25 17.7734375 C12.58515625 18.72653809 12.9203125 19.67963867 13.265625 20.66162109 C14 23 14 23 14 25 C12.68 25 11.36 25 10 25 C9.78601563 24.35546875 9.57203125 23.7109375 9.3515625 23.046875 C8.1526477 20.72160885 8.1526477 20.72160885 5.3984375 20.390625 C3.90183594 20.32101562 3.90183594 20.32101562 2.375 20.25 C1.37210937 20.19328125 0.36921875 20.1365625 -0.6640625 20.078125 C-1.82035156 20.03945313 -1.82035156 20.03945313 -3 20 C-3.33 21.65 -3.66 23.3 -4 25 C-5.32 25 -6.64 25 -8 25 C-7.38074535 21.5847973 -6.53132639 18.40646528 -5.37109375 15.13671875 C-5.05849609 14.25048828 -4.74589844 13.36425781 -4.42382812 12.45117188 C-3.9355957 11.0831543 -3.9355957 11.0831543 -3.4375 9.6875 C-3.10814453 8.75615234 -2.77878906 7.82480469 -2.43945312 6.86523438 C-1.62932179 4.57573277 -0.81608317 2.28738542 0 0 Z " fill="#2A4490" transform="translate(351,311)"/>
<path d="M0 0 C1.2065625 0.0309375 1.2065625 0.0309375 2.4375 0.0625 C3.77867853 3.66379621 5.1090839 7.26897859 6.4375 10.875 C6.8190625 11.89916016 7.200625 12.92332031 7.59375 13.97851562 C7.9546875 14.96142578 8.315625 15.94433594 8.6875 16.95703125 C9.19023437 18.31598511 9.19023437 18.31598511 9.703125 19.70239258 C10.4375 22.0625 10.4375 22.0625 10.4375 25.0625 C9.1175 25.0625 7.7975 25.0625 6.4375 25.0625 C5.9425 22.5875 5.9425 22.5875 5.4375 20.0625 C3.64489868 20.12245322 1.85324205 20.2112241 0.0625 20.3125 C-0.93523437 20.35890625 -1.93296875 20.4053125 -2.9609375 20.453125 C-5.7151477 20.78410885 -5.7151477 20.78410885 -6.9140625 23.109375 C-7.12804687 23.75390625 -7.34203125 24.3984375 -7.5625 25.0625 C-8.8825 25.0625 -10.2025 25.0625 -11.5625 25.0625 C-4.49057425 0.1095262 -4.49057425 0.1095262 0 0 Z " fill="#29448F" transform="translate(239.5625,310.9375)"/>
<path d="M0 0 C3.625 0.4375 3.625 0.4375 6.0625 2.1875 C8.47440496 7.20426232 8.35683023 11.97517954 7.625 17.4375 C6.0625 20.6875 6.0625 20.6875 3.625 22.4375 C0.125 23.125 0.125 23.125 -3.375 22.4375 C-6.65957565 19.15292435 -7.62127762 16.40299913 -7.75 11.875 C-7.47396281 6.01906823 -6.50769689 0.84359034 0 0 Z " fill="#E2BB48" transform="translate(458.375,550.5625)"/>
<path d="M0 0 C2.61593153 1.83115207 2.96989455 2.90968366 4 6 C4.50073721 11.68144142 4.73725854 16.36579941 1 21 C0 22 0 22 -3.3125 22.4375 C-7 22 -7 22 -9.4375 19.6875 C-11.94195361 15.13394799 -11.73973721 10.0180112 -11 5 C-8.39702943 -0.31005996 -5.7084519 -0.83032028 0 0 Z " fill="#E0BA49" transform="translate(554,551)"/>
<path d="M0 0 C5 1 5 1 6.4855957 2.49047852 C6.87835693 3.11365967 7.27111816 3.73684082 7.67578125 4.37890625 C8.11083984 5.05244141 8.54589844 5.72597656 8.99414062 6.41992188 C9.64672852 7.48049805 9.64672852 7.48049805 10.3125 8.5625 C10.76689453 9.27341797 11.22128906 9.98433594 11.68945312 10.71679688 C12.80673401 12.46916374 13.9052276 14.23348376 15 16 C15.33 10.72 15.66 5.44 16 0 C17.32 0 18.64 0 20 0 C20 8.25 20 16.5 20 25 C15 24 15 24 13.5144043 22.50952148 C12.92526245 21.57474976 12.92526245 21.57474976 12.32421875 20.62109375 C11.67163086 19.61079102 11.67163086 19.61079102 11.00585938 18.58007812 C10.35327148 17.51950195 10.35327148 17.51950195 9.6875 16.4375 C9.0059082 15.37112305 9.0059082 15.37112305 8.31054688 14.28320312 C7.19326599 12.53083626 6.0947724 10.76651624 5 9 C4.67 14.28 4.34 19.56 4 25 C2.68 25 1.36 25 0 25 C0 16.75 0 8.5 0 0 Z " fill="#28438F" transform="translate(502,311)"/>
<path d="M0 0 C5 1 5 1 6.4855957 2.49047852 C6.87835693 3.11365967 7.27111816 3.73684082 7.67578125 4.37890625 C8.11083984 5.05244141 8.54589844 5.72597656 8.99414062 6.41992188 C9.64672852 7.48049805 9.64672852 7.48049805 10.3125 8.5625 C10.76689453 9.27341797 11.22128906 9.98433594 11.68945312 10.71679688 C12.80673401 12.46916374 13.9052276 14.23348376 15 16 C15.33 10.72 15.66 5.44 16 0 C17.32 0 18.64 0 20 0 C20 8.25 20 16.5 20 25 C15 24 15 24 13.5144043 22.50952148 C12.92526245 21.57474976 12.92526245 21.57474976 12.32421875 20.62109375 C11.67163086 19.61079102 11.67163086 19.61079102 11.00585938 18.58007812 C10.35327148 17.51950195 10.35327148 17.51950195 9.6875 16.4375 C9.0059082 15.37112305 9.0059082 15.37112305 8.31054688 14.28320312 C7.19326599 12.53083626 6.0947724 10.76651624 5 9 C4.67 14.28 4.34 19.56 4 25 C2.68 25 1.36 25 0 25 C0 16.75 0 8.5 0 0 Z " fill="#27428E" transform="translate(379,311)"/>
<path d="M0 0 C4.12326498 1.7409341 6.69835882 4.16393137 9 8 C9.61595345 13.54358109 9.28102593 17.29719617 6 22 C1.28553403 25.28916231 -2.44613115 25.52893989 -8 25 C-11.74150586 23.33710851 -13.84005024 21.44865928 -16 18 C-16.79114046 13.63554182 -17.04175261 8.990905 -14.9453125 4.984375 C-10.53554482 -0.39084477 -6.56624836 -0.62698552 0 0 Z M-9.875 4.9375 C-12.36004541 8.51888897 -12.74127589 10.5652983 -12.484375 14.83984375 C-11.6726873 18.45970907 -10.0140178 19.96881409 -7 22 C-3.02862719 22.7446324 -1.55900317 22.37266878 1.8125 20.125 C4.60921179 17.40819426 4.94303123 16.60386898 5.3125 12.6875 C4.95124058 8.42463889 3.98007946 6.98007946 1 4 C-3.12632997 1.93683501 -6.1129867 2.40223017 -9.875 4.9375 Z " fill="#28438F" transform="translate(181,311)"/>
<path d="M0 0 C2.5625 1.8125 2.5625 1.8125 4 4 C4 4.99 4 5.98 4 7 C2.35 7 0.7 7 -1 7 C-1 6.01 -1 5.02 -1 4 C-2.98 4 -4.96 4 -7 4 C-7.33 5.32 -7.66 6.64 -8 8 C-7.38511719 8.25394531 -6.77023437 8.50789063 -6.13671875 8.76953125 C-5.32847656 9.11371094 -4.52023437 9.45789063 -3.6875 9.8125 C-2.88699219 10.14894531 -2.08648438 10.48539062 -1.26171875 10.83203125 C1.00989968 12.00511227 2.41586917 13.00349225 4 15 C4.64390244 20.15121951 4.64390244 20.15121951 2.625 22.8125 C-0.99366682 25.45691037 -4.6463211 25.63670403 -9 25 C-11.5 23.1875 -11.5 23.1875 -13 21 C-13 20.01 -13 19.02 -13 18 C-11.35 18.33 -9.7 18.66 -8 19 C-8 19.66 -8 20.32 -8 21 C-6.02 21 -4.04 21 -2 21 C-1.67 19.35 -1.34 17.7 -1 16 C-1.61488281 15.81824219 -2.22976563 15.63648438 -2.86328125 15.44921875 C-3.67152344 15.19785156 -4.47976563 14.94648438 -5.3125 14.6875 C-6.11300781 14.44386719 -6.91351562 14.20023437 -7.73828125 13.94921875 C-10.14823672 12.93778666 -11.39668192 12.04981172 -13 10 C-13.5244772 6.4785102 -13.41549639 4.68647229 -11.5625 1.625 C-7.78967317 -0.76752433 -4.34922017 -0.80600227 0 0 Z " fill="#2C4691" transform="translate(613,311)"/>
<path d="M0 0 C3.62221751 0.60370292 4.79551272 1.61720894 7 4.5 C7 5.16 7 5.82 7 6.5 C6.01 6.5 5.02 6.5 4 6.5 C3.34 5.51 2.68 4.52 2 3.5 C0.35 3.83 -1.3 4.16 -3 4.5 C-3.33 6.15 -3.66 7.8 -4 9.5 C-3.67 9.17 -3.34 8.84 -3 8.5 C3.12145749 8.0465587 3.12145749 8.0465587 5.9375 9.5 C7.65886567 12.74021772 7.52960415 15.91957756 7 19.5 C5.9375 21.5 5.9375 21.5 4 22.5 C-0.36706908 22.88991688 -2.30513897 22.96324069 -6 20.5 C-7.10261088 17.19216735 -7.23740779 14.54440731 -7.3125 11.0625 C-7.36857422 9.36287109 -7.36857422 9.36287109 -7.42578125 7.62890625 C-7 4.5 -7 4.5 -5.16796875 2.12109375 C-3 0.5 -3 0.5 0 0 Z " fill="#E7BF46" transform="translate(587,550.5)"/>
<path d="M0 0 C5.61971831 2.85915493 5.61971831 2.85915493 7 7 C2.45454545 7.37878788 2.45454545 7.37878788 0.125 5.4375 C-2.06476773 3.65211761 -2.06476773 3.65211761 -5.5625 4.125 C-8.83854453 4.80658672 -8.83854453 4.80658672 -10.9375 6.0625 C-12.7092351 9.29331106 -12.7177161 12.4797734 -12 16 C-10.1235883 19.21013047 -10.1235883 19.21013047 -7 21 C-2.97965076 20.93185849 -0.8823175 20.8823175 2 18 C4.625 17.875 4.625 17.875 7 18 C5.59859391 20.80281218 4.57130132 22.64713742 1.875 24.3125 C-3.46097755 25.58849463 -8.11505813 26.1229441 -12.9375 23.25 C-16.96358006 18.85791266 -17.43569744 15.23277402 -17.32421875 9.41015625 C-16.8638942 5.98822556 -15.51522593 4.29963513 -13 2 C-8.74693092 -0.83537939 -4.99377978 -0.64360826 0 0 Z " fill="#2C4691" transform="translate(430,311)"/>
<path d="M0 0 C10 0 10 0 14 3 C14.25 6.6875 14.25 6.6875 14 10 C12.02 10.99 12.02 10.99 10 12 C10.66 13.11375 11.32 14.2275 12 15.375 C14 18.75 14 18.75 14 21 C13.01 21 12.02 21 11 21 C10.4225 19.865625 9.845 18.73125 9.25 17.5625 C7.64507365 14.62689703 7.64507365 14.62689703 4.75 13.0625 C4.1725 13.041875 3.595 13.02125 3 13 C3 15.64 3 18.28 3 21 C2.01 21 1.02 21 0 21 C0 14.07 0 7.14 0 0 Z " fill="#E3E7F0" transform="translate(438,513)"/>
<path d="M0 0 C5.64028777 2.92086331 5.64028777 2.92086331 7 7 C2.45454545 7.37878788 2.45454545 7.37878788 0.125 5.4375 C-2.06420212 3.66731631 -2.06420212 3.66731631 -5.5625 4 C-9.04440019 4.70540315 -9.04440019 4.70540315 -11 7.0625 C-12.43180866 11.26843793 -12.04954317 13.66188822 -11 18 C-9.51869332 20.23608998 -9.51869332 20.23608998 -7 21 C-1.94892809 20.81541642 -1.94892809 20.81541642 2 18 C4.625 17.875 4.625 17.875 7 18 C5.08278172 21.64271474 3.83558709 23.47684267 0 25 C-4.67906904 25.73163625 -8.17102041 25.40695361 -12.4375 23.3125 C-16.40860372 19.72882103 -16.87300849 17.33341086 -17.375 12.0625 C-17.26168312 7.78074062 -15.80341422 5.27064992 -13 2 C-8.8002914 -0.56551237 -4.79758556 -0.68892665 0 0 Z " fill="#2A4490" transform="translate(714,311)"/>
<path d="M0 0 C2.5625 1.3125 2.5625 1.3125 4 3 C4 3.99 4 4.98 4 6 C-0.875 5.125 -0.875 5.125 -2 4 C-3.66617115 3.95936168 -5.33388095 3.957279 -7 4 C-7.33 5.65 -7.66 7.3 -8 9 C-7.31292969 9.18175781 -6.62585938 9.36351562 -5.91796875 9.55078125 C-5.01691406 9.80214844 -4.11585938 10.05351562 -3.1875 10.3125 C-2.29417969 10.55613281 -1.40085937 10.79976563 -0.48046875 11.05078125 C2.10290672 12.03938005 3.38092642 12.77107537 5 15 C4.93466459 18.65878308 4.76975083 21.04550898 2.4375 23.9375 C-1.06403467 25.46380999 -4.29622447 25.80676299 -8 25 C-11 22.625 -11 22.625 -13 20 C-13 19.34 -13 18.68 -13 18 C-10.625 17.8125 -10.625 17.8125 -8 18 C-7.34 18.99 -6.68 19.98 -6 21 C-3.41619823 21.25030977 -3.41619823 21.25030977 -1 21 C-0.67 19.68 -0.34 18.36 0 17 C-0.61488281 16.73445313 -1.22976563 16.46890625 -1.86328125 16.1953125 C-3.07564453 15.66550781 -3.07564453 15.66550781 -4.3125 15.125 C-5.11300781 14.77695312 -5.91351562 14.42890625 -6.73828125 14.0703125 C-9 13 -9 13 -12 11 C-12.67290705 3.93447594 -12.67290705 3.93447594 -10.75390625 1.26953125 C-7.52536883 -1.06738337 -3.80919919 -0.51568581 0 0 Z " fill="#2B4691" transform="translate(757,311)"/>
<path d="M0 0 C10 0 10 0 14 3 C14.5 5.9375 14.5 5.9375 14 9 C12 11.375 12 11.375 10 13 C11.32 15.64 12.64 18.28 14 21 C10 20 10 20 8.25 17.5625 C7 15 7 15 7 13 C5.68 13 4.36 13 3 13 C3 15.64 3 18.28 3 21 C2.01 21 1.02 21 0 21 C0 14.07 0 7.14 0 0 Z " fill="#D4D9E8" transform="translate(371,513)"/>
<path d="M0 0 C8.3 0 8.3 0 11 2 C13.54575791 5.43677318 13.43672876 8.85107675 13 13 C11.20437595 15.75329021 9.94745078 17.52627461 7 19 C4.69 19 2.38 19 0 19 C0 12.73 0 6.46 0 0 Z " fill="#F6F7FA" transform="translate(300,314)"/>
<path d="M0 0 C10 0 10 0 14 3 C14.5 5.9375 14.5 5.9375 14 9 C12 11.375 12 11.375 10 13 C11.32 15.64 12.64 18.28 14 21 C10 20 10 20 8.25 17.5625 C7 15 7 15 7 13 C5.68 13 4.36 13 3 13 C3 15.64 3 18.28 3 21 C2.01 21 1.02 21 0 21 C0 14.07 0 7.14 0 0 Z " fill="#E8EBF3" transform="translate(288,477)"/>
<path d="M0 0 C0.99 0 1.98 0 3 0 C3.50636607 1.74816858 4.00484619 3.49862263 4.5 5.25 C4.7784375 6.22453125 5.056875 7.1990625 5.34375 8.203125 C6 11 6 11 6 15 C6.66 15 7.32 15 8 15 C8.18175781 14.00419922 8.18175781 14.00419922 8.3671875 12.98828125 C9.22547708 8.46575541 10.03971311 4.20061476 12 0 C12.99 0 13.98 0 15 0 C15.6700834 2.12392506 16.33596797 4.24917524 17 6.375 C17.37125 7.55835938 17.7425 8.74171875 18.125 9.9609375 C19 13 19 13 19 15 C19.66 15 20.32 15 21 15 C21.13277344 14.16855469 21.26554687 13.33710938 21.40234375 12.48046875 C21.57894531 11.39378906 21.75554687 10.30710937 21.9375 9.1875 C22.19853516 7.56908203 22.19853516 7.56908203 22.46484375 5.91796875 C23 3 23 3 24 0 C24.99 0 25.98 0 27 0 C25.68882339 7.11120489 23.98279484 14.04699943 22 21 C20.68 21 19.36 21 18 21 C16.68 16.38 15.36 11.76 14 7 C12.40964498 10.18071004 11.35151732 12.87657653 10.375 16.25 C10.11460937 17.14203125 9.85421875 18.0340625 9.5859375 18.953125 C9.39257812 19.62859375 9.19921875 20.3040625 9 21 C7.68 21 6.36 21 5 21 C4.16193384 18.06377536 3.32937556 15.12617933 2.5 12.1875 C2.26152344 11.35412109 2.02304687 10.52074219 1.77734375 9.66210938 C1.43896484 8.45844727 1.43896484 8.45844727 1.09375 7.23046875 C0.88427734 6.49207764 0.67480469 5.75368652 0.45898438 4.99291992 C0 3 0 3 0 0 Z " fill="#E6E9F2" transform="translate(472,477)"/>
<path d="M0 0 C9 0 9 0 12.0625 1.6875 C14 4 14 4 14.5 6.5625 C13.92645247 9.35854421 13.28536295 10.32992708 11 12 C10.34 12 9.68 12 9 12 C10.65 14.97 12.3 17.94 14 21 C12.68 21 11.36 21 10 21 C8.58398438 18.31445312 8.58398438 18.31445312 7.16796875 15.62890625 C6.00980201 13.67732013 6.00980201 13.67732013 3 13 C3 15.64 3 18.28 3 21 C2.01 21 1.02 21 0 21 C0 14.07 0 7.14 0 0 Z " fill="#C7AA51" transform="translate(383,552)"/>
<path d="M0 0 C2.29296875 -0.03515625 2.29296875 -0.03515625 5 1 C6.56757404 3.69478302 7.40777199 6.59050431 8.3125 9.5625 C8.57611328 10.36880859 8.83972656 11.17511719 9.11132812 12.00585938 C9.75962674 13.99790421 10.38228402 15.99826059 11 18 C13.86055964 13.70916054 14.97776578 8.96260819 16.48828125 4.0546875 C18 1 18 1 20.66796875 0.0703125 C21.43753906 0.04710937 22.20710937 0.02390625 23 0 C20.5198846 8.59034383 17.59883451 16.81412643 14 25 C12.35 25 10.7 25 9 25 C7.49451631 21.21048756 5.99654686 17.41804969 4.5 13.625 C4.07074219 12.54476563 3.64148438 11.46453125 3.19921875 10.3515625 C2.79316406 9.3203125 2.38710938 8.2890625 1.96875 7.2265625 C1.40317383 5.79691162 1.40317383 5.79691162 0.82617188 4.33837891 C0 2 0 2 0 0 Z " fill="#2B4590" transform="translate(662,311)"/>
<path d="M0 0 C9 0 9 0 12.0625 2 C12.701875 2.66 13.34125 3.32 14 4 C13.6875 6.875 13.6875 6.875 13 10 C12.01 10.66 11.02 11.32 10 12 C11.19899698 15.0831351 12.47700477 18.06279492 14 21 C12.68 21 11.36 21 10 21 C6 14.25 6 14.25 6 12 C4.68 12 3.36 12 2 12 C2 14.97 2 17.94 2 21 C1.34 21 0.68 21 0 21 C0 14.07 0 7.14 0 0 Z " fill="#F9FAFC" transform="translate(698,477)"/>
<path d="M0 0 C4.62 0 9.24 0 14 0 C14 0.99 14 1.98 14 3 C10.7 3 7.4 3 4 3 C4 5.64 4 8.28 4 11 C6.97 11 9.94 11 13 11 C13 11.99 13 12.98 13 14 C10.03 14 7.06 14 4 14 C4 16.64 4 19.28 4 22 C7.3 22 10.6 22 14 22 C14 22.99 14 23.98 14 25 C9.38 25 4.76 25 0 25 C0 16.75 0 8.5 0 0 Z " fill="#1F3B8A" transform="translate(726,311)"/>
<path d="M0 0 C4.62 0 9.24 0 14 0 C14 0.99 14 1.98 14 3 C10.7 3 7.4 3 4 3 C4 5.64 4 8.28 4 11 C6.97 11 9.94 11 13 11 C13 11.99 13 12.98 13 14 C10.03 14 7.06 14 4 14 C4 16.64 4 19.28 4 22 C7.3 22 10.6 22 14 22 C14 22.99 14 23.98 14 25 C9.38 25 4.76 25 0 25 C0 16.75 0 8.5 0 0 Z " fill="#1F3B8A" transform="translate(622,311)"/>
<path d="M0 0 C4.62 0 9.24 0 14 0 C14 0.99 14 1.98 14 3 C10.7 3 7.4 3 4 3 C4 5.64 4 8.28 4 11 C6.97 11 9.94 11 13 11 C13 11.99 13 12.98 13 14 C10.03 14 7.06 14 4 14 C4 16.64 4 19.28 4 22 C6.97 22 9.94 22 13 22 C13 22.99 13 23.98 13 25 C8.71 25 4.42 25 0 25 C0 16.75 0 8.5 0 0 Z " fill="#233E8C" transform="translate(458,311)"/>
<path d="M0 0 C10 0 10 0 12.625 1.6875 C14.26868403 4.45187769 14.56737985 5.83888371 14 9 C13 10.8125 13 10.8125 11 12 C8.28125957 12.24667073 5.74116148 12.13481122 3 12 C3 14.97 3 17.94 3 21 C2.01 21 1.02 21 0 21 C0 14.07 0 7.14 0 0 Z " fill="#E8BF46" transform="translate(358,552)"/>
<path d="M0 0 C5.10618352 1.27654588 6.20021883 3.81424896 8.75 8.0625 C9.16121094 8.72572266 9.57242188 9.38894531 9.99609375 10.07226562 C11.00824336 11.70818186 12.00557507 13.35324932 13 15 C13.33 10.05 13.66 5.1 14 0 C14.99 0 15.98 0 17 0 C17 6.93 17 13.86 17 21 C15.68 21 14.36 21 13 21 C11.21425957 18.68208527 9.73117706 16.49918475 8.25 14 C7.83878906 13.33226562 7.42757812 12.66453125 7.00390625 11.9765625 C5.98971657 10.32555605 4.99315402 8.6637452 4 7 C3.67 11.62 3.34 16.24 3 21 C2.01 21 1.02 21 0 21 C0 14.07 0 7.14 0 0 Z " fill="#DADFEC" transform="translate(575,477)"/>
<path d="M0 0 C1.89355469 0.28393555 1.89355469 0.28393555 4 1 C5.29762477 3.63394019 6.30474678 6.05631522 7.25 8.8125 C7.518125 9.53759766 7.78625 10.26269531 8.0625 11.00976562 C9.37062287 14.65715925 10 17.02891632 10 21 C9.01 20.67 8.02 20.34 7 20 C6.67 19.01 6.34 18.02 6 17 C3.03 16.67 0.06 16.34 -3 16 C-3.33 17.65 -3.66 19.3 -4 21 C-4.99 21 -5.98 21 -7 21 C-6.38169051 15.97525707 -4.87023224 11.75279506 -2.9375 7.125 C-2.65583984 6.43664062 -2.37417969 5.74828125 -2.08398438 5.0390625 C-1.39484734 3.35710091 -0.69819202 1.67822303 0 0 Z " fill="#E3E7F0" transform="translate(561,477)"/>
<path d="M0 0 C5.10618352 1.27654588 6.20021883 3.81424896 8.75 8.0625 C9.16121094 8.72572266 9.57242187 9.38894531 9.99609375 10.07226562 C11.00824336 11.70818186 12.00557507 13.35324932 13 15 C13.33 10.05 13.66 5.1 14 0 C14.99 0 15.98 0 17 0 C17 6.93 17 13.86 17 21 C12.04911994 19.76227999 10.86586565 17.48058877 8.25 13.4375 C7.83878906 12.82197266 7.42757813 12.20644531 7.00390625 11.57226562 C5.99236489 10.05495359 4.99480211 8.52833914 4 7 C3.67 11.62 3.34 16.24 3 21 C2.01 21 1.02 21 0 21 C0 14.07 0 7.14 0 0 Z " fill="#E8EBF3" transform="translate(314,477)"/>
<path d="M0 0 C0.99 0 1.98 0 3 0 C4.17495143 2.93425371 5.33850852 5.87289513 6.5 8.8125 C6.83386719 9.64587891 7.16773438 10.47925781 7.51171875 11.33789062 C7.82753906 12.14033203 8.14335937 12.94277344 8.46875 13.76953125 C8.90864258 14.87711792 8.90864258 14.87711792 9.35742188 16.00708008 C10 18 10 18 10 21 C9.01 21 8.02 21 7 21 C6.67 19.35 6.34 17.7 6 16 C2.7 16 -0.6 16 -4 16 C-4.33 17.65 -4.66 19.3 -5 21 C-5.99 20.67 -6.98 20.34 -8 20 C-6.85865495 16.85251982 -5.71117657 13.70731119 -4.5625 10.5625 C-4.07426758 9.21575195 -4.07426758 9.21575195 -3.57617188 7.84179688 C-3.26357422 6.98779297 -2.95097656 6.13378906 -2.62890625 5.25390625 C-2.34088135 4.46314697 -2.05285645 3.6723877 -1.75610352 2.85766602 C-1 1 -1 1 0 0 Z " fill="#EBEDF4" transform="translate(410,477)"/>
<path d="M0 0 C7.25581395 -0.48372093 7.25581395 -0.48372093 10.5 1.625 C12.43102443 4.68245535 12.44522837 6.438173 12 10 C10.6 13.7 10.6 13.7 8 15 C5.3276379 15.13415472 2.67749512 15.04318541 0 15 C0 10.05 0 5.1 0 0 Z " fill="#213D8C" transform="translate(447,480)"/>
<path d="M0 0 C1.65 0 3.3 0 5 0 C5 6.93 5 13.86 5 21 C7.64 21 10.28 21 13 21 C13 22.32 13 23.64 13 25 C8.71 25 4.42 25 0 25 C0 16.75 0 8.5 0 0 Z " fill="#41599C" transform="translate(270,311)"/>
<path d="M0 0 C1.65 0 3.3 0 5 0 C5 6.93 5 13.86 5 21 C7.64 21 10.28 21 13 21 C13 22.32 13 23.64 13 25 C8.71 25 4.42 25 0 25 C0 16.75 0 8.5 0 0 Z " fill="#41599C" transform="translate(254,311)"/>
<path d="M0 0 C0.99 0 1.98 0 3 0 C3 2.97 3 5.94 3 9 C6.3 9 9.6 9 13 9 C13 6.03 13 3.06 13 0 C13.99 0 14.98 0 16 0 C16 6.93 16 13.86 16 21 C15.01 21 14.02 21 13 21 C13 18.03 13 15.06 13 12 C9.7 12 6.4 12 3 12 C3 14.97 3 17.94 3 21 C2.01 21 1.02 21 0 21 C0 14.07 0 7.14 0 0 Z " fill="#D6DBEA" transform="translate(526,477)"/>
<path d="M0 0 C3.58552881 1.63687185 4.79315055 2.68972583 7 6 C7.43145362 11.35002483 7.45651329 14.64735364 4 19 C0.28957469 21.47361688 -2.69862675 21.54607278 -7 21 C-9.87472735 19.75011855 -11.44101438 18.74531416 -13.3125 16.25 C-14.63780889 11.91262545 -14.60880922 8.30459119 -12.6875 4.1875 C-9.17211626 -0.36947892 -5.41385643 -0.69787993 0 0 Z M-11 7 C-11.79785988 11.46801531 -11.51734028 13.24750505 -8.9375 17 C-6.09272026 19.32985977 -6.09272026 19.32985977 -2.375 19.0625 C0.95017101 18.25240109 0.95017101 18.25240109 2.9375 16.375 C4.4590889 12.97380129 4.51749792 10.68717269 4 7 C1.71408345 3.93034063 0.24497671 2.31124418 -3.5 1.375 C-7.24497671 2.31124418 -8.71408345 3.93034063 -11 7 Z " fill="#EBEDF4" transform="translate(547,513)"/>
<path d="M0 0 C2.95224902 0.87769565 3.81803152 1.7725394 5.75 4.1875 C7.32923797 7.74078543 7.41323619 10.14312892 7 14 C5.76043745 16.78901573 4.71549246 18.44350587 2.3125 20.3125 C-1.15434463 21.34318354 -4.44898249 21.58479058 -8 21 C-11.44312714 18.8755173 -12.71617547 17.85147359 -14 14 C-14.37066773 8.99598565 -14.09881835 6.01698676 -11 2 C-7.27624573 -0.48250285 -4.30855244 -0.40992301 0 0 Z M-11 6 C-11.79601977 11.01492456 -11.77842337 12.84415924 -8.9375 17.0625 C-6.08198308 19.32259009 -6.08198308 19.32259009 -2.375 19.0625 C0.95017101 18.25240109 0.95017101 18.25240109 2.9375 16.375 C4.4590889 12.97380129 4.51749792 10.68717269 4 7 C1.7132584 3.92923271 0.27592854 2.28708392 -3.5 1.4375 C-7.02666021 2.23099855 -8.61054251 3.26919144 -11 6 Z " fill="#EBEDF4" transform="translate(428,513)"/>
<path d="M0 0 C5.10618352 1.27654588 6.20021883 3.81424896 8.75 8.0625 C9.16121094 8.72572266 9.57242188 9.38894531 9.99609375 10.07226562 C11.00824336 11.70818186 12.00557507 13.35324932 13 15 C13.33 10.05 13.66 5.1 14 0 C14.66 0 15.32 0 16 0 C16 6.93 16 13.86 16 21 C15.01 21 14.02 21 13 21 C11.29589827 18.69254619 9.79183756 16.44432809 8.3125 14 C7.68891602 12.99839844 7.68891602 12.99839844 7.05273438 11.9765625 C6.02555776 10.32363462 5.01152664 8.66255112 4 7 C3.67 11.62 3.34 16.24 3 21 C2.01 21 1.02 21 0 21 C0 14.07 0 7.14 0 0 Z " fill="#E8EBF3" transform="translate(578,513)"/>
<path d="M0 0 C2.48907384 1.93594632 3.49301431 3.35771962 4.6875 6.3125 C4.89613531 10.80618353 4.5379258 14.21517638 1.75 17.8125 C-2.10527873 20.61633907 -5.63437237 20.97568284 -10.3125 20.3125 C-13.75562714 18.1880173 -15.02867547 17.16397359 -16.3125 13.3125 C-16.88529236 6.2098747 -16.88529236 6.2098747 -14.4375 2.375 C-10.35296656 -1.5894001 -5.28084449 -1.5699808 0 0 Z M-13.3125 5.3125 C-14.0335834 8.45642361 -14.02107691 11.16710984 -13.3125 14.3125 C-11.41994542 17.126679 -11.41994542 17.126679 -8.3125 18.3125 C-4.53339384 18.3125 -2.30556967 18.14539714 0.625 15.6875 C2.1465889 12.28630129 2.20499792 9.99967269 1.6875 6.3125 C-0.5992416 3.24173271 -2.03657146 1.59958392 -5.8125 0.75 C-9.38383111 1.5535495 -10.91960241 2.50939139 -13.3125 5.3125 Z " fill="#E9ECF4" transform="translate(317.3125,513.6875)"/>
<path d="M0 0 C2.8100346 1.79363911 4.50940468 3.01880935 6 6 C6.55112923 10.59876684 6.61753151 13.97787887 4.1875 18 C0.88008738 21.02392011 -2.48016904 21.53017803 -6.92578125 21.47265625 C-10.31859422 20.69952938 -11.91334771 18.73470421 -13.92578125 16 C-15.68195718 12.73031972 -15.72241182 10.61205908 -15 7 C-11.2260091 0.84825659 -7.13922493 -1.02575071 0 0 Z M-12 7 C-12.83333333 10.5 -12.83333333 10.5 -12 14 C-9.52506641 17.42123173 -8.11736219 18.79477021 -3.9375 19.5625 C-0.97201279 19.17109395 -0.97201279 19.17109395 1.375 17.5625 C3.76900866 13.78733249 3.92516207 10.3466666 3 6 C0.60710241 3.19689139 -0.92866889 2.2410495 -4.5 1.4375 C-8.27592854 2.28708392 -9.7132584 3.92923271 -12 7 Z " fill="#E8EBF3" transform="translate(349,477)"/>
<path d="M0 0 C3.02508145 1.73602105 5.41790069 3.83580137 7 7 C7.04259733 11.41308343 6.80364944 14.96303299 4.0625 18.5 C0.20722127 21.30383907 -3.32187237 21.66318284 -8 21 C-11.44312714 18.8755173 -12.71617547 17.85147359 -14 14 C-14.57279236 6.8973747 -14.57279236 6.8973747 -12.125 3.0625 C-8.5135633 -0.44271798 -4.88427301 -0.83367925 0 0 Z M-11 6 C-11.7210834 9.14392361 -11.70857691 11.85460984 -11 15 C-9.10744542 17.814179 -9.10744542 17.814179 -6 19 C-2.22089384 19 0.00693033 18.83289714 2.9375 16.375 C4.4590889 12.97380129 4.51749792 10.68717269 4 7 C1.7132584 3.92923271 0.27592854 2.28708392 -3.5 1.4375 C-7.07133111 2.2410495 -8.60710241 3.19689139 -11 6 Z " fill="#EFF1F7" transform="translate(232,477)"/>
<path d="M0 0 C4.38633687 2.34982332 4.38633687 2.34982332 6 5 C7.05628779 9.95642733 6.77877845 13.7279952 4.125 18.0625 C0.83323915 21.06381136 -1.49764865 21.3335441 -5.9609375 21.29296875 C-9.13134567 20.83745033 -10.8192402 19.24684343 -13 17 C-14.72869779 13.54260443 -14.48966895 9.78024432 -14 6 C-10.40061871 0.24098994 -6.67055043 -1.03764118 0 0 Z M-9.4375 3.375 C-11.71986242 7.20936886 -11.9256352 10.65111049 -11 15 C-8.57528641 17.84037878 -7.10529563 18.81129099 -3.4375 19.4375 C-0.29052699 18.87265869 0.90654359 18.46728791 3 16 C3.8983089 12.95956986 4.22883947 10.16370562 4 7 C1.92653022 3.54421703 0.36778845 3.10508241 -3.5 2 C-6.95835867 1.71339597 -6.95835867 1.71339597 -9.4375 3.375 Z " fill="#E0E4EF" transform="translate(635,477)"/>
<path d="M0 0 C11.41176471 0 11.41176471 0 16 4 C17.73498116 7.46996232 17.60794181 11.21507195 17 15 C14.5625 18 14.5625 18 12 20 C11.67 20.33 11.34 20.66 11 21 C7.3308423 21.14310287 3.67284559 21.04221662 0 21 C0 14.07 0 7.14 0 0 Z M2 2 C2 7.61 2 13.22 2 19 C8.49714197 19.51281167 8.49714197 19.51281167 11.9375 17.5625 C14.55692997 14.3080567 14.73020174 12.22587726 14.48046875 8.12890625 C14.10737453 5.7485723 14.10737453 5.7485723 11.9375 3.4375 C8.49714197 1.48718833 8.49714197 1.48718833 2 2 Z " fill="#F9F9FC" transform="translate(465,513)"/>
<path d="M0 0 C0.66 0 1.32 0 2 0 C2 2.97 2 5.94 2 9 C5.63 9 9.26 9 13 9 C13 6.03 13 3.06 13 0 C13.99 0 14.98 0 16 0 C16 6.93 16 13.86 16 21 C15.01 21 14.02 21 13 21 C13 18.03 13 15.06 13 12 C9.37 12 5.74 12 2 12 C2 14.97 2 17.94 2 21 C1.34 21 0.68 21 0 21 C0 14.07 0 7.14 0 0 Z " fill="#CDD3E5" transform="translate(662,477)"/>
<path d="M0 0 C3.5625 0.375 3.5625 0.375 5.5625 1.9375 C6.98220326 5.39802669 6.42551515 7.79016784 5.5625 11.375 C3.5625 13.375 3.5625 13.375 0.0625 13.625 C-3.4375 13.375 -3.4375 13.375 -5.4375 11.375 C-5.703125 9.28125 -5.703125 9.28125 -5.6875 6.875 C-5.69265625 6.0809375 -5.6978125 5.286875 -5.703125 4.46875 C-5.21639762 0.63219304 -3.64803837 0.39796782 0 0 Z " fill="#F5F6FA" transform="translate(645.4375,198.625)"/>
<path d="M0 0 C0.94875 0.04125 1.8975 0.0825 2.875 0.125 C4.24038938 2.85577876 4.00731826 5.08060367 4 8.125 C4.00257813 9.1975 4.00515625 10.27 4.0078125 11.375 C3.875 14.125 3.875 14.125 2.875 16.125 C0 16.3125 0 16.3125 -3.125 16.125 C-5.36734009 12.76148987 -5.39598215 11.50189944 -5.375 7.5625 C-5.38015625 6.59183594 -5.3853125 5.62117187 -5.390625 4.62109375 C-4.97302156 0.69684965 -3.86283207 0.15451328 0 0 Z " fill="#213C88" transform="translate(459.125,553.875)"/>
<path d="M0 0 C2.5 0.25 2.5 0.25 4.5 2.25 C4.765625 5 4.765625 5 4.75 8.25 C4.75515625 9.3225 4.7603125 10.395 4.765625 11.5 C4.5 14.25 4.5 14.25 2.5 16.25 C0 16.5 0 16.5 -2.5 16.25 C-4.5 14.25 -4.5 14.25 -4.765625 11.5 C-4.76046875 10.4275 -4.7553125 9.355 -4.75 8.25 C-4.75515625 7.1775 -4.7603125 6.105 -4.765625 5 C-4.41531752 1.3732873 -3.66834697 0.3668347 0 0 Z " fill="#203B89" transform="translate(550.5,553.75)"/>
<path d="M0 0 C0.99 0.66 1.98 1.32 3 2 C3 2.99 3 3.98 3 5 C2.01 5 1.02 5 0 5 C0 4.34 0 3.68 0 3 C-1.98 3 -3.96 3 -6 3 C-6.33 4.65 -6.66 6.3 -7 8 C-5.741875 8.268125 -4.48375 8.53625 -3.1875 8.8125 C-0.76143475 9.43082459 0.89556895 9.93146712 3 11.3125 C4.4397827 13.74213331 4.48461324 15.23078148 4 18 C1.60918389 20.77334669 0.100403 20.98943126 -3.5625 21.375 C-7 21 -7 21 -8.9375 19.6875 C-10 18 -10 18 -10 15 C-9.01 15 -8.02 15 -7 15 C-7 15.99 -7 16.98 -7 18 C-5.02 18 -3.04 18 -1 18 C-0.67 16.68 -0.34 15.36 0 14 C-0.95712891 13.68869141 -0.95712891 13.68869141 -1.93359375 13.37109375 C-4.48000602 12.42165142 -6.71431045 11.47519175 -9 10 C-10.25 6.4375 -10.25 6.4375 -10 3 C-7.8832857 -1.10113396 -4.14361851 -0.36996594 0 0 Z " fill="#E4E7F1" transform="translate(625,513)"/>
<path d="M0 0 C2.9375 1.3125 2.9375 1.3125 5 3 C5.33 3.99 5.66 4.98 6 6 C4.68 6 3.36 6 2 6 C2 5.34 2 4.68 2 4 C-3.33373077 2.9041624 -3.33373077 2.9041624 -8.5 3.9375 C-10.42302564 6.58166026 -10.56345141 8.82812367 -10.37890625 12.0546875 C-10.07632818 14.20897095 -10.07632818 14.20897095 -8.4375 16.5625 C-5.9416787 18.32835689 -5.9416787 18.32835689 -2.3125 17.875 C-1.219375 17.58625 -0.12625 17.2975 1 17 C1.33 16.34 1.66 15.68 2 15 C3.32 15.33 4.64 15.66 6 16 C3.9140449 18.69155497 2.24664118 20.70693788 -1.16015625 21.5078125 C-5.58027097 21.72918719 -7.44157296 21.44208807 -11 18.625 C-14.13200784 14.51423972 -14.35197606 12.19164686 -14 7 C-10.97130542 0.50994018 -6.91689103 -0.88989241 0 0 Z " fill="#EBEEF4" transform="translate(524,513)"/>
<path d="M0 0 C3.5625 0.3125 3.5625 0.3125 5.5 1.375 C7.29834842 4.65434124 7.16773685 6.62055523 6.5625 10.3125 C4.49351664 13.25642657 2.12634429 15.79443864 -0.4375 18.3125 C2.2025 18.6425 4.8425 18.9725 7.5625 19.3125 C7.5625 20.3025 7.5625 21.2925 7.5625 22.3125 C2.6125 22.3125 -2.3375 22.3125 -7.4375 22.3125 C-5.2738687 17.98523741 -3.13651647 16.31795088 0.5625 13.3125 C2.9919516 9.6683226 2.72429575 7.60008728 2.5625 3.3125 C0.12532742 3.58284634 0.12532742 3.58284634 -2.4375 4.3125 C-3.4275 5.7975 -3.4275 5.7975 -4.4375 7.3125 C-5.0975 7.3125 -5.7575 7.3125 -6.4375 7.3125 C-5.67266544 2.46854777 -5.30770607 0.48251873 0 0 Z " fill="#CEAE4E" transform="translate(532.4375,550.6875)"/>
<path d="M0 0 C2.4375 2 2.4375 2 4 4 C3.01 4.33 2.02 4.66 1 5 C0.01 4.34 -0.98 3.68 -2 3 C-3.32 3 -4.64 3 -6 3 C-6 4.32 -6 5.64 -6 7 C-5.36191406 7.21914063 -4.72382813 7.43828125 -4.06640625 7.6640625 C-1.56301477 8.62480245 0.71111061 9.60004139 3 11 C4.43518613 14.44444671 4.42056944 15.93455742 3.0625 19.375 C0.30254586 21.54950932 -1.68497336 21.50518519 -5.125 21.328125 C-7 21 -7 21 -9 19.6875 C-10 18 -10 18 -10 15 C-9.01 15 -8.02 15 -7 15 C-6.01 16.485 -6.01 16.485 -5 18 C-1.91634129 18.2502157 -1.91634129 18.2502157 1 18 C0.58377402 15.53044606 0.58377402 15.53044606 -1 13 C-3.5690412 11.65780705 -6.21813439 10.79574295 -9 10 C-10.32296047 3.62573591 -10.32296047 3.62573591 -9 1.0625 C-5.85568254 -0.60791865 -3.49168717 -0.42880369 0 0 Z " fill="#DEB849" transform="translate(426,552)"/>
<path d="M0 0 C2.4375 2 2.4375 2 4 4 C2.68 4.33 1.36 4.66 0 5 C0 4.34 0 3.68 0 3 C-1.98 3 -3.96 3 -6 3 C-6.33 4.65 -6.66 6.3 -7 8 C-6.06027344 8.29003906 -6.06027344 8.29003906 -5.1015625 8.5859375 C-4.28429687 8.84632813 -3.46703125 9.10671875 -2.625 9.375 C-1.81289063 9.63023437 -1.00078125 9.88546875 -0.1640625 10.1484375 C2 11 2 11 4 13 C3.54545455 18.45454545 3.54545455 18.45454545 1 21 C-6.13688469 21.56641942 -6.13688469 21.56641942 -9 19.6875 C-10 18 -10 18 -10 15 C-9.01 15 -8.02 15 -7 15 C-7 15.99 -7 16.98 -7 18 C-5.02 18 -3.04 18 -1 18 C-0.67 16.68 -0.34 15.36 0 14 C-0.95712891 13.68869141 -0.95712891 13.68869141 -1.93359375 13.37109375 C-4.48000602 12.42165142 -6.71431045 11.47519175 -9 10 C-10.25 6.4375 -10.25 6.4375 -10 3 C-7.88675705 -1.09440822 -4.13756559 -0.50812209 0 0 Z " fill="#EAECF4" transform="translate(399,513)"/>
<path d="M0 0 C2.375 1.5 2.375 1.5 4 3 C3.835 3.928125 3.67 4.85625 3.5 5.8125 C2.92251612 8.95621353 2.92251612 8.95621353 3 12 C3.33 12.33 3.66 12.66 4 13 C4.26077823 15.99894961 4.43731576 18.18003295 3 20.875 C-0.20761268 22.67928213 -3.41290444 22.56048368 -7 22 C-9 20.6875 -9 20.6875 -10 19 C-10 18.01 -10 17.02 -10 16 C-9.01 16 -8.02 16 -7 16 C-6.34 16.99 -5.68 17.98 -5 19 C-2.41619823 19.25030977 -2.41619823 19.25030977 0 19 C0 17.02 0 15.04 0 13 C-1.65 12.67 -3.3 12.34 -5 12 C-5 11.01 -5 10.02 -5 9 C-3.35 8.67 -1.7 8.34 0 8 C-0.33 6.35 -0.66 4.7 -1 3 C-3.47266765 3.34444881 -3.47266765 3.34444881 -6 4 C-6.33 4.66 -6.66 5.32 -7 6 C-7.99 6 -8.98 6 -10 6 C-7.90021558 0.15060054 -6.23502468 -0.49880197 0 0 Z " fill="#DEB849" transform="translate(494,551)"/>
<path d="M0 0 C2.4375 2 2.4375 2 4 4 C3.01 4.33 2.02 4.66 1 5 C0.01 4.34 -0.98 3.68 -2 3 C-3.32 3 -4.64 3 -6 3 C-6.33 4.65 -6.66 6.3 -7 8 C-6.06027344 8.29003906 -6.06027344 8.29003906 -5.1015625 8.5859375 C-4.28429687 8.84632813 -3.46703125 9.10671875 -2.625 9.375 C-1.81289063 9.63023437 -1.00078125 9.88546875 -0.1640625 10.1484375 C2 11 2 11 4 13 C3.54545455 18.45454545 3.54545455 18.45454545 1 21 C-6.13688469 21.56641942 -6.13688469 21.56641942 -9 19.6875 C-10 18 -10 18 -10 15 C-9.01 15 -8.02 15 -7 15 C-6.01 16.485 -6.01 16.485 -5 18 C-3.35 17.67 -1.7 17.34 0 17 C-0.18733817 15.03838102 -0.18733817 15.03838102 -1 13 C-2.84727567 11.86929556 -2.84727567 11.86929556 -5.0625 11.25 C-5.79597656 11.00765625 -6.52945312 10.7653125 -7.28515625 10.515625 C-7.85105469 10.34546875 -8.41695313 10.1753125 -9 10 C-10.32296047 3.62573591 -10.32296047 3.62573591 -9 1.0625 C-5.85568254 -0.60791865 -3.49168717 -0.42880369 0 0 Z " fill="#ECEEF5" transform="translate(503,513)"/>
<path d="M0 0 C3.5625 0.3125 3.5625 0.3125 5.5 1.375 C7.29834842 4.65434124 7.16773685 6.62055523 6.5625 10.3125 C4.49351664 13.25642657 2.12634429 15.79443864 -0.4375 18.3125 C2.2025 18.6425 4.8425 18.9725 7.5625 19.3125 C7.5625 20.3025 7.5625 21.2925 7.5625 22.3125 C2.6125 22.3125 -2.3375 22.3125 -7.4375 22.3125 C-5.4375 18.3125 -5.4375 18.3125 -2.5 15.875 C0.42171839 13.43029686 2.08279394 11.79416132 3.5625 8.3125 C3.34920551 5.57010857 3.34920551 5.57010857 2.5625 3.3125 C0.12532742 3.58284634 0.12532742 3.58284634 -2.4375 4.3125 C-3.4275 5.7975 -3.4275 5.7975 -4.4375 7.3125 C-5.0975 7.3125 -5.7575 7.3125 -6.4375 7.3125 C-5.67266544 2.46854777 -5.30770607 0.48251873 0 0 Z " fill="#E7BF46" transform="translate(568.4375,550.6875)"/>
<path d="M0 0 C1.32 0 2.64 0 4 0 C4 7.26 4 14.52 4 22 C6.64 22 9.28 22 12 22 C12 22.99 12 23.98 12 25 C8.04 25 4.08 25 0 25 C0 16.75 0 8.5 0 0 Z " fill="#223E8C" transform="translate(442,311)"/>
<path d="M0 0 C3.63 0 7.26 0 11 0 C11 0.66 11 1.32 11 2 C8.36 2 5.72 2 3 2 C3 4.31 3 6.62 3 9 C5.64 9 8.28 9 11 9 C11 9.99 11 10.98 11 12 C8.36 12 5.72 12 3 12 C3 14.31 3 16.62 3 19 C5.64 19 8.28 19 11 19 C11 19.66 11 20.32 11 21 C7.37 21 3.74 21 0 21 C0 14.07 0 7.14 0 0 Z " fill="#E8EAF3" transform="translate(682,477)"/>
<path d="M0 0 C0.99 0 1.98 0 3 0 C4.32 2.31 5.64 4.62 7 7 C7.32613281 6.4946875 7.65226562 5.989375 7.98828125 5.46875 C8.64376953 4.49421875 8.64376953 4.49421875 9.3125 3.5 C9.74175781 2.8503125 10.17101562 2.200625 10.61328125 1.53125 C11.07089844 1.0259375 11.52851563 0.520625 12 0 C12.99 0 13.98 0 15 0 C14.02003892 2.71373838 13.15033127 4.81626178 11.3125 7.0625 C9.76442951 8.87373229 9.76442951 8.87373229 10.2890625 10.85546875 C11.038148 13.1150728 11.97019949 15.13586997 13.0625 17.25 C13.60583984 18.30960938 13.60583984 18.30960938 14.16015625 19.390625 C14.43730469 19.92171875 14.71445312 20.4528125 15 21 C11.39497955 20.40168778 11.09242495 20.12580062 8.75 16.9375 C8.1725 15.968125 7.595 14.99875 7 14 C5.68 16.31 4.36 18.62 3 21 C2.01 21 1.02 21 0 21 C1.10788831 18.10244596 2.16457864 15.76109552 3.9375 13.1875 C5.34639436 10.15119776 5.34639436 10.15119776 4.078125 7.91015625 C3.1629737 6.48858696 2.20347006 5.09446339 1.19921875 3.734375 C0 2 0 2 0 0 Z " fill="#E4BD47" transform="translate(339,552)"/>
<path d="M0 0 C3.63 0 7.26 0 11 0 C11 0.66 11 1.32 11 2 C8.36 2 5.72 2 3 2 C3 4.31 3 6.62 3 9 C5.31 9 7.62 9 10 9 C10 9.66 10 10.32 10 11 C7.69 11 5.38 11 3 11 C3 13.64 3 16.28 3 19 C5.64 19 8.28 19 11 19 C11 19.66 11 20.32 11 21 C7.37 21 3.74 21 0 21 C0 14.07 0 7.14 0 0 Z " fill="#EAC145" transform="translate(401,552)"/>
<path d="M0 0 C3.63 0 7.26 0 11 0 C11 0.66 11 1.32 11 2 C8.36 2 5.72 2 3 2 C3 4.31 3 6.62 3 9 C5.31 9 7.62 9 10 9 C10 9.66 10 10.32 10 11 C7.69 11 5.38 11 3 11 C3 13.64 3 16.28 3 19 C5.64 19 8.28 19 11 19 C11 19.66 11 20.32 11 21 C7.37 21 3.74 21 0 21 C0 14.07 0 7.14 0 0 Z " fill="#EAC145" transform="translate(324,552)"/>
<path d="M0 0 C0.99 0 1.98 0 3 0 C3.83919398 2.26882087 4.67151724 4.53977027 5.5 6.8125 C5.85771484 7.77639648 5.85771484 7.77639648 6.22265625 8.75976562 C7.27068746 11.64933739 8 13.90076061 8 17 C8.66 17 9.32 17 10 17 C10.10957031 16.443125 10.21914063 15.88625 10.33203125 15.3125 C11.44275248 9.96658969 12.97225526 5.06936184 15 0 C15.99 0 16.98 0 18 0 C15.96192707 7.1178153 13.59655258 14.06707281 11 21 C9.68 21 8.36 21 7 21 C5.82807565 17.87694627 4.66336124 14.75125261 3.5 11.625 C3.16613281 10.73554688 2.83226562 9.84609375 2.48828125 8.9296875 C2.01455078 7.65351563 2.01455078 7.65351563 1.53125 6.3515625 C1.09135742 5.17327881 1.09135742 5.17327881 0.64257812 3.97119141 C0 2 0 2 0 0 Z " fill="#EDEFF6" transform="translate(382,477)"/>
<path d="M0 0 C3.96 0 7.92 0 12 0 C12 0.66 12 1.32 12 2 C9.03 2 6.06 2 3 2 C3 4.31 3 6.62 3 9 C5.64 9 8.28 9 11 9 C11 9.99 11 10.98 11 12 C8.36 12 5.72 12 3 12 C3 14.97 3 17.94 3 21 C2.01 21 1.02 21 0 21 C0 14.07 0 7.14 0 0 Z " fill="#D7DBEA" transform="translate(340,513)"/>
<path d="M0 0 C3.96 0 7.92 0 12 0 C12 0.66 12 1.32 12 2 C9.03 2 6.06 2 3 2 C3 4.31 3 6.62 3 9 C5.64 9 8.28 9 11 9 C11 9.99 11 10.98 11 12 C8.36 12 5.72 12 3 12 C3 14.97 3 17.94 3 21 C2.01 21 1.02 21 0 21 C0 14.07 0 7.14 0 0 Z " fill="#DBE0EC" transform="translate(325,513)"/>
<path d="M0 0 C3.96 0 7.92 0 12 0 C12 0.66 12 1.32 12 2 C9.03 2 6.06 2 3 2 C3 4.31 3 6.62 3 9 C5.64 9 8.28 9 11 9 C11 9.99 11 10.98 11 12 C8.36 12 5.72 12 3 12 C3 14.97 3 17.94 3 21 C2.01 21 1.02 21 0 21 C0 14.07 0 7.14 0 0 Z " fill="#D7DBEA" transform="translate(257,477)"/>
<path d="M0 0 C3.96 0 7.92 0 12 0 C12 0.66 12 1.32 12 2 C9.03 2 6.06 2 3 2 C3 4.31 3 6.62 3 9 C5.64 9 8.28 9 11 9 C11 9.99 11 10.98 11 12 C8.36 12 5.72 12 3 12 C3 14.97 3 17.94 3 21 C2.01 21 1.02 21 0 21 C0 14.07 0 7.14 0 0 Z " fill="#DBE0EC" transform="translate(242,477)"/>
<path d="M0 0 C0.66 0 1.32 0 2 0 C2.04898438 1.13179687 2.09796875 2.26359375 2.1484375 3.4296875 C2.22346514 4.91148339 2.29901297 6.393253 2.375 7.875 C2.4059375 8.62136719 2.436875 9.36773438 2.46875 10.13671875 C2.55643831 14.53473188 2.55643831 14.53473188 5 18 C7.5 18.33333333 7.5 18.33333333 10 18 C12.93447357 15.06552643 12.46158423 11.81740544 12.625 7.875 C12.68300781 6.74384766 12.68300781 6.74384766 12.7421875 5.58984375 C12.83651031 3.72696816 12.91934662 1.86351745 13 0 C13.66 0 14.32 0 15 0 C15.10812003 2.75105422 15.18734945 5.49785087 15.25 8.25 C15.30027344 9.41595703 15.30027344 9.41595703 15.3515625 10.60546875 C15.41600746 14.37549879 15.44846423 16.35962092 13.23828125 19.515625 C9.53448065 21.97189765 7.3841833 21.55672169 3 21 C0.91634218 19.21668926 0.09811415 17.81214994 -0.23217773 15.078125 C-0.29564454 12.79433939 -0.26134108 10.53339355 -0.1875 8.25 C-0.17396484 7.45722656 -0.16042969 6.66445313 -0.14648438 5.84765625 C-0.11125223 3.89814436 -0.05744821 1.94898374 0 0 Z " fill="#F7F8FA" transform="translate(558,513)"/>
<path d="M0 0 C1.32 0 2.64 0 4 0 C4 8.25 4 16.5 4 25 C2.68 25 1.36 25 0 25 C0 16.75 0 8.5 0 0 Z " fill="#2C4691" transform="translate(689,311)"/>
<path d="M0 0 C1.32 0 2.64 0 4 0 C4 8.25 4 16.5 4 25 C2.68 25 1.36 25 0 25 C0 16.75 0 8.5 0 0 Z " fill="#2C4691" transform="translate(528,311)"/>
<path d="M0 0 C1.32 0 2.64 0 4 0 C4 8.25 4 16.5 4 25 C2.68 25 1.36 25 0 25 C0 16.75 0 8.5 0 0 Z " fill="#25408D" transform="translate(369,311)"/>
<path d="M0 0 C0.99 0 1.98 0 3 0 C0.89733571 11.21793769 -1.28949125 22.18426172 -5 33 C-5.99 32.67 -6.98 32.34 -8 32 C-5.36 21.44 -2.72 10.88 0 0 Z " fill="#D9B54B" transform="translate(519,545)"/>
<path d="M0 0 C3.63 0 7.26 0 11 0 C11 0.66 11 1.32 11 2 C8.03 2 5.06 2 2 2 C2 4.31 2 6.62 2 9 C4.64 9 7.28 9 10 9 C10 9.66 10 10.32 10 11 C7.36 11 4.72 11 2 11 C2 13.64 2 16.28 2 19 C4.97 19 7.94 19 11 19 C11 19.66 11 20.32 11 21 C7.37 21 3.74 21 0 21 C0 14.07 0 7.14 0 0 Z " fill="#F9F9FB" transform="translate(356,513)"/>
<path d="M0 0 C3.63 0 7.26 0 11 0 C11 0.66 11 1.32 11 2 C8.03 2 5.06 2 2 2 C2 4.31 2 6.62 2 9 C4.64 9 7.28 9 10 9 C10 9.66 10 10.32 10 11 C7.36 11 4.72 11 2 11 C2 13.64 2 16.28 2 19 C4.97 19 7.94 19 11 19 C11 19.66 11 20.32 11 21 C7.37 21 3.74 21 0 21 C0 14.07 0 7.14 0 0 Z " fill="#F8F9FB" transform="translate(273,477)"/>
<path d="M0 0 C0.99 0 1.98 0 3 0 C4.65 2.97 6.3 5.94 8 9 C9.32 6.03 10.64 3.06 12 0 C12.99 0 13.98 0 15 0 C14.02999178 3.13387271 13.03455517 5.9378007 11.4375 8.8125 C9.61307161 12.85797165 9.28297254 16.60904675 9 21 C8.01 21 7.02 21 6 21 C5.938125 19.72125 5.87625 18.4425 5.8125 17.125 C5.29218789 12.15050092 3.45682194 8.40767484 1.05859375 4.06640625 C0 2 0 2 0 0 Z " fill="#EEF0F6" transform="translate(595,477)"/>
<path d="M0 0 C0.66 0 1.32 0 2 0 C1.30564279 7.1720947 -0.33762538 14.01245688 -2.0625 21 C-2.34416016 22.15628906 -2.62582031 23.31257812 -2.91601562 24.50390625 C-3.60671217 27.33693276 -4.3014699 30.16889673 -5 33 C-5.99 33 -6.98 33 -8 33 C-7.32166946 26.00471633 -5.73245571 19.36565744 -4 12.5625 C-3.72671875 11.46228516 -3.4534375 10.36207031 -3.171875 9.22851562 C-1.13132225 1.13132225 -1.13132225 1.13132225 0 0 Z " fill="#E7BE46" transform="translate(478,545)"/>
<path d="M0 0 C4.62 0 9.24 0 14 0 C14 0.66 14 1.32 14 2 C12.02 2 10.04 2 8 2 C8 8.27 8 14.54 8 21 C7.01 21 6.02 21 5 21 C5 14.73 5 8.46 5 2 C3.35 2 1.7 2 0 2 C0 1.34 0 0.68 0 0 Z " fill="#E6E9F2" transform="translate(598,513)"/>
<path d="M0 0 C4.62 0 9.24 0 14 0 C14 0.66 14 1.32 14 2 C12.02 2 10.04 2 8 2 C8 8.27 8 14.54 8 21 C7.01 21 6.02 21 5 21 C5 14.73 5 8.46 5 2 C3.35 2 1.7 2 0 2 C0 1.34 0 0.68 0 0 Z " fill="#ECEEF5" transform="translate(509,477)"/>
<path d="M0 0 C4.62 0 9.24 0 14 0 C14 0.66 14 1.32 14 2 C12.02 2 10.04 2 8 2 C8 8.27 8 14.54 8 21 C7.01 21 6.02 21 5 21 C5 14.73 5 8.46 5 2 C3.35 2 1.7 2 0 2 C0 1.34 0 0.68 0 0 Z " fill="#E6E9F2" transform="translate(358,477)"/>
<path d="M0 0 C2 2 2 2 2.3125 4.4375 C2 7 2 7 0.8125 8.875 C-1 10 -1 10 -3.5625 9.8125 C-6 9 -6 9 -8 7 C-8.3125 4.5 -8.3125 4.5 -8 2 C-4.77626323 -0.14915785 -3.73296326 -0.38286803 0 0 Z " fill="#2D4484" transform="translate(590,561)"/>
<path d="M0 0 C3 1 3 1 3.94921875 2.70703125 C4.31466797 3.74923828 4.31466797 3.74923828 4.6875 4.8125 C4.93886719 5.49957031 5.19023438 6.18664062 5.44921875 6.89453125 C6 9 6 9 6 13 C5.01 12.67 4.02 12.34 3 12 C2.67 11.01 2.34 10.02 2 9 C-0.97 8.67 -3.94 8.34 -7 8 C-7.33 9.65 -7.66 11.3 -8 13 C-8.99 13 -9.98 13 -11 13 C-10.56802365 8.2482602 -9.67230705 6.07999946 -6 3 C-6 3.99 -6 4.98 -6 6 C-3.69 6 -1.38 6 1 6 C0.67 4.02 0.34 2.04 0 0 Z " fill="#EDEFF5" transform="translate(565,485)"/>
<path d="M0 0 C6.75 -0.125 6.75 -0.125 9 1 C9 3.31 9 5.62 9 8 C6.04335481 9.4783226 3.25770263 9.06032783 0 9 C0 6.03 0 3.06 0 0 Z " fill="#E5E8F1" transform="translate(325,314)"/>
<path d="M0 0 C1.32 0.33 2.64 0.66 4 1 C5.75 4.0625 5.75 4.0625 7 7 C6.01 7 5.02 7 4 7 C3.67 11.62 3.34 16.24 3 21 C2.01 21 1.02 21 0 21 C0 14.07 0 7.14 0 0 Z " fill="#EEF0F6" transform="translate(575,477)"/>
<path d="M0 0 C1.98 0 3.96 0 6 0 C6 7.26 6 14.52 6 22 C5.01 22 4.02 22 3 22 C3 15.73 3 9.46 3 3 C2.01 3 1.02 3 0 3 C0 2.01 0 1.02 0 0 Z " fill="#DDB849" transform="translate(501,551)"/>
<path d="M0 0 C1.98 0 3.96 0 6 0 C6 7.26 6 14.52 6 22 C5.01 22 4.02 22 3 22 C3 15.73 3 9.46 3 3 C2.01 3 1.02 3 0 3 C0 2.01 0 1.02 0 0 Z " fill="#CFAF4E" transform="translate(441,551)"/>
<path d="M0 0 C3.375 -0.125 3.375 -0.125 7 0 C9 2 9 2 9.25 4.5 C9 7 9 7 7 9 C3.375 9.125 3.375 9.125 0 9 C0 6.03 0 3.06 0 0 Z " fill="#EDEFF5" transform="translate(645,314)"/>
<path d="M0 0 C3.3 0 6.6 0 10 0 C10 0.66 10 1.32 10 2 C7.36 2 4.72 2 2 2 C2.24631557 6.05085679 2.24631557 6.05085679 3 10 C4.92064793 11.5899433 4.92064793 11.5899433 7 12 C5.68 12 4.36 12 3 12 C3 14.97 3 17.94 3 21 C2.01 21 1.02 21 0 21 C0 14.07 0 7.14 0 0 Z " fill="#F3F4F8" transform="translate(371,513)"/>
<path d="M0 0 C0.99 0 1.98 0 3 0 C3 3.3 3 6.6 3 10 C6.3 10 9.6 10 13 10 C13 10.33 13 10.66 13 11 C9.7 11 6.4 11 3 11 C3 14.3 3 17.6 3 21 C2.01 21 1.02 21 0 21 C0 14.07 0 7.14 0 0 Z " fill="#EFF1F6" transform="translate(526,477)"/>
<path d="M0 0 C3.3 0 6.6 0 10 0 C10 0.66 10 1.32 10 2 C7.36 2 4.72 2 2 2 C2 7.61 2 13.22 2 19 C4.64 19 7.28 19 10 19 C9.67 19.66 9.34 20.32 9 21 C6.03 21 3.06 21 0 21 C0 14.07 0 7.14 0 0 Z " fill="#F9FAFC" transform="translate(444,477)"/>
<path d="M0 0 C3.3 0 6.6 0 10 0 C10 0.66 10 1.32 10 2 C7.36 2 4.72 2 2 2 C2.24631557 6.05085679 2.24631557 6.05085679 3 10 C4.92064793 11.5899433 4.92064793 11.5899433 7 12 C5.68 12 4.36 12 3 12 C3 14.97 3 17.94 3 21 C2.01 21 1.02 21 0 21 C0 14.07 0 7.14 0 0 Z " fill="#F3F4F8" transform="translate(288,477)"/>
<path d="M0 0 C0.99 0.33 1.98 0.66 3 1 C2.175 1.639375 1.35 2.27875 0.5 2.9375 C-2.47804157 6.58560092 -2.67563506 8.42069102 -2.44140625 12.984375 C-2.15314322 15.2111271 -2.15314322 15.2111271 0 16.875 C0.66 17.24625 1.32 17.6175 2 18 C2 18.99 2 19.98 2 21 C-1.05665662 20.09126425 -2.72305703 19.32469175 -4.8125 16.875 C-6.35859693 13.13181797 -6.7503007 9.99353597 -6 6 C-4.20636089 3.1899654 -2.98119065 1.49059532 0 0 Z " fill="#ECEEF5" transform="translate(307,513)"/>
<path d="M0 0 C0.99 0.33 1.98 0.66 3 1 C2.175 1.639375 1.35 2.27875 0.5 2.9375 C-2.47804157 6.58560092 -2.67563506 8.42069102 -2.44140625 12.984375 C-2.15314322 15.2111271 -2.15314322 15.2111271 0 16.875 C0.66 17.24625 1.32 17.6175 2 18 C2 18.99 2 19.98 2 21 C-1.05665662 20.09126425 -2.72305703 19.32469175 -4.8125 16.875 C-6.35859693 13.13181797 -6.7503007 9.99353597 -6 6 C-4.20636089 3.1899654 -2.98119065 1.49059532 0 0 Z " fill="#ECEFF5" transform="translate(224,477)"/>
<path d="M0 0 C0.66 0.33 1.32 0.66 2 1 C2 1.66 2 2.32 2 3 C1.01 3.556875 1.01 3.556875 0 4.125 C-2.42504514 5.99916983 -2.42504514 5.99916983 -2.5 9.9375 C-2.35997328 13.12310779 -2.17429417 13.79847236 0 16.3125 C0.66 16.869375 1.32 17.42625 2 18 C2 18.99 2 19.98 2 21 C-1.09891358 20.07870137 -2.72788114 19.32841931 -4.8125 16.8125 C-6.31045832 13.26470398 -6.40955165 10.82248206 -6 7 C-4.34860695 3.4613006 -3.28394771 2.18929847 0 0 Z " fill="#EBEDF4" transform="translate(420,513)"/>
<path d="M0 0 C0.99 0 1.98 0 3 0 C3 1.32 3 2.64 3 4 C2.01 4.495 2.01 4.495 1 5 C-0.13102526 7.34038186 -0.13102526 7.34038186 -1.125 10.0625 C-1.47820312 10.98160156 -1.83140625 11.90070313 -2.1953125 12.84765625 C-2.46085937 13.55792969 -2.72640625 14.26820313 -3 15 C-1.02 15 0.96 15 3 15 C3 15.33 3 15.66 3 16 C0.69 16 -1.62 16 -4 16 C-4.33 17.65 -4.66 19.3 -5 21 C-5.99 20.67 -6.98 20.34 -8 20 C-6.85865495 16.85251982 -5.71117657 13.70731119 -4.5625 10.5625 C-4.07426758 9.21575195 -4.07426758 9.21575195 -3.57617188 7.84179688 C-3.26357422 6.98779297 -2.95097656 6.13378906 -2.62890625 5.25390625 C-2.34088135 4.46314697 -2.05285645 3.6723877 -1.75610352 2.85766602 C-1 1 -1 1 0 0 Z " fill="#EDEFF6" transform="translate(410,477)"/>
<path d="M0 0 C3.65316671 1.24976756 4.78065836 1.67098753 7 5 C7.5454104 8.06578057 7.53808365 10.9329232 7 14 C4.47031526 17.28175318 2.92268669 18.69243777 -1 20 C-1 19.01 -1 18.02 -1 17 C-0.34 16.62875 0.32 16.2575 1 15.875 C3.43306556 13.59400104 3.37248075 12.8089276 3.5 9.5625 C3.36620625 6.13960984 3.1798625 5.23044882 1 2.4375 C0.34 1.963125 -0.32 1.48875 -1 1 C-0.67 0.67 -0.34 0.34 0 0 Z " fill="#E9EBF3" transform="translate(475,514)"/>
<path d="M0 0 C3.375 -0.125 3.375 -0.125 7 0 C7.66 0.66 8.32 1.32 9 2 C8.44444444 6.55555556 8.44444444 6.55555556 7 8 C4.66702567 8.04092937 2.33294775 8.04241723 0 8 C0 5.36 0 2.72 0 0 Z " fill="#375097" transform="translate(700,479)"/>
<path d="M0 0 C4.62 0 9.24 0 14 0 C14 0.66 14 1.32 14 2 C12.02 2 10.04 2 8 2 C8 8.27 8 14.54 8 21 C7.34 21 6.68 21 6 21 C6 14.73 6 8.46 6 2 C4.02 2 2.04 2 0 2 C0 1.34 0 0.68 0 0 Z " fill="#F9F9FC" transform="translate(644,477)"/>
<path d="M0 0 C5.43806647 -0.36253776 5.43806647 -0.36253776 7.9375 1.25 C9 3 9 3 8.75 5.125 C8 7 8 7 7 8 C4.66702567 8.04092937 2.33294775 8.04241723 0 8 C0 5.36 0 2.72 0 0 Z " fill="#304A93" transform="translate(441,515)"/>
<path d="M0 0 C0.99 0 1.98 0 3 0 C3 6.93 3 13.86 3 21 C2.01 21 1.02 21 0 21 C0 14.07 0 7.14 0 0 Z " fill="#D8B54B" transform="translate(375,552)"/>
<path d="M0 0 C0.99 0 1.98 0 3 0 C3 6.93 3 13.86 3 21 C2.01 21 1.02 21 0 21 C0 14.07 0 7.14 0 0 Z " fill="#E1E5EF" transform="translate(486,513)"/>
<path d="M0 0 C0.99 0 1.98 0 3 0 C3 6.93 3 13.86 3 21 C2.01 21 1.02 21 0 21 C0 14.07 0 7.14 0 0 Z " fill="#E1E5EF" transform="translate(502,477)"/>
<path d="M0 0 C0.99 0 1.98 0 3 0 C2.6875 2.875 2.6875 2.875 2 6 C1.01 6.66 0.02 7.32 -1 8 C0.19899698 11.0831351 1.47700477 14.06279492 3 17 C1.68 17 0.36 17 -1 17 C-5 10.375 -5 10.375 -5 7 C-6.32 6.67 -7.64 6.34 -9 6 C-5.535 5.505 -5.535 5.505 -2 5 C-1.34 3.35 -0.68 1.7 0 0 Z " fill="#E8EBF3" transform="translate(709,481)"/>
<path d="M0 0 C2.97 0 5.94 0 9 0 C9 0.66 9 1.32 9 2 C6.69 2 4.38 2 2 2 C2 4.97 2 7.94 2 11 C3.32 11.33 4.64 11.66 6 12 C4.68 12 3.36 12 2 12 C2 14.97 2 17.94 2 21 C1.34 21 0.68 21 0 21 C0 14.07 0 7.14 0 0 Z " fill="#F0C543" transform="translate(383,552)"/>
<path d="M0 0 C0.66 0 1.32 0 2 0 C2 6.27 2 12.54 2 19 C4.64 19 7.28 19 10 19 C10 19.66 10 20.32 10 21 C6.7 21 3.4 21 0 21 C0 14.07 0 7.14 0 0 Z " fill="#FBFBFD" transform="translate(424,477)"/>
<path d="M0 0 C1.90318884 2.85478326 2.4619099 4.41941308 3.125 7.6875 C3.29257813 8.49574219 3.46015625 9.30398438 3.6328125 10.13671875 C3.75398437 10.75160156 3.87515625 11.36648438 4 12 C1.36 12 -1.28 12 -4 12 C-3.52494322 10.18641846 -3.04483958 8.37415821 -2.5625 6.5625 C-2.29566406 5.55316406 -2.02882812 4.54382813 -1.75390625 3.50390625 C-1 1 -1 1 0 0 Z " fill="#D9DEEB" transform="translate(239,316)"/>
<path d="M0 0 C0 0.66 0 1.32 0 2 C2.64 2.33 5.28 2.66 8 3 C8 3.99 8 4.98 8 6 C3.05 6 -1.9 6 -7 6 C-4 0 -4 0 0 0 Z " fill="#C9AB50" transform="translate(568,567)"/>
<path d="M0 0 C3.6875 0.375 3.6875 0.375 6.125 2.75 C7.6875 5.375 7.6875 5.375 7.6875 7.375 C7.0275 7.375 6.3675 7.375 5.6875 7.375 C5.6875 10.345 5.6875 13.315 5.6875 16.375 C5.3575 16.375 5.0275 16.375 4.6875 16.375 C4.3575 12.085 4.0275 7.795 3.6875 3.375 C0.3875 4.035 -2.9125 4.695 -6.3125 5.375 C-3.8425 0.435 -3.8425 0.435 0 0 Z " fill="#D3B14D" transform="translate(458.3125,550.625)"/>
<path d="M0 0 C2.33294775 -0.04241723 4.66702567 -0.04092937 7 0 C8 1 8 1 8.125 3.5 C8 6 8 6 7 7 C4.66702567 7.04092937 2.33294775 7.04241723 0 7 C0 4.69 0 2.38 0 0 Z " fill="#223D8C" transform="translate(374,516)"/>
<path d="M0 0 C2.33294775 -0.04241723 4.66702567 -0.04092937 7 0 C8 1 8 1 8.125 3.5 C8 6 8 6 7 7 C4.66702567 7.04092937 2.33294775 7.04241723 0 7 C0 4.69 0 2.38 0 0 Z " fill="#223E8C" transform="translate(291,480)"/>
<path d="M0 0 C2.33294775 -0.04241723 4.66702567 -0.04092937 7 0 C8 1 8 1 8.0625 3.5625 C8.041875 4.366875 8.02125 5.17125 8 6 C5.29120665 7.35439668 2.99066732 7.06501451 0 7 C0 4.69 0 2.38 0 0 Z " fill="#213C88" transform="translate(361,555)"/>
<path d="M0 0 C2.31 0 4.62 0 7 0 C7.625 2.375 7.625 2.375 8 5 C6 7 6 7 2.875 7.125 C1.451875 7.063125 1.451875 7.063125 0 7 C0 4.69 0 2.38 0 0 Z " fill="#223C88" transform="translate(386,555)"/>
<path d="M0 0 C0.66 0 1.32 0 2 0 C2 6.93 2 13.86 2 21 C1.01 21 0.02 21 -1 21 C-1.66 19.35 -2.32 17.7 -3 16 C-2.01 16 -1.02 16 0 16 C0 10.72 0 5.44 0 0 Z " fill="#FCFCFD" transform="translate(592,513)"/>
<path d="M0 0 C0.66 0 1.32 0 2 0 C2 3.3 2 6.6 2 10 C5.3 10 8.6 10 12 10 C12 10.33 12 10.66 12 11 C8.7 11 5.4 11 2 11 C2 14.3 2 17.6 2 21 C1.34 21 0.68 21 0 21 C0 14.07 0 7.14 0 0 Z " fill="#FDFEFE" transform="translate(662,477)"/>
<path d="M0 0 C0.66 0 1.32 0 2 0 C2.99 3.63 3.98 7.26 5 11 C2.36 11 -0.28 11 -3 11 C-2.01 7.37 -1.02 3.74 0 0 Z " fill="#DEE2EE" transform="translate(353,317)"/>
<path d="M0 0 C2 1 2 1 3.125 3.8125 C4 7 4 7 4 11 C1.69 11 -0.62 11 -3 11 C-2.44894091 7.0507432 -1.61064629 3.65079826 0 0 Z " fill="#E1E5EF" transform="translate(486,317)"/>
<path d="M0 0 C0.66 0 1.32 0 2 0 C2.30322273 3.86608977 2.31343223 6.37313554 0.5625 9.875 C-3.05354597 12.87367227 -6.41609306 12.8922586 -11 13 C-11 12.34 -11 11.68 -11 11 C-9.906875 10.773125 -8.81375 10.54625 -7.6875 10.3125 C-3.92910401 9.34290903 -3.92910401 9.34290903 -2.125 6.625 C-1.17052877 4.39790045 -0.44019778 2.37706802 0 0 Z " fill="#F0F2F7" transform="translate(353,485)"/>
<path d="M0 0 C3.5625 0.3125 3.5625 0.3125 5.5 1.5 C6.89101983 3.87291618 6.78167317 5.60936424 6.5625 8.3125 C5.9025 8.3125 5.2425 8.3125 4.5625 8.3125 C3.9025 6.6625 3.2425 5.0125 2.5625 3.3125 C0.12532742 3.58284634 0.12532742 3.58284634 -2.4375 4.3125 C-3.4275 5.7975 -3.4275 5.7975 -4.4375 7.3125 C-5.0975 7.3125 -5.7575 7.3125 -6.4375 7.3125 C-5.67266544 2.46854777 -5.30770607 0.48251873 0 0 Z " fill="#ECC244" transform="translate(532.4375,550.6875)"/>
<path d="M0 0 C0.66 0 1.32 0 2 0 C2.49029622 7.23186925 2.49029622 7.23186925 0.125 10.9375 C-2.58284512 13.56570262 -3.32057956 13.98641159 -7.125 14.0625 C-8.548125 14.0315625 -8.548125 14.0315625 -10 14 C-10.33 13.34 -10.66 12.68 -11 12 C-9.88625 11.690625 -8.7725 11.38125 -7.625 11.0625 C-4.2054845 10.17673517 -4.2054845 10.17673517 -2 9 C-1.31270746 6.88153715 -1.31270746 6.88153715 -0.875 4.4375 C-0.62363281 3.19806641 -0.62363281 3.19806641 -0.3671875 1.93359375 C-0.24601563 1.29550781 -0.12484375 0.65742188 0 0 Z " fill="#F5F6FA" transform="translate(639,484)"/>
<path d="M0 0 C0.99 0 1.98 0 3 0 C2.52434234 2.45906037 2.04463948 4.91720993 1.5625 7.375 C1.42779297 8.07367187 1.29308594 8.77234375 1.15429688 9.4921875 C0.11328125 14.7734375 0.11328125 14.7734375 -1 17 C-1.66 17 -2.32 17 -3 17 C-2.48517081 11.147205 -1.54642808 5.6702363 0 0 Z " fill="#E2BC48" transform="translate(519,545)"/>
<path d="M0 0 C1.01560704 2.58518155 1.14715729 3.6468225 0.0625 6.25 C-2.68996216 8.58542243 -4.60236618 8.50943703 -8.125 8.328125 C-10 8 -10 8 -12 6.6875 C-13 5 -13 5 -13 2 C-12.01 2 -11.02 2 -10 2 C-9.01 3.485 -9.01 3.485 -8 5 C-4.39007621 4.34414811 -4.39007621 4.34414811 -1 3 C-0.67 2.01 -0.34 1.02 0 0 Z " fill="#E8EBF3" transform="translate(506,526)"/>
<path d="M0 0 C1.01560704 2.58518155 1.14715729 3.6468225 0.0625 6.25 C-2.68996216 8.58542243 -4.60236618 8.50943703 -8.125 8.328125 C-10 8 -10 8 -12 6.6875 C-13 5 -13 5 -13 2 C-12.01 2 -11.02 2 -10 2 C-10 2.99 -10 3.98 -10 5 C-5.2102679 5.23428313 -5.2102679 5.23428313 -1 3 C-0.67 2.01 -0.34 1.02 0 0 Z " fill="#E6E9F1" transform="translate(402,526)"/>
<path d="M0 0 C3.62221751 0.60370292 4.79551272 1.61720894 7 4.5 C7 5.16 7 5.82 7 6.5 C6.01 6.5 5.02 6.5 4 6.5 C3.34 5.51 2.68 4.52 2 3.5 C-1.68754757 3.99831724 -3.60490662 4.60067643 -6 7.5 C-6.33 6.51 -6.66 5.52 -7 4.5 C-4.73943528 1.7177665 -3.5944274 0.59907123 0 0 Z " fill="#D4B24C" transform="translate(587,550.5)"/>
<path d="M0 0 C0.66 0 1.32 0 2 0 C2.61891117 8.85386819 2.61891117 8.85386819 0.3125 13.125 C-2 15 -2 15 -4.75 15.3125 C-5.86375 15.1578125 -5.86375 15.1578125 -7 15 C-7 14.34 -7 13.68 -7 13 C-5.35 12.67 -3.7 12.34 -2 12 C-1.34 8.04 -0.68 4.08 0 0 Z " fill="#EBC145" transform="translate(464,558)"/>
<path d="M0 0 C2.31 0 4.62 0 7 0 C7.103125 0.70125 7.20625 1.4025 7.3125 2.125 C8.09359003 5.39137647 9.42058743 8.0471852 11 11 C9.1875 10.8125 9.1875 10.8125 7 10 C4 5.82142857 4 5.82142857 4 3 C2.68 2.67 1.36 2.34 0 2 C0 1.34 0 0.68 0 0 Z " fill="#E2E6F0" transform="translate(374,523)"/>
<path d="M0 0 C2.18975773 3.28463659 2.99806563 6.20696275 4 10 C1.69 10 -0.62 10 -3 10 C-2.69201674 8.51988629 -2.378482 7.04092675 -2.0625 5.5625 C-1.88847656 4.73878906 -1.71445312 3.91507812 -1.53515625 3.06640625 C-1 1 -1 1 0 0 Z " fill="#324C94" transform="translate(411,481)"/>
<path d="M0 0 C0.33 0 0.66 0 1 0 C1.08636719 0.61488281 1.17273438 1.22976563 1.26171875 1.86328125 C2.04103275 7.1897961 2.04103275 7.1897961 5.625 10.9375 C6.40875 11.288125 7.1925 11.63875 8 12 C8 12.66 8 13.32 8 14 C5.75 14.375 5.75 14.375 3 14 C0.26815274 10.89898419 -0.91505299 8.88344889 -1.3125 4.75 C-1 2 -1 2 0 0 Z " fill="#E2BC48" transform="translate(544,559)"/>
<path d="M0 0 C2.97903734 2.97903734 4 5.80285329 4 10 C1.69 10 -0.62 10 -3 10 C-2.01 6.7 -1.02 3.4 0 0 Z " fill="#2F4992" transform="translate(562,481)"/>
<path d="M0 0 C7.76785714 -0.66964286 7.76785714 -0.66964286 11.5 2.375 C14 5 14 5 14 7 C12.68 6.67 11.36 6.34 10 6 C10 5.34 10 4.68 10 4 C9.37351562 3.93941406 8.74703125 3.87882812 8.1015625 3.81640625 C7.28429687 3.73261719 6.46703125 3.64882813 5.625 3.5625 C4.40683594 3.44068359 4.40683594 3.44068359 3.1640625 3.31640625 C1 3 1 3 -1 2 C-0.67 1.34 -0.34 0.68 0 0 Z " fill="#E9EBF3" transform="translate(627,477)"/>
<path d="M0 0 C0.99 0.66 1.98 1.32 3 2 C3 2.99 3 3.98 3 5 C2.01 5 1.02 5 0 5 C0 4.34 0 3.68 0 3 C-3.94727588 2.82057837 -6.5980513 2.90649311 -10 5 C-9.625 3.0625 -9.625 3.0625 -9 1 C-5.98131566 -0.50934217 -3.32702771 -0.17510672 0 0 Z " fill="#EBEEF5" transform="translate(625,513)"/>
<path d="M0 0 C0 1.98 0 3.96 0 6 C-0.99 5.67 -1.98 5.34 -3 5 C-3.6875 2.9375 -3.6875 2.9375 -4 1 C-6.31 0.67 -8.62 0.34 -11 0 C-11 2.31 -11 4.62 -11 7 C-11.33 7 -11.66 7 -12 7 C-12 4.36 -12 1.72 -12 -1 C-3.42857143 -2.42857143 -3.42857143 -2.42857143 0 0 Z " fill="#CBD2E4" transform="translate(302,480)"/>
<path d="M0 0 C3.6875 0.3125 3.6875 0.3125 6.125 2.3125 C6.8984375 3.3025 6.8984375 3.3025 7.6875 4.3125 C6.6975 4.6425 5.7075 4.9725 4.6875 5.3125 C3.6975 4.6525 2.7075 3.9925 1.6875 3.3125 C-1.15370234 3.66765029 -3.59297752 4.40599251 -6.3125 5.3125 C-3.92091837 0.36989796 -3.92091837 0.36989796 0 0 Z " fill="#E6BE47" transform="translate(422.3125,551.6875)"/>
<path d="M0 0 C0.99 0.33 1.98 0.66 3 1 C2.195625 1.680625 1.39125 2.36125 0.5625 3.0625 C-2.42288711 6.48477302 -2.73781251 8.5428126 -3 13 C-5.08489627 10.74831203 -6 9.62263575 -6 6.5 C-4.67312424 3.18281059 -3.01073729 1.86378975 0 0 Z " fill="#DCE0ED" transform="translate(307,513)"/>
<path d="M0 0 C2.475 0.99 2.475 0.99 5 2 C4.360625 2.309375 3.72125 2.61875 3.0625 2.9375 C1.06389179 3.8345163 1.06389179 3.8345163 0 5 C-0.23075082 6.34747084 -0.41153063 7.70377565 -0.5625 9.0625 C-0.7790625 11.0115625 -0.7790625 11.0115625 -1 13 C-2.5625 11.9375 -2.5625 11.9375 -4 10 C-3.87059529 6.3766682 -3.75012072 3.93014969 -1.4375 1.0625 C-0.7259375 0.5365625 -0.7259375 0.5365625 0 0 Z " fill="#CCAD4F" transform="translate(547,551)"/>
<path d="M0 0 C0.33 1.65 0.66 3.3 1 5 C0.01 5.33 -0.98 5.66 -2 6 C-2.33 4.68 -2.66 3.36 -3 2 C-5.31 1.67 -7.62 1.34 -10 1 C-10 3.31 -10 5.62 -10 8 C-10.33 8 -10.66 8 -11 8 C-11 5.36 -11 2.72 -11 0 C-3.375 -1.125 -3.375 -1.125 0 0 Z " fill="#C6A951" transform="translate(371,554)"/>
<path d="M0 0 C0.33 0.99 0.66 1.98 1 3 C0.67 3.66 0.34 4.32 0 5 C1.98 5 3.96 5 6 5 C6 5.33 6 5.66 6 6 C3.69 6 1.38 6 -1 6 C-1.33 7.65 -1.66 9.3 -2 11 C-2.99 10.67 -3.98 10.34 -5 10 C-4.35699811 8.51960029 -3.71051501 7.04071218 -3.0625 5.5625 C-2.70285156 4.73878906 -2.34320313 3.91507812 -1.97265625 3.06640625 C-1 1 -1 1 0 0 Z " fill="#F5F6F9" transform="translate(407,487)"/>
<path d="M0 0 C0.99 0.33 1.98 0.66 3 1 C2.195625 1.680625 1.39125 2.36125 0.5625 3.0625 C-2.42288711 6.48477302 -2.73781251 8.5428126 -3 13 C-3.33 13 -3.66 13 -4 13 C-4.144375 12.21625 -4.28875 11.4325 -4.4375 10.625 C-4.87798925 8.03578982 -4.87798925 8.03578982 -6 6 C-2.25 1.125 -2.25 1.125 0 0 Z " fill="#D9DDEB" transform="translate(224,477)"/>
<path d="M0 0 C0.33 0.66 0.66 1.32 1 2 C1.66 2 2.32 2 3 2 C2.34 5.3 1.68 8.6 1 12 C0.01 12 -0.98 12 -2 12 C-1 3.42857143 -1 3.42857143 0 0 Z " fill="#D2B14D" transform="translate(472,566)"/>
<path d="M0 0 C3.65316671 1.24976756 4.78065836 1.67098753 7 5 C7 5.99 7 6.98 7 8 C6.34 8 5.68 8 5 8 C4.67 8.99 4.34 9.98 4 11 C3.731875 9.906875 3.46375 8.81375 3.1875 7.6875 C2.12336261 4.38307337 1.65345336 3.05039578 -1 1 C-0.67 0.67 -0.34 0.34 0 0 Z " fill="#E2E5EF" transform="translate(547,514)"/>
<path d="M0 0 C1.32 0.66 2.64 1.32 4 2 C4 4.31 4 6.62 4 9 C2.02 9.99 2.02 9.99 0 11 C0.33 8.03 0.66 5.06 1 2 C0.34 1.67 -0.32 1.34 -1 1 C-0.67 0.67 -0.34 0.34 0 0 Z " fill="#EEF0F6" transform="translate(448,514)"/>
<path d="M0 0 C1.41687119 4.25061356 0.19320039 6.71851625 -1 11 C-2.32 11 -3.64 11 -5 11 C-5 9.68 -5 8.36 -5 7 C-4.01 7 -3.02 7 -2 7 C-2.061875 5.824375 -2.061875 5.824375 -2.125 4.625 C-2 2 -2 2 0 0 Z " fill="#F2F3F8" transform="translate(495,487)"/>
<path d="M0 0 C0.99 0 1.98 0 3 0 C3.67154933 1.28913487 4.33708859 2.58140204 5 3.875 C5.37125 4.59429687 5.7425 5.31359375 6.125 6.0546875 C7 8 7 8 7 10 C6.01 10 5.02 10 4 10 C3.32845067 8.71086513 2.66291141 7.41859796 2 6.125 C1.62875 5.40570313 1.2575 4.68640625 0.875 3.9453125 C0 2 0 2 0 0 Z " fill="#E0E4EF" transform="translate(595,477)"/>
<path d="M0 0 C0.99 0.33 1.98 0.66 3 1 C3.33 3.31 3.66 5.62 4 8 C4.66 8 5.32 8 6 8 C6 8.66 6 9.32 6 10 C4.68 10.33 3.36 10.66 2 11 C0.80712589 7.12315913 0 4.08378077 0 0 Z " fill="#DFE3EE" transform="translate(487,484)"/>
<path d="M0 0 C0.33 0 0.66 0 1 0 C1 3.63 1 7.26 1 11 C0.34 11 -0.32 11 -1 11 C-2.50662097 7.98675805 -2.17770373 5.31713623 -2 2 C-1.34 1.34 -0.68 0.68 0 0 Z " fill="#EFF1F6" transform="translate(512,518)"/>
<path d="M0 0 C2.375 0.6875 2.375 0.6875 5 2 C6.3125 4.625 6.3125 4.625 7 7 C6.34 7 5.68 7 5 7 C4.67 8.32 4.34 9.64 4 11 C3.731875 9.906875 3.46375 8.81375 3.1875 7.6875 C2.12336261 4.38307337 1.65345336 3.05039578 -1 1 C-0.67 0.67 -0.34 0.34 0 0 Z " fill="#DDE1ED" transform="translate(475,514)"/>
<path d="M0 0 C0.99 0 1.98 0 3 0 C3.99 3.3 4.98 6.6 6 10 C5.01 10 4.02 10 3 10 C2.01 6.7 1.02 3.4 0 0 Z " fill="#E7EAF3" transform="translate(382,477)"/>
<path d="M0 0 C2.79828356 0.38597015 3.8205884 0.80136573 5.75 2.9375 C7 5 7 5 7 7 C6.34 7 5.68 7 5 7 C4.67 8.32 4.34 9.64 4 11 C3.71125 9.9275 3.4225 8.855 3.125 7.75 C2.27179891 4.90599636 1.4363497 2.56491017 0 0 Z " fill="#DCE1ED" transform="translate(348,478)"/>
<path d="M0 0 C0.99 0 1.98 0 3 0 C4.65 2.97 6.3 5.94 8 9 C4 8 4 8 1.75 5.0625 C0 2 0 2 0 0 Z " fill="#E4E7F1" transform="translate(580,484)"/>
<path d="M0 0 C0.33 0.66 0.66 1.32 1 2 C-0.63412443 3.70840281 -1.86906094 4.93453047 -4 6 C-5.99960012 6.039992 -8.00047242 6.04346799 -10 6 C-10 5.34 -10 4.68 -10 4 C-8.906875 3.71125 -7.81375 3.4225 -6.6875 3.125 C-2.95986155 2.18106796 -2.95986155 2.18106796 0 0 Z " fill="#F4F5F9" transform="translate(319,528)"/>
<path d="M0 0 C3.87540045 -0.17615457 6.75515269 -0.28341107 10 2 C10.33 2.99 10.66 3.98 11 5 C5 3.5 5 3.5 -1 2 C-0.67 1.34 -0.34 0.68 0 0 Z " fill="#F3F5F9" transform="translate(422,513)"/>
<path d="M0 0 C0.99 0 1.98 0 3 0 C1.82744291 3.33727786 0.81131596 5.77437487 -2 8 C-2.66 8 -3.32 8 -4 8 C-2.87548273 5.0280615 -1.77706209 2.66559313 0 0 Z " fill="#DAB64A" transform="translate(351,552)"/>
<path d="M0 0 C0.99 0.99 1.98 1.98 3 3 C0.03 5.475 0.03 5.475 -3 8 C-3.66 7.67 -4.32 7.34 -5 7 C-4.34 6.01 -3.68 5.02 -3 4 C-2.34 4 -1.68 4 -1 4 C-0.67 2.68 -0.34 1.36 0 0 Z " fill="#DFE3EE" transform="translate(458,490)"/>
<path d="M0 0 C0.99 0 1.98 0 3 0 C2.75 2.875 2.75 2.875 2 6 C-0.0625 7.375 -0.0625 7.375 -2 8 C-1.33333333 5.33333333 -0.66666667 2.66666667 0 0 Z " fill="#E1E5EF" transform="translate(709,481)"/>
<path d="M0 0 C0.33 0.66 0.66 1.32 1 2 C1.66 2 2.32 2 3 2 C2.67 4.31 2.34 6.62 2 9 C1.01 8.67 0.02 8.34 -1 8 C-0.67 5.36 -0.34 2.72 0 0 Z " fill="#C4A752" transform="translate(515,560)"/>
<path d="M0 0 C0.33 0.99 0.66 1.98 1 3 C-0.375 4.5 -0.375 4.5 -2 6 C-2.66 6 -3.32 6 -4 6 C-4 5.34 -4 4.68 -4 4 C-4.99 3.67 -5.98 3.34 -7 3 C-4.69 2.01 -2.38 1.02 0 0 Z " fill="#CFAF4E" transform="translate(556,567)"/>
<path d="M0 0 C2.5 1.8125 2.5 1.8125 5 4 C5 4.99 5 5.98 5 7 C2.5625 6.1875 2.5625 6.1875 0 5 C-0.33 4.01 -0.66 3.02 -1 2 C-0.67 1.34 -0.34 0.68 0 0 Z " fill="#E0E3EE" transform="translate(513,527)"/>
<path d="M0 0 C2.5 1.8125 2.5 1.8125 5 4 C5 4.99 5 5.98 5 7 C2.5625 6.1875 2.5625 6.1875 0 5 C-0.33 4.01 -0.66 3.02 -1 2 C-0.67 1.34 -0.34 0.68 0 0 Z " fill="#DEE2EE" transform="translate(417,527)"/>
<path d="M0 0 C2.475 0.495 2.475 0.495 5 1 C5.33 2.65 5.66 4.3 6 6 C5.01 6.495 5.01 6.495 4 7 C1.125 2.25 1.125 2.25 0 0 Z " fill="#F0F2F7" transform="translate(396,523)"/>
<path d="M0 0 C0.99 0 1.98 0 3 0 C5 3 5 3 5 6 C3.0625 5.25 3.0625 5.25 1 4 C0.25 1.875 0.25 1.875 0 0 Z " fill="#D5B34C" transform="translate(484,567)"/>
<path d="M0 0 C0.99 0 1.98 0 3 0 C5 3 5 3 5 6 C3.0625 5.25 3.0625 5.25 1 4 C0.25 1.875 0.25 1.875 0 0 Z " fill="#D2B14D" transform="translate(416,567)"/>
<path d="M0 0 C0.66 0.33 1.32 0.66 2 1 C1 3 0 5 -1 7 C-1.66 7 -2.32 7 -3 7 C-2.25 2.25 -2.25 2.25 0 0 Z " fill="#DAB64A" transform="translate(565,551)"/>
<path d="M0 0 C0.66 0.33 1.32 0.66 2 1 C1 3 0 5 -1 7 C-1.66 7 -2.32 7 -3 7 C-2.25 2.25 -2.25 2.25 0 0 Z " fill="#DBB74A" transform="translate(529,551)"/>
<path d="M0 0 C0.99 0 1.98 0 3 0 C3 0.99 3 1.98 3 3 C3.66 3 4.32 3 5 3 C5 3.99 5 4.98 5 6 C3.68 5.67 2.36 5.34 1 5 C0.67 3.35 0.34 1.7 0 0 Z " fill="#DBDFEC" transform="translate(615,528)"/>
<path d="M0 0 C0.99 0 1.98 0 3 0 C5 3 5 3 5 6 C3.0625 5.25 3.0625 5.25 1 4 C0.25 1.875 0.25 1.875 0 0 Z " fill="#DBDFEC" transform="translate(493,528)"/>
<path d="M0 0 C0.66 0.33 1.32 0.66 2 1 C2 1.66 2 2.32 2 3 C-2.38461538 6 -2.38461538 6 -5 6 C-3.63016497 2.83884224 -3.0109362 2.0072908 0 0 Z " fill="#DEE2EE" transform="translate(516,513)"/>
<path d="M0 0 C0.66 0.33 1.32 0.66 2 1 C2 1.66 2 2.32 2 3 C-2.38461538 6 -2.38461538 6 -5 6 C-3.63016497 2.83884224 -3.0109362 2.0072908 0 0 Z " fill="#DDE1ED" transform="translate(420,513)"/>
<path d="M0 0 C0.99 0 1.98 0 3 0 C3.99 1.98 4.98 3.96 6 6 C4.125 5.8125 4.125 5.8125 2 5 C0.75 2.4375 0.75 2.4375 0 0 Z " fill="#E4E7F1" transform="translate(318,482)"/>
<path d="M0 0 C0.66 0.66 1.32 1.32 2 2 C3.31747324 2.69748583 4.64914193 3.36959957 6 4 C5.01 4 4.02 4 3 4 C3 4.66 3 5.32 3 6 C1.68 5.34 0.36 4.68 -1 4 C-0.67 2.68 -0.34 1.36 0 0 Z " fill="#C8AA50" transform="translate(454,567)"/>
<path d="M0 0 C2.475 0.99 2.475 0.99 5 2 C2.36095629 3.41377341 -0.07120629 4.37240135 -3 5 C-1.125 1.125 -1.125 1.125 0 0 Z " fill="#C7A951" transform="translate(455,551)"/>
<path d="M0 0 C0.6875 1.75 0.6875 1.75 1 4 C-0.3125 6.25 -0.3125 6.25 -2 8 C-2.66 8 -3.32 8 -4 8 C-3.625 6.0625 -3.625 6.0625 -3 4 C-2.34 3.67 -1.68 3.34 -1 3 C-0.67 2.01 -0.34 1.02 0 0 Z " fill="#DBDFEC" transform="translate(402,526)"/>
<path d="M0 0 C0.66 0 1.32 0 2 0 C1.67 2.31 1.34 4.62 1 7 C0.01 7 -0.98 7 -2 7 C-1.34 4.69 -0.68 2.38 0 0 Z " fill="#F1F3F8" transform="translate(552,522)"/>
<path d="M0 0 C2.31 0.33 4.62 0.66 7 1 C6.67 1.99 6.34 2.98 6 4 C3.69 3.34 1.38 2.68 -1 2 C-0.67 1.34 -0.34 0.68 0 0 Z " fill="#F5F7FA" transform="translate(310,513)"/>
<path d="M0 0 C1.74627478 2.61941217 2.38722388 4.03824877 3 7 C2.01 7.33 1.02 7.66 0 8 C-1.125 2.25 -1.125 2.25 0 0 Z " fill="#E2E6F0" transform="translate(413,479)"/>
</svg>
