<?xml version="1.0" encoding="UTF-8"?>
<svg version="1.1" xmlns="http://www.w3.org/2000/svg" width="620" height="401">
<path d="M0 0 C204.6 0 409.2 0 620 0 C620 132.33 620 264.66 620 401 C415.4 401 210.8 401 0 401 C0 268.67 0 136.34 0 0 Z " fill="#1F3A8A" transform="translate(0,0)"/>
<path d="M0 0 C157.74 0 315.48 0 478 0 C478 72.6 478 145.2 478 220 C320.26 220 162.52 220 0 220 C0 147.4 0 74.8 0 0 Z " fill="#FDFDFE" transform="translate(72,40)"/>
<path d="M0 0 C157.74 0 315.48 0 478 0 C478 72.6 478 145.2 478 220 C320.26 220 162.52 220 0 220 C0 147.4 0 74.8 0 0 Z M8 8 C8 75.32 8 142.64 8 212 C160.46 212 312.92 212 470 212 C470 144.68 470 77.36 470 8 C317.54 8 165.08 8 8 8 Z " fill="#A8C4FB" transform="translate(72,40)"/>
<path d="M0 0 C43 0 43 0 52.375 6.25 C57.67815814 11.80568947 59.25182285 16.26514539 59.5 24 C59.26895377 30.97610561 58.14371822 35.6050888 53.38671875 40.7421875 C49.88631307 43.98646593 46.70592711 45.8522129 42 47 C46.33965116 55.29863116 51.13828881 63.28976237 56.03613281 71.26855469 C56.80328613 72.52974121 56.80328613 72.52974121 57.5859375 73.81640625 C58.0504834 74.57381104 58.5150293 75.33121582 58.99365234 76.11157227 C60 78 60 78 60 80 C57.11987347 80.24453905 54.260522 80.42157916 51.375 80.5625 C50.56675781 80.63791016 49.75851562 80.71332031 48.92578125 80.79101562 C46.36217473 80.88480611 44.44461936 80.79451511 42 80 C39.30845128 77.37384696 37.72783368 74.31377537 36 71 C35.00331441 69.27172563 34.00591341 67.54386364 33.0078125 65.81640625 C32.04267275 64.06741651 31.08174365 62.31609672 30.125 60.5625 C29.62742187 59.66595703 29.12984375 58.76941406 28.6171875 57.84570312 C28.14796875 56.99041016 27.67875 56.13511719 27.1953125 55.25390625 C26.77266113 54.48377197 26.35000977 53.7136377 25.91455078 52.92016602 C25 51 25 51 25 49 C22.36 49 19.72 49 17 49 C17 59.23 17 69.46 17 80 C11.39 80 5.78 80 0 80 C0 53.6 0 27.2 0 0 Z " fill="#223E8C" transform="translate(251,98)"/>
<path d="M0 0 C15.51 0 31.02 0 47 0 C47 4.29 47 8.58 47 13 C36.77 13 26.54 13 16 13 C16 19.6 16 26.2 16 33 C25.24 33 34.48 33 44 33 C44 37.29 44 41.58 44 46 C35.09 46 26.18 46 17 46 C17 52.93 17 59.86 17 67 C26.9 67 36.8 67 47 67 C47 71.29 47 75.58 47 80 C31.49 80 15.98 80 0 80 C0 53.6 0 27.2 0 0 Z " fill="#233E8C" transform="translate(386,98)"/>
<path d="M0 0 C15.51 0 31.02 0 47 0 C47 4.29 47 8.58 47 13 C36.77 13 26.54 13 16 13 C16 19.6 16 26.2 16 33 C24.91 33 33.82 33 43 33 C43 37.29 43 41.58 43 46 C34.09 46 25.18 46 16 46 C16 52.93 16 59.86 16 67 C26.23 67 36.46 67 47 67 C47 71.29 47 75.58 47 80 C31.49 80 15.98 80 0 80 C0 53.6 0 27.2 0 0 Z " fill="#203C8B" transform="translate(325,98)"/>
<path d="M0 0 C16.5 0 33 0 50 0 C50 4.29 50 8.58 50 13 C39.11 13 28.22 13 17 13 C17 19.6 17 26.2 17 33 C25.25 33 33.5 33 42 33 C42 37.29 42 41.58 42 46 C33.42 46 24.84 46 16 46 C16 57.22 16 68.44 16 80 C10.72 80 5.44 80 0 80 C0 53.6 0 27.2 0 0 Z " fill="#243F8D" transform="translate(190,98)"/>
<path d="M0 0 C11.32053805 1.88675634 20.72548738 3.69391674 27.6328125 13.26171875 C32.54762247 21.01382239 35.1955616 28.73439763 34 38 C31.38051205 48.41841797 26.54753335 56.07406189 17.3671875 61.74609375 C11.39096579 64.91171614 6.81296854 66 0 66 C0 44.22 0 22.44 0 0 Z " fill="#FFFFFF" transform="translate(0,266)"/>
<path d="M0 0 C11.32053805 1.88675634 20.72548738 3.69391674 27.6328125 13.26171875 C32.54762247 21.01382239 35.1955616 28.73439763 34 38 C31.38051205 48.41841797 26.54753335 56.07406189 17.3671875 61.74609375 C11.39096579 64.91171614 6.81296854 66 0 66 C0 44.22 0 22.44 0 0 Z " fill="#FFFFFF" transform="translate(0,166)"/>
<path d="M0 0 C11.32053805 1.88675634 20.72548738 3.69391674 27.6328125 13.26171875 C32.54762247 21.01382239 35.1955616 28.73439763 34 38 C31.38051205 48.41841797 26.54753335 56.07406189 17.3671875 61.74609375 C11.39096579 64.91171614 6.81296854 66 0 66 C0 44.22 0 22.44 0 0 Z " fill="#FFFFFF" transform="translate(0,66)"/>
<path d="M0 0 C0 21.78 0 43.56 0 66 C-10.6704725 64.93295275 -19.43485374 62.67817551 -26.5234375 54.171875 C-31.83868881 46.96387566 -34.49624931 38.80836383 -33.9375 29.8125 C-32.48197681 20.23668955 -27.71684102 12.28219651 -19.9453125 6.4609375 C-13.63536774 2.3892373 -7.61537801 0 0 0 Z " fill="#FFFFFF" transform="translate(620,266)"/>
<path d="M0 0 C0 21.78 0 43.56 0 66 C-10.6704725 64.93295275 -19.43485374 62.67817551 -26.5234375 54.171875 C-31.83868881 46.96387566 -34.49624931 38.80836383 -33.9375 29.8125 C-32.48197681 20.23668955 -27.71684102 12.28219651 -19.9453125 6.4609375 C-13.63536774 2.3892373 -7.61537801 0 0 0 Z " fill="#FFFFFF" transform="translate(620,166)"/>
<path d="M0 0 C0 21.78 0 43.56 0 66 C-10.6704725 64.93295275 -19.43485374 62.67817551 -26.5234375 54.171875 C-31.83868881 46.96387566 -34.49624931 38.80836383 -33.9375 29.8125 C-32.48197681 20.23668955 -27.71684102 12.28219651 -19.9453125 6.4609375 C-13.63536774 2.3892373 -7.61537801 0 0 0 Z " fill="#FFFFFF" transform="translate(620,66)"/>
<path d="M0 0 C133.98 0 267.96 0 406 0 C406 1.32 406 2.64 406 4 C272.02 4 138.04 4 0 4 C0 2.68 0 1.36 0 0 Z " fill="#A8C4FB" transform="translate(106,288)"/>
<path d="M0 0 C2.84625 -0.061875 5.6925 -0.12375 8.625 -0.1875 C9.51010254 -0.21481201 10.39520508 -0.24212402 11.30712891 -0.27026367 C17.17114608 -0.3316359 21.37532707 0.63779437 25.875 4.6875 C28.13552516 9.33413505 27.47051873 13.61458373 25.875 18.3125 C23.51208478 21.69934515 21.85260751 22.50754844 18 24 C14.85957822 24.34223901 11.77892154 24.28482199 8.625 24.1875 C4.355625 24.0946875 4.355625 24.0946875 0 24 C0 16.08 0 8.16 0 0 Z " fill="#F5F7FA" transform="translate(267,111)"/>
<path d="M0 0 C4.25331827 0.86802414 6.18199992 2.40158324 9.0625 5.625 C9.75 9.125 9.75 9.125 9.0625 12.625 C6.47033917 16.31686542 5.02100936 17.45383761 0.5625 18.25 C-3.89600936 17.45383761 -5.34533917 16.31686542 -7.9375 12.625 C-8.5625 9.125 -8.5625 9.125 -7.9375 5.625 C-5.51605492 2.27770827 -4.06319154 0.86450884 0 0 Z " fill="#2D4791" transform="translate(241.9375,200.375)"/>
<path d="M0 0 C3.69879153 1.16443437 5.24663599 1.8273867 7.375 5.0625 C8.09625695 9.47018137 7.89501338 11.32187488 5.3125 15 C2.375 17.0625 2.375 17.0625 -1.125 17.6875 C-5.58350936 16.89133761 -7.03283917 15.75436542 -9.625 12.0625 C-10.3125 8.5625 -10.3125 8.5625 -9.625 5.0625 C-6.48302168 1.38408636 -4.88568266 0.08423591 0 0 Z " fill="#334C95" transform="translate(283.625,200.9375)"/>
<path d="M0 0 C2.875 1.4375 2.875 1.4375 5 4 C5.91245385 8.32423783 5.75071492 11.76882754 3.4375 15.5625 C0.02983728 17.57214724 -2.10418263 17.54678139 -6 17 C-8.9375 15.5625 -8.9375 15.5625 -11 13 C-11.70993955 9.85433287 -11.71555259 7.14496906 -11 4 C-7.77123438 0.10648852 -4.96361941 -0.8272699 0 0 Z " fill="#27418E" transform="translate(222,225)"/>
<path d="M0 0 C3.96 0 7.92 0 12 0 C12.66 1.65 13.32 3.3 14 5 C14.66 5 15.32 5 16 5 C16.66 3.35 17.32 1.7 18 0 C18.66 0.33 19.32 0.66 20 1 C19.46375 1.721875 18.9275 2.44375 18.375 3.1875 C16.65681513 5.90707671 16.65681513 5.90707671 17.75 8.625 C18.1625 9.40875 18.575 10.1925 19 11 C19.33 11.99 19.66 12.98 20 14 C19.01 13.67 18.02 13.34 17 13 C16.67 12.34 16.34 11.68 16 11 C12.88214887 11.64644661 12.88214887 11.64644661 12 14 C8.04 14 4.08 14 0 14 C0 9.38 0 4.76 0 0 Z " fill="#233D88" transform="translate(216,368)"/>
<path d="M0 0 C8.1021987 -0.60464169 8.1021987 -0.60464169 12.0625 2.0625 C14.48300948 5.7323047 14.62842752 7.67956082 14 12 C12.23984869 15.1850357 11.50109084 15.83296972 8 17 C5.36 17 2.72 17 0 17 C0 11.39 0 5.78 0 0 Z " fill="#41599C" transform="translate(321,225)"/>
<path d="M0 0 C0.66 0 1.32 0 2 0 C2 16.5 2 33 2 50 C-14.5 50 -31 50 -48 50 C-48 49.34 -48 48.68 -48 48 C-32.16 48 -16.32 48 0 48 C0 32.16 0 16.32 0 0 Z " fill="#A8C4FB" transform="translate(610,342)"/>
<path d="M0 0 C0.66 0 1.32 0 2 0 C2 15.84 2 31.68 2 48 C17.84 48 33.68 48 50 48 C50 48.66 50 49.32 50 50 C33.5 50 17 50 0 50 C0 33.5 0 17 0 0 Z " fill="#A8C4FB" transform="translate(8,342)"/>
<path d="M0 0 C16.5 0 33 0 50 0 C50 16.5 50 33 50 50 C49.34 50 48.68 50 48 50 C48 34.16 48 18.32 48 2 C32.16 2 16.32 2 0 2 C0 1.34 0 0.68 0 0 Z " fill="#A8C4FB" transform="translate(562,8)"/>
<path d="M0 0 C16.5 0 33 0 50 0 C50 0.66 50 1.32 50 2 C34.16 2 18.32 2 2 2 C2 17.84 2 33.68 2 50 C1.34 50 0.68 50 0 50 C0 33.5 0 17 0 0 Z " fill="#A8C4FB" transform="translate(8,8)"/>
<path d="M0 0 C0.99 0.33 1.98 0.66 3 1 C3.66 4.3 4.32 7.6 5 11 C5.66 11 6.32 11 7 11 C7.185625 9.39125 7.185625 9.39125 7.375 7.75 C7.89643936 4.62136385 8.40088254 2.66519576 10 0 C10.99 0 11.98 0 13 0 C13.99 3.63 14.98 7.26 16 11 C16.433125 9.370625 16.86625 7.74125 17.3125 6.0625 C18.05078125 3.28515625 18.05078125 3.28515625 19 1 C19.99 0.67 20.98 0.34 22 0 C21.35729017 5.9129304 19.80996216 11.34244531 18 17 C16.68 17 15.36 17 14 17 C12.57741188 13.17679443 11.75957724 10.08718695 12 6 C11.34 6 10.68 6 10 6 C9.34 9.3 8.68 12.6 8 16 C6.68 16.33 5.36 16.66 4 17 C3.32389577 15.10751181 2.65949561 13.2108398 2 11.3125 C1.62875 10.25675781 1.2575 9.20101562 0.875 8.11328125 C0.0608143 5.21637944 -0.17709796 2.98299377 0 0 Z " fill="#385197" transform="translate(293,201)"/>
<path d="M0 0 C0.99 0.33 1.98 0.66 3 1 C4.35074986 4.25180522 5.09303634 7.5880891 6 11 C6.99 7.37 7.98 3.74 9 0 C10.32 0 11.64 0 13 0 C14.19287411 3.87684087 15 6.91621923 15 11 C15.66 11 16.32 11 17 11 C17.66 7.7 18.32 4.4 19 1 C19.99 0.67 20.98 0.34 22 0 C20.91103333 5.75762166 19.70663707 11.39247819 18 17 C16.68 17 15.36 17 14 17 C12.57741188 13.17679443 11.75957724 10.08718695 12 6 C11.34 6 10.68 6 10 6 C9.34 9.3 8.68 12.6 8 16 C6.68 16.33 5.36 16.66 4 17 C3.32389577 15.10751181 2.65949561 13.2108398 2 11.3125 C1.62875 10.25675781 1.2575 9.20101562 0.875 8.11328125 C0.0608143 5.21637944 -0.17709796 2.98299377 0 0 Z " fill="#41599C" transform="translate(253,225)"/>
<path d="M0 0 C1.32 0 2.64 0 4 0 C5.65 3.96 7.3 7.92 9 12 C10.98 8.04 12.96 4.08 15 0 C15.99 0 16.98 0 18 0 C18 5.61 18 11.22 18 17 C17.01 17 16.02 17 15 17 C14.67 14.36 14.34 11.72 14 9 C12.68 11.64 11.36 14.28 10 17 C9.34 17 8.68 17 8 17 C6.68 14.03 5.36 11.06 4 8 C3.67 10.97 3.34 13.94 3 17 C2.01 17 1.02 17 0 17 C0 11.39 0 5.78 0 0 Z " fill="#324C94" transform="translate(396,201)"/>
<path d="M0 0 C2.375 1.625 2.375 1.625 4 4 C4.60605429 7.63632575 4.47161336 9.28314769 2.4375 12.375 C-0.92058549 14.61372366 -3.04745604 14.57491549 -7 14 C-9.62541413 11.79803976 -9.9445448 10.38026421 -10.4375 7 C-10 4 -10 4 -8.375 1.625 C-5.28813568 -0.48706506 -3.6717087 -0.61195145 0 0 Z " fill="#243F8D" transform="translate(286,342)"/>
<path d="M0 0 C2.4375 1.5625 2.4375 1.5625 4 4 C3.93913078 7.46954545 3.6274029 9.91947278 1.875 12.9375 C-1.17468171 14.66565297 -3.58518389 14.42685201 -7 14 C-9.62541413 11.79803976 -9.9445448 10.38026421 -10.4375 7 C-10 4 -10 4 -8.375 1.625 C-5.28813568 -0.48706506 -3.6717087 -0.61195145 0 0 Z " fill="#233F8D" transform="translate(233,318)"/>
<path d="M0 0 C2.375 1 2.375 1 4 3 C4.66300779 6.57577233 4.65930485 9.75895557 2.9375 13 C-0.21863437 14.62897258 -2.52151049 14.48820905 -6 14 C-8.5 11.875 -8.5 11.875 -10 9 C-9.93572343 5.78617168 -9.53112958 3.83862565 -7.8125 1.125 C-5.08827656 -0.56589731 -3.14066901 -0.38457172 0 0 Z " fill="#25408D" transform="translate(365,342)"/>
<path d="M0 0 C2.375 1.625 2.375 1.625 4 4 C4.61195145 7.6717087 4.48706506 9.28813568 2.375 12.375 C-0.69477548 14.4753727 -2.34556561 14.53293835 -6 14 C-8.375 12.9375 -8.375 12.9375 -10 11 C-10.57491549 7.04745604 -10.61372366 4.92058549 -8.375 1.5625 C-5.28314769 -0.47161336 -3.63632575 -0.60605429 0 0 Z " fill="#243F8D" transform="translate(424,318)"/>
<path d="M0 0 C2.375 1.625 2.375 1.625 4 4 C4.61195145 7.6717087 4.48706506 9.28813568 2.375 12.375 C-0.71186432 14.48706506 -2.3282913 14.61195145 -6 14 C-8.375 12.375 -8.375 12.375 -10 10 C-10.61195145 6.3282913 -10.48706506 4.71186432 -8.375 1.625 C-5.28813568 -0.48706506 -3.6717087 -0.61195145 0 0 Z " fill="#223D8C" transform="translate(155,318)"/>
<path d="M0 0 C2.375 1 2.375 1 4 3 C4.66666519 6.59549766 4.68693028 9.77879061 2.875 13 C0.08970454 14.48549091 -1.89252511 14.38050713 -5 14 C-7.375 13 -7.375 13 -9 11 C-9.66666519 7.40450234 -9.68693028 4.22120939 -7.875 1 C-5.08970454 -0.48549091 -3.10747489 -0.38050713 0 0 Z " fill="#7687B7" transform="translate(210,342)"/>
<path d="M0 0 C8 0 8 0 10.5625 1.6875 C12 4 12 4 11.875 6.625 C11 9 11 9 9 11 C9.99 12.98 10.98 14.96 12 17 C10.68 17 9.36 17 8 17 C6.375 14.5625 6.375 14.5625 5 12 C4.34 11.67 3.68 11.34 3 11 C3 12.98 3 14.96 3 17 C2.01 17 1.02 17 0 17 C0 11.39 0 5.78 0 0 Z " fill="#4B61A1" transform="translate(176,201)"/>
<path d="M0 0 C7 0 7 0 9.9375 2.1875 C12 5 12 5 12.5625 7.5625 C11.7842913 10.93473771 10.87810459 12.0572794 8 14 C5.24146096 14.33165641 2.79575714 14.18638381 0 14 C0 9.38 0 4.76 0 0 Z " fill="#25408D" transform="translate(296,318)"/>
<path d="M0 0 C7.28358209 -0.35820896 7.28358209 -0.35820896 10 1 C11.63208836 4.26417672 11.65289471 7.43875614 11 11 C9.4375 13 9.4375 13 7 14 C4.69 14 2.38 14 0 14 C0 9.38 0 4.76 0 0 Z " fill="#27428E" transform="translate(310,342)"/>
<path d="M0 0 C7.71484375 -0.09765625 7.71484375 -0.09765625 10 0 C11 1 11 1 11.1875 3.8125 C11 7 11 7 9.875 9.0625 C8.69460607 11.10070585 8.69460607 11.10070585 9.875 13.75 C10.24625 14.4925 10.6175 15.235 11 16 C10.01 16 9.02 16 8 16 C6.95107762 14.36368108 5.95093297 12.69514137 5 11 C4.34 10.67 3.68 10.34 3 10 C3 11.98 3 13.96 3 16 C2.01 16 1.02 16 0 16 C0 10.72 0 5.44 0 0 Z " fill="#435B9D" transform="translate(338,226)"/>
<path d="M0 0 C4.59195094 1.14798774 4.87820524 1.73528573 7.25 5.5625 C8.03117187 6.80193359 8.03117187 6.80193359 8.828125 8.06640625 C9.21484375 8.70449219 9.6015625 9.34257812 10 10 C10.33 6.7 10.66 3.4 11 0 C11.99 0 12.98 0 14 0 C14 5.61 14 11.22 14 17 C9.40804906 15.85201226 9.12179476 15.26471427 6.75 11.4375 C6.22921875 10.61121094 5.7084375 9.78492188 5.171875 8.93359375 C4.78515625 8.29550781 4.3984375 7.65742188 4 7 C3.67 10.3 3.34 13.6 3 17 C2.01 17 1.02 17 0 17 C0 11.39 0 5.78 0 0 Z " fill="#3B5399" transform="translate(458,225)"/>
<path d="M0 0 C4 1 4 1 5.703125 3.28515625 C6.21359375 4.20167969 6.7240625 5.11820313 7.25 6.0625 C8.03117187 7.44115234 8.03117187 7.44115234 8.828125 8.84765625 C9.21484375 9.55792969 9.6015625 10.26820313 10 11 C10.33 7.37 10.66 3.74 11 0 C11.99 0 12.98 0 14 0 C14 5.61 14 11.22 14 17 C9.40804906 15.85201226 9.12179476 15.26471427 6.75 11.4375 C6.22921875 10.61121094 5.7084375 9.78492188 5.171875 8.93359375 C4.78515625 8.29550781 4.3984375 7.65742188 4 7 C3.67 10.3 3.34 13.6 3 17 C2.01 17 1.02 17 0 17 C0 11.39 0 5.78 0 0 Z " fill="#324C94" transform="translate(376,225)"/>
<path d="M0 0 C4.59195094 1.14798774 4.87820524 1.73528573 7.25 5.5625 C8.03117187 6.80193359 8.03117187 6.80193359 8.828125 8.06640625 C9.21484375 8.70449219 9.6015625 9.34257812 10 10 C10.33 6.7 10.66 3.4 11 0 C11.99 0 12.98 0 14 0 C14 5.61 14 11.22 14 17 C10 16 10 16 8.296875 13.71484375 C7.53117187 12.34005859 7.53117187 12.34005859 6.75 10.9375 C6.22921875 10.01839844 5.7084375 9.09929687 5.171875 8.15234375 C4.78515625 7.44207031 4.3984375 6.73179687 4 6 C3.67 9.63 3.34 13.26 3 17 C2.01 17 1.02 17 0 17 C0 11.39 0 5.78 0 0 Z " fill="#304A93" transform="translate(114,225)"/>
<path d="M0 0 C4.59195094 1.14798774 4.87820524 1.73528573 7.25 5.5625 C8.03117188 6.80193359 8.03117188 6.80193359 8.828125 8.06640625 C9.21484375 8.70449219 9.6015625 9.34257812 10 10 C10.33 6.7 10.66 3.4 11 0 C11.99 0 12.98 0 14 0 C14 5.61 14 11.22 14 17 C9.40804906 15.85201226 9.12179476 15.26471427 6.75 11.4375 C6.22921875 10.61121094 5.7084375 9.78492188 5.171875 8.93359375 C4.78515625 8.29550781 4.3984375 7.65742188 4 7 C3.67 10.3 3.34 13.6 3 17 C2.01 17 1.02 17 0 17 C0 11.39 0 5.78 0 0 Z " fill="#395298" transform="translate(230,225)"/>
<path d="M0 0 C1.32 0 2.64 0 4 0 C4.83919398 2.26882087 5.67151724 4.53977027 6.5 6.8125 C6.73847656 7.45509766 6.97695313 8.09769531 7.22265625 8.75976562 C8.27068746 11.64933739 9 13.90076061 9 17 C8.01 17 7.02 17 6 17 C6 16.01 6 15.02 6 14 C3.36 14 0.72 14 -2 14 C-2.33 14.99 -2.66 15.98 -3 17 C-3.66 17 -4.32 17 -5 17 C-3.83348574 11.07136283 -2.24480642 5.61201606 0 0 Z " fill="#445B9E" transform="translate(446,225)"/>
<path d="M0 0 C1.828125 0.06640625 1.828125 0.06640625 4 1 C5.13273936 3.35788641 5.97142521 5.46711646 6.75 7.9375 C6.97042969 8.58396484 7.19085938 9.23042969 7.41796875 9.89648438 C9 14.6278387 9 14.6278387 9 17 C8.01 17 7.02 17 6 17 C5.67 16.34 5.34 15.68 5 15 C2.69 15 0.38 15 -2 15 C-2.33 15.66 -2.66 16.32 -3 17 C-3.99 16.67 -4.98 16.34 -6 16 C-5.1890436 13.70777638 -4.37630612 11.41621172 -3.5625 9.125 C-3.33240234 8.47402344 -3.10230469 7.82304687 -2.86523438 7.15234375 C-1.11328125 2.2265625 -1.11328125 2.2265625 0 0 Z " fill="#41599C" transform="translate(358,225)"/>
<path d="M0 0 C3.3125 0.9375 3.3125 0.9375 6.3125 2.9375 C6.3125 3.5975 6.3125 4.2575 6.3125 4.9375 C5.796875 4.7725 5.28125 4.6075 4.75 4.4375 C1.57886124 3.78701 -1.45968334 3.8754266 -4.6875 3.9375 C-5.72964691 8.55257774 -5.72964691 8.55257774 -4.6875 12.9375 C-1.27107241 13.18765873 -1.27107241 13.18765873 2.3125 12.9375 C2.9725 11.9475 3.6325 10.9575 4.3125 9.9375 C2.3325 9.9375 0.3525 9.9375 -1.6875 9.9375 C-1.6875 9.2775 -1.6875 8.6175 -1.6875 7.9375 C1.2825 7.9375 4.2525 7.9375 7.3125 7.9375 C6.8325 13.3375 6.8325 13.3375 4.6875 15.8125 C1.29042899 17.4216389 -0.97185707 17.45899375 -4.6875 16.9375 C-8.37101539 14.35120196 -9.50477257 12.86774874 -10.375 8.4375 C-9.6875 4.9375 -9.6875 4.9375 -7.125 1.9375 C-3.6875 -0.0625 -3.6875 -0.0625 0 0 Z " fill="#364F96" transform="translate(507.6875,225.0625)"/>
<path d="M0 0 C0.99 0 1.98 0 3 0 C4.98 5.28 6.96 10.56 9 16 C8.01 16.33 7.02 16.66 6 17 C5.67 16.34 5.34 15.68 5 15 C3.10466658 14.53476937 3.10466658 14.53476937 0.9375 14.375 C-0.361875 14.25125 -1.66125 14.1275 -3 14 C-3 14.99 -3 15.98 -3 17 C-3.99 17 -4.98 17 -6 17 C-4.49829538 11.01448228 -3.05773837 5.38744379 0 0 Z " fill="#435A9D" transform="translate(385,201)"/>
<path d="M0 0 C1.32 0 2.64 0 4 0 C4.83919398 2.26882087 5.67151724 4.53977027 6.5 6.8125 C6.73847656 7.45509766 6.97695313 8.09769531 7.22265625 8.75976562 C8.27068746 11.64933739 9 13.90076061 9 17 C8.01 17 7.02 17 6 17 C6 16.01 6 15.02 6 14 C3.36 14 0.72 14 -2 14 C-2.33 14.99 -2.66 15.98 -3 17 C-3.66 17 -4.32 17 -5 17 C-3.83348574 11.07136283 -2.24480642 5.61201606 0 0 Z " fill="#385197" transform="translate(450,201)"/>
<path d="M0 0 C2.4375 0.8125 2.4375 0.8125 4.4375 2.8125 C4.703125 4.87109375 4.703125 4.87109375 4.6875 7.25 C4.69265625 8.03246094 4.6978125 8.81492187 4.703125 9.62109375 C4.4375 11.8125 4.4375 11.8125 2.4375 14.8125 C0.0943787 14.55688677 -2.24093403 14.21979228 -4.5625 13.8125 C-5.72593227 11.48563547 -5.76145988 9.96528587 -5.8125 7.375 C-5.85117187 6.20130859 -5.85117187 6.20130859 -5.890625 5.00390625 C-5.5625 2.8125 -5.5625 2.8125 -4.20703125 1.015625 C-2.5625 -0.1875 -2.5625 -0.1875 0 0 Z " fill="#D8B54B" transform="translate(367.5625,367.1875)"/>
<path d="M0 0 C2.4375 0.875 2.4375 0.875 4.4375 3.875 C4.98895843 7.42725172 5.1087883 10.74440917 3.25 13.875 C0.78801898 15.23333436 -0.79660362 15.30052252 -3.5625 14.875 C-5.62770632 11.77719052 -5.85727024 10.9209519 -5.875 7.375 C-5.89175781 6.6015625 -5.90851563 5.828125 -5.92578125 5.03125 C-5.30473005 1.3450106 -3.7284471 -0.18187547 0 0 Z " fill="#D7B44B" transform="translate(306.5625,367.125)"/>
<path d="M0 0 C0.99 0 1.98 0 3 0 C4.82421875 2.40625 4.82421875 2.40625 6.6875 5.5 C7.31011719 6.5209375 7.93273437 7.541875 8.57421875 8.59375 C9.04472656 9.3878125 9.51523437 10.181875 10 11 C10.33 7.37 10.66 3.74 11 0 C11.66 0 12.32 0 13 0 C13 5.61 13 11.22 13 17 C12.01 17 11.02 17 10 17 C8.39453125 15.03125 8.39453125 15.03125 6.8125 12.5 C6.28269531 11.6646875 5.75289063 10.829375 5.20703125 9.96875 C4.60955078 8.99421875 4.60955078 8.99421875 4 8 C3.67 10.97 3.34 13.94 3 17 C2.01 17 1.02 17 0 17 C0 11.39 0 5.78 0 0 Z " fill="#3B5399" transform="translate(482,225)"/>
<path d="M0 0 C3.5 0.25 3.5 0.25 5.5 2.25 C6.05416667 8.34583333 6.05416667 8.34583333 4.3125 11.1875 C1.83950907 12.63718434 0.32115488 12.67317323 -2.5 12.25 C-4.3125 11.1875 -4.3125 11.1875 -5.5 9.25 C-5.8125 5.6875 -5.8125 5.6875 -5.5 2.25 C-3.5 0.25 -3.5 0.25 0 0 Z " fill="#F5F6F9" transform="translate(242.5,203.75)"/>
<path d="M0 0 C3.5 -0.3125 3.5 -0.3125 7 0 C9 2 9 2 9.3125 5.4375 C9 9 9 9 7.875 11 C5.01126853 12.52732345 3.04699809 11.84278671 0 11 C-2 9 -2 9 -2.25 6.0625 C-2 3 -2 3 0 0 Z " fill="#F7F8FA" transform="translate(279,204)"/>
<path d="M0 0 C3.0625 0.3125 3.0625 0.3125 5 1.375 C6.72915678 4.52816824 5.9215699 6.93758255 5.0625 10.3125 C2.0625 12.3125 2.0625 12.3125 -1.0625 12 C-3.9375 11.3125 -3.9375 11.3125 -4.9375 10.3125 C-5.21064815 4.57638889 -5.21064815 4.57638889 -4.9375 2.3125 C-2.9375 0.3125 -2.9375 0.3125 0 0 Z " fill="#F4F5F9" transform="translate(218.9375,227.6875)"/>
<path d="M0 0 C0.763125 0.0825 1.52625 0.165 2.3125 0.25 C2.9725 1.57 3.6325 2.89 4.3125 4.25 C2.0025 3.59 -0.3075 2.93 -2.6875 2.25 C-2.6875 3.57 -2.6875 4.89 -2.6875 6.25 C-1.90375 6.04375 -1.12 5.8375 -0.3125 5.625 C0.986875 5.439375 0.986875 5.439375 2.3125 5.25 C4.3125 7.25 4.3125 7.25 4.5625 10.25 C4.3125 13.25 4.3125 13.25 2.3125 15.25 C-0.42776253 15.60131571 -2.06363976 15.59419875 -4.5 14.25 C-6.39351936 11.06091476 -6.21032526 7.80950895 -5.6875 4.25 C-4.15169519 1.01672672 -3.59306259 0.33423838 0 0 Z " fill="#C3A752" transform="translate(391.6875,366.75)"/>
<path d="M0 0 C6.8359375 -0.1953125 6.8359375 -0.1953125 9 0 C11 2 11 2 11.25 4.5 C11 7 11 7 9 9 C5.375 9.125 5.375 9.125 2 9 C2 11.31 2 13.62 2 16 C1.34 16 0.68 16 0 16 C0 10.72 0 5.44 0 0 Z " fill="#1E3A8A" transform="translate(341,202)"/>
<path d="M0 0 C0.99 0 1.98 0 3 0 C3.33 4.62 3.66 9.24 4 14 C5.65 13.67 7.3 13.34 9 13 C9.33 8.71 9.66 4.42 10 0 C10.99 0 11.98 0 13 0 C13.08097324 2.27024968 13.13917704 4.54132075 13.1875 6.8125 C13.22230469 8.07707031 13.25710938 9.34164062 13.29296875 10.64453125 C13 14 13 14 11.70703125 15.921875 C8.78735727 17.76587962 6.33391307 17.41673913 3 17 C0.46692367 14.61763301 0.02315753 13.25565911 -0.29296875 9.765625 C-0.24076172 8.02539062 -0.24076172 8.02539062 -0.1875 6.25 C-0.16042969 5.07953125 -0.13335937 3.9090625 -0.10546875 2.703125 C-0.07066406 1.81109375 -0.03585937 0.9190625 0 0 Z " fill="#364F96" transform="translate(324,201)"/>
<path d="M0 0 C3.3 0 6.6 0 10 0 C10 0.99 10 1.98 10 3 C7.69 3 5.38 3 3 3 C3 4.32 3 5.64 3 7 C4.98 7 6.96 7 9 7 C9 7.99 9 8.98 9 10 C7.02 10 5.04 10 3 10 C3 11.65 3 13.3 3 15 C5.31 15 7.62 15 10 15 C10 15.66 10 16.32 10 17 C6.7 17 3.4 17 0 17 C0 11.39 0 5.78 0 0 Z " fill="#455C9E" transform="translate(160,225)"/>
<path d="M0 0 C3.3 0 6.6 0 10 0 C10 0.99 10 1.98 10 3 C7.69 3 5.38 3 3 3 C3 4.32 3 5.64 3 7 C4.98 7 6.96 7 9 7 C9 7.99 9 8.98 9 10 C7.02 10 5.04 10 3 10 C3 11.65 3 13.3 3 15 C5.31 15 7.62 15 10 15 C10 15.66 10 16.32 10 17 C6.7 17 3.4 17 0 17 C0 11.39 0 5.78 0 0 Z " fill="#485F9F" transform="translate(417,201)"/>
<path d="M0 0 C0.66 1.32 1.32 2.64 2 4 C-2.455 3.01 -2.455 3.01 -7 2 C-6.67 2.99 -6.34 3.98 -6 5 C-4.845 5.45375 -3.69 5.9075 -2.5 6.375 C1 8 1 8 2.125 10.5 C2 13 2 13 0.9375 14.8125 C-1.85223754 16.52233914 -3.79109575 16.40111303 -7 16 C-8.875 14.625 -8.875 14.625 -10 13 C-10 12.34 -10 11.68 -10 11 C-9.01 11 -8.02 11 -7 11 C-6.67 11.66 -6.34 12.32 -6 13 C-4.68 13 -3.36 13 -2 13 C-2 12.01 -2 11.02 -2 10 C-3.7015625 9.4121875 -3.7015625 9.4121875 -5.4375 8.8125 C-9 7 -9 7 -10.125 4.5 C-10 2 -10 2 -9 0.125 C-5.7784699 -1.68711068 -3.45949714 -0.94349922 0 0 Z " fill="#3E569A" transform="translate(141,226)"/>
<path d="M0 0 C3.92660732 0.81804319 5.44578533 2.62004157 8 5.625 C6.82630859 5.49931641 6.82630859 5.49931641 5.62890625 5.37109375 C4.11103516 5.21833984 4.11103516 5.21833984 2.5625 5.0625 C1.55316406 4.95808594 0.54382813 4.85367188 -0.49609375 4.74609375 C-1.32238281 4.70613281 -2.14867187 4.66617188 -3 4.625 C-4.39287806 5.79536305 -4.39287806 5.79536305 -4.1875 9.0625 C-4.39564928 12.67532721 -4.39564928 12.67532721 -2 14.625 C1.08347826 14.79181109 1.08347826 14.79181109 4 14.625 C4 13.965 4 13.305 4 12.625 C5.32 12.955 6.64 13.285 8 13.625 C5.42602018 16.3159789 3.97161926 17.49545077 0.1875 18 C-3 17.625 -3 17.625 -5.875 15.5625 C-8 12.625 -8 12.625 -8.625 9.125 C-7.67327269 3.79532705 -5.36188723 1.11705984 0 0 Z " fill="#41599C" transform="translate(407,224.375)"/>
<path d="M0 0 C3.3 0 6.6 0 10 0 C10 0.99 10 1.98 10 3 C8.02 3 6.04 3 4 3 C4 4.32 4 5.64 4 7 C5.65 7 7.3 7 9 7 C9 7.66 9 8.32 9 9 C7.02 9 5.04 9 3 9 C3 10.98 3 12.96 3 15 C5.31 15 7.62 15 10 15 C10 15.66 10 16.32 10 17 C6.7 17 3.4 17 0 17 C0 11.39 0 5.78 0 0 Z " fill="#4D63A2" transform="translate(203,201)"/>
<path d="M0 0 C0.66 0 1.32 0 2 0 C2.66 2.97 3.32 5.94 4 9 C4.99 6.03 5.98 3.06 7 0 C7.99 0 8.98 0 10 0 C10.66 2.97 11.32 5.94 12 9 C12.66 9 13.32 9 14 9 C14.33 6.36 14.66 3.72 15 1 C15.99 0.67 16.98 0.34 18 0 C17.21824485 4.84688192 15.60155722 9.3766367 14 14 C13.34 14 12.68 14 12 14 C11.01 11.03 10.02 8.06 9 5 C7.68 7.97 6.36 10.94 5 14 C4.34 14 3.68 14 3 14 C2.49307308 12.4188708 1.99473557 10.83498617 1.5 9.25 C1.2215625 8.36828125 0.943125 7.4865625 0.65625 6.578125 C0 4 0 4 0 0 Z " fill="#DDE1ED" transform="translate(315,318)"/>
<path d="M0 0 C1.5 2.0625 1.5 2.0625 2 4 C1.484375 3.835 0.96875 3.67 0.4375 3.5 C-2.73363876 2.84951 -5.77218334 2.9379266 -9 3 C-10.19988045 8.28199593 -10.19988045 8.28199593 -8 13 C-5.5 13.41666667 -5.5 13.41666667 -3 13 C-2.34 12.34 -1.68 11.68 -1 11 C-0.01 11 0.98 11 2 11 C0.25 14.875 0.25 14.875 -2 16 C-6.33327174 16.49055907 -8.32000344 16.47744439 -11.9375 13.9375 C-14 11 -14 11 -14.6875 7.5 C-13.95388849 3.76525049 -12.97150829 2.06158813 -9.859375 -0.18359375 C-6.25014217 -1.76831993 -3.7469345 -1.06163144 0 0 Z " fill="#354E96" transform="translate(186,226)"/>
<path d="M0 0 C3.375 -0.125 3.375 -0.125 7 0 C9 2 9 2 9.3125 5.4375 C9 9 9 9 7.875 10.9375 C6 12 6 12 0 12 C0 8.04 0 4.08 0 0 Z " fill="#EAEDF4" transform="translate(323,228)"/>
<path d="M0 0 C0.99 0 1.98 0 3 0 C3 5.61 3 11.22 3 17 C2.01 17 1.02 17 0 17 C0 14.69 0 12.38 0 10 C-2.64 10 -5.28 10 -8 10 C-8 12.31 -8 14.62 -8 17 C-8.66 17 -9.32 17 -10 17 C-10 11.72 -10 6.44 -10 1 C-9.34 1 -8.68 1 -8 1 C-8 3.31 -8 5.62 -8 8 C-5.36 8 -2.72 8 0 8 C0 5.36 0 2.72 0 0 Z " fill="#365096" transform="translate(308,225)"/>
<path d="M0 0 C2.97 0 5.94 0 9 0 C9 0.99 9 1.98 9 3 C7.02 3 5.04 3 3 3 C3 4.32 3 5.64 3 7 C4.98 7 6.96 7 9 7 C9 7.99 9 8.98 9 10 C7.02 10 5.04 10 3 10 C3 11.65 3 13.3 3 15 C4.98 15 6.96 15 9 15 C9 15.66 9 16.32 9 17 C6.03 17 3.06 17 0 17 C0 11.39 0 5.78 0 0 Z " fill="#40589B" transform="translate(191,201)"/>
<path d="M0 0 C7 0 7 0 10 2 C9.47731534 4.76276177 8.89130413 7.3260876 8 10 C8.87483915 12.16715557 8.87483915 12.16715557 10 14 C9.01 14 8.02 14 7 14 C6.34 12.02 5.68 10.04 5 8 C4.01 8 3.02 8 2 8 C2 9.98 2 11.96 2 14 C1.34 14 0.68 14 0 14 C0 9.38 0 4.76 0 0 Z " fill="#D1D6E7" transform="translate(247,342)"/>
<path d="M0 0 C7 0 7 0 9 1.25 C10 3 10 3 9.75 5 C9.5025 5.66 9.255 6.32 9 7 C7.66695302 9.89186786 7.66695302 9.89186786 8.9375 12.1875 C9.288125 12.785625 9.63875 13.38375 10 14 C9.01 14 8.02 14 7 14 C6.34 12.02 5.68 10.04 5 8 C4.01 8 3.02 8 2 8 C2 9.98 2 11.96 2 14 C1.34 14 0.68 14 0 14 C0 9.38 0 4.76 0 0 Z " fill="#DDE1ED" transform="translate(292,342)"/>
<path d="M0 0 C0.99 0.66 1.98 1.32 3 2 C3 2.66 3 3.32 3 4 C2.484375 3.835 1.96875 3.67 1.4375 3.5 C-1.73363876 2.84951 -4.77218334 2.9379266 -8 3 C-9.19988045 8.28199593 -9.19988045 8.28199593 -7 13 C-4.5 13.41666667 -4.5 13.41666667 -2 13 C-1.34 12.34 -0.68 11.68 0 11 C0.99 11 1.98 11 3 11 C1.25 14.875 1.25 14.875 -1 16 C-4.3125 16.4375 -4.3125 16.4375 -8 16 C-11 13.4375 -11 13.4375 -13 10 C-13.14905149 5.67750688 -12.67946009 3.79936481 -9.875 0.5 C-6.10126606 -1.46890467 -4.06489385 -1.05386137 0 0 Z " fill="#2E4892" transform="translate(373,202)"/>
<path d="M0 0 C3.63 0 7.26 0 11 0 C11 0.99 11 1.98 11 3 C8.69 3 6.38 3 4 3 C4 4.32 4 5.64 4 7 C5.65 7 7.3 7 9 7 C9 7.99 9 8.98 9 10 C7.02 10 5.04 10 3 10 C3 12.31 3 14.62 3 17 C2.01 17 1.02 17 0 17 C0 11.39 0 5.78 0 0 Z " fill="#586DA8" transform="translate(163,201)"/>
<path d="M0 0 C7 0 7 0 9 1 C9.07427838 4.34252724 9.06546953 6.8035914 8 10 C8.38932856 12.14255793 8.38932856 12.14255793 9 14 C8.34 14 7.68 14 7 14 C5.98133771 12.34467377 4.98189187 10.67739862 4 9 C3.34 8.67 2.68 8.34 2 8 C2 9.98 2 11.96 2 14 C1.34 14 0.68 14 0 14 C0 9.38 0 4.76 0 0 Z " fill="#CBAC50" transform="translate(255,368)"/>
<path d="M0 0 C2.64 0 5.28 0 8 0 C8 0.66 8 1.32 8 2 C6.35 2 4.7 2 3 2 C3 3.98 3 5.96 3 8 C4.65 8 6.3 8 8 8 C9.32 10.97 10.64 13.94 12 17 C10.68 17 9.36 17 8 17 C7.54625 16.030625 7.0925 15.06125 6.625 14.0625 C5.34213779 10.92920418 5.34213779 10.92920418 3 10 C3 12.31 3 14.62 3 17 C2.01 17 1.02 17 0 17 C0 11.39 0 5.78 0 0 Z " fill="#344D95" transform="translate(430,201)"/>
<path d="M0 0 C2.31 0 4.62 0 7 0 C9 2 9 2 9.25 4.5 C9 7 9 7 7 9 C7.66 10.65 8.32 12.3 9 14 C8.34 14 7.68 14 7 14 C5.98133771 12.34467377 4.98189187 10.67739862 4 9 C3.34 8.67 2.68 8.34 2 8 C2 9.98 2 11.96 2 14 C1.34 14 0.68 14 0 14 C0 9.38 0 4.76 0 0 Z " fill="#E7E9F2" transform="translate(465,318)"/>
<path d="M0 0 C2.31 0 4.62 0 7 0 C9 2 9 2 9.25 4.5 C9 7 9 7 7 9 C7.66 10.65 8.32 12.3 9 14 C8.34 14 7.68 14 7 14 C5.98133771 12.34467377 4.98189187 10.67739862 4 9 C3.34 8.67 2.68 8.34 2 8 C2 9.98 2 11.96 2 14 C1.34 14 0.68 14 0 14 C0 9.38 0 4.76 0 0 Z " fill="#E2E6F0" transform="translate(192,318)"/>
<path d="M0 0 C2.97 0 5.94 0 9 0 C9 0.99 9 1.98 9 3 C7.02 3 5.04 3 3 3 C3 4.32 3 5.64 3 7 C4.65 7 6.3 7 8 7 C8 7.99 8 8.98 8 10 C6.02 10 4.04 10 2 10 C2 11.65 2 13.3 2 15 C4.31 15 6.62 15 9 15 C9 15.66 9 16.32 9 17 C6.03 17 3.06 17 0 17 C0 11.39 0 5.78 0 0 Z " fill="#3A5398" transform="translate(429,225)"/>
<path d="M0 0 C3.3 0 6.6 0 10 0 C10 0.99 10 1.98 10 3 C7.69 3 5.38 3 3 3 C3 4.32 3 5.64 3 7 C4.98 7 6.96 7 9 7 C9 7.99 9 8.98 9 10 C7.02 10 5.04 10 3 10 C3 12.31 3 14.62 3 17 C2.01 17 1.02 17 0 17 C0 11.39 0 5.78 0 0 Z " fill="#5066A4" transform="translate(222,201)"/>
<path d="M0 0 C4.29 0 8.58 0 13 0 C13 0.99 13 1.98 13 3 C11.35 3 9.7 3 8 3 C8 7.62 8 12.24 8 17 C7.01 17 6.02 17 5 17 C5 12.38 5 7.76 5 3 C3.35 3 1.7 3 0 3 C0 2.01 0 1.02 0 0 Z " fill="#4A61A1" transform="translate(190,225)"/>
<path d="M0 0 C0.99 0 1.98 0 3 0 C4.60546875 2.1875 4.60546875 2.1875 6.1875 5 C6.71730469 5.928125 7.24710938 6.85625 7.79296875 7.8125 C8.19128906 8.534375 8.58960938 9.25625 9 10 C9.33 6.7 9.66 3.4 10 0 C10.66 0 11.32 0 12 0 C12 4.62 12 9.24 12 14 C11.01 14 10.02 14 9 14 C7.39453125 12.03125 7.39453125 12.03125 5.8125 9.5 C5.28269531 8.6646875 4.75289062 7.829375 4.20703125 6.96875 C3.80871094 6.3190625 3.41039062 5.669375 3 5 C2.67 7.97 2.34 10.94 2 14 C1.34 14 0.68 14 0 14 C0 9.38 0 4.76 0 0 Z " fill="#CED4E5" transform="translate(209,318)"/>
<path d="M0 0 C2.31 0 4.62 0 7 0 C7.66 0.66 8.32 1.32 9 2 C8.44444444 6.55555556 8.44444444 6.55555556 7 8 C5.33382885 8.04063832 3.66611905 8.042721 2 8 C2 9.98 2 11.96 2 14 C1.34 14 0.68 14 0 14 C0 9.38 0 4.76 0 0 Z " fill="#CAAC50" transform="translate(239,368)"/>
<path d="M0 0 C4.38635744 2.19317872 5.51256905 3.91350629 8 8 C8.33 5.36 8.66 2.72 9 0 C9.66 0 10.32 0 11 0 C11 4.62 11 9.24 11 14 C7.46766245 12.82255415 7.13691925 12.04394359 5.3125 8.9375 C4.65701172 7.83728516 4.65701172 7.83728516 3.98828125 6.71484375 C3.66214844 6.14894531 3.33601563 5.58304687 3 5 C2.67 7.97 2.34 10.94 2 14 C1.34 14 0.68 14 0 14 C0 9.38 0 4.76 0 0 Z " fill="#DDE1ED" transform="translate(385,342)"/>
<path d="M0 0 C0.99 0.33 1.98 0.66 3 1 C4.16796875 3.43359375 4.16796875 3.43359375 5.1875 6.4375 C5.53167969 7.42621094 5.87585938 8.41492188 6.23046875 9.43359375 C7 12 7 12 7 14 C6.34 14 5.68 14 5 14 C4.67 13.34 4.34 12.68 4 12 C2.02 12 0.04 12 -2 12 C-2.33 12.66 -2.66 13.32 -3 14 C-3.66 13.67 -4.32 13.34 -5 13 C-3.35 8.71 -1.7 4.42 0 0 Z " fill="#9CA9CB" transform="translate(374,318)"/>
<path d="M0 0 C0.99 0.33 1.98 0.66 3 1 C4.16796875 3.43359375 4.16796875 3.43359375 5.1875 6.4375 C5.53167969 7.42621094 5.87585938 8.41492188 6.23046875 9.43359375 C7 12 7 12 7 14 C6.34 14 5.68 14 5 14 C5 13.01 5 12.02 5 11 C2.69 11 0.38 11 -2 11 C-2.33 11.99 -2.66 12.98 -3 14 C-3.66 13.67 -4.32 13.34 -5 13 C-3.35 8.71 -1.7 4.42 0 0 Z " fill="#98A4C9" transform="translate(273,318)"/>
<path d="M0 0 C4.38635744 2.19317872 5.51256905 3.91350629 8 8 C8.33 5.36 8.66 2.72 9 0 C9.66 0 10.32 0 11 0 C11 4.62 11 9.24 11 14 C10.34 14 9.68 14 9 14 C7.4921875 12.03125 7.4921875 12.03125 5.875 9.5 C5.06675781 8.24703125 5.06675781 8.24703125 4.2421875 6.96875 C3.83226562 6.3190625 3.42234375 5.669375 3 5 C2.67 7.97 2.34 10.94 2 14 C1.34 14 0.68 14 0 14 C0 9.38 0 4.76 0 0 Z " fill="#D3D9E8" transform="translate(383,318)"/>
<path d="M0 0 C2.375 1.625 2.375 1.625 4 4 C4.60605429 7.63632575 4.47161336 9.28314769 2.4375 12.375 C-0.92058549 14.61372366 -3.04745604 14.57491549 -7 14 C-9.62541413 11.79803976 -9.9445448 10.38026421 -10.4375 7 C-10 4 -10 4 -8.375 1.625 C-5.28813568 -0.48706506 -3.6717087 -0.61195145 0 0 Z M-8 4 C-8.33333333 7 -8.33333333 7 -8 10 C-6.11499729 12.31563087 -6.11499729 12.31563087 -3 12.25 C0.11499729 12.31563087 0.11499729 12.31563087 2 10 C2.33333333 7 2.33333333 7 2 4 C0.11499729 1.68436913 0.11499729 1.68436913 -3 1.75 C-6.11499729 1.68436913 -6.11499729 1.68436913 -8 4 Z " fill="#D8DDEA" transform="translate(286,342)"/>
<path d="M0 0 C2.375 1.625 2.375 1.625 4 4 C4.61195145 7.6717087 4.48706506 9.28813568 2.375 12.375 C-0.71186432 14.48706506 -2.3282913 14.61195145 -6 14 C-8.375 12.375 -8.375 12.375 -10 10 C-10.61195145 6.3282913 -10.48706506 4.71186432 -8.375 1.625 C-5.28813568 -0.48706506 -3.6717087 -0.61195145 0 0 Z M-6 2 C-8.35014158 4.837578 -8.35014158 4.837578 -7.6875 8.125 C-7.29355679 10.88086422 -7.29355679 10.88086422 -6 12 C-3.04182893 12.25005386 -3.04182893 12.25005386 0 12 C2.31563087 10.11499729 2.31563087 10.11499729 2.25 7 C2.31563087 3.88500271 2.31563087 3.88500271 0 2 C-3 1.58333333 -3 1.58333333 -6 2 Z " fill="#D3D8E8" transform="translate(155,318)"/>
<path d="M0 0 C2.375 1 2.375 1 4 3 C4.66300779 6.57577233 4.65930485 9.75895557 2.9375 13 C-0.21863437 14.62897258 -2.52151049 14.48820905 -6 14 C-8.5 11.875 -8.5 11.875 -10 9 C-9.93572343 5.78617168 -9.53112958 3.83862565 -7.8125 1.125 C-5.08827656 -0.56589731 -3.14066901 -0.38457172 0 0 Z M-6 2 C-8.35014158 4.837578 -8.35014158 4.837578 -7.6875 8.125 C-7.29355679 10.88086422 -7.29355679 10.88086422 -6 12 C-3.66702567 12.04092937 -1.33294775 12.04241723 1 12 C2.38125018 9.23749964 2.19079306 7.05268901 2 4 C0.11340125 1.69337401 0.11340125 1.69337401 -3 1.6875 C-3.99 1.790625 -4.98 1.89375 -6 2 Z " fill="#D6DBEA" transform="translate(365,342)"/>
<path d="M0 0 C2.375 1.625 2.375 1.625 4 4 C4.61195145 7.6717087 4.48706506 9.28813568 2.375 12.375 C-0.69477548 14.4753727 -2.34556561 14.53293835 -6 14 C-8.375 12.9375 -8.375 12.9375 -10 11 C-10.57491549 7.04745604 -10.61372366 4.92058549 -8.375 1.5625 C-5.28314769 -0.47161336 -3.63632575 -0.60605429 0 0 Z M-8 4 C-8.33333333 7 -8.33333333 7 -8 10 C-6.11340125 12.30662599 -6.11340125 12.30662599 -3 12.3125 C-2.01 12.209375 -1.02 12.10625 0 12 C2.14915785 8.77626323 2.38286803 7.73296326 2 4 C0.11499729 1.68436913 0.11499729 1.68436913 -3 1.75 C-6.11499729 1.68436913 -6.11499729 1.68436913 -8 4 Z " fill="#D2D8E7" transform="translate(424,318)"/>
<path d="M0 0 C2.4375 1.5625 2.4375 1.5625 4 4 C3.93913078 7.46954545 3.6274029 9.91947278 1.875 12.9375 C-1.17468171 14.66565297 -3.58518389 14.42685201 -7 14 C-9.62541413 11.79803976 -9.9445448 10.38026421 -10.4375 7 C-10 4 -10 4 -8.375 1.625 C-5.28813568 -0.48706506 -3.6717087 -0.61195145 0 0 Z M-8 4 C-8.33333333 7 -8.33333333 7 -8 10 C-6.11499729 12.31563087 -6.11499729 12.31563087 -3 12.25 C0.11499729 12.31563087 0.11499729 12.31563087 2 10 C2.33333333 7 2.33333333 7 2 4 C0.11499729 1.68436913 0.11499729 1.68436913 -3 1.75 C-6.11499729 1.68436913 -6.11499729 1.68436913 -8 4 Z " fill="#DFE3EE" transform="translate(233,318)"/>
<path d="M0 0 C8 0 8 0 10.5625 1.6875 C12 4 12 4 11.75 6.75 C11.5025 7.4925 11.255 8.235 11 9 C10.01 9.33 9.02 9.66 8 10 C8 8.02 8 6.04 8 4 C6.02 3.34 4.04 2.68 2 2 C2 4.31 2 6.62 2 9 C2.99 9.33 3.98 9.66 5 10 C4.01 10 3.02 10 2 10 C2 12.31 2 14.62 2 17 C1.34 17 0.68 17 0 17 C0 11.39 0 5.78 0 0 Z " fill="#2C4691" transform="translate(176,201)"/>
<path d="M0 0 C7 0 7 0 9.9375 2.1875 C12 5 12 5 12.5625 7.5625 C11.7842913 10.93473771 10.87810459 12.0572794 8 14 C5.24146096 14.33165641 2.79575714 14.18638381 0 14 C0 9.38 0 4.76 0 0 Z M2 2 C2 5.3 2 8.6 2 12 C4.91634129 12.2502157 4.91634129 12.2502157 8 12 C10.14915785 8.77626323 10.38286803 7.73296326 10 4 C8.10244856 1.65026182 8.10244856 1.65026182 4.875 1.875 C3.92625 1.91625 2.9775 1.9575 2 2 Z " fill="#DCE0EC" transform="translate(296,318)"/>
<path d="M0 0 C2.64 0 5.28 0 8 0 C8 0.66 8 1.32 8 2 C6.35 2 4.7 2 3 2 C3 3.98 3 5.96 3 8 C4.65 8 6.3 8 8 8 C8 8.66 8 9.32 8 10 C6.35 10 4.7 10 3 10 C3 12.31 3 14.62 3 17 C2.01 17 1.02 17 0 17 C0 11.39 0 5.78 0 0 Z " fill="#334C94" transform="translate(146,225)"/>
<path d="M0 0 C0.66 0 1.32 0 2 0 C2 1.98 2 3.96 2 6 C4.31 6 6.62 6 9 6 C9 4.02 9 2.04 9 0 C9.66 0 10.32 0 11 0 C11 4.62 11 9.24 11 14 C10.34 14 9.68 14 9 14 C9 12.02 9 10.04 9 8 C6.69 8 4.38 8 2 8 C2 9.98 2 11.96 2 14 C1.34 14 0.68 14 0 14 C0 9.38 0 4.76 0 0 Z " fill="#DEE2ED" transform="translate(441,318)"/>
<path d="M0 0 C7.28358209 -0.35820896 7.28358209 -0.35820896 10 1 C11.63208836 4.26417672 11.65289471 7.43875614 11 11 C9.4375 13 9.4375 13 7 14 C4.69 14 2.38 14 0 14 C0 9.38 0 4.76 0 0 Z M2 2 C2 5.3 2 8.6 2 12 C4.91634129 12.2502157 4.91634129 12.2502157 8 12 C10.35014158 9.162422 10.35014158 9.162422 9.6875 5.875 C9.29355679 3.11913578 9.29355679 3.11913578 8 2 C6.00041636 1.95919217 3.99954746 1.95745644 2 2 Z " fill="#DBDFEC" transform="translate(310,342)"/>
<path d="M0 0 C0.66 0 1.32 0 2 0 C2 1.98 2 3.96 2 6 C3.98 6 5.96 6 8 6 C8 4.02 8 2.04 8 0 C8.66 0 9.32 0 10 0 C10 4.62 10 9.24 10 14 C9.34 14 8.68 14 8 14 C8 12.02 8 10.04 8 8 C6.02 8 4.04 8 2 8 C2 9.98 2 11.96 2 14 C1.34 14 0.68 14 0 14 C0 9.38 0 4.76 0 0 Z " fill="#C6CDE1" transform="translate(351,318)"/>
<path d="M0 0 C1.32 0 2.64 0 4 0 C4 5.61 4 11.22 4 17 C2.68 17 1.36 17 0 17 C0 11.39 0 5.78 0 0 Z " fill="#6E80B3" transform="translate(369,225)"/>
<path d="M0 0 C1.32 0 2.64 0 4 0 C5.25664978 2.90600261 6 4.79604584 6 8 C5.34 8 4.68 8 4 8 C3.67 10.97 3.34 13.94 3 17 C2.01 17 1.02 17 0 17 C0 11.39 0 5.78 0 0 Z " fill="#3D5599" transform="translate(396,201)"/>
<path d="M0 0 C1.4540625 0.0309375 1.4540625 0.0309375 2.9375 0.0625 C3.5975 1.3825 4.2575 2.7025 4.9375 4.0625 C2.6275 3.4025 0.3175 2.7425 -2.0625 2.0625 C-1.33981765 5.3610139 -1.33981765 5.3610139 2 6.75 C2.969375 7.183125 3.93875 7.61625 4.9375 8.0625 C4.0625 12.9375 4.0625 12.9375 2.9375 14.0625 C0.93791636 14.10330783 -1.06295254 14.10504356 -3.0625 14.0625 C-3.3925 12.7425 -3.7225 11.4225 -4.0625 10.0625 C-1.7525 10.7225 0.5575 11.3825 2.9375 12.0625 C2.21481765 8.7639861 2.21481765 8.7639861 -1.125 7.375 C-2.094375 6.941875 -3.06375 6.50875 -4.0625 6.0625 C-4.105221 4.39638095 -4.10313832 2.72867115 -4.0625 1.0625 C-3.0625 0.0625 -3.0625 0.0625 0 0 Z " fill="#D9DEEB" transform="translate(333.0625,341.9375)"/>
<path d="M0 0 C1.875 1.5 1.875 1.5 3 3 C0.95822704 3 -1.08363528 2.97832729 -3.125 2.9375 C-5.89674453 2.6662207 -5.89674453 2.6662207 -7 4 C-7.16666667 7 -7.16666667 7 -7 10 C-5.8963377 11.32890384 -5.8963377 11.32890384 -3.125 11.125 C0.03212413 11.14376866 0.03212413 11.14376866 3 10 C2 13 2 13 0 14 C-3.4375 14.3125 -3.4375 14.3125 -7 14 C-9.62541413 11.79803976 -9.9445448 10.38026421 -10.4375 7 C-10 4 -10 4 -8.375 1.625 C-5.32214079 -0.46379841 -3.63031776 -0.54068562 0 0 Z " fill="#D7DCEA" transform="translate(350,342)"/>
<path d="M0 0 C0.66 0 1.32 0 2 0 C2 3.96 2 7.92 2 12 C3.65 11.67 5.3 11.34 7 11 C7.33 7.37 7.66 3.74 8 0 C8.66 0 9.32 0 10 0 C10.05389087 1.95803507 10.09274217 3.91648909 10.125 5.875 C10.14820313 6.96554687 10.17140625 8.05609375 10.1953125 9.1796875 C10 12 10 12 8 14 C5 14.25 5 14.25 2 14 C0 12 0 12 -0.1953125 9.1796875 C-0.17210937 8.08914063 -0.14890625 6.99859375 -0.125 5.875 C-0.10695313 4.77929688 -0.08890625 3.68359375 -0.0703125 2.5546875 C-0.04710937 1.71164062 -0.02390625 0.86859375 0 0 Z " fill="#D0D6E7" transform="translate(372,342)"/>
<path d="M0 0 C0.99 0 1.98 0 3 0 C3 4.95 3 9.9 3 15 C4.98 15 6.96 15 9 15 C9 15.66 9 16.32 9 17 C6.03 17 3.06 17 0 17 C0 11.39 0 5.78 0 0 Z " fill="#3A5298" transform="translate(264,201)"/>
<path d="M0 0 C1.4540625 0.0309375 1.4540625 0.0309375 2.9375 0.0625 C3.2675 1.0525 3.5975 2.0425 3.9375 3.0625 C1.6275 2.7325 -0.6825 2.4025 -3.0625 2.0625 C-2.7325 3.0525 -2.4025 4.0425 -2.0625 5.0625 C-1.0725 5.536875 -0.0825 6.01125 0.9375 6.5 C3.9375 8.0625 3.9375 8.0625 4.9375 10.125 C4.9375 10.764375 4.9375 11.40375 4.9375 12.0625 C2.9375 14.0625 2.9375 14.0625 -0.1875 14.1875 C-1.13625 14.14625 -2.085 14.105 -3.0625 14.0625 C-3.7225 12.7425 -4.3825 11.4225 -5.0625 10.0625 C-2.4225 10.7225 0.2175 11.3825 2.9375 12.0625 C2.6075 11.0725 2.2775 10.0825 1.9375 9.0625 C-1.56544871 7.34682339 -1.56544871 7.34682339 -5.0625 6.0625 C-3.98897059 0.08140756 -3.98897059 0.08140756 0 0 Z " fill="#CEAE4E" transform="translate(282.0625,367.9375)"/>
<path d="M0 0 C2.64 0 5.28 0 8 0 C8 0.66 8 1.32 8 2 C6.02 2 4.04 2 2 2 C2 3.32 2 4.64 2 6 C3.65 6 5.3 6 7 6 C7 6.66 7 7.32 7 8 C5.35 8 3.7 8 2 8 C2 9.32 2 10.64 2 12 C3.98 12 5.96 12 8 12 C8 12.66 8 13.32 8 14 C5.36 14 2.72 14 0 14 C0 9.38 0 4.76 0 0 Z " fill="#C4A852" transform="translate(267,368)"/>
<path d="M0 0 C1.67542976 0.28604898 3.34385343 0.61781233 5 1 C5 3.97 5 6.94 5 10 C3.34385343 10.38218767 1.67542976 10.71395102 0 11 C-1 10 -1 10 -1.1328125 7.96875 C-1.13023437 7.1540625 -1.12765625 6.339375 -1.125 5.5 C-1.12757813 4.6853125 -1.13015625 3.870625 -1.1328125 3.03125 C-1 1 -1 1 0 0 Z " fill="#253F87" transform="translate(365,369)"/>
<path d="M0 0 C0.66 1.32 1.32 2.64 2 4 C1.34 4 0.68 4 0 4 C0 3.34 0 2.68 0 2 C-1.65 2 -3.3 2 -5 2 C-4.67 2.99 -4.34 3.98 -4 5 C-2.7625 5.433125 -2.7625 5.433125 -1.5 5.875 C-0.675 6.24625 0.15 6.6175 1 7 C1.9375 9.5 1.9375 9.5 2 12 C0 14 0 14 -2.625 14.125 C-3.40875 14.08375 -4.1925 14.0425 -5 14 C-5.66 12.68 -6.32 11.36 -7 10 C-6.34 10 -5.68 10 -5 10 C-5 10.66 -5 11.32 -5 12 C-3.35 12 -1.7 12 0 12 C-0.72268235 8.7014861 -0.72268235 8.7014861 -4.0625 7.3125 C-5.031875 6.879375 -6.00125 6.44625 -7 6 C-7 4.35 -7 2.7 -7 1 C-4.53721199 -0.231394 -2.7204945 -0.07159196 0 0 Z " fill="#D5DAE9" transform="translate(417,342)"/>
<path d="M0 0 C0.94875 0.04125 1.8975 0.0825 2.875 0.125 C3.205 1.115 3.535 2.105 3.875 3.125 C1.565 2.795 -0.745 2.465 -3.125 2.125 C-2.40231765 5.4235139 -2.40231765 5.4235139 0.9375 6.8125 C1.906875 7.245625 2.87625 7.67875 3.875 8.125 C3.917721 9.79111905 3.91563832 11.45882885 3.875 13.125 C2.875 14.125 2.875 14.125 -0.1875 14.1875 C-1.156875 14.166875 -2.12625 14.14625 -3.125 14.125 C-3.785 12.805 -4.445 11.485 -5.125 10.125 C-2.815 10.785 -0.505 11.445 1.875 12.125 C1.875 10.805 1.875 9.485 1.875 8.125 C-1.095 7.63 -1.095 7.63 -4.125 7.125 C-4.75 4.75 -4.75 4.75 -5.125 2.125 C-3.125 0.125 -3.125 0.125 0 0 Z " fill="#DBDFEC" transform="translate(264.125,341.875)"/>
<path d="M0 0 C2.97 0 5.94 0 9 0 C9 0.66 9 1.32 9 2 C7.02 2 5.04 2 3 2 C3 3.32 3 4.64 3 6 C4.32 6 5.64 6 7 6 C7 6.66 7 7.32 7 8 C5.68 8 4.36 8 3 8 C3 9.98 3 11.96 3 14 C2.01 14 1.02 14 0 14 C0 9.38 0 4.76 0 0 Z " fill="#9DA9CC" transform="translate(171,318)"/>
<path d="M0 0 C1.32 0 2.64 0 4 0 C5.60725635 3.21451269 5.05748185 6.43612536 5 10 C3.34385343 10.38218767 1.67542976 10.71395102 0 11 C-1 10 -1 10 -1.1328125 7.96875 C-1.13023437 7.1540625 -1.12765625 6.339375 -1.125 5.5 C-1.12757813 4.6853125 -1.13015625 3.870625 -1.1328125 3.03125 C-1 1 -1 1 0 0 Z " fill="#253E87" transform="translate(304,369)"/>
<path d="M0 0 C0.99 0 1.98 0 3 0 C3 4.95 3 9.9 3 15 C4.65 15 6.3 15 8 15 C8 15.66 8 16.32 8 17 C5.36 17 2.72 17 0 17 C0 11.39 0 5.78 0 0 Z " fill="#304A93" transform="translate(418,225)"/>
<path d="M0 0 C0.66 0 1.32 0 2 0 C2 0.99 2 1.98 2 3 C3.32 3 4.64 3 6 3 C6.66 5.97 7.32 8.94 8 12 C7.01 12 6.02 12 5 12 C5 11.01 5 10.02 5 9 C2.36 9 -0.28 9 -3 9 C-2.01 6.03 -1.02 3.06 0 0 Z " fill="#465D9F" transform="translate(451,206)"/>
<path d="M0 0 C2.64 0 5.28 0 8 0 C8 0.66 8 1.32 8 2 C6.02 2 4.04 2 2 2 C2 3.32 2 4.64 2 6 C3.65 6 5.3 6 7 6 C7 6.66 7 7.32 7 8 C5.35 8 3.7 8 2 8 C2 9.32 2 10.64 2 12 C3.65 12 5.3 12 7 12 C7 12.66 7 13.32 7 14 C4.69 14 2.38 14 0 14 C0 9.38 0 4.76 0 0 Z " fill="#CCAD4F" transform="translate(216,368)"/>
<path d="M0 0 C0.66 0 1.32 0 2 0 C1.35729017 5.9129304 -0.19003784 11.34244531 -2 17 C-3.32 17 -4.64 17 -6 17 C-6.33 14.36 -6.66 11.72 -7 9 C-6.34 9 -5.68 9 -5 9 C-4.67 9.66 -4.34 10.32 -4 11 C-3.69255859 9.93458984 -3.69255859 9.93458984 -3.37890625 8.84765625 C-3.10949219 7.92855469 -2.84007812 7.00945312 -2.5625 6.0625 C-2.29566406 5.14597656 -2.02882813 4.22945312 -1.75390625 3.28515625 C-1 1 -1 1 0 0 Z " fill="#2E4892" transform="translate(313,201)"/>
<path d="M0 0 C0 1.65 0 3.3 0 5 C-1.98 5.99 -1.98 5.99 -4 7 C-4 6.34 -4 5.68 -4 5 C-5.65 5 -7.3 5 -9 5 C-9 3.02 -9 1.04 -9 -1 C-5.22102349 -2.0497157 -3.35080929 -2.10976881 0 0 Z " fill="#475E9F" transform="translate(442,204)"/>
<path d="M0 0 C2.375 -0.125 2.375 -0.125 5 0 C5.66 0.66 6.32 1.32 7 2 C6.68834559 4.00349261 6.35236497 6.00326516 6 8 C6.185625 8.9075 6.37125 9.815 6.5625 10.75 C6.706875 11.4925 6.85125 12.235 7 13 C5 15 5 15 1.875 15.125 C0.451875 15.063125 0.451875 15.063125 -1 15 C-1.33 13.68 -1.66 12.36 -2 11 C0.31 11.66 2.62 12.32 5 13 C4.72382467 11.05925139 4.72382467 11.05925139 4 9 C3.01 8.34 2.02 7.68 1 7 C2.32 6.67 3.64 6.34 5 6 C4.67 5.01 4.34 4.02 4 3 C2.02 3.33 0.04 3.66 -2 4 C-1.34 2.68 -0.68 1.36 0 0 Z " fill="#D5B34C" transform="translate(325,367)"/>
<path d="M0 0 C1.32 0 2.64 0 4 0 C4 1.65 4 3.3 4 5 C3.01 5 2.02 5 1 5 C0.855625 5.78375 0.71125 6.5675 0.5625 7.375 C0 10 0 10 -1 12 C0.32 12.33 1.64 12.66 3 13 C1.35 13 -0.3 13 -2 13 C-2.33 14.32 -2.66 15.64 -3 17 C-3.66 17 -4.32 17 -5 17 C-3.83348574 11.07136283 -2.24480642 5.61201606 0 0 Z " fill="#28438F" transform="translate(446,225)"/>
<path d="M0 0 C4 1 4 1 5.25 3.0625 C5.4975 3.701875 5.745 4.34125 6 5 C5.01 5 4.02 5 3 5 C3 8.96 3 12.92 3 17 C2.01 17 1.02 17 0 17 C0 11.39 0 5.78 0 0 Z " fill="#3B5399" transform="translate(114,225)"/>
<path d="M0 0 C2.31 0 4.62 0 7 0 C7 0.66 7 1.32 7 2 C5.35 2 3.7 2 2 2 C2 3.32 2 4.64 2 6 C3.65 6 5.3 6 7 6 C7 6.66 7 7.32 7 8 C5.35 8 3.7 8 2 8 C2 9.32 2 10.64 2 12 C3.65 12 5.3 12 7 12 C7 12.66 7 13.32 7 14 C4.69 14 2.38 14 0 14 C0 9.38 0 4.76 0 0 Z " fill="#D2D8E7" transform="translate(455,318)"/>
<path d="M0 0 C2.31 0 4.62 0 7 0 C7 0.66 7 1.32 7 2 C5.35 2 3.7 2 2 2 C2 3.32 2 4.64 2 6 C3.65 6 5.3 6 7 6 C7 6.66 7 7.32 7 8 C5.35 8 3.7 8 2 8 C2 9.32 2 10.64 2 12 C3.65 12 5.3 12 7 12 C7 12.66 7 13.32 7 14 C4.69 14 2.38 14 0 14 C0 9.38 0 4.76 0 0 Z " fill="#CDD3E4" transform="translate(182,318)"/>
<path d="M0 0 C-0.33 1.98 -0.66 3.96 -1 6 C-1.99 6.33 -2.98 6.66 -4 7 C-4 6.34 -4 5.68 -4 5 C-5.65 5 -7.3 5 -9 5 C-9 3.02 -9 1.04 -9 -1 C-5.22102349 -2.0497157 -3.35080929 -2.10976881 0 0 Z " fill="#425A9D" transform="translate(158,228)"/>
<path d="M0 0 C3.25696479 0.41755959 4.63443291 0.63443291 7 3 C6.82194873 6.38297413 6.21162756 7.76272061 3.9375 10.3125 C2.9784375 11.1478125 2.9784375 11.1478125 2 12 C3.65 12.33 5.3 12.66 7 13 C7 13.66 7 14.32 7 15 C3.7 15 0.4 15 -3 15 C-3 14.34 -3 13.68 -3 13 C-1.25007579 11.43756767 0.59954212 10.0495534 2.46875 8.6328125 C4.45603814 6.88679482 4.45603814 6.88679482 4 3 C2.68 3 1.36 3 0 3 C-0.66 3.66 -1.32 4.32 -2 5 C-1.125 1.125 -1.125 1.125 0 0 Z " fill="#D0B04E" transform="translate(377,367)"/>
<path d="M0 0 C2.64 0 5.28 0 8 0 C8 0.66 8 1.32 8 2 C6.02 2 4.04 2 2 2 C2 3.32 2 4.64 2 6 C3.65 6 5.3 6 7 6 C7 6.66 7 7.32 7 8 C5.35 8 3.7 8 2 8 C2 9.65 2 11.3 2 13 C3.65 13 5.3 13 7 13 C7 13.33 7 13.66 7 14 C4.69 14 2.38 14 0 14 C0 9.38 0 4.76 0 0 Z " fill="#DADEEB" transform="translate(237,342)"/>
<path d="M0 0 C0.99 0.33 1.98 0.66 3 1 C3.6875 3.0625 3.6875 3.0625 4 5 C4.66 5 5.32 5 6 5 C6.66 3.35 7.32 1.7 8 0 C8.66 0.33 9.32 0.66 10 1 C9.46375 1.721875 8.9275 2.44375 8.375 3.1875 C6.65681513 5.90707671 6.65681513 5.90707671 7.75 8.625 C8.1625 9.40875 8.575 10.1925 9 11 C9.33 11.99 9.66 12.98 10 14 C9.01 13.67 8.02 13.34 7 13 C6.67 12.34 6.34 11.68 6 11 C2.88214887 11.64644661 2.88214887 11.64644661 2 14 C1.34 14 0.68 14 0 14 C0.33 13.2575 0.66 12.515 1 11.75 C2.65199974 7.20700072 1.89130504 4.25543634 0 0 Z " fill="#D6B44C" transform="translate(226,368)"/>
<path d="M0 0 C0.66 0 1.32 0 2 0 C4.50031654 3.75047482 4.53603554 5.55856266 4 10 C1.875 12.9375 1.875 12.9375 -1 15 C-4.3125 15.3125 -4.3125 15.3125 -7 15 C-7 14.34 -7 13.68 -7 13 C-6.030625 12.690625 -5.06125 12.38125 -4.0625 12.0625 C-1.15934208 11.30476658 -1.15934208 11.30476658 0 10 C0.04320247 7.66706666 0.04022391 5.3329866 0 3 C0 2.01 0 1.02 0 0 Z " fill="#2F4992" transform="translate(287,203)"/>
<path d="M0 0 C4.70588235 0.70588235 4.70588235 0.70588235 6 2 C6.3125 4.8125 6.3125 4.8125 6 8 C4 10.375 4 10.375 2 12 C3.65 12.33 5.3 12.66 7 13 C7 13.66 7 14.32 7 15 C3.7 15 0.4 15 -3 15 C-3 14.34 -3 13.68 -3 13 C-2.030625 12.236875 -1.06125 11.47375 -0.0625 10.6875 C2.34232248 8.78627564 2.92787802 8.23182065 3.875 5.1875 C3.91625 4.465625 3.9575 3.74375 4 3 C2.68 3 1.36 3 0 3 C-0.66 3.66 -1.32 4.32 -2 5 C-1.125 1.125 -1.125 1.125 0 0 Z " fill="#D3B14D" transform="translate(353,367)"/>
<path d="M0 0 C2.875 2.5 2.875 2.5 5 5 C3.68 5 2.36 5 1 5 C0.67 4.67 0.34 4.34 0 4 C-1.99958364 3.95919217 -4.00045254 3.95745644 -6 4 C-6.66 6.31 -7.32 8.62 -8 11 C-8.33 11 -8.66 11 -9 11 C-9.59732819 8.23735711 -10 5.83967231 -10 3 C-6.91741739 -0.20114348 -4.33543384 -0.70782593 0 0 Z " fill="#41599C" transform="translate(222,225)"/>
<path d="M0 0 C0.66 0 1.32 0 2 0 C3.32 3.3 4.64 6.6 6 10 C7.32 6.7 8.64 3.4 10 0 C10.66 0.33 11.32 0.66 12 1 C10.35 5.29 8.7 9.58 7 14 C6.01 14 5.02 14 4 14 C3.32739649 12.23141309 2.66211605 10.46003984 2 8.6875 C1.62875 7.70136719 1.2575 6.71523438 0.875 5.69921875 C0 3 0 3 0 0 Z " fill="#DDE2ED" transform="translate(255,318)"/>
<path d="M0 0 C0.33 0 0.66 0 1 0 C1.433125 1.423125 1.433125 1.423125 1.875 2.875 C2.76825109 6.05211578 2.76825109 6.05211578 5 8 C8.08347826 8.16681109 8.08347826 8.16681109 11 8 C11 7.34 11 6.68 11 6 C12.32 6.33 13.64 6.66 15 7 C12.42602018 9.6909789 10.97161926 10.87045077 7.1875 11.375 C4 11 4 11 1.125 8.8125 C-1 6 -1 6 -1.375 3.25 C-1 1 -1 1 0 0 Z " fill="#2E4892" transform="translate(400,231)"/>
<path d="M0 0 C0.6875 2.3125 0.6875 2.3125 1 5 C-0.0625 6.8125 -0.0625 6.8125 -2 8 C-5.28498832 8.41062354 -7.15845419 8.6171336 -9.875 6.625 C-11 5 -11 5 -11 3 C-10.01 3 -9.02 3 -8 3 C-7.67 3.66 -7.34 4.32 -7 5 C-5.68 5 -4.36 5 -3 5 C-3 4.01 -3 3.02 -3 2 C-4.32 1.34 -5.64 0.68 -7 0 C-4.3333581 -1.33332095 -2.83319697 -0.67102033 0 0 Z " fill="#364F96" transform="translate(142,234)"/>
<path d="M0 0 C0.99 0 1.98 0 3 0 C3 5.61 3 11.22 3 17 C2.01 17 1.02 17 0 17 C0 11.39 0 5.78 0 0 Z " fill="#354E95" transform="translate(205,225)"/>
<path d="M0 0 C0.99 0 1.98 0 3 0 C3 5.61 3 11.22 3 17 C2.01 17 1.02 17 0 17 C0 11.39 0 5.78 0 0 Z " fill="#3E569A" transform="translate(475,225)"/>
<path d="M0 0 C2.64 0 5.28 0 8 0 C8 0.33 8 0.66 8 1 C6.35 1.33 4.7 1.66 3 2 C2.67 5.96 2.34 9.92 2 14 C3.98 14 5.96 14 8 14 C8 14.66 8 15.32 8 16 C5.36 16 2.72 16 0 16 C0 10.72 0 5.44 0 0 Z " fill="#203B8B" transform="translate(321,226)"/>
<path d="M0 0 C0.99 0 1.98 0 3 0 C3 5.61 3 11.22 3 17 C2.01 17 1.02 17 0 17 C0 11.39 0 5.78 0 0 Z " fill="#475E9F" transform="translate(278,225)"/>
<path d="M0 0 C0.99 0 1.98 0 3 0 C3 5.61 3 11.22 3 17 C2.01 17 1.02 17 0 17 C0 11.39 0 5.78 0 0 Z " fill="#354E96" transform="translate(108,225)"/>
<path d="M0 0 C0.99 0 1.98 0 3 0 C3.10794277 2.26979665 3.18556176 4.54105196 3.25 6.8125 C3.29640625 8.07707031 3.3428125 9.34164062 3.390625 10.64453125 C3 14 3 14 0.984375 15.94921875 C0.32953125 16.29597656 -0.3253125 16.64273438 -1 17 C-1 13.37552075 -0.7888483 9.8606038 -0.5 6.25 C-0.4071875 5.07953125 -0.314375 3.9090625 -0.21875 2.703125 C-0.1465625 1.81109375 -0.074375 0.9190625 0 0 Z " fill="#385198" transform="translate(334,201)"/>
<path d="M0 0 C2.64 0 5.28 0 8 0 C8 0.66 8 1.32 8 2 C6.02 2 4.04 2 2 2 C2 3.32 2 4.64 2 6 C3.65 6 5.3 6 7 6 C7 6.66 7 7.32 7 8 C5.35 8 3.7 8 2 8 C2 9.98 2 11.96 2 14 C1.34 14 0.68 14 0 14 C0 9.38 0 4.76 0 0 Z " fill="#DDE1ED" transform="translate(227,342)"/>
<path d="M0 0 C2.64 0 5.28 0 8 0 C8 0.66 8 1.32 8 2 C6.02 2 4.04 2 2 2 C2 3.32 2 4.64 2 6 C3.65 6 5.3 6 7 6 C7 6.66 7 7.32 7 8 C5.35 8 3.7 8 2 8 C2 9.98 2 11.96 2 14 C1.34 14 0.68 14 0 14 C0 9.38 0 4.76 0 0 Z " fill="#D5DAE9" transform="translate(217,342)"/>
<path d="M0 0 C0.66 0 1.32 0 2 0 C0.91103333 5.75762166 -0.29336293 11.39247819 -2 17 C-3.32 17 -4.64 17 -6 17 C-6 15.68 -6 14.36 -6 13 C-5.01 13 -4.02 13 -3 13 C-2.95101563 12.39671875 -2.90203125 11.7934375 -2.8515625 11.171875 C-2.77679688 10.37265625 -2.70203125 9.5734375 -2.625 8.75 C-2.52058594 7.56664062 -2.52058594 7.56664062 -2.4140625 6.359375 C-1.98492887 3.914123 -1.21399362 2.15163097 0 0 Z " fill="#324B94" transform="translate(273,225)"/>
<path d="M0 0 C2.97 0 5.94 0 9 0 C8.51578947 5.44736842 8.51578947 5.44736842 6.25 7.875 C3.63695229 9.18152386 1.88466476 9.24038873 -1 9 C-1 8.34 -1 7.68 -1 7 C-0.21625 6.731875 0.5675 6.46375 1.375 6.1875 C4.28114923 5.15185568 4.28114923 5.15185568 6 2 C4.02 2 2.04 2 0 2 C0 1.34 0 0.68 0 0 Z " fill="#2B4590" transform="translate(506,233)"/>
<path d="M0 0 C0.99 0.33 1.98 0.66 3 1 C3.66 4.3 4.32 7.6 5 11 C5.66 11 6.32 11 7 11 C6.67 11.99 6.34 12.98 6 14 C5.01 14.33 4.02 14.66 3 15 C2.491217 13.44033782 1.99336531 11.87710759 1.5 10.3125 C1.2215625 9.44238281 0.943125 8.57226562 0.65625 7.67578125 C0.00149195 5.00608323 -0.11831495 2.73603316 0 0 Z " fill="#3E569A" transform="translate(293,201)"/>
<path d="M0 0 C1.06366506 3.24595661 0.91053386 5.27417046 0.00390625 8.546875 C-0.22490234 9.39121094 -0.45371094 10.23554688 -0.68945312 11.10546875 C-0.93630859 11.97816406 -1.18316406 12.85085938 -1.4375 13.75 C-1.68048828 14.63816406 -1.92347656 15.52632813 -2.17382812 16.44140625 C-2.77396316 18.63013403 -3.38293345 20.81599686 -4 23 C-4.66 23 -5.32 23 -6 23 C-2.65509259 2.65509259 -2.65509259 2.65509259 0 0 Z " fill="#C8AB50" transform="translate(319,363)"/>
<path d="M0 0 C0.66 0 1.32 0 2 0 C3.625 2.5 3.625 2.5 5 5 C5.99 3.35 6.98 1.7 8 0 C8.66 0.33 9.32 0.66 10 1 C9.525625 1.845625 9.05125 2.69125 8.5625 3.5625 C6.94278487 7.12587329 6.38743857 10.12561425 6 14 C5.34 14 4.68 14 4 14 C3.71125 12.80375 3.4225 11.6075 3.125 10.375 C2.2475666 6.85273164 1.19979363 3.42798179 0 0 Z " fill="#D9DEEB" transform="translate(397,318)"/>
<path d="M0 0 C0.66 0 1.32 0 2 0 C2 5.61 2 11.22 2 17 C1.01 17 0.02 17 -1 17 C-1.66 15.35 -2.32 13.7 -3 12 C-2.01 12 -1.02 12 0 12 C0 8.04 0 4.08 0 0 Z " fill="#26418E" transform="translate(493,225)"/>
<path d="M0 0 C0.66 0 1.32 0 2 0 C2 4.62 2 9.24 2 14 C3.98 14 5.96 14 8 14 C8 14.66 8 15.32 8 16 C5.36 16 2.72 16 0 16 C0 10.72 0 5.44 0 0 Z " fill="#1E3A8A" transform="translate(254,202)"/>
<path d="M0 0 C2.64 0 5.28 0 8 0 C8 0.33 8 0.66 8 1 C6.35 1.33 4.7 1.66 3 2 C2.83312552 4.41645782 2.83312552 4.41645782 3 7 C3.66 7.66 4.32 8.32 5 9 C4.01 9 3.02 9 2 9 C2 11.31 2 13.62 2 16 C1.34 16 0.68 16 0 16 C0 10.72 0 5.44 0 0 Z " fill="#1F3B8A" transform="translate(338,226)"/>
<path d="M0 0 C0.66 0.33 1.32 0.66 2 1 C1.67 1.99 1.34 2.98 1 4 C-1.31 4 -3.62 4 -6 4 C-6.66 5.98 -7.32 7.96 -8 10 C-8.99 9.34 -9.98 8.68 -11 8 C-10.07106931 1.49748515 -6.26752563 -0.68125279 0 0 Z " fill="#395298" transform="translate(245,201)"/>
<path d="M0 0 C0.66 0 1.32 0 2 0 C2 2.31 2 4.62 2 7 C4.64 7 7.28 7 10 7 C10 7.33 10 7.66 10 8 C7.36 8 4.72 8 2 8 C2 10.64 2 13.28 2 16 C1.34 16 0.68 16 0 16 C0 10.72 0 5.44 0 0 Z " fill="#1E3A8A" transform="translate(298,226)"/>
<path d="M0 0 C0.66 0 1.32 0 2 0 C2 5.28 2 10.56 2 16 C0.68 15.67 -0.64 15.34 -2 15 C-2 14.01 -2 13.02 -2 12 C-1.34 12 -0.68 12 0 12 C0 8.04 0 4.08 0 0 Z " fill="#1F3B8A" transform="translate(242,226)"/>
<path d="M0 0 C1.32 0.33 2.64 0.66 4 1 C4.33 2.65 4.66 4.3 5 6 C4.38125 6.12375 3.7625 6.2475 3.125 6.375 C0.80879168 6.87197356 0.80879168 6.87197356 -1 9 C-1.66 9 -2.32 9 -3 9 C-2.01 6.03 -1.02 3.06 0 0 Z " fill="#354E96" transform="translate(358,225)"/>
<path d="M0 0 C0.99 0 1.98 0 3 0 C3.66 2.31 4.32 4.62 5 7 C4.01 7 3.02 7 2 7 C1.67 6.34 1.34 5.68 1 5 C0.34 6.32 -0.32 7.64 -1 9 C-1.66 8.67 -2.32 8.34 -3 8 C-1.125 1.125 -1.125 1.125 0 0 Z " fill="#354F96" transform="translate(385,201)"/>
<path d="M0 0 C1.98 0 3.96 0 6 0 C4.68 0.33 3.36 0.66 2 1 C2 2.98 2 4.96 2 7 C2.99 7 3.98 7 5 7 C4.67 7.66 4.34 8.32 4 9 C3.34 8.67 2.68 8.34 2 8 C2 9.98 2 11.96 2 14 C1.34 14 0.68 14 0 14 C0 9.38 0 4.76 0 0 Z " fill="#E8BF46" transform="translate(255,368)"/>
<path d="M0 0 C1 4 1 4 0 7 C1.65 7 3.3 7 5 7 C5.33 6.34 5.66 5.68 6 5 C6.66 6.98 7.32 8.96 8 11 C7.34 11 6.68 11 6 11 C6 10.01 6 9.02 6 8 C3.69 8 1.38 8 -1 8 C-1.33 8.99 -1.66 9.98 -2 11 C-2.66 10.67 -3.32 10.34 -4 10 C-2.68 6.7 -1.36 3.4 0 0 Z " fill="#E6E9F1" transform="translate(272,321)"/>
<path d="M0 0 C1.98 0 3.96 0 6 0 C4.68 0.33 3.36 0.66 2 1 C2 2.98 2 4.96 2 7 C2.99 7.33 3.98 7.66 5 8 C4.01 8 3.02 8 2 8 C2 9.98 2 11.96 2 14 C1.34 14 0.68 14 0 14 C0 9.38 0 4.76 0 0 Z " fill="#DCE0ED" transform="translate(247,342)"/>
<path d="M0 0 C1.32 0 2.64 0 4 0 C4 4.95 4 9.9 4 15 C3.34 15 2.68 15 2 15 C2 10.71 2 6.42 2 2 C1.34 2 0.68 2 0 2 C0 1.34 0 0.68 0 0 Z " fill="#DBB74A" transform="translate(334,367)"/>
<path d="M0 0 C1.32 0 2.64 0 4 0 C4 4.95 4 9.9 4 15 C3.34 15 2.68 15 2 15 C2 10.71 2 6.42 2 2 C1.34 2 0.68 2 0 2 C0 1.34 0 0.68 0 0 Z " fill="#C5A951" transform="translate(294,367)"/>
<path d="M0 0 C1.65 0 3.3 0 5 0 C5.38218767 1.65614657 5.71395102 3.32457024 6 5 C5 6 5 6 2.4375 6.0625 C1.2309375 6.0315625 1.2309375 6.0315625 0 6 C0 4.02 0 2.04 0 0 Z " fill="#DDE1ED" transform="translate(343,203)"/>
<path d="M0 0 C0.66 0 1.32 0 2 0 C2 0.99 2 1.98 2 3 C1.34 3 0.68 3 0 3 C-0.33 5.31 -0.66 7.62 -1 10 C0.65 10 2.3 10 4 10 C4 10.33 4 10.66 4 11 C3.030625 11.12375 2.06125 11.2475 1.0625 11.375 C0.051875 11.58125 -0.95875 11.7875 -2 12 C-2.33 12.66 -2.66 13.32 -3 14 C-3.66 13.67 -4.32 13.34 -5 13 C-3.35 8.71 -1.7 4.42 0 0 Z " fill="#E8EAF3" transform="translate(374,318)"/>
<path d="M0 0 C0.66 0 1.32 0 2 0 C2.66 2.97 3.32 5.94 4 9 C4.66 9 5.32 9 6 9 C5.67 10.65 5.34 12.3 5 14 C4.34 14 3.68 14 3 14 C2.49307308 12.4188708 1.99473557 10.83498617 1.5 9.25 C1.2215625 8.36828125 0.943125 7.4865625 0.65625 6.578125 C0 4 0 4 0 0 Z " fill="#DDE1ED" transform="translate(315,318)"/>
<path d="M0 0 C2.125 0.375 2.125 0.375 4 1 C4 2.65 4 4.3 4 6 C2.35 6 0.7 6 -1 6 C-1.625 4.125 -1.625 4.125 -2 2 C-1.34 1.34 -0.68 0.68 0 0 Z " fill="#253F87" transform="translate(390,374)"/>
<path d="M0 0 C1.125 3.75 1.125 3.75 0 6 C1.32 6.33 2.64 6.66 4 7 C2.35 7 0.7 7 -1 7 C-1.33 8.32 -1.66 9.64 -2 11 C-2.66 11 -3.32 11 -4 11 C-3.71758359 9.53984709 -3.42373386 8.08190207 -3.125 6.625 C-2.96257812 5.81289062 -2.80015625 5.00078125 -2.6328125 4.1640625 C-2 2 -2 2 0 0 Z " fill="#28438F" transform="translate(449,207)"/>
<path d="M0 0 C1.98 0 3.96 0 6 0 C6 1.65 6 3.3 6 5 C4.02 5 2.04 5 0 5 C0 3.35 0 1.7 0 0 Z " fill="#E8EBF3" transform="translate(340,228)"/>
<path d="M0 0 C0.99 0.66 1.98 1.32 3 2 C3.55462605 5.6446855 3.46725216 7.34238585 1.3125 10.375 C-1.38790237 12.27258004 -2.77060081 12.35882213 -6 12 C-4 10.66666667 -2 9.33333333 0 8 C0.36297936 6.02252878 0.36297936 6.02252878 0.1875 3.875 C0.125625 2.59625 0.06375 1.3175 0 0 Z " fill="#E2E6F0" transform="translate(287,344)"/>
<path d="M0 0 C2.74801432 2.37328509 3.71082173 4.6481365 5 8 C5.66 8.66 6.32 9.32 7 10 C6.34 10.66 5.68 11.32 5 12 C2.5 9.9375 2.5 9.9375 0 7 C-0.3125 3.1875 -0.3125 3.1875 0 0 Z " fill="#435B9D" transform="translate(274,206)"/>
<path d="M0 0 C1.65 0 3.3 0 5 0 C5.5625 1.9375 5.5625 1.9375 6 4 C5 5 5 5 2.4375 5.0625 C1.2309375 5.0315625 1.2309375 5.0315625 0 5 C0 3.35 0 1.7 0 0 Z " fill="#354E95" transform="translate(294,344)"/>
<path d="M0 0 C1.65 0 3.3 0 5 0 C5.5625 1.9375 5.5625 1.9375 6 4 C5 5 5 5 2.4375 5.0625 C1.2309375 5.0315625 1.2309375 5.0315625 0 5 C0 3.35 0 1.7 0 0 Z " fill="#344D95" transform="translate(249,344)"/>
<path d="M0 0 C0.33 1.32 0.66 2.64 1 4 C2.65 4 4.3 4 6 4 C6 4.66 6 5.32 6 6 C4.68 6 3.36 6 2 6 C2 7.98 2 9.96 2 12 C1.34 12 0.68 12 0 12 C0 8.04 0 4.08 0 0 Z " fill="#D4D9E8" transform="translate(172,320)"/>
<path d="M0 0 C1.65 0 3.3 0 5 0 C5.5625 1.9375 5.5625 1.9375 6 4 C5 5 5 5 2.4375 5.0625 C1.2309375 5.0315625 1.2309375 5.0315625 0 5 C0 3.35 0 1.7 0 0 Z " fill="#FAFAFC" transform="translate(149,228)"/>
<path d="M0 0 C1.32 0 2.64 0 4 0 C4 1.65 4 3.3 4 5 C3.01 5 2.02 5 1 5 C0.67 5.99 0.34 6.98 0 8 C-0.66 7.67 -1.32 7.34 -2 7 C-1.34 4.69 -0.68 2.38 0 0 Z " fill="#3B5399" transform="translate(446,225)"/>
<path d="M0 0 C1.65 0 3.3 0 5 0 C5.5625 1.9375 5.5625 1.9375 6 4 C5 5 5 5 2.4375 5.0625 C1.2309375 5.0315625 1.2309375 5.0315625 0 5 C0 3.35 0 1.7 0 0 Z " fill="#FBFBFC" transform="translate(433,204)"/>
<path d="M0 0 C1.65 0 3.3 0 5 0 C5.5625 1.9375 5.5625 1.9375 6 4 C5 5 5 5 2.4375 5.0625 C1.2309375 5.0315625 1.2309375 5.0315625 0 5 C0 3.35 0 1.7 0 0 Z " fill="#F4F6F9" transform="translate(179,204)"/>
<path d="M0 0 C0.66 0 1.32 0 2 0 C1.17812739 4.38332057 0.09845718 8.67940177 -1 13 C-1.33 12.34 -1.66 11.68 -2 11 C-2.66 11 -3.32 11 -4 11 C-4 10.34 -4 9.68 -4 9 C-3.34 9 -2.68 9 -2 9 C-1.7834375 7.0509375 -1.7834375 7.0509375 -1.5625 5.0625 C-1.125 1.125 -1.125 1.125 0 0 Z " fill="#C3CADF" transform="translate(331,318)"/>
<path d="M0 0 C6.625 0.75 6.625 0.75 10 3 C10 3.66 10 4.32 10 5 C8.51793505 4.745504 7.03931385 4.47088238 5.5625 4.1875 C4.73878906 4.03667969 3.91507812 3.88585937 3.06640625 3.73046875 C2.38449219 3.48941406 1.70257813 3.24835938 1 3 C0.67 2.01 0.34 1.02 0 0 Z " fill="#3A5298" transform="translate(366,201)"/>
<path d="M0 0 C0.33 0 0.66 0 1 0 C1.061875 1.0725 1.12375 2.145 1.1875 3.25 C1.66145959 7.13531961 1.66145959 7.13531961 4.5625 9.4375 C5.366875 9.953125 6.17125 10.46875 7 11 C1.25 10.25 1.25 10.25 -1 8 C-1.1875 4.4375 -1.1875 4.4375 -1 1 C-0.67 0.67 -0.34 0.34 0 0 Z " fill="#DFE3EE" transform="translate(415,321)"/>
<path d="M0 0 C0.66 0 1.32 0 2 0 C1.25 6.625 1.25 6.625 -1 10 C-1.66 10 -2.32 10 -3 10 C-2.69201674 8.51988629 -2.378482 7.04092675 -2.0625 5.5625 C-1.88847656 4.73878906 -1.71445312 3.91507813 -1.53515625 3.06640625 C-1 1 -1 1 0 0 Z " fill="#385198" transform="translate(313,201)"/>
<path d="M0 0 C1.65 0 3.3 0 5 0 C5 1.65 5 3.3 5 5 C3.35 5 1.7 5 0 5 C0 3.35 0 1.7 0 0 Z " fill="#294186" transform="translate(257,370)"/>
<path d="M0 0 C5.41538462 -0.36923077 5.41538462 -0.36923077 8.375 1.5 C8.91125 1.995 9.4475 2.49 10 3 C9.67 4.98 9.34 6.96 9 9 C8.67 9 8.34 9 8 9 C7.79375 8.05125 7.5875 7.1025 7.375 6.125 C6.29166667 2.70833333 6.29166667 2.70833333 2.875 1.625 C1.451875 1.315625 1.451875 1.315625 0 1 C0 0.67 0 0.34 0 0 Z " fill="#C8CFE2" transform="translate(359,342)"/>
<path d="M0 0 C0.66 0.33 1.32 0.66 2 1 C2.33102914 4.6413205 2.42019439 6.41472925 0.25 9.4375 C-2 11 -2 11 -4.25 10.75 C-5.11625 10.37875 -5.11625 10.37875 -6 10 C-5.195625 9.649375 -4.39125 9.29875 -3.5625 8.9375 C-0.6132233 7.14332716 -0.6132233 7.14332716 -0.1875 3.3125 C-0.125625 2.219375 -0.06375 1.12625 0 0 Z " fill="#E4E7F1" transform="translate(157,321)"/>
<path d="M0 0 C0.33 0 0.66 0 1 0 C1 5.28 1 10.56 1 16 C-0.32 15.34 -1.64 14.68 -3 14 C-3 13.34 -3 12.68 -3 12 C-2.01 12 -1.02 12 0 12 C0 8.04 0 4.08 0 0 Z " fill="#233E8C" transform="translate(470,226)"/>
<path d="M0 0 C0.99 0.33 1.98 0.66 3 1 C3.6875 3.3125 3.6875 3.3125 4 6 C2.5625 7.8125 2.5625 7.8125 1 9 C0.10446748 6.31340243 -0.55900361 3.79297711 -1 1 C-0.67 0.67 -0.34 0.34 0 0 Z " fill="#3A5398" transform="translate(184,202)"/>
<path d="M0 0 C1.65 0 3.3 0 5 0 C4.67 1.65 4.34 3.3 4 5 C2.68 5 1.36 5 0 5 C0 3.35 0 1.7 0 0 Z " fill="#25408D" transform="translate(467,320)"/>
<path d="M0 0 C1.65 0 3.3 0 5 0 C4.67 1.65 4.34 3.3 4 5 C2.68 5 1.36 5 0 5 C0 3.35 0 1.7 0 0 Z " fill="#25408D" transform="translate(194,320)"/>
<path d="M0 0 C6.625 0.75 6.625 0.75 10 3 C10 3.66 10 4.32 10 5 C6.58978257 4.21302675 3.31114834 3.12880057 0 2 C0 1.34 0 0.68 0 0 Z " fill="#314A94" transform="translate(504,225)"/>
<path d="M0 0 C0.99 0 1.98 0 3 0 C2.4375 1.9375 2.4375 1.9375 1 4 C-2.625 4.75 -2.625 4.75 -6 5 C-6 4.34 -6 3.68 -6 3 C-5.195625 2.690625 -4.39125 2.38125 -3.5625 2.0625 C-1.10919595 1.23664655 -1.10919595 1.23664655 0 0 Z " fill="#2D4892" transform="translate(185,237)"/>
<path d="M0 0 C1.2065625 0.0309375 1.2065625 0.0309375 2.4375 0.0625 C3.0975 1.3825 3.7575 2.7025 4.4375 4.0625 C2.1275 3.4025 -0.1825 2.7425 -2.5625 2.0625 C-3.2225 3.3825 -3.8825 4.7025 -4.5625 6.0625 C-3.48963568 0.08511307 -3.48963568 0.08511307 0 0 Z " fill="#C8AA51" transform="translate(391.5625,366.9375)"/>
<path d="M0 0 C0.66 1.32 1.32 2.64 2 4 C1 5 1 5 -2.0625 5.0625 C-3.031875 5.041875 -4.00125 5.02125 -5 5 C-5.66 3.68 -6.32 2.36 -7 1 C-4.69 1.66 -2.38 2.32 0 3 C0 2.01 0 1.02 0 0 Z " fill="#C1C8DE" transform="translate(266,351)"/>
<path d="M0 0 C1.4540625 0.0309375 1.4540625 0.0309375 2.9375 0.0625 C3.5975 1.3825 4.2575 2.7025 4.9375 4.0625 C2.6275 3.4025 0.3175 2.7425 -2.0625 2.0625 C-2.3925 3.0525 -2.7225 4.0425 -3.0625 5.0625 C-3.625 3.125 -3.625 3.125 -4.0625 1.0625 C-3.0625 0.0625 -3.0625 0.0625 0 0 Z " fill="#C0C7DE" transform="translate(333.0625,341.9375)"/>
<path d="M0 0 C0.33 0.66 0.66 1.32 1 2 C2.65 2 4.3 2 6 2 C6 2.33 6 2.66 6 3 C4.35 3.33 2.7 3.66 1 4 C0.67 4.99 0.34 5.98 0 7 C-0.99 7 -1.98 7 -3 7 C-1.125 1.125 -1.125 1.125 0 0 Z " fill="#26418E" transform="translate(382,211)"/>
<path d="M0 0 C1.0326802 2.78823655 1.04509293 3.8677274 0.0625 6.75 C-0.288125 7.4925 -0.63875 8.235 -1 9 C-1.99 9 -2.98 9 -4 9 C-4 8.01 -4 7.02 -4 6 C-3.34 5.67 -2.68 5.34 -2 5 C-1.27840576 3.35636866 -0.60648579 1.68949614 0 0 Z " fill="#243F8D" transform="translate(261,233)"/>
<path d="M0 0 C1.65 0 3.3 0 5 0 C5 1.32 5 2.64 5 4 C3.35 4 1.7 4 0 4 C0 2.68 0 1.36 0 0 Z " fill="#233D88" transform="translate(241,370)"/>
<path d="M0 0 C1.98 0 3.96 0 6 0 C6.66 2.31 7.32 4.62 8 7 C7.34 7 6.68 7 6 7 C5.2884375 5.7625 5.2884375 5.7625 4.5625 4.5 C4.046875 3.675 3.53125 2.85 3 2 C2.01 2 1.02 2 0 2 C0 1.34 0 0.68 0 0 Z " fill="#EAEDF4" transform="translate(466,325)"/>
<path d="M0 0 C0.66 0.66 1.32 1.32 2 2 C3.98821313 2.39764263 5.98944339 2.73775349 8 3 C6.68 3.33 5.36 3.66 4 4 C4 4.66 4 5.32 4 6 C1.525 5.01 1.525 5.01 -1 4 C-0.67 2.68 -0.34 1.36 0 0 Z " fill="#5267A4" transform="translate(501,236)"/>
<path d="M0 0 C2.31 0.33 4.62 0.66 7 1 C7 1.33 7 1.66 7 2 C5.02 2 3.04 2 1 2 C0.67 3.32 0.34 4.64 0 6 C-0.99 5.67 -1.98 5.34 -3 5 C-2.01 3.35 -1.02 1.7 0 0 Z " fill="#25408D" transform="translate(355,236)"/>
<path d="M0 0 C2.35953094 2.35953094 2.49141413 3.77895617 3 7 C1.35 7 -0.3 7 -2 7 C-1.34 4.69 -0.68 2.38 0 0 Z " fill="#E8EBF3" transform="translate(359,229)"/>
<path d="M0 0 C-1.47692308 4.67692308 -1.47692308 4.67692308 -4.125 6.3125 C-5.053125 6.6528125 -5.053125 6.6528125 -6 7 C-5.37162381 3.35541809 -4.14650034 0 0 0 Z " fill="#3A5399" transform="translate(251,211)"/>
<path d="M0 0 C0.33 0 0.66 0 1 0 C1.36190476 5.42857143 1.36190476 5.42857143 -0.1875 7.875 C-2.56036279 9.34781139 -4.25913944 9.22223194 -7 9 C-4 7 -4 7 -2 7 C-1.34 4.69 -0.68 2.38 0 0 Z " fill="#E6E9F2" transform="translate(368,347)"/>
<path d="M0 0 C0.3403125 0.928125 0.3403125 0.928125 0.6875 1.875 C2.37929835 4.61410209 3.99244161 5.05024472 7 6 C6.01 6.66 5.02 7.32 4 8 C2.0625 7.25 2.0625 7.25 0 6 C-0.8125 4 -0.8125 4 -1 2 C-0.67 1.34 -0.34 0.68 0 0 Z " fill="#C8CEE2" transform="translate(277,348)"/>
<path d="M0 0 C0.99 0.66 1.98 1.32 3 2 C3.1875 4.625 3.1875 4.625 3 7 C2.01 7 1.02 7 0 7 C0.33 5.35 0.66 3.7 1 2 C-0.65 2 -2.3 2 -4 2 C-2.68 1.34 -1.36 0.68 0 0 Z " fill="#C8CEE2" transform="translate(471,318)"/>
<path d="M0 0 C0.66 0.33 1.32 0.66 2 1 C1.34 3.97 0.68 6.94 0 10 C-0.33 10 -0.66 10 -1 10 C-1.59732819 7.23735711 -2 4.83967231 -2 2 C-1.34 1.34 -0.68 0.68 0 0 Z " fill="#576CA8" transform="translate(214,226)"/>
<path d="M0 0 C0.66 0 1.32 0 2 0 C2.33 1.98 2.66 3.96 3 6 C1.35 6 -0.3 6 -2 6 C-1.34 4.02 -0.68 2.04 0 0 Z " fill="#E9ECF3" transform="translate(451,206)"/>
<path d="M0 0 C2 3 2 3 2 7 C0.68 7 -0.64 7 -2 7 C-1.34 4.69 -0.68 2.38 0 0 Z " fill="#E6E9F2" transform="translate(386,205)"/>
<path d="M0 0 C0.33 0 0.66 0 1 0 C2.25 6.625 2.25 6.625 0 10 C-1.32 9.34 -2.64 8.68 -4 8 C-3.01 7.67 -2.02 7.34 -1 7 C-0.67 4.69 -0.34 2.38 0 0 Z " fill="#C8AA51" transform="translate(370,372)"/>
<path d="M0 0 C1.65 0.33 3.3 0.66 5 1 C5 1.66 5 2.32 5 3 C3.02 3.66 1.04 4.32 -1 5 C-0.67 3.35 -0.34 1.7 0 0 Z " fill="#2A4186" transform="translate(389,369)"/>
<path d="M0 0 C1.65 0 3.3 0 5 0 C5 0.99 5 1.98 5 3 C2.69 3.33 0.38 3.66 -2 4 C-1.34 2.68 -0.68 1.36 0 0 Z " fill="#C3A752" transform="translate(325,367)"/>
<path d="M0 0 C0.66 0 1.32 0 2 0 C2.33 1.98 2.66 3.96 3 6 C1.68 6 0.36 6 -1 6 C-0.67 4.02 -0.34 2.04 0 0 Z " fill="#EDEFF5" transform="translate(447,230)"/>
<path d="M0 0 C0.33 0.99 0.66 1.98 1 3 C1.66 3 2.32 3 3 3 C2.67 3.99 2.34 4.98 2 6 C1.01 6.33 0.02 6.66 -1 7 C-1.33 5.35 -1.66 3.7 -2 2 C-1.34 2 -0.68 2 0 2 C0 1.34 0 0.68 0 0 Z " fill="#5A6EA9" transform="translate(297,209)"/>
<path d="M0 0 C0.99 0 1.98 0 3 0 C2.67 1.65 2.34 3.3 2 5 C1.01 5.33 0.02 5.66 -1 6 C-0.67 4.02 -0.34 2.04 0 0 Z " fill="#3A5398" transform="translate(349,205)"/>
<path d="M0 0 C2.35171131 0.59861742 4.6859378 1.26924352 7 2 C7.33 2.66 7.66 3.32 8 4 C6.02 4 4.04 4 2 4 C1.34 2.68 0.68 1.36 0 0 Z " fill="#BDA354" transform="translate(277,378)"/>
<path d="M0 0 C0.33 0 0.66 0 1 0 C1.103125 1.11375 1.20625 2.2275 1.3125 3.375 C1.539375 4.57125 1.76625 5.7675 2 7 C2.99 7.66 3.98 8.32 5 9 C3.68 9.33 2.36 9.66 1 10 C-0.80411967 7.24075815 -1.0127245 6.11027897 -0.625 2.75 C-0.41875 1.8425 -0.2125 0.935 0 0 Z " fill="#C0A553" transform="translate(302,372)"/>
<path d="M0 0 C0.226875 0.61875 0.45375 1.2375 0.6875 1.875 C2.37929835 4.61410209 3.99244161 5.05024472 7 6 C6.01 6.66 5.02 7.32 4 8 C2.68 7.34 1.36 6.68 0 6 C0 4.02 0 2.04 0 0 Z " fill="#C5CCE0" transform="translate(224,324)"/>
<path d="M0 0 C5.53846154 -0.36923077 5.53846154 -0.36923077 7.875 1.5 C8.24625 1.995 8.6175 2.49 9 3 C5.61976483 3 3.16531063 2.12544378 0 1 C0 0.67 0 0.34 0 0 Z " fill="#CCD2E4" transform="translate(149,318)"/>
<path d="M0 0 C0.598125 0.268125 1.19625 0.53625 1.8125 0.8125 C2.1425 1.8025 2.4725 2.7925 2.8125 3.8125 C-1.6425 2.8225 -1.6425 2.8225 -6.1875 1.8125 C-2.1875 -0.1875 -2.1875 -0.1875 0 0 Z " fill="#3F579B" transform="translate(185.1875,226.1875)"/>
<path d="M0 0 C2.35171131 0.59861742 4.6859378 1.26924352 7 2 C7.33 2.66 7.66 3.32 8 4 C6.02 4 4.04 4 2 4 C1.34 2.68 0.68 1.36 0 0 Z " fill="#26418E" transform="translate(325,214)"/>
</svg>
