<svg width="1061" height="1345" viewBox="0 0 1061 1345" fill="none" xmlns="http://www.w3.org/2000/svg">
<path d="M161.258 104.141C179.67 97.0215 219.562 100.221 240.904 100.369L347.558 100.454L430.024 99.6835C445.656 99.6923 460.018 99.6198 475.617 101.401C602.811 115.927 704.216 191.395 754.75 310.338C759.401 317.878 787.882 331.324 796.707 336.131C814.675 345.914 829.83 355.563 846.251 367.78C876.509 390.315 903.753 416.646 927.309 446.124C991.672 525.428 1022.42 612.72 1030.87 714.069C1032.93 738.734 1031.26 770.58 1031.43 795.979C1031.48 804.778 1031.17 813.79 1032.13 822.528C1039.37 827.569 1059.33 818.168 1059.94 834.679C1061.01 863.394 1061.76 893.923 1059.71 922.568C1057.22 926.052 1054.93 929.536 1050.26 929.802C1037.55 930.509 1023.81 930.226 1011.11 930.2L933.684 930.102L792.613 930.182C774.787 930.235 721.379 932.835 706.612 928.413C699.556 917.031 703.827 868.639 702.801 852.004C701.298 827.577 701.563 822.174 727.055 823.704C727.294 822.943 727.807 821.352 727.869 820.653C731.671 774.117 728.727 721.436 703.491 681.595C693.189 687.096 689.219 696.169 680.545 704.898C671.269 714.254 661.525 723.142 651.356 731.526C612.114 763.761 563.084 785.862 514.495 799.667C473.903 811.208 429.1 812.366 387.29 808.219C316.235 801.276 248.525 774.639 191.771 731.323C170.547 715.254 118.336 671.212 121.376 643.222C125.662 640.348 138.738 644.663 150.844 633.149C164.743 619.937 161.04 592.724 160.907 573.26C160.116 562.983 161.194 543.458 161.167 532.13L160.933 437.61C161.007 362.986 159.364 284.715 160.919 210.602C160.185 194.112 160.901 172.671 160.789 155.831C160.695 141.528 160.14 117.828 161.258 104.141Z" fill="#66A2E3"/>
<path d="M417.616 554.106C450.111 555.695 490.712 552.207 522.053 554.704C571.575 558.649 633.477 591.388 666.609 627.93C674.196 636.296 702.695 671.963 703.491 681.594C693.189 687.094 689.219 696.168 680.545 704.897C671.269 714.253 661.525 723.141 651.356 731.525C612.114 763.76 563.084 785.861 514.495 799.666C473.903 811.207 429.101 812.365 387.29 808.218C316.235 801.275 248.525 774.638 191.771 731.322C170.547 715.253 118.336 671.211 121.376 643.221C125.662 640.347 138.738 644.662 150.844 633.148C164.743 619.935 161.04 592.723 160.907 573.259C161.677 567.077 160.617 561.178 162.036 554.828L163.786 553.942C179.48 554.289 195.177 554.457 210.874 554.448C216.87 554.474 229.797 554.784 235.421 554.229C294.182 555.527 358.474 554.501 417.616 554.106Z" fill="#C1CFF0" fill-opacity="0.47"/>
<path d="M161.258 104.141C179.67 97.0215 219.562 100.221 240.904 100.369L347.558 100.454L430.024 99.6835C445.656 99.6923 460.018 99.6198 475.617 101.401C602.812 115.927 704.216 191.395 754.75 310.338C750.727 312.11 699.689 293.281 689.936 290.306C615.615 267.646 540.739 272.252 464.254 270.356C462.912 289.595 463.74 306.698 463.615 325.636L271.218 325.663C259.429 325.66 195.76 324.624 188.601 326.913C179.786 327.085 170.743 326.861 161.91 326.75C160.81 300.298 162.264 271.775 161.761 245.2C161.604 236.892 162.46 217.801 160.92 210.602C160.185 194.112 160.901 172.671 160.79 155.831C160.695 141.528 160.141 117.828 161.258 104.141Z" fill="url(#paint0_linear_191_306)" fill-opacity="0.65"/>
<path d="M160.92 210.602C162.46 217.8 161.604 236.891 161.762 245.2C162.264 271.774 160.81 300.298 161.91 326.749C170.743 326.861 179.786 327.084 188.601 326.913L201.933 327.157C234.961 326.858 267.992 326.822 301.021 327.047L464.735 327C462.317 394.248 465.283 462.67 464.401 529.983C464.298 537.793 464.36 545.422 464.764 553.225C455.233 553.262 445.389 553.425 435.887 553.31C430.706 553.498 422.596 553.564 417.616 554.106C358.474 554.502 294.182 555.528 235.421 554.229C229.797 554.785 216.871 554.475 210.875 554.449C195.177 554.457 179.48 554.29 163.787 553.943L162.037 554.829C160.617 561.179 161.678 567.077 160.907 573.259C160.116 562.983 161.195 543.458 161.167 532.13L160.933 437.609C161.007 362.985 159.364 284.714 160.92 210.602Z" fill="url(#paint1_linear_191_306)"/>
<path d="M163.786 553.941C166.642 553.435 169.496 552.91 172.346 552.37C182.999 550.283 193.187 550.244 204.014 550.444C226.36 550.858 249.012 549.757 271.319 550.635C320.688 549.28 371.292 551.162 420.75 550.858C425.417 550.828 431.786 551.011 435.887 553.308C430.705 553.496 422.596 553.563 417.616 554.105C358.474 554.5 294.182 555.526 235.421 554.228C229.797 554.783 216.87 554.474 210.874 554.447C195.177 554.456 179.48 554.288 163.786 553.941Z" fill="#84AEFA"/>
<path d="M1032.13 822.527C1039.37 827.568 1059.33 818.167 1059.94 834.679C1061.01 863.394 1061.76 893.922 1059.71 922.567C1057.22 926.052 1054.93 929.536 1050.26 929.801C1037.55 930.509 1023.81 930.226 1011.11 930.199L933.684 930.102L792.613 930.182C774.787 930.235 721.379 932.835 706.612 928.413C699.556 917.031 703.827 868.638 702.801 852.003C701.298 827.577 701.563 822.174 727.056 823.704C733.113 824.455 751.788 824.04 758.588 824.04L823.252 824.075C891.586 824.155 962.802 824.95 1030.84 824.031L1032.13 822.527Z" fill="#153B73"/>
<path d="M25.447 2.7578C28.5684 1.64526 31.6199 1.12085 34.9207 0.900645C47.1515 0.0852573 129.858 -0.939741 135.562 1.67622C136.032 1.89289 136.477 2.16086 136.942 2.38991C137.239 2.53584 137.544 2.66407 137.846 2.80114C146.276 6.02732 152.56 12.0189 156.372 20.2276C163.218 34.9665 160.512 85.0934 161.258 104.14C160.14 117.827 160.695 141.528 160.789 155.831C160.901 172.671 160.184 194.111 160.919 210.601C159.364 284.714 161.007 362.985 160.932 437.609L161.167 532.13C161.194 543.457 160.115 562.983 160.907 573.259C161.039 592.724 164.743 619.936 150.843 633.148C138.738 644.663 125.662 640.347 121.376 643.221C118.177 641.921 113.874 641.842 110.386 641.444C87.7689 638.87 36.1746 645.361 18.9107 637.048C11.1135 633.29 5.25017 626.958 2.42061 618.751C-1.69021 606.838 0.676886 532.676 0.689265 514.077L0.880264 307.158L0.927109 149.615C0.768831 113.206 0.557521 76.6539 0.823676 40.2418C0.86612 34.4571 1.73354 26.2688 4.3889 21.1969C8.74465 12.8785 16.6338 5.94683 25.447 2.7578Z" fill="#153B73"/>
<path d="M25.4473 2.7578C28.5686 1.64526 31.6201 1.12085 34.921 0.900646C47.1517 0.0852574 129.858 -0.939741 135.562 1.67622C136.033 1.89289 136.477 2.16086 136.942 2.38991C137.24 2.53584 137.545 2.66407 137.846 2.80114C133.893 4.09497 116.814 4.7096 112.754 4.25592C101.33 2.97889 31.6528 6.59419 25.4473 2.7578Z" fill="#1C44AF"/>
<g clip-path="url(#paint2_diamond_191_306_clip_path)" data-figma-skip-parse="true"><g transform="matrix(-0.0811104 -0.382975 0.271399 -0.0574798 960.782 1316.16)"><rect x="0" y="0" width="908.192" height="743.885" fill="url(#paint2_diamond_191_306)" opacity="1" shape-rendering="crispEdges"/><rect x="0" y="0" width="908.192" height="743.885" transform="scale(1 -1)" fill="url(#paint2_diamond_191_306)" opacity="1" shape-rendering="crispEdges"/><rect x="0" y="0" width="908.192" height="743.885" transform="scale(-1 1)" fill="url(#paint2_diamond_191_306)" opacity="1" shape-rendering="crispEdges"/><rect x="0" y="0" width="908.192" height="743.885" transform="scale(-1)" fill="url(#paint2_diamond_191_306)" opacity="1" shape-rendering="crispEdges"/></g></g><path d="M777.413 1145.82C781.639 1132.12 868.958 1010.01 881.311 996.668C898.659 1017.16 914.08 1042.2 928.971 1064.96C952.969 1101.64 985.686 1142.89 999.294 1184.77C1003.39 1197.38 1003.24 1226.64 1001.92 1240.63C999.471 1266.44 980.487 1298.51 960.812 1314.85C934.966 1336.27 901.728 1346.67 868.286 1343.78C850.088 1342.06 806.31 1326.73 796.185 1312.05C747.844 1270.31 746.093 1198.28 777.413 1145.82Z" data-figma-gradient-fill="{&#34;type&#34;:&#34;GRADIENT_DIAMOND&#34;,&#34;stops&#34;:[{&#34;color&#34;:{&#34;r&#34;:0.18823529779911041,&#34;g&#34;:0.36078432202339172,&#34;b&#34;:0.60784316062927246,&#34;a&#34;:1.0},&#34;position&#34;:0.0},{&#34;color&#34;:{&#34;r&#34;:0.4748535156250,&#34;g&#34;:0.65663498640060425,&#34;b&#34;:1.0,&#34;a&#34;:1.0},&#34;position&#34;:0.250},{&#34;color&#34;:{&#34;r&#34;:0.61763823032379150,&#34;g&#34;:0.74310070276260376,&#34;b&#34;:1.0,&#34;a&#34;:1.0},&#34;position&#34;:0.50},{&#34;color&#34;:{&#34;r&#34;:0.14901961386203766,&#34;g&#34;:0.32156863808631897,&#34;b&#34;:0.55294120311737061,&#34;a&#34;:1.0},&#34;position&#34;:1.0}],&#34;stopsVar&#34;:[{&#34;color&#34;:{&#34;r&#34;:0.18823529779911041,&#34;g&#34;:0.36078432202339172,&#34;b&#34;:0.60784316062927246,&#34;a&#34;:1.0},&#34;position&#34;:0.0},{&#34;color&#34;:{&#34;r&#34;:0.4748535156250,&#34;g&#34;:0.65663498640060425,&#34;b&#34;:1.0,&#34;a&#34;:1.0},&#34;position&#34;:0.250},{&#34;color&#34;:{&#34;r&#34;:0.61763823032379150,&#34;g&#34;:0.74310070276260376,&#34;b&#34;:1.0,&#34;a&#34;:1.0},&#34;position&#34;:0.50},{&#34;color&#34;:{&#34;r&#34;:0.14901961386203766,&#34;g&#34;:0.32156863808631897,&#34;b&#34;:0.55294120311737061,&#34;a&#34;:1.0},&#34;position&#34;:1.0}],&#34;transform&#34;:{&#34;m00&#34;:-162.22087097167969,&#34;m01&#34;:542.79876708984375,&#34;m02&#34;:770.49316406250,&#34;m10&#34;:-765.95007324218750,&#34;m11&#34;:-114.95958709716797,&#34;m12&#34;:1756.617675781250},&#34;opacity&#34;:1.0,&#34;blendMode&#34;:&#34;NORMAL&#34;,&#34;visible&#34;:true}"/>
<defs>
<clipPath id="paint2_diamond_191_306_clip_path"><path d="M777.413 1145.82C781.639 1132.12 868.958 1010.01 881.311 996.668C898.659 1017.16 914.08 1042.2 928.971 1064.96C952.969 1101.64 985.686 1142.89 999.294 1184.77C1003.39 1197.38 1003.24 1226.64 1001.92 1240.63C999.471 1266.44 980.487 1298.51 960.812 1314.85C934.966 1336.27 901.728 1346.67 868.286 1343.78C850.088 1342.06 806.31 1326.73 796.185 1312.05C747.844 1270.31 746.093 1198.28 777.413 1145.82Z"/></clipPath><linearGradient id="paint0_linear_191_306" x1="457.659" y1="99.5254" x2="458" y2="327" gradientUnits="userSpaceOnUse">
<stop stop-color="#D7E3FA"/>
<stop offset="1" stop-color="#5B89D4"/>
</linearGradient>
<linearGradient id="paint1_linear_191_306" x1="312.506" y1="210.602" x2="312.506" y2="573.259" gradientUnits="userSpaceOnUse">
<stop stop-color="#7BABFF"/>
<stop offset="1" stop-color="#164178"/>
</linearGradient>
<linearGradient id="paint2_diamond_191_306" x1="0" y1="0" x2="500" y2="500" gradientUnits="userSpaceOnUse">
<stop stop-color="#305C9B"/>
<stop offset="0.25" stop-color="#79A7FF"/>
<stop offset="0.5" stop-color="#9DBDFF"/>
<stop offset="1" stop-color="#26528D"/>
</linearGradient>
</defs>
</svg>
