<svg xmlns="http://www.w3.org/2000/svg" width="971" height="1619" fill="none" viewBox="0 0 971 1619"><g clip-path="url(#a)"><path fill="#fff" d="M0 0h971v1619H0z"/><path fill="#d6e2f3" d="M458.29 9.04c42.53-5.83 122.08 35.44 146.48 70.53 17.34 24.94 10.36 76.59 5.18 105.41 11.2-3.98 32.13-14.4 43.78-19.93a2590 2590 0 0 0 98.94-49.5 687 687 0 0 1 28.94 19.72c1.22 4.34 2.25 9.55 3.24 14.01l9.23 3.19-3.55 8.5 7.25 3.59-3.15 8.18c2.76 1.35 5.82 3.14 8.54 4.65-2.91 5.87-3.13 5.62.85 10.92 1.92 2.56.49 5.56-.2 8.6l8.04 3.93-2.59 8.78 9 3.1c-.78 1.56-3.33 6.41-2.87 7.32 3.88 7.8 3.71 7.27 1.77 15.78l9.95 8.22-7.84 3.6 3.16 11.02c19-12.81 37.68-36.28 33.9-61.57-.57-3.83-1.12-3.7.15-7.6-.82-2.3-3.23-3.55-5.35-5.07l3.88-7.03-7.67-6.1 4.5-7.25-8.2-6.9c1.4-2.03 3.39-4.46 4.92-6.43-3.02-1.99-5.82-4.29-8.65-6.53l4.36-6.22c-2.61-1.85-5.23-3.9-7.78-5.85 1.31-2.22 3.07-4.68 4.53-6.85l-7.38-5.64 4.58-8.16-9.19-7.63q5.19-6.36 10.62-12.5l22.69-4.04c14.34 10.59 19.7 16.17 37.28 22.03 9.04 3.01 24.27 14.2 29.2 22.06 20 31.39 37.98 81.66 33.8 119.28-8.17 73.4-95.76 100.32-153.35 121.65-1.75 2.7-3.76 5.56-5.73 8.1-21.2 27.21-68.38 39.07-96.82 16.91l-34.84 15.38c28.13 22.83 65.01 39.9 85.45 70.94 2.54 3.86 10.83 37.16 12.49 43.34a2404 2404 0 0 1 19.67 76.71c4.41 18.73 9.48 37.88 9.56 57.19.05 13.55-2.55 24.3.73 37.73-.55 2.05-1.75 6.32-3.28 7.8-16.95 16.52-51.22 48.74-74.46 51.74-9.33 13.05-23.6 11.49-37.7 9.03-3.87 5.85-4.63 6.45-11.11 9.29-2.17 19.46-3.71 39.03-5.8 58.5-3.98 36.97 2.57 74.33 2.96 111.4.12 11.43.25 22.94.8 34.37a830 830 0 0 1 38.88 30.49l-15.78 106.81c-5.33 4.03-18.25 11.5-21.71 16.76-1.04 1.57 6.77 7.26 9.2 11.52 13.4 23.59 27.58 48.25 36.84 73.77 5.63 15.5-.06 21.55-.46 35.2-.1 3.82 2.44 22.13 3.02 26.92q6.35 55.42 14.6 110.57c3.25 21.62 6.04 46.83 13.73 67.21 9.14 24.23 24.72 45.07 34.97 68.64 6.42 14.78 10.49 30.32 4.15 45.98-5.28 13.08-16.46 22.03-29.25 27.38-28.4 11.86-111.68 13.22-139.97 1.29-7.97-3.36-14.57-8.43-17.8-16.68-8.97-22.87 8.4-56.65 17.68-77.57 2.15-4.86 5.04-10.41 5.05-15.83.02-21.55-29.16-92.01-38.42-116.03l-24.85-63.6c-10.47-26.9-16.82-44.35-22.45-72.64l-.28-.28c-8.62-8.85-6.24-19.04-6.12-31.67-23.8-20.98-40.54-37.55-60.46-62.63-7-8.82-22.14-31.07-28.52-37.85 3.36 16.87 4.54 36.53 5.94 53.8 1 12.25 2.6 27.64 2.49 39.74-4.2 6.46-10.82 14.85-15.53 21.19.5 38.02 2.5 76.18 2.78 114.27.14 19.02 1.6 40.96-1.21 59.77-1.08 7.15-7.87 18.1-11.63 24.49 16 14.87 17.5 24.25 16.9 45.59-.36 13.09-2.05 24.63-4.07 37.48-21.46 5.4-46.61 11-67.63 17.68-43.93 14.51-80.07 26.92-127.25 29.29-36.43 1.82-75.18-34.83-77-70.7-1.78-35.17 63.43-39.76 86.34-49.12 13.04-5.33 27.89-19.16 38.78-29.69l-3.67-132.66c-.53-18.39-2.04-39.83-1.05-58.12.26-4.61 7.1-16.1 9.74-20.87-3.09-3.84-6.6-7.32-9.71-11.24-8.58-10.84-1.4-27.57.82-40.96-8.8-8.97-18.74-18.02-27.82-27.06l-9.95-93.31c5.94-6.01 14.67-15.25 19.77-21.67.52-44.3 6.3-98.08 10.39-142.88 5.03-55.25 9-111.7 14.5-166.74-1.87-1.44-4.03-3.31-5.87-4.84-20.35 9.6-42.98 16.51-64.85 21.65-6.87 19.06-14.95 20.89-33.94 16.63-21.98-4.93-58.16-20.73-68.91-41.87-21.25-41.74-11.78-103.93-.77-147.37-20.08 10.25-51.86 26.24-74.18 14.6C14.07 528.6-1.2 478.35 15.33 445.41c13.32-26.54 36-34.17 62.36-42.95q16.65-5.46 33.14-11.33c5.56-17.69 8.1-24.04 27.68-24.25 4.57-7.06 16.62-18.52 24.57-21.7 6.18-2.47 9.86-1.55 15.68.88 7.04-19.72 21.75-31.34 43.87-25.75 11.03 2.78 23.37 11.62 33.07 17.86 9.1-4.4 25.1-10.21 34.87-14.12q33.68-13.32 67.03-27.43c-7.26-29.45-9.95-51.1 1.04-79.8-3.43-9.67-7.68-23-8.63-32.98-28.1-11.16-58.3-29.2-59.72-63.74-1.77-43.43 53.97-53.02 87.08-54.6 2.62-10.25 6.64-24.17 13.66-32.1 15.36-17.34 45.46-22.6 67.26-24.36"/><path fill="#ebf1fc" d="M530.61 750.44c15.43 4.48 38.24 9.76 51.56 17.24.02 0 25.25 31.08 25.93 32.26l5.8 8.14q17.36 20.85 35.18 41.32a9556 9556 0 0 0 4.04 106.37c.56 14.95 1.56 31.89 1.52 46.71l-13.28-.08c-16.33-.76-64.59-21.19-83.02-28.1 1.35 12.25 1.43 23.9 3.08 36.11 3.7 27.58 13.9 51.65 22.16 77.73.23-25.8-4.39-62.35-5.72-89.44 9.59 3.45 25.35 8.61 34.12 12.62 23.38 8.47 41.43 9.09 66.42 5.15 2.09-.07 5.44-.08 7.4-.33 2.09.23 4.41-.02 5.7 1.85-4.36 29.96-9.6 61.3-13.37 91.16-6.59 4.54-16.38 11.74-23.05 15.59-2.34 2.14-5.12 3.94-7.73 5.76-4.12-1.68-6.37-2.45-9.93-5.04-15.7-7.2-39.37-18.95-53-29.62 6.27 19.05 16.14 25.32 32.13 36.22 3.02 2.05 8.29 5.59 10.71 8.2 7.43 2.71 14.49 5.9 21.71 9.09l9.43-6.27c.46 5.36 2.34 31.48 3.7 34.77l6.15-26.8c5.23 8.99 12.58 21.24 17.02 30.56 2.4 3.31 5.74 11.4 7.64 15.49 10.42 17.01 23.56 46.21.67 59.21-16.5 9.36-46.48-1.51-64.3-6a3158 3158 0 0 1-82.87-21.68q-.2-13.34-.19-26.68c-35.57-28.9-59.1-51.34-76.68-94.3 6.28-.53 12.57-.64 18.87-.83-11.8-7.6-46.38-26.71-53.5-35.35-6.98-2.3-24.12-13.7-30.56-17.89l-38.16-24.93-.49-.77c-4.28-31.24-8.17-91.53-1.4-120.21 10.43-44.08 39.47-40.17 71.62-47.9a159 159 0 0 0 48.93-20.38c13.98-5.89 31.8-3.7 42.3-19.7.93-16.97 2.37-35.3 2.72-52.13q.17-8.57.74-17.12"/><path fill="#e2eaf8" d="M434.91 1071.47c21.96 9.11 44.95 22.78 66.06 33.72 22.12 11.47 33.48 43.79 41.74 65.83 4.6 12.29 26.66 24.45 38.25 29.35 20.53 8.69 109.36 35.93 111.95-3.27 10.42 17.01 23.56 46.21.67 59.21-16.5 9.36-46.49-1.51-64.3-6a3157 3157 0 0 1-82.87-21.68q-.2-13.34-.19-26.68c-35.57-28.89-59.1-51.34-76.68-94.29 6.28-.53 12.57-.65 18.87-.84-11.8-7.6-46.38-26.71-53.5-35.35"/><path fill="#ebf1fc" d="M637.42 1125.46c-1.84-3.1-8.12-9.21-10.66-11.53-19.3-17.59-20.29-24.29-21.58-50.05-.45-9.06 1.46-46.89 6.8-52.56 23.38 8.47 41.43 9.09 66.42 5.15 2.09-.07 5.44-.08 7.4-.33 2.09.23 4.4-.02 5.7 1.85-4.36 29.96-9.6 61.3-13.37 91.16-6.59 4.55-16.38 11.74-23.05 15.59-2.34 2.14-5.12 3.94-7.73 5.76-4.12-1.68-6.37-2.45-9.93-5.04"/><path fill="#feffff" d="M685.8 1016.14c2.09.23 4.41-.02 5.7 1.85-4.36 29.96-9.6 61.3-13.37 91.16-6.59 4.55-16.38 11.74-23.05 15.59.3-4.37 13.56-15.38 17.47-18.97 1.76-7.13 4.35-26.25 5.45-34.35 2.08-15.37 7.71-40.75 7.8-55.28"/><path fill="#e2eaf8" d="M528.72 986.39c9.14-4.25 20.07-7.87 29.62-12.09 1.35 12.25 1.43 23.9 3.08 36.11 3.7 27.58 13.9 51.66 22.16 77.73.23-25.8-4.39-62.35-5.72-89.44 9.59 3.45 25.35 8.61 34.12 12.62-5.34 5.67-7.25 43.5-6.8 52.56 1.3 25.76 2.27 32.46 21.58 50.05 2.54 2.32 8.82 8.43 10.66 11.53-15.7-7.2-39.37-18.95-53-29.62 6.27 19.05 16.14 25.32 32.13 36.22 3.02 2.05 8.29 5.59 10.71 8.2-12.21-3.29-49.59-20.16-57.9-29.49-19.52-21.88-33.2-66.08-38.95-95.01-1.72-8.68-1.7-20.82-1.69-29.37"/><path fill="#feffff" d="M641.36 1002.4c-1-2.55-1.6-21.22-1.78-24.88l-3.4-93.65c-.39-8.76-.26-21.52-1.11-29.72-.84-8.06-22.15-38.67-22.54-45.87l1.37-.2q17.36 20.85 35.18 41.32a9555 9555 0 0 0 4.04 106.37c.56 14.95 1.56 31.89 1.52 46.71z"/><path fill="#e2eaf8" d="M530.61 750.44c15.43 4.48 38.24 9.76 51.56 17.24.02 0 25.25 31.08 25.93 32.26-4.37 1.7-18.24-5.68-22.84-7.77a1304 1304 0 0 1-39.63-18.53c-3.6-1.76-12.35-6.98-15.76-6.08q.17-8.57.74-17.12"/><path fill="#feffff" d="M668.25 1151.05c5.23 8.99 12.58 21.24 17.02 30.56-3.2-.73-7.8-5.8-11.73-8.62-3.21 1.99-7.94 5.42-11.44 4.86z"/><path fill="#e2eaf8" d="m352.24 548.95-1.3 8c.31 12.74 2.03 26.27 7.48 37.89-14.47 13.07-43.16 33.19-24.23 53.64 1.32 1.43 3.34 3.56 4.94 4.64l-1.01-1.05q.9 55.3 2.72 110.6c.47 18.1.09 43.78 2.1 60.94 18.07 18.19 64.76 18.18 89.33 19.04 17 .58 35.79-2.84 52.58-3.26a159 159 0 0 1-48.93 20.37c-32.15 7.74-61.2 3.83-71.61 47.9-6.78 28.69-2.89 88.98 1.4 120.22l.49.77c-.61 1.51-1.3 4.41-.38 5.45 15.44 17.22 43.52 44.93 59.02 60.76-12.08 13.84-29.9 33.97-40.56 48.87a2031 2031 0 0 1 46.2-32.06q1.88 24.42 4.2 48.8c1.15 11.79 2.96 25.97 2.99 37.53-12.41 16.55-20.1 29.81-41.76 32.38-12.02 1.43-35.96 2.02-47-.6a635 635 0 0 1-30.86-5.54c-4.46-1.18-12.64-2.78-16.21-4.94-3.05-7.59 7.84-21.21 10.81-28.88 4.4-11.35 7.13-22.72 10.16-34.47l-.95-.26c-3.74 4.67-5.86 10.9-9.08 15.55l-5.21 9.43c-3.3-3.24-7.39-8.17-10.54-11.73 2.96-13.7 5.56-28.46 8.38-42.31q6.26-5.84 12.2-12.02c5.46-6.97 7.85-12 11.76-19.84l-1.12-1.19c-3.81 1.34-25.07 20.05-33.06 24.22-1.95 1.78-3.27 3.44-5.78 3.81-.47-.37-1.43-1.01-1.7-1.44-4.94-4.16-11.84-11.49-17.23-16.37-.63-3.47-1.14-7.73-1.45-11.24-2.06-22.98-5.55-46.35-6.8-69.35 3.41-.81 6.44-.19 9.87.27 17.69 2.34 22.47 3.17 38.55-4.36 3.27-2.23 17.6-9.3 21.62-11.38-.4 21.32-2.1 54.48-3.82 75.74 9.4-24.44 15.88-70.93 15.57-96.97-17.98 9.97-39.42 24.08-59.5 24.68-.88-5.49 0-16.61.05-22.57.24-24.4 2.6-47.86 4.78-72.1l10.44-120.1 12.14-144.46c1.83-22.34 3.2-44.9 5.23-67.23.24-2.7 1.08-3.92 3.2-5.55 9.87-10.1 21.51-20.62 31.88-30.23"/><path fill="#ebf1fc" d="M329.37 1094.77c6.31-6.74 20.78-34.39 27.82-44.6 6.8 16.38 19.57 53.3 20.51 70.79.45 8.3-11.03 47.08-13.85 57.45-4.66 17.06-8.7 32.44-12.37 50.27-1.2.63-1.3.8-2.58 1.1a623 623 0 0 1-30.85-5.54c-4.46-1.18-12.64-2.78-16.21-4.94-3.05-7.59 7.84-21.21 10.81-28.88 4.4-11.35 7.13-22.72 10.16-34.47l-.95-.26c-3.74 4.67-5.86 10.9-9.08 15.56l-5.21 9.42c-3.29-3.24-7.39-8.17-10.54-11.73 2.96-13.7 5.56-28.46 8.38-42.31a305 305 0 0 0 12.2-12.02c5.46-6.97 7.85-12 11.76-19.84"/><path fill="#feffff" d="M322.81 1155.95c7.75 10.5-1.72 55.3-4.76 68.29-4.46-1.18-12.64-2.78-16.21-4.94-3.05-7.59 7.84-21.21 10.81-28.88 4.4-11.35 7.13-22.72 10.16-34.47m-5.21-41.34c1.59 3.85-8.44 40.78-9.95 47.93 3.1 3.14 5.4 4.19 5.13 8.7l-5.21 9.43c-3.29-3.24-7.39-8.17-10.54-11.73 2.96-13.7 5.56-28.46 8.38-42.31a305 305 0 0 0 12.2-12.02"/><path fill="#ebf1fc" d="M310.65 1019.12c4.3 4.42 4.8 36.09 4.62 43.37-.37 15.08-.73 28.95-10.4 41.2-1.6 2.03-8.77 12.4-9.68 14.12-1.95 1.78-3.27 3.43-5.78 3.8-.47-.36-1.43-1.01-1.7-1.44-4.94-4.16-11.84-11.49-17.23-16.36-.63-3.48-1.14-7.74-1.45-11.25-2.06-22.98-5.55-46.34-6.8-69.35 3.41-.8 6.44-.19 9.87.27 17.69 2.34 22.47 3.17 38.55-4.36"/><path fill="#feffff" d="M262.24 1023.21c3.06.5 5.01.29 7.17 1.99 1.53 4.92 1.83 13.25 2.23 18.57q1.26 16.9 2.77 33.77c.5 6.11.82 11.79 1.74 17.93 1.06 7.11 11.94 19.39 11.55 24.7-4.93-4.16-11.83-11.49-17.22-16.36-.63-3.48-1.14-7.74-1.45-11.25-2.06-22.98-5.55-46.34-6.8-69.35"/><path fill="#ebf1fc" d="m352.24 548.95-1.3 8a509 509 0 0 1-7.03 26.67c-7.53-2.8-11.27-3.3-19.39-3.75-1.52-.09-2.91.1-4.15-.69 9.86-10.1 21.5-20.62 31.87-30.23"/><path fill="#feffff" d="M374.7 158.1c22.35-21.67 62.51-27.24 87.9-7.53-9.37.53-18.47 1.1-27.87 1.11-2.24 4.27-5.55 10.51-5.95 15.26 4.04 8.52 38.7.87 48.21 1.67 18.06 1.53 32.32 5.99 48.24 14.11-2.45-3.31-5.33-6.8-7.92-10.05 7.54-.36 16.63-2.08 24.21-3.31 0 4.1.07 9.41.63 13.38 2.65 19.04 10.57 29.5 4 48.96-3.68 10.93 15.39 36.8 21.78 46.27-4.16 26.45-8.82 55.88-33.38 72.2-24.46 16.27-52.78 30.48-80.91 39.06-21.76 6.64-46.65-1.25-65.73-12.24l-.25-.98q-7.95-31.65-15.28-63.47c-8.75-38.3-15.27-61.18-2.65-98.71 4.65-13.86-7.39-19.48 15.62-23.22-5.08 7.17-7 11.91-2.83 20.03l2.2-2.08c6.72.41 9.73 1.89 15.75-1.26l.79.7c-.93 1.85-2.47 2.3-4.5 3.55l1.05 1.23q1.13-.14 2.2-.56c3.26-1.3 4.72-6.41 6.08-9.77.08 10.33-.59 15.7-2.7 25.8-7.47.26-17.88-.57-18.28 9.73-.56 14.2 18.93 33.51 33.01 24.75 1.58-.98 2.04-3.74 2.02-5.48l-.96-.77c-15.16 7.59-34.17-8.58-24.78-21.46 3.82-2.89 18.2-2.55 23.76-2.7-2.91-.95-6.2-1.49-9.22-2.08 8.1-31.42.9-44.17-10.47-72.46-8.33-.74-15.5-.71-23.76.32"/><path fill="#e2eaf8" d="m382.52 210.64 2.2-2.08c6.72.41 9.73 1.89 15.75-1.26l.79.7c-.93 1.85-2.47 2.3-4.5 3.56l1.05 1.22c-5.56 1.8-10.87 1.7-15.29-2.14"/><path fill="#d6e2f3" d="M389.8 293.6c27.55 6.06 62.51 6.28 87.75-8.84 1.76-1.05 2.9-1.68 3.54-3.44a26 26 0 0 0-3.94-2.82l.04-.83c6.55-.8 14.39 1.58 17.46 7.84-1.88 1.6-5.57-1.93-5.27 2.22 2.4 33.26-14.89 55.57-49.8 53.44-23.2-1.41-35.85-1.7-53.3-20.11l-2.24-2.4c3.55 2.35 7.8 5.34 11.45 7.4 1.38-12.21 3.6-22-6.6-31.16z"/><path fill="#feffff" d="m483.17 287.66.94.14c1.13 1.82.87 7.13.9 9.6q-.7.47-1.44.9c-21.46 12.82-53.57 16.41-77.73 10.14l-1.58-.62c-1.46-2.14-1.52-6.2-1.8-8.98 25.68 1.55 57.97 2.72 80.71-11.18"/><path fill="#ebf1fc" d="M437.11 319.53a69 69 0 0 1 8.96-.07l.68.9-1.99 2.28c15.64-.33 17.57-6.89 34.1 2.6a134 134 0 0 1-13.76 3.4c-17.34 2.6-27.01 1.88-44.48-.96 6.05-4.62 9.49-5.86 16.5-8.15"/><path fill="#feffff" d="M405.1 328.03c14.79.15 34.48 8.3 50.9 4.6 1.92-.43 6.51-.53 8.5-.16l-1.28 1.03c-16.93 4.85-37.92 6.7-55.24-1.03-2.3-1.03-2.32-2.34-2.89-4.44"/><path fill="#d6e2f3" d="M476.2 184.34c13.1-1.17 26.07 1.9 34.57 12.76 1.83 2.35 5.84 8.83 6.2 11.7l-1.42.92c-5.74-1.02-7.15-10.92-12.44-13.95-6.68 1.9-4.43 11.5-6.83 15.04-4.62 3.5-12.99 3.2-18.88 3.52l-1.68-.38c-8.9-7.31-7.3-15.6-1.42-24.2-9.1 2.59-14.7 4.78-18.47 14.38-1.37 3.5-1.52 5.46-3.51 8.76l-1.22.24c-6.18-8.26 9.76-24.6 17.47-27 2.61-.8 4.95-1.34 7.64-1.8"/><path fill="#feffff" d="M487.86 192.36c7.5 1.26 7.62 5.76 4.03 11.32-3.47-.77-4.92-1.43-6.23-4.84-.14-3.24.47-3.87 2.2-6.48"/><path fill="#d6e2f3" d="M394.97 345.28c19.95 14.86 24.62 7.08 43.7 7.65l-1.57.82q-3.77 1.42-7.59 2.67c-13.55 4.31-29.6 4.68-34.54-11.15m50.38-105.77q1.62.36 3.21.83c11.36 3.48 13.4 11.39.8 16.28-2.03.46-2.38.5-4.46.51l1.72-1.63c7.11-6.61 4.56-10.06-1.27-15.99m-12.5 12.81c3.56-.24 4.65-.31 7.36 1.4l.17 1.17c-1.83 1.4-2.4 1.26-4.82 1.5-2.06-.6-6.41-1.13-9.01-1.7 1.14-1.39 4.36-1.87 6.3-2.37"/><path fill="#e2eaf8" d="M388.9 294.9c-2.39-.6-8.71-1.9-10.02-3.77 3.43-.05 7.54 1.45 10.91 2.47z"/><path fill="#feffff" d="M732.28 169.16c4.98-2.72 10.32-5.42 14.85-8.8 16.15 34.02 33.28 67.94 49.22 102.03l12.34-7.97c7.88 32.48 8.65 56.3-1.25 89.01-8.2 27.11-19.6 44.47-49.08 51.43-9.38 2.2-31.97 4.33-38.6-3.37 6.11-11.54-.03-49.17-4.68-61.75-6-16.22-19.52-36.57-33.78-46.12-4.68-3.12-47.47 16.66-54.77 19.94-2.8 1.57-3.17 2.29-4.96 4.79 4.24 11.57 13.98 35.77 16.54 46.53-3.69 10.35-8.54 16.92-20.73 12.08-8.3-3.3-18.82-15.15-24.06-22.4 2.2-.22 2.35-.11 4.53.5.6-.85 1.82-4.14 2.4-5.34-17.86-5.99-17.74-5.71-30.26-19.7 4.75-11.12 6.17-18.53 7.84-30.41 7.47.88 10.73 1.56 18.05-.75 1.53-.63 3.86-2.04 5.38-2.9 19.53-16.22 27.6-39.18 23.93-63.95 11.69-6.68 31.62-15.34 44.61-21.54a2281 2281 0 0 0 62.48-31.31"/><path fill="#d6e2f3" d="M606.49 291.98c.32-5.93 4.75-7.89 9.87-9.69 11.63-4.08 58.71-21.8 68.18-16.3 23.5 13.64 41.08 50.7 50.76 75.06-12.65-8.03-11.85-13.8-18.51-25.9-7.56-13.7-21.7-37.1-35.9-44.34-17.09.54-46.42 11.86-62.78 17.84-5.9 1.85-1.62 1.86-5.62 3.14a27 27 0 0 0-2.34-2.38c-2.65.87-1.67.28-3.66 2.57"/><path fill="#feffff" d="M625.46 325.41c-.54-3.43-3.67-11.93-4.95-15.82l1.06-1.24c4.24 11.57 13.98 35.77 16.54 46.53-3.69 10.35-8.54 16.92-20.73 12.08-8.3-3.3-18.82-15.15-24.06-22.4 2.2-.22 2.35-.11 4.53.5 6.17 1.64 16.41-1.02 21.55-4.91 5.7-4.35 6.26-7.85 6.06-14.74"/><path fill="#e2eaf8" d="M606.49 291.98c2-2.3 1.01-1.7 3.66-2.57 1 .9 1.46 1.4 2.35 2.38 3.99-1.29-.29-1.29 5.6-3.15-1.53 5.31 3.24 14.65 8.43 14.92-2.8 1.57-3.17 2.29-4.96 4.79l-1.06 1.24c1.28 3.9 4.41 12.39 4.95 15.82.2 6.9-.37 10.39-6.06 14.74-5.14 3.89-15.38 6.55-21.55 4.9.6-.84 1.82-4.13 2.4-5.33 5.42-1.46 15.38-1.81 17.67-8 3.57-9.61-8.55-28.83-11.43-39.74"/><path fill="#d6e2f3" d="m619.4 340.15-.96-1.6c.59-4.51 2.65-11.3 7.02-13.14.2 6.9-.37 10.39-6.06 14.74m113.2-152.68 17.05-9.83c13.99 36.58 63.51 127.61 47.37 164.15-2.67 6.03-8.69 10.42-14.1 13.85 15.05-15.7 12-36.4 7.3-55.79-9.42-38.86-28.26-76.5-44.07-112.9l-10.83 5c-2.15-2.25-2.4-1.77-2.73-4.48"/><path fill="#e2eaf8" d="M735.33 191.95c-7.79 4.23-94.78 45.78-99.04 46.18 3.22-2.68 15.56-7.87 20.17-10.04 26.1-12.33 50.83-26.77 76.13-40.62.32 2.7.58 2.23 2.74 4.48"/><path fill="#feffff" d="M696.44 470.72c11.04-.47 18.9.08 29.88 1.43 4.75 4.05 16.85 13.37 18.75 18.84 4.67 13.38 8.37 28.66 12.01 42.34a2926 2926 0 0 1 17.13 66.76c5.23 21.44 10.1 38.98 11.2 61.12-33.94-58.96-70.59-72.92-133.56-94.3-5.45-1.84-26.5-7.96-29.94-10.66-.3-5.96-2.42-18.07-3.28-24.6-1.83 7.8-3.94 15.1-5.7 23.12l-7.17 4.12c-2.76 4.4-17.03 44.26-18.38 51.3-.44 2.28 2 22.25 2.49 26.18-13.9.02-36.66.35-49.89 3.1-3.43-14.46-5.45-23.65 4.42-36.14 24.17-30.57 49.38-60.43 76.44-88.51 13.03-13.53 27.32-27.85 43.8-36.97 9.14-5.03 21.51-6.41 31.8-7.13m-479.99 14.71.62.95c2.96 35.03 3.56 72.76 12.36 107 2.38 9.25 5.9 15.83 5.69 25.97-.38 18.6-6.01 35.99-12.44 53.23-4.8-7.98-9.08-15.12-14.44-22.78 1.51 11.31 7.33 52.44-2.79 58.6-7.43.82-24.36-5.3-31.62-8-15.67-5.82-34.29-17.18-41.34-32.52-18.25-39.72-6.2-107.99 6.5-146.84 27.69-15.45 48.33-23.65 77.46-35.6m182.48 95.52c19.47-1.14 70 36.75 84.97 51.39 3.45 3.37 11.08 19.81 14.21 25.47-1.23-6.59-9.25-29.41-3.94-33.68 6.02 1.33 32.6 21.45 36.29 26.99 7.76 14.16 5.41 36.1 5.62 51.46s-5.88 25.06-13.34 37.26c-8.08-1.92-16.35-3.66-23.7-7.56 11.51-16.12 13.7-21.6 9.48-40.7-19.8 74.66-37.42 21.85-73.64 4.41-2.03-.66-2.46-.97-4.49-.65-.42 2.8 3.2 7.7 4.85 10.48-12.34 6.15-25.14 12.94-38.66 15.87-9.5-5.4-15.17-11.01-21.67-19.53 16.08-10.5 37.02-22.36 53.7-32.37-21.72 4.7-32.54 10.8-52.77 20.18-9.4-9.72-13.17-19.03-1.77-29.53 13.38-12.33 29.28-22.96 44.39-33.12-27.3 7.6-31.47 17.4-53.37 26.82-10.05-4.93-17.1-11.55-23.64-20.38 5.63-13.02 44.24-45.17 57.48-52.81M229.78 391.47c32.4-12.24 64.48-26.35 96.7-39.06 12.22-4.81 27.85-12.15 39.86-16.3 3.52 15.13 6.78 31.94 11.99 46.61.52 1.46 3.56 4.16 4.75 5.32-8.88 3.76-16.75 8.18-25.92 12.08a14523 14523 0 0 1-184.03 76.28 3219 3219 0 0 1-54.51 21.55c-13.04 5-37.17 17.76-48.76 6.9l.66-.89c7-.28 13.58-.36 20.45-2.1 17.03-4.31 82.93-30.07 93.09-41.13 3.31-3.61 5.4-8.2 5.16-13.17-.21-4.47-2.18-8.22-5.45-11.23-2.2 1.4-3.15 3.24-4.14 5.65 2.1 3.67 3.87 7.02 2.64 11.42-1.77 6.33-8.23 9.78-13.66 12.52-16.42 8.27-80.93 38.7-96.89 33.1-2.1-.74-3.98-2.26-5.53-3.8 2.43-4.2 1.83-.7 4.33-3.35l-.46-1.23c-3.9-1.87-9.27.15-12.68 2.31-1.12-29.8 19.18-32.62 42.34-42.1 12.25-5 24.83-9.58 37.18-14.31 4.3-2.07 5.47-1.25 10.26-4.9.93-1.84.8-1 .18-3.26-2.1-1.22-2.68-1.72-5.02-2.18 9.18-4.28 15-2.5 24.7-3.56 3.42-.37 5.87-1.84 9.13-2.44 4.7-3.01 5.74-4.42 8.25-9.36 8.58 1.14 12.39.74 20.66-.8 1.28-1.07 11.46-4.8 13.78-5.66 6.64-4.62 7.75-5.56 10.94-12.91"/><path fill="#e2eaf8" d="M218.84 404.38c7.37 1.23 64.05-24.72 69.3-23.73-5.16 2.53-7.25 2.4-11.16 4.08-26.86 11.57-54.84 21.46-81.86 32.83-8.19 3.45-20.25 7.6-27.69 11.43l.5.7c1.58.08 2.8.24 4.34-.1l2.8 1.72c-.23 2.27.12 5.08-2.01 6.25 2.2 1.42 4.49 2.83 6.57 4.42 2.1 3.67 3.87 7.02 2.64 11.42-1.77 6.33-8.23 9.78-13.66 12.52-16.42 8.27-80.93 38.7-96.89 33.1-2.1-.74-3.98-2.26-5.53-3.8 2.43-4.2 1.83-.7 4.33-3.35l-.46-1.23c-3.9-1.87-9.27.15-12.68 2.31-1.12-29.8 19.18-32.62 42.34-42.1 12.25-5 24.83-9.58 37.18-14.31 4.3-2.07 5.47-1.25 10.26-4.9.93-1.84.8-1 .18-3.26-2.1-1.22-2.68-1.72-5.02-2.18 9.18-4.28 15-2.5 24.7-3.56 3.42-.37 5.87-1.84 9.13-2.44 4.7-3.01 5.74-4.42 8.25-9.36 8.58 1.14 12.39.74 20.66-.8 1.28-1.07 11.46-4.8 13.78-5.66"/><path fill="#feffff" d="M143.76 469.96c6.45-2.63 16.9-7.94 22.47-12 9.74-7.12-.38-13.63.27-19.61 2-1.75 1-1.31 3.86-1.5l2.7.7c2.2 1.43 4.49 2.84 6.57 4.43 2.1 3.67 3.87 7.02 2.64 11.42-1.78 6.33-8.23 9.78-13.66 12.52-16.42 8.26-80.93 38.7-96.89 33.1-2.1-.74-3.98-2.26-5.53-3.81 4.15-2.26 26.89-5.79 34.04-7.98 16.13-4.95 28.28-10.45 43.53-17.28m61.3-59.9c-3.93 2.72-24.25 10.85-28.91 10.15 4.7-3.01 5.74-4.42 8.25-9.36 8.58 1.14 12.39.74 20.66-.8"/><path fill="#d6e2f3" d="M170.36 436.85c-2.32-.9-2.32-2-2.32-4.06 2.07-2.74.97-1.87 4.23-3.2l2.8 1.71c-.23 2.28.12 5.09-2.01 6.26z"/><path fill="#feffff" d="M142.02 441.62c6.26-.17 18.72-.14 20.95 6.94-1 4.15-3.94 6.5-7.43 8.66q-3.13 1.9-6.34 3.7c-24.36 11.63-57.16 23.25-83.53 29.05.32-11.93 1.72-19.03 13.59-24.2 19.47-8.48 41.98-20.05 62.76-24.15"/><path fill="#e2eaf8" d="M175.07 431.3c3.9 1.81 5.34 2.43 8.7 5.03-2.2 1.4-3.15 3.24-4.14 5.65-2.08-1.59-4.37-3-6.57-4.42 2.13-1.17 1.78-3.98 2.01-6.25"/><path fill="#feffff" d="M608.84 384.6c4.17 1.1 42.32 30.93 49.99 35.87-67.41 28.77-109.7 78.93-155.96 133.21-29.06 2.8-59.88 3.63-89.23 5.9-19.03-36.53-18.37-46.58-9.28-87.44 3.06-11.45 5.71-21.55 9.22-32.93 16.7 5.25 25.59 12.52 37.61 24.76-6.18 15.31-12.94 60.19-15.88 78.37 11.34-21.5 24.03-56.3 42.13-73.2 18.12-16.93 24.54 10.55 32.4 21.48z"/><path fill="#ebf1fc" d="m351.96 752.84-.2-2.62c-1.41-21.52-.5-43.75-1.95-65.35-.3-4.64-1.55-18.75 1.18-21.87 2.89 1.5 2.54 2.84 2.07 5.98-1.59 10.83 2.45 17.64 8.36 26.87-.35 3.85-1.2 9.24.98 12.64 25.84 40.24 46.46 26.24 79.44 10.4a242 242 0 0 0 24.62 18.1c18.28 9.74 33.91 10.1 53.3 16.65-.16 2.83-.77 17.54-1.6 19.33-.38 13.3-1.9 28.7-1.96 41.26-35.56 16.01-88.6 26.56-126.5 13.99-10.25-1.42-26.56-8.77-35.87-13.23-.54-20.75-1.5-41.4-1.87-62.15"/><path fill="#e2eaf8" d="m351.96 752.84-.2-2.62c-1.41-21.52-.5-43.75-1.95-65.35-.3-4.64-1.55-18.75 1.18-21.87 2.89 1.5 2.54 2.84 2.07 5.98-1.59 10.83 2.45 17.64 8.36 26.87-.35 3.85-1.2 9.24.98 12.64 25.84 40.24 46.46 26.24 79.44 10.4a242 242 0 0 0 24.62 18.1c-15.81 11.34-34.89 15.04-53.97 16.42-9.84.71-24.7.49-32.17-6.5-11.21 5.4-15.95 5.92-28.36 5.93"/><path fill="#feffff" d="M510.92 799.37c.2-9.06-4.08-35.34-.13-40.45 2.6.67 4.57.87 6.98 1.99 1.41 2.72.32 8.08.38 12.06-.37 13.3-1.9 28.7-1.95 41.26-35.56 16.01-88.6 26.56-126.5 13.99 3.11-2.15 31 .15 37.9-.64 22-2.5 66.7-13.78 83.32-28.2m104.95-228.72c6.7.34 22 6.17 28.96 8.1 35.88 10 75.18 21.35 99.1 52.11 9.53 12.25 44.25 51.78 43.17 65.6-2.3 5.2-19.83 18.87-25.07 23.27a86 86 0 0 1-6-6.98c-9.74-12.3-20-23.78-30.58-35.35 4.4 9.55 7.54 18.1 11.18 27.94 2.98 7.93 8.42 17.37 12.53 25-9.51 6.26-14.64 9.78-25.19 13.79-16.7-26.48-54.13-68.14-77.89-88.46-8.2-7.01-34.34-21.17-44.69-24.81a536 536 0 0 0-2.1-24.06q20.77 3.69 41.49 7.68c-10.3-6.48-21.97-14.9-32.35-21.79 1.52-7.63 2.37-16.26 7.44-22.04m-44.37 80.26c16.66-.8 37.39-1.87 52.19 6.49 7.38 4.16 14.53 8.89 20.88 14.51 11.32 10.03 62.72 65 65.07 76.74.43 2.16-.06 2.75-1.29 4.36-10.82 4.8-33.52-2.68-45.06-5.34-2.88-.66-8.77-2.77-11.22-2.68l1.04 1c5.74 5.4 12.34 10.91 18.28 16.34-19.44 3.52-46.3 7.57-65.5.35-6.4-2.6-12.34-7.44-18.78-9.81-15.19-5.6-30.9-9.99-46.26-15.07 5.1-10.94 8.74-20.07 9.3-32.3.83-18.16.81-35.04-3.22-52.87 7.86-.94 16.6-1.27 24.57-1.72"/><path fill="#e2eaf8" d="M389.1 135.19c-11.35 4.6-26.94 14.18-33.1 24.71-1.75 2.98-3.75 8.83-5.67 12.6-3.27.28-6.88-1.52-9.76-3.05-18.85-9.95-30.62-16.85-37.72-37.9-10.01-27.83 9.8-43.88 34.82-50.8 33.05-9.13 69.93-7.01 103 1.47 5.53 1.42 14.03 3.38 18.92 6.01 42.82 15.37 73.31 33.06 103.62 66.87-14.04 3.52-27.44 5.27-41.49 7.52-25.52 4.08-30.35-2-47.4-19.17-3.13-2.22-13.81-13.14-18.94-17.3-24.04-19.66-54.55-27.78-84.94-32.29-16.5-2.44-53.9-3.63-58.06 18.78-.99 5.34-.42 17.2 3.2 21.62l.84.05c.37-3.98 2.02-12.48 5.3-14.29 17.96-9.87 55.08 3.07 66.71 14.5z"/><path fill="#feffff" d="M474.33 143.45c5.59.14 17.99 17.26 25.6 18.64 7.54 1.38 55.15-5.58 58.65-7.67l.11-1.5c-4.75-6.02-14.1-14.57-19.91-19.94l-1.3 1.77a26 26 0 0 0 1.7 4.05l-.42 1.14c-6.17 15.94-26.94 11.49-39.5 14.3-.81.19-1.37.82-4 1.26-3.97-2.55-7.78-4.76-11.15-8.1l.73-.22c14.2 9.25 58 2.59 51.75-8.9-11.43-21.02-57.24-35.69-77.08-49.04l.08-1c42.82 15.36 73.31 33.05 103.62 66.86-14.04 3.52-27.44 5.27-41.49 7.52-25.52 4.08-30.35-2-47.4-19.17"/><path fill="#feffff" d="M450.24 17.69c2.33-.37 8.63-.5 11.1-.52a93 93 0 0 1 66.5 27.16c9.33 9.2 15.23 17.8 17.32 31.06 2.68 16.91 2.4 33.82 2.51 50.89-7.76-7.44-25.46-18.74-34.89-24.53-38.37-21.2-78.83-35.47-122.95-36.25 10.45-34.72 25.19-43.42 60.41-47.81m-90.71 388.35c-3.4 3.7-9.65 12.32-13.9 14.04-58.86 23.77-117.77 47.43-176.27 72.1-29.28 12.5-53.54 30.32-83.62 41.5-32.2 11.98-50.12-3.8-60.84-33.46-6-16.58-5.99-34.59 2.1-50.71 13.04-26 45.76-32.92 71.41-41.42-2.42 13.65.85 15.83 12.58 21.05-13.08 4.6-56.86 21.02-65.34 28.94-6 5.58-9.45 13.4-9.52 21.59-.28 20.25 14.32 37.35 27.68 50.82-9.09-15.64-24.87-37.25-18.27-56.65 4.8-14.05 25.76-18.9 38.25-24.27 19.16-8.22 39.33-15.06 58.53-23.37 2.34.46 2.92.96 5.02 2.18.62 2.27.75 1.42-.19 3.27-4.78 3.64-5.95 2.82-10.26 4.89-12.35 4.73-24.92 9.3-37.17 14.31-23.17 9.48-43.46 12.29-42.34 42.1 4.38 20.54 16.47 26.93 36.15 20.68 30.93-9.8 61.53-23.14 91.54-35.36z"/><path fill="#e2eaf8" d="M897.28 121.48c25.27 12.42 29.59 28.41 39.47 52.86 41.56 102.82-12.04 141.72-102.66 175.87-5.77 2.36-11.71 4.37-17.6 6.43 4.26-13.95 7.54-24.34 9.8-38.83 33.45-8.73 71.78-19 92.17-50.42 3.52-5.43 7.91-16.66 8.05-23.07.9-39.32-19.9-85.47-29.23-122.84"/><path fill="#ebf1fc" d="M518.59 571.92c30.74-49.22 63.96-90.21 114.16-120.71 11.73-7.13 23-14.39 36.1-18.97 11.45 2.2 15.46 4.16 24.85 11.07 3.37 2.9 6.78 5.7 9.8 8.96l8.02 8.13c-29.21-4.21-55.74 7.67-78.74 24.88-27.26 20.41-50.54 46.99-71.58 73.66-4.7 5.94-28.39 37.85-31.67 39.46-1.87-1.55-1.35-1.43-2.25-4.18l-1.87-5.53z"/><path fill="#e2eaf8" d="M518.59 571.92c30.74-49.22 63.96-90.21 114.16-120.71 11.73-7.13 23-14.39 36.1-18.97 11.45 2.2 15.46 4.16 24.85 11.07l-.68.26c-5.7 2.14-12.67 3.13-18.65 4.75-8.14 2.2-16.33 5.23-24.12 8.38-49.13 19.9-96.85 69.23-119.21 116.93a92 92 0 0 0-5.63 15.06z"/><path fill="#feffff" d="m703.5 452.27 8.02 8.13c-29.21-4.21-55.74 7.66-78.74 24.88-27.26 20.41-50.54 46.98-71.58 73.65-4.7 5.95-28.39 37.86-31.67 39.47-1.87-1.55-1.35-1.43-2.25-4.18 2.78-2.74 5.12-6.13 7.63-9.19 34.5-42.07 65.39-89.7 114.01-116.96 13.9-7.79 26.29-14.4 42.58-15 3.72-.13 7.75-.03 11.33-.68z"/><path fill="#ebf1fc" d="M678.4 289.33c2.1 1.26 9.84 8.94 11.7 11.03 21.6 24.25 26.65 54.62 24.84 86.01-15.68 7.42-32.15 14.6-48.01 21.74-1.02-.2-1.97-.2-2.13-1.67-4.35-40.66-10.95-63.96-35.87-97.27 14.34-4.88 34.98-14.02 49.47-19.84"/><path fill="#feffff" d="M278.3 516.04c12.57 4.97 34 32.27 43.02 42.99q-.65.5-1.26 1.04c-3.84 3.28-14.94 13.04-15.5 16.95-3.82 26.15-5.96 62.79-7.9 88.76-6.46-22.5-8.28-28.62-21.54-48a479 479 0 0 0-36.2-47.5c-.93-6.6-1.62-13.81-2.4-20.48 2.48-2.75 5.33-5.62 7.9-8.33 10.84 9.7 25.11 18.56 37.2 27.22-6.94-11.52-18.27-25.35-26.93-35.95 7.02-4.4 16.27-11.72 23.6-16.7M578.32 356.1c4.63 2.68 19.06 14.98 23.04 18.52q-23.4 24.15-47.13 48c-15.16 15.3-29.67 29.19-42.53 46.6a125 125 0 0 0-4.67-8.04c-4.44-6.88-9.19-11.01-17.2-12.72-12.34 3.4-19.27 10.3-28.02 19.05 5.42-8.89 17.52-30.16 23.98-37.11 15.41-16.62 43.45-31.73 62.3-45.54 6.97-5.1 21.77-13.13 27.38-18.5zm-276.2 879.18c18.56 3.86 33.18 7.06 52.28 10.27-9.7 2.3-27.91 3.44-38.26 4.3.1 21.87-1.24 131.64 2.9 142.72 3.64 9.71 16.53 20.32 23.73 27.87-11.5.34-23.72 1.48-35.5 1.93-25.47 30.3-47.65 38.48-84.46 45.59-24.56 4.64-32.8 4.32-36.13 31.01-1.8-4.25-4.55-11.15-4.92-15.47-2.24-26.54 58.54-29.21 76.45-38.07 19.47-9.61 33.93-21.15 48.21-37.74.14-2.57.05-4.84 0-7.38-1.08-54.96-3.62-110.08-4.3-165.03"/><path fill="#ebf1fc" d="M868.57 206.67a275 275 0 0 1 15.64 12.77c.57 3.87 1.06 7.83 1.7 11.7 2.97 17.63.06 26.38 17.86 34.43-13.1 19.32-28.87 27.7-50.02 36.4-9.46 3.6-17.12 5.84-26.8 8.61.46-15.96.25-24.44-1.79-40.31 24.27-12.56 41.88-35.81 43.41-63.6"/><path fill="#feffff" d="M329.51 439.68c-.15 1.81-42.62 60.22-47.55 66.93-13.14-2.26-35.9 19-46.01 27.77l-1.07-.84c-2.26-16.92-2.05-36.66-4.1-54.2zm556.08-322.45 2.79-.21c2.64 1.95 27.78 93.97 30.85 105.74 1.68 6.44 3.82 25.04-1.59 30.32-14.64 14.3-21.82 4.04-24.35-12.78a277 277 0 0 1-2.6-21.78l8.65-8-9.5-7.18 5.06-7.48-8.75-4.48 4.71-7.81-8.78-5.61 4-7.05-8.82-4.92q2.55-4.32 5-8.7l-7.03-5.05 4.2-7.66c-2.55-1.64-5.93-3.47-8.61-5.03l5-7.85c-2.32-1.43-3.9-2.15-5.38-4.5-1.18-7.83 9.2-8.75 15.15-9.97m-672.22 208c9.64-.38 18.92 6.02 26.8 10.95-3.35 1.45-7.42 3.84-10.66 2.82a36 36 0 0 1-.3-4.21l-.71.28c-8.13 10.67 7.91 50.17-16.44 64.3-4.47 2.02-27.54 9.02-27.14.76.84-17.56-.43-40.76 2.42-57.83 1.99-11.9 15.62-16.08 26.03-17.07m362.53-93.98c1.13-7.14 2.1-15.93 4.44-22.63 2.42-6.95 10.05-7.99 16.17-5.98 24.25 6.93 21.49 36.24 14.79 55.05-1 2.8-7 11.6-7.07 13.52 1.54 4.34-4.04 9.47-2.97 14.76-1.52.85-3.85 2.26-5.37 2.9.8-3.56 3-6.48 1.96-10.47-5.08-2.16-7.54 5.52-22.22-2.31-2.72-19.35-2.02-25.05.27-44.84"/><path fill="#ebf1fc" d="M575.9 231.25c1.27 2.52 2.34 4.05 3.9 6.34l.84.2 1.05-1.1c-1.14-1.06-1.32-.9-1.72-2.2l1.23.34c2.61-7.42 5.88-25.33 15.74-24.8 7.82 4.11 7.59 14.14 8.06 21.7l-.6.68c-2.71-3.94-5.64-11.11-8.07-13.7l-1.61-.12c-3.23 3.6 5.35 11.57 3.74 14.67l.55-.58c-1.18.48-1.94.82-3.1 1.4.16 1.36.27 2.41.32 3.8-3.28-.6-3.05-4.65-6.47-5.68-1.46 7.52 5.59 4.83 5 13.16-.42 6.15-8.65 12.5-8.49 17.38l1.2.92c2.57-1.04 5.14-2.25 7.83-2.75l.44.57c-.64 1.12-1.32 1.97-1.48 3.17l1.52-.45c.18 2.24.65 3.97-.5 5.74-3.44 2.3-2 2.01-5.5 1.6-.65-1.24-.6-.6-.38-1.93-2.67.4-1.8-.1-3.63 1.62 2.97 4.84 14.55 2.4 18.46-.02 1.54 4.34-4.04 9.47-2.97 14.76-1.52.85-3.85 2.26-5.37 2.9.8-3.56 3-6.48 1.96-10.47-5.08-2.16-7.54 5.52-22.22-2.31-2.72-19.35-2.02-25.05.27-44.84"/><path fill="#feffff" d="M359 309.02c2.08.6 4.57 15.16 5.2 18.03-41.2 17.14-86.81 36.34-128.37 52-1.21.54-1.2.46-2.55.5-1.11-3.05.27-16.86.56-20.72 12.58-4.14 28.9-11.17 41.5-16.13A4089 4089 0 0 0 359 309.02m251.7-111.09a3817 3817 0 0 0 119.31-59.27c4.5 4.46 9.67 10.41 14.03 15.16-2.93 2.02-12.55 6.9-13.44 7.67-35.69 16.34-72.77 34.6-108.43 51.42-3.7-6.72-5.82-9.82-11.46-14.98"/><path fill="#e2eaf8" d="m501.12 567.9.48.1 1.39 1.2c3.44 14.54 7.4 36.14 11.19 49.83-11.58-8.43-16.69-12.96-30.36-5.8-7.12-5.52-15.7-11.15-23.19-16.3-7.06-5.59-30.7-19.73-38.55-23.65 7.56-1.17 18.79-1.64 26.7-2.18z"/><path fill="#ebf1fc" d="M373.3 424.5q-.43 12.43-.04 24.88c1.23 8.03 1.81 13.18 3.84 21.1 5.76-7.51 11.02-14.95 17.93-21.4-8.14 24.21-13.1 40.7-12.93 66.11-12.26 1.85-18.8 7.75-24.87 18.46-.75 2.98-3.64 10.67-4.76 13.89-3.47-48.57-.32-79 20.84-123.04"/><path fill="#e2eaf8" d="M373.26 449.38c1.23 8.03 1.81 13.18 3.84 21.1 5.76-7.51 11.02-14.95 17.93-21.4-8.14 24.21-13.1 40.7-12.93 66.11-12.26 1.85-18.8 7.75-24.87 18.46 1.49-11.53 6.2-23.15 7.75-33.92 2.06-14.26 8.54-36.87 8.28-50.35"/><path fill="#ebf1fc" d="M534.1 37.16c16.53 8.88 79.43 44.52 68.64 68.61-1.1-1.2-1.06-1.68-1.63-3.28l-.62-.03c-.75 5.26.68 11.09-.57 15.06l-5.34 48.9a32 32 0 0 1-.56 3.38c-1.62-.58-1.84-1.26-2.3-3.48-.9-4.42-1.15-12.84-3-16.72-3.58-7.56-10-12.68-12.01-21.29-4.32-18.45.36-38.3-8.95-55.78-6.09-11.43-17.87-17-25.01-27-3.19-2.46-5.87-5.45-8.65-8.37"/><path fill="#e2eaf8" d="M534.1 37.16c16.53 8.88 79.43 44.52 68.64 68.61-1.1-1.2-1.06-1.68-1.63-3.28l-.62-.03c-.75 5.26.68 11.09-.57 15.06-.6-2.56-.81-8.13-.84-11-.18-16.53-15.24-30.59-26.65-40.86-4.66-4.2-24.82-19.76-29.68-20.14-3.19-2.45-5.87-5.44-8.65-8.36"/><path fill="#ebf1fc" d="m772.9 144.59 1.28.12c.98 1.82-.18 6.88-.54 9.2l10.6 1.66-5.31 9.91 9.6 1.82c-1.88 3.16-3.62 6.67-5.32 9.95l10.95 2.24c-1.6 3.48-3.5 7.1-5.24 10.55l8.57 2.21-4.5 9.77 10.4 2.04-4.32 10.24 9.42 2.95-4.14 9.3c2.49.94 4.27 1.34 6.13 3.21.88 2.44-.61 5.43-1.52 8.13 2.96 1.19 7.94 2.77 9.78 5.09a743 743 0 0 0-19.06 10.04c-12.81-31.6-33.88-67.49-45.74-98.33 6.26-3.63 12.52-6.8 18.95-10.1"/><path fill="#feffff" d="M559.52 340.08c2.83-.3 1.73-.52 4.19.72l1.1 1.86c-.45 5.7-1.04 10.14-1.9 15.77-32.5 23.08-71.16 43.25-96.58 74.91-6.2-10.4-12.63-20.68-18.66-31.2a190 190 0 0 0 35.32-11.48c19.15-8.25 68.92-31.4 76.53-50.58m145.09 925.71c1.38 1.44 2.58 19.2 2.98 22.26 7.42 57.42 13.73 115.9 26.03 172.48l-9.89.21c-.95-1.04-4.78-27.52-5.34-30.75-8.94-52.35-21.86-105.13-24.3-158.32a98 98 0 0 0 10.52-5.88M347.58 446.47c.42 2.42-2.82 13.23-3.73 16.2-8.03 26.1-6.34 52.77-6.07 79.96l-7 6.88c-5-6.5-9.9-11.75-15.76-17.43a137 137 0 0 0-18.52-15.06c4.64-5.46 11.54-15.63 15.92-21.66zM244.63 594.36c9.96 12.88 28.24 36.63 33.57 51.29a361 361 0 0 1 5.95 17.85c.84 2.13.94 2.26.94 4.5-5.45 5.29-46.68 17.38-55.41 19.86 18.62-32.04 30.14-57.37 14.95-93.5"/><path fill="#feffff" d="M278.2 645.65q3.21 8.85 5.95 17.85c-3.18-.8-2.54-.12-4.14-2.24l.28-.1c-3.28-3.88-3.7-10.95-2.09-15.51m118.98-251.31c14.6 5.52 20.3 7.17 35.8 8.72 5.96 9.72 12.71 19.68 18.45 29.21 2.38 3.47 6.69 8.96 7.03 12.94-2.7 2.65-11.56-2.07-15.12-3.53-3.03-1.49-11.72-4.48-15.26-5.79l-12.05-3.86c3.1-2.1 10.85-6.91 11.61-10.15-18.01 2.9-27.54 10.43-41.25 21.76.29-17.59 2.28-33.57 10.8-49.3"/><path fill="#feffff" d="M451.43 432.28c2.38 3.47 6.69 8.95 7.03 12.94-2.71 2.64-11.56-2.08-15.12-3.54 3.07-1 7.15-6.35 8.09-9.4m-23.79-10.4 1.29-.6c2.04 4.04-1.01 9.35-.85 14.6l-12.05-3.85c3.1-2.1 10.85-6.91 11.6-10.15m-259.7-72.52c5.1 1.12 7.01 2.2 11.59 4.48-.18 17.65.67 33.77-.15 51.56-5.92 9.5-12.06 11.02-22.86 11.1-3.17-.71-9.6-1.93-9.04-5.6 2.65-17.52 2.3-25.17-2.91-42.45 3.51-5.78 16.74-16.27 23.37-19.1M376.77 528.6c14.87.83 20.83 25.94 27.12 37.98-10.35-.08-12.7 2.07-21.12 8.03-4.96 3.58-8.1 6.35-12.65 10.42-7.62-17.68-12.04-44.1 6.65-56.42"/><path fill="#feffff" d="M128.5 373.32c4.9-.3 8.61-.05 13.46.22 1.56 16.14 9.33 28.47-6.45 39.64-5.74 4.05-8.38 7.75-15.66 9.64-26.4-2.75-13.05-12.73-5.17-27.3 4.4-8.15 5.58-17.09 13.83-22.2m578.76 1088.35c6.69-.26 25.79 8.43 32.35 11.76 3.5 7.49 6.79 15.42 10.89 22.59 8.92 15.61 16.93 28.64 24.18 45.21-2.26 2.33-5.52 5.05-8.02 7.26-2.67 2.04-6.53 4.35-9.43 6.22 1.21-2.09 2.29-4.26 3.4-6.4-3.02-16.07-10.28-27.39-16.5-41.75-9.57-22.06-18.2-30.36-36.87-44.89m-91.07-681.9c10.58 1.78 29.86.41 40.87-.45-.67 13.76-3.03 30.33-4.73 44.23l-.38 4.04-.87.57c-7.35-6.14-32.28-40.43-34.88-48.4M383.32 173.43c16.84-1.43 19.32 7.01 22.98 21.5-9.58-8.8-20.28-9.12-32.55-6.95-8.3 3.74-6.8 12.78-6.93 20.63-2.92-9.11-4.47-16.53-6.25-25.9 7.5-6.83 12.94-8.34 22.75-9.28m368.83-47.91c4.14 1.45 16.79 10.54 22.3 13.33a439 439 0 0 1-16.61 7.96l-5.18 2.58a282 282 0 0 0-13.92-15.92zM859.94 93.5c2.5-.07 23.63 16.92 27.04 19.46l-14.51 3.92c-2.77-.34-23.01-17.78-26.57-20.72z"/><path fill="#ebf1fc" d="M649.04 361.05c3.58 3.73 7.18 32.95 8.04 40.09l-6.06-5.81c-5.85-5.22-11.37-10.33-16.27-16.46 8.62-5.99 10.44-8.13 14.29-17.82"/><path fill="#feffff" d="M776.21 1550.11c6.17 6.51-3.46 32.23-13.73 33.16v-2.03c-.06-5.86.16-9.79-5.87-12.53 4.3-5.63 12.4-9.24 19.6-18.6M842.64 96.92c8.84 6.64 17.57 14.22 26.07 21.36a30 30 0 0 1-3.63 5.82l-27.96-20.7zm16.03 67.92c6.2 3.85 20.77 14.8 26.49 19.48-.03 2.69-.92 3.15-2.54 5.74-5.95-3.9-21.78-14.96-26.6-19.42.13-2.56 1.16-3.36 2.65-5.8m6.47 25.3c6.41 4.03 22.43 15.56 27.76 20.43.02 2.3-.86 2.54-2.63 4.7l-1.42.34c-5.02-2.92-19.96-15.8-24.9-20.47-.78-.73.67-3.6 1.19-5m-20.27-77.44c8.2 6.83 17.44 12.96 25.9 20-.03 1.96-1.56 3.36-2.9 5.26a780 780 0 0 0-26.5-19.2zm3.26 13.34c5.9 4 20.86 14.4 25.59 18.9.13 1.96-1.42 3.89-2.5 5.66-8.2-6.6-17.75-12.18-25.61-19.05 0-2.5.96-3.08 2.52-5.52m2.73 13.43c3.67 1.24 22.73 15.56 26.55 18.7.18 2.74-.72 3.13-2.38 5.89-3.98-3.24-25.5-18.74-26.21-21.44zm3.96 12.68c6.85 4.43 19.5 13.57 25.59 18.75.19 2.94-.4 2.95-1.93 5.88-8.29-6.41-17.63-12.7-25.43-19.57-.55-2.54 0-2.3 1.77-5.06m7.22 26.06c7.37 5.1 19.9 13.7 26.52 19.44 0 2.18-.93 2.78-2.3 4.86-8-5.66-19.03-13.02-26.33-19.18-.08-2.47.64-2.73 2.1-5.12"/><path fill="#ebf1fc" d="m559.52 340.08-.63-.55c1.37-2.6 4.44-7.16 4.24-9.5l-1.66-.34c-3.25 3.7-3.7 8.38-6.02 9.25-5.46-7.57 2.69-13.15 8.78-11.26l-2.48-.49c3.09.37 2.07-.15 4.09 1.74 1.06 2.31-.1 11.47-1.03 13.73l-1.1-1.86c-2.46-1.24-1.37-1.03-4.19-.72"/><path fill="#e2eaf8" d="m744.04 153.82.91 1.73c-1.28 2.33-.68 1.65-4 2.62q-1.02.3-2.06.56c.57 1.91.48 1.35 2.57 2.8 1.73-.48 1.71-.66 2.92-1.93 1.04.2 1.9.23 2.75.76-4.53 3.38-9.87 6.08-14.85 8.8.13-2.77.16-3.73-.2-6.56l-1.48-1.1c.89-.78 10.51-5.66 13.43-7.68m-66.54 849.41c3.12 2.68 12.45 10.19 14.3 13.07-.06.39-.14 1.4-.3 1.69-1.28-1.87-3.6-1.62-5.7-1.85-1.96.25-5.3.26-7.39.33 2.52-4.04.33-8.78-.91-13.24"/><path fill="#feffff" d="M393.93 195.9a4.17 4.17 0 1 1 3.59 7.53 4.17 4.17 0 0 1-3.6-7.53"/></g><defs><clipPath id="a"><path fill="#fff" d="M0 0h971v1619H0z"/></clipPath></defs></svg>