<svg xmlns="http://www.w3.org/2000/svg" width="1272" height="1072"><path fill="#0d253e" d="m791 81 2.18 2.02c20.94 20.01 28.78 46.03 29.76 74.43.86 46.48.86 46.48-3.94 64.55l2.37-1.12a1967 1967 0 0 1 48.2-22.13c18.38-8.12 36.55-16.55 54.29-26.02 6.18-3.3 12.41-6.51 18.64-9.73a3293 3293 0 0 0 30.68-16.04q2.48-1.33 4.94-2.7c5.8-2.54 12.46-2.27 18.49-.49 6.3 2.9 11.62 7.32 17.01 11.61 2.77 2.19 5.63 4.18 8.57 6.12 13.64 9.07 13.64 9.07 15.61 16.53l.64 3.22c.72 4.17.72 4.17 3.37 7.23q2.1.95 4.25 1.76c3.18 1.25 4.37 2.76 5.94 5.76a61 61 0 0 1 0 10l1.88.81C1056 208 1056 208 1058 211c.24 2.3.24 2.3.31 4.88.4 5.1 1.98 6.6 5.69 10.12 1.03 3.53 1.04 7.03.88 10.69-.06 2.44-.06 2.44 1.56 4.62 1.57 2.71 1.73 3.7 1.87 6.69.12 2.08.12 2.08.69 4l3 2.5c3.14 2.62 3.45 2.93 3.94 6.69.06 3.81.06 3.81-.94 5.81l2.75.69c3.86 1.56 5.2 2.69 7.25 6.31.64 4.49-.1 8.6-1 13l1 2q.11 3.8.06 7.63l-.01 2.14-.05 5.23c3.8 2.2 3.8 2.2 8 3 5.9-11.18 9.16-22.36 9.63-35l.11-2.64.26-6.36h-2l.44-1.69c.59-2.42 1.08-4.86 1.56-7.31l-6-4a47 47 0 0 1 3-10v-2l-2.31-.81c-2.6-1.15-4.08-1.86-5.69-4.19.23-3.5 2.22-6.06 4-9v-2l-2-1v-2l-2.37-.94C1089 217 1089 217 1087 216c.54-3.87 1.6-5.97 4-9v-2l-2-1v-2l-2.37-.75c-2.95-1.4-3.53-2.26-4.63-5.25l5-6-3-2v-2l-2.44-.81L1079 184c-1-3-1-3 .31-5.69L1081 176h2c-1.5-4.2-4.29-5.74-8-8 .58-4.9 1.65-7.31 4-12l-11-9c3-5 3-5 4.44-6.75a25 25 0 0 0 3.06-6.25c3.77-8.84 13.5-19.34 22.33-23.26 28.9-8.4 28.9-8.4 40.35-2.65 3.6 2.27 6.88 4.95 10.21 7.6l1.84 1.47q1.78 1.42 3.55 2.88c6.88 5.57 14.58 8.57 22.78 11.71 34.25 13.49 55 36.9 69.8 70.33 21.62 50.65 36.54 110.17 15.68 163.37-7.23 17.44-17.9 32.1-31.04 45.55l-2.54 2.72c-18.88 19.8-43.23 33.16-67.46 45.28l-2.14 1.1c-9.68 4.9-19.72 8.96-29.8 12.96l-2.07.83a522 522 0 0 1-27.19 9.9l-5.71 1.93q-5.54 1.88-11.13 3.64c-10.58 3.5-16.33 6.58-21.96 16.64-16.66 21.03-42.04 32.52-68 37l-3.2.55c-19.99 2.34-39.24.73-56.98-9.06-4.28-2.31-4.28-2.31-8.93-1.87l-2.22 1.03-2.42 1.1-2.5 1.19-2.55 1.17q-3.1 1.43-6.2 2.89a307 307 0 0 0 21.7 15.8c36.18 24.05 72.72 49.95 83.83 94.06l.95 3.67 2 7.76q2.36 9.26 4.78 18.53l1.08 4.18q4.62 17.79 9.62 35.49c8.75 31.17 17.3 62.46 23.16 94.32l.43 2.27c2.74 14.94 4.86 30.14 4.7 45.36v2.88a203 203 0 0 1-1.67 21.95c-.6 5.4-.38 9.97.89 15.3 1.8 8.22 1 16.23-3.47 23.43-5.65 6.69-12.3 12.26-19.14 17.7q-3.74 3.03-7.4 6.18c-8.21 7.07-16.8 13.62-25.46 20.12l-2.01 1.52c-27.29 20.57-27.29 20.57-41.62 23.86-5 1.23-7.56 3.23-11.2 6.77-7.11 6.05-15.63 9.15-24.88 8.74l-3.27-.1q-3.39-.1-6.76-.27c-7.33-.18-7.33-.18-13.42 3.5l-1.56 1.68-1.28 1.3h-2l.05 2.29c.1 8.22-.42 16.28-1.28 24.45l-.62 6.14c-1.02 9.99-1.02 9.99-2.15 11.12q-2.67.23-5.35.32l-3.27.12-3.44.12-3.46.13-8.48.31-1 11-197.33.05h-2.1l-138.18.04-71.69.02-32.22.01h-13.14l-2.24.01c-4.99-.02-4.99-.02-6.1-1.13l-1-11h-31a3395 3395 0 0 1 3.94-53.75l.26-3.35a2588 2588 0 0 0 3.54-53.06A626 626 0 0 1 384 903l-1.9.78a401 401 0 0 1-40.48 14.16l-1.95.56c-11.03 3.15-11.03 3.15-16.15 4.25l-3.25.7q-1.42.3-2.88.57c-3.12 1.28-3.83 2.74-5.26 5.73l-1.08 2.69c-3.15 7.67-9.76 12.1-17.05 15.56-15.1 5.16-30.2 1.12-45-3l-2.6-.7c-22.54-6.08-43.12-15.6-61.4-30.3l-2.36-1.86C160.06 893.37 151.62 865.97 147 838l-.36-2.1c-6.55-39.97.37-83.43 7.36-122.9l-1.67.67c-26.6 10.59-53.92 18.08-81.63 7.01-7.04-3.28-12.93-7.52-18.7-12.68l-2.3-2.05c-22.34-21.1-33.39-53.14-34.86-83.23-.65-26.54 7.2-52.78 25.7-72.25 16.16-16.27 37.12-25.66 58.4-33.28l3.49-1.26c6.19-2.18 12.38-4.2 18.69-6a751 751 0 0 0 9.84-2.91q2.4-.7 4.8-1.33c8.7-2.02 8.7-2.02 15.48-7.36a47 47 0 0 0 3.75-9.83c2.16-7.48 7.74-13.07 14.01-17.5 4.4-2.41 7.97-3.17 12.94-3.81 10.3-1.65 15.76-8.86 22.78-16 6.8-6.85 14.38-13.71 24.28-15.19 3.72.06 7.33.43 11 1l.63-2.5c4.3-10.98 13.98-19.4 24.37-24.5 15.5-6.07 33.88-8.33 49.57-1.68L318 410l2.07 1c8.07 3.97 15.73 8.09 22.66 13.88 3.98 1.96 7.83.6 11.87-.75q4.69-1.75 9.35-3.62 1.73-.67 3.5-1.38a2757 2757 0 0 0 15.1-5.97 1408 1408 0 0 0 50.39-20.82q8.79-3.84 17.62-7.59l3.36-1.45 3.08-1.32 2.72-1.16C462 380 462 380 465 380l-.53-2.64-4.06-20.11-.75-3.7c-3.77-20.15-3.13-41.67 3.98-61.01 3.23-9.78.4-17.92-2.64-27.48l-2.25-7.27-1.02-3.23C457 252 457 252 457 250l-1.66-.37c-26.08-6.79-50.83-28.67-64.59-51.25-10.21-18-14.48-40.78-9.19-61A69.5 69.5 0 0 1 412 100l1.76-1.05C438.54 84.35 465.84 80.16 494 77l1.03-3.41C501.37 53.26 510.11 36.26 529 25l3.22-1.95C615.6-25.42 727.2 20.96 791 81M397.71 601.83l-2.2.93-4.7 2q-4.9 2.11-9.83 4.18l-4.95 2.1a954 954 0 0 1-20.72 8.46q-14.2 5.64-28.31 11.5c-.22 9.51 0 18.9.88 28.38l.23 2.75.26 2.58.22 2.3c.34 2.3.34 2.3 2.41 4.99l1.35-1.05q6.68-5.17 13.43-10.26 2.89-2.21 5.75-4.45c5.62-4.2 9.79-6.58 16.78-7.62 5.23-.9 7.6-1.8 10.75-6.12q1.43-2.3 2.82-4.64c2.28-3.78 4.86-7.36 7.37-10.99l3.34-4.9c5.05-7.38 10.23-14.68 15.41-21.97-4.1-1.37-6.52.2-10.29 1.83"/><path fill="#f9b570" d="M607.23 203.55 609 205v1l-36 2c-3.87 7.75-6.15 12.64-7 21a23 23 0 0 0 10.4 2.27h3.11l3.3-.02 3.42-.01c6-.06 11.78-.35 17.7-1.24 14.36-2.09 30.62-3.32 44.34 2a39 39 0 0 0 8.86 1.94c6.23.94 11.28 3.2 16.87 6.06l3.36 1.66q4.32 2.15 8.64 4.34l-8-11c2.47-2.47 3.64-2.42 7.05-2.85l3.06-.4 3.2-.37 3.17-.41A95 95 0 0 1 708 230l.1 1.8a194 194 0 0 0 7.5 43.22c1.39 5.06 1.73 9.8 1.71 15.04l.05 2.32c0 5.34-1.12 8.8-3.36 13.62-1.45 9.05 1.17 18.38 6 26l2.42 4A578 578 0 0 0 739 362c5.32 7.98.49 21.92-1.26 30.68-6.74 30.45-21.38 53.68-47.42 70.39A236 236 0 0 1 673 473l-5.29 2.85c-14.9 8.02-30.02 15.47-45.69 21.9q-2.98 1.23-5.92 2.54c-25.45 11.15-52.63 11.85-78.66 2.46L531 500l-4.18-1.5-4.32-1.75-2.03-.67c-3.82-1.67-5.2-3.46-6.85-7.3A163 163 0 0 1 510 475l-.67-2.8c-1.72-7.2-3.34-14.42-4.95-21.64l-3.5-15.54a203 203 0 0 0-4.25-15.93 55 55 0 0 1-1.63-7.34q-1.02-6-2.31-11.94-3.12-14.37-6.06-28.78a667 667 0 0 0-1.84-8.5 124 124 0 0 1 4.34-68.73 46 46 0 0 0 2.56-15.11c.41-14.5.41-14.5 3.06-18 5.27-3.95 9.89-3.94 16.25-3.69l-1.1 1.58c-3.83 6.1-5.14 11.25-3.9 18.42a22 22 0 0 0 5 7c3.1.36 6.2.37 9.31.44l2.63.14c2.49.04 4.64 0 7.06-.58 3.73-4.06 4.57-7.57 5-13l2 1c.43 11.07-.77 21.17-3 32l-3.58.3-4.67.45-2.36.19c-3.64.37-5.85.68-8.88 2.85-2.98 4.37-3 9.43-2.1 14.55 2.9 9.86 9.33 17.7 17.59 23.66 6.74 3.05 15.9 3.12 23 1l1-8-2.14 1.47c-4.83 2.58-9.53 2.24-14.86 1.53-6.75-2.24-11.6-5.32-14.9-11.74A29.3 29.3 0 0 1 520 314c2-3 2-3 5.63-4.12 7.02-1.39 14.23-1.55 21.37-1.88l-6-2 .28-1.69c3.51-22.06 6.68-45.44-5.28-65.31-2.41-5-3.86-9.97-5.16-15.35A22 22 0 0 0 527 216c-2.89-.78-2.89-.78-6.2-.7l-3.66-.1-3.83-.01-3.86-.08q-4.72-.1-9.45-.11c4.87-10.55 20.78-16.79 31.25-20.75 25.76-7.64 53.7-6.82 75.98 9.3"/><path fill="#fdfdfd" d="m791 81 2.18 2.02c20.94 20.01 28.78 46.03 29.76 74.43.86 46.48.86 46.48-3.94 64.55l2.37-1.12a1967 1967 0 0 1 48.2-22.13c18.38-8.12 36.55-16.55 54.29-26.02 6.18-3.3 12.41-6.51 18.64-9.73a3293 3293 0 0 0 30.68-16.04q2.48-1.33 4.94-2.7c5.8-2.54 12.46-2.27 18.49-.49 6.3 2.9 11.62 7.32 17.01 11.61 2.77 2.19 5.63 4.18 8.57 6.12 13.64 9.07 13.64 9.07 15.61 16.53l.64 3.22c.72 4.17.72 4.17 3.37 7.23q2.1.95 4.25 1.76c3.18 1.25 4.37 2.76 5.94 5.76a61 61 0 0 1 0 10l1.88.81C1056 208 1056 208 1058 211c.24 2.3.24 2.3.31 4.88.4 5.1 1.98 6.6 5.69 10.12 1.03 3.53 1.04 7.03.88 10.69-.06 2.44-.06 2.44 1.56 4.62 1.57 2.71 1.73 3.7 1.87 6.69.12 2.08.12 2.08.69 4l3 2.5c3.14 2.62 3.45 2.93 3.94 6.69.06 3.81.06 3.81-.94 5.81l2.75.69c3.86 1.56 5.2 2.69 7.25 6.31.64 4.49-.1 8.6-1 13l1 2q.11 3.8.06 7.63l-.01 2.14-.05 5.23 2.94 1.19c3.06 1.81 3.06 1.81 4.13 4.22-.09 3.33-1 4.45-3.13 6.96l-1.98 2.36L1085 321l-1.52 1.9c-3.72 4.56-7.97 8.33-12.48 12.1l-2.69 2.31C1066 339 1066 339 1061 341l-4-13 8-5c-2.72-2.87-2.72-2.87-6-5v-2l-1.94-.81C1055 314 1055 314 1054 311q.37-3.11.94-6.19l.59-3.29.47-2.52-5-3c.6-4.13 2.04-7.33 4-11l-10-4 1-12-8-4 1-11-6-4q.9-5.52 2-11l-9-5a80 80 0 0 1 3-11l-8-4 3-11-4.87-1.69c-4.75-1.64-4.75-1.64-6.43-4.58-.7-2.73-.7-2.73-.85-5.57-.36-4.97-1.12-8.47-4.7-11.97-4.92-3.91-10.21-7.24-15.55-10.54a131 131 0 0 1-7.05-4.83l-2.02-1.45q-1.86-1.34-3.68-2.7c-1.86-1.36-1.86-1.36-4.85-2.67-4.3 1.1-8.07 2.94-11.98 4.98l-3.48 1.82-7.64 3.99-10 5.21a3291 3291 0 0 1-59.53 30.32q-3.33 1.65-6.62 3.4C872 213 872 213 869 213v2l-1.97.9-24.2 11.1q-9.77 4.5-19.43 9.21l-10.77 5.26A124 124 0 0 1 794 249l.24-2 2.76-23 .32-2.7c6.94-58.18 6.94-58.18-14.38-110.61-31.7-37.5-79.79-61.4-126.07-75.63l-2.64-.82c-14.22-4.2-27.5-5.78-42.23-5.68h-2.58C595.6 28.63 582.48 29.8 569 33l-3.41.69C548.6 37.35 531.62 44.95 519 57l-1 2h-2l-.75 2c-1.25 3-1.25 3-3.06 6.38-4.4 8.66-6.93 18.46-9.61 27.76C502 97 502 97 501 99c-2.66.44-2.66.44-6.21.71l-3.94.33-2.09.16c-12.8 1.03-25.32 2.5-37.76 5.8l-2.08.54C434.15 110.46 420.37 116.6 409 127l-1.95 1.7c-8.52 7.9-13.67 18.05-14.37 29.63-.74 20.5 6.13 41.82 19.94 57.32 14.31 14.17 32.2 23.64 51 30.44C466 247 466 247 467 248q.67 3.5 1.25 7a179 179 0 0 0 7.91 29.23c1.82 6 .03 11.47-2.04 17.2-9.37 27.19-5.06 55.37 1.53 82.67.35 1.9.35 1.9.35 5.9a1953 1953 0 0 1-52.77 21.92q-10.64 4.21-21.14 8.75a552 552 0 0 1-27.94 11q-5.44 2-10.76 4.3l-2.32 1q-2.2.94-4.4 1.93c-4 1.73-6.56 2.73-10.67 1.1-2.5-1.46-4.9-2.96-7.31-4.56A200 200 0 0 0 314 422l-2.4-1.16c-10.43-4.31-24.78-2.78-35.08 1.09-11.67 5.11-17.97 15.45-22.68 26.9L253 451l-2.75-.5c-8.85-1.16-16.03-1.72-23.67 3.45a173 173 0 0 0-11.72 10.37c-2 1.88-3.98 3.6-6.12 5.32-2.93 2.22-2.93 2.22-4.37 5.61C202 478 202 478 199.4 478.46q-3.13.17-6.28.26c-3.96.35-6.88 1.64-10.38 3.44-1.74.84-1.74.84-3.74.84l-.79 1.58a832 832 0 0 1-4.65 9.17l-1.8 3.55a45 45 0 0 0-2.95 7.74c-1.24 3.3-1.6 3.83-4.76 5.77l-3.74 1.18-2.1.7q-2.32.76-4.66 1.5-4.07 1.3-8.12 2.7-10.76 3.71-21.55 7.3l-12.1 4.07a138 138 0 0 0-14.82 5.92C95 535 95 535 91.3 535.75c-16.44 3.74-30.48 18.04-39.44 31.43a99 99 0 0 0-9.3 20.13l-.76 2.21c-7.73 24.33-1.8 54.2 9.19 76.48 9.19 17.11 22.16 33.3 41 40 18.65 4.74 36.38.52 54-6l3.75-1.37a153 153 0 0 0 21.42-10.09C175.7 686 175.7 686 179 686l-.79 3.92L177 696l-.77 3.86c-4.46 21.97-4.46 21.97-8.1 44.08l-.33 2.28q-.44 3.38-.8 6.78l-.28 2.55c-1.01 10.8-.94 21.65-.96 32.5q-.02 5.12-.07 10.25c-.14 29.19 3.37 59.85 23.31 82.7l2.31 2.91c17.41 20.86 48.33 31.66 73.69 38.09l3.86 1.03c10.38 2.63 19.58 3.65 29.14-2.03 4.67-3.86 7-7.82 8.88-13.52 1.55-3.48 2.45-5.1 5.8-6.98 3.46-1.09 6.9-1.9 10.44-2.62a1191 1191 0 0 0 9.9-2.4 234 234 0 0 0 20.17-5.98l3.37-1.13a227 227 0 0 0 23.77-9.74A49 49 0 0 1 391 875c2.81 1.81 2.81 1.81 5 4l2 1q-1.44 20.19-3.06 40.38l-.24 3.01-.24 2.82-.2 2.45c-.28 2.48-.74 4.9-1.26 7.34h3l.1 2.57a12053 12053 0 0 0 1.4 37.1c.8 22.08 2.1 44.05 4.14 66.06.51 6.08.92 12.18 1.36 18.27h-31a3395 3395 0 0 1 3.94-53.75l.26-3.35a2588 2588 0 0 0 3.54-53.06A626 626 0 0 1 384 903l-1.9.78a401 401 0 0 1-40.48 14.16l-1.95.56c-11.03 3.15-11.03 3.15-16.15 4.25l-3.25.7q-1.42.3-2.88.57c-3.12 1.28-3.83 2.74-5.26 5.73l-1.08 2.69c-3.15 7.67-9.76 12.1-17.05 15.56-15.1 5.16-30.2 1.12-45-3l-2.6-.7c-22.54-6.08-43.12-15.6-61.4-30.3l-2.36-1.86C160.06 893.37 151.62 865.97 147 838l-.36-2.1c-6.55-39.97.37-83.43 7.36-122.9l-1.67.67c-26.6 10.59-53.92 18.08-81.63 7.01-7.04-3.28-12.93-7.52-18.7-12.68l-2.3-2.05c-22.34-21.1-33.39-53.14-34.86-83.23-.65-26.54 7.2-52.78 25.7-72.25 16.16-16.27 37.12-25.66 58.4-33.28l3.49-1.26c6.19-2.18 12.38-4.2 18.69-6a751 751 0 0 0 9.84-2.91q2.4-.7 4.8-1.33c8.7-2.02 8.7-2.02 15.48-7.36a47 47 0 0 0 3.75-9.83c2.16-7.48 7.74-13.07 14.01-17.5 4.4-2.41 7.97-3.17 12.94-3.81 10.3-1.65 15.76-8.86 22.78-16 6.8-6.85 14.38-13.71 24.28-15.19 3.72.06 7.33.43 11 1l.63-2.5c4.3-10.98 13.98-19.4 24.37-24.5 15.5-6.07 33.88-8.33 49.57-1.68L318 410l2.07 1c8.07 3.97 15.73 8.09 22.66 13.88 3.98 1.96 7.83.6 11.87-.75q4.69-1.75 9.35-3.62 1.73-.67 3.5-1.38a2757 2757 0 0 0 15.1-5.97 1408 1408 0 0 0 50.39-20.82q8.79-3.84 17.62-7.59l3.36-1.45 3.08-1.32 2.72-1.16C462 380 462 380 465 380l-.53-2.64-4.06-20.11-.75-3.7c-3.77-20.15-3.13-41.67 3.98-61.01 3.23-9.78.4-17.92-2.64-27.48l-2.25-7.27-1.02-3.23C457 252 457 252 457 250l-1.66-.37c-26.08-6.79-50.83-28.67-64.59-51.25-10.21-18-14.48-40.78-9.19-61A69.5 69.5 0 0 1 412 100l1.76-1.05C438.54 84.35 465.84 80.16 494 77l1.03-3.41C501.37 53.26 510.11 36.26 529 25l3.22-1.95C615.6-25.42 727.2 20.96 791 81"/><path fill="#f8cf2d" d="m967 219 1.47 3.16a1192 1192 0 0 0 16.32 33.38c8.06 16 15.77 32.17 23.5 48.33l4.57 9.55a898 898 0 0 0 9.64 19.55c2 3.95 3.8 7.95 5.5 12.03 6.03-3.3 6.03-3.3 11.94-6.81C1042 337 1042 337 1044 337c9 29.13 12.43 67.83 2 97q-.5 2.14-.95 4.3c-5.43 25.24-15.9 49.87-38.05 64.7a165 165 0 0 1-14 7l-3.11 1.51c-9.8 4.1-19.96 5-30.45 4.93l-3.42.06c-8.98 0-17.43-1.44-25.02-6.5l.98-2.04c1.23-3.56 1.3-6.5 1.32-10.26l.02-2.14v-6.87l-.01-2.36c.4-23.2.4-23.2-5.31-45.33l-.81-3.56c-5.9-24.14-22.22-44.99-40.19-61.44l-1.97-1.89c-3.22-1.76-5.39-1.53-9.03-1.11a98 98 0 0 0-10 4.13l-5.62 2.49-2.77 1.23a289 289 0 0 1-10.67 4.4 705 705 0 0 0-15.95 6.54c-3.28 1.33-6.6 2.51-9.93 3.71-4.8 1.84-8.15 3.19-11.06 7.5-1.05 4.19.99 7.54 2.83 11.23a66 66 0 0 1 2.56 7.41 191 191 0 0 0 5.61 15.92c9.16 23.55 9.16 23.55 6.09 31.93-2.47 4.85-4.97 8.29-10.09 10.51-8 1.49-15.04-1.15-22-5a32 32 0 0 1-6-6v-2l-3-1c-1.65-1.64-1.65-1.64-3.37-3.69l-1.86-2.17-4.52-5.51c-2.16-2.77-2.16-2.77-5.25-4.63v-2l2.58.98c9.58 2.86 19.58 1.5 28.42-2.98l2.18-1.64C806 443 806 443 808 443q1.03-1.99 2-4l1.13-2.19c3.8-12.21-2.75-24.63-7.41-35.7a309 309 0 0 1-4.16-10.36l-.93-2.45c-.7-2.52-.75-4.7-.63-7.3 7.93-3.23 15.83-6.4 24-9l5.38-1.81L834 368l2.06-.68c12.48-4.15 25.03-7.78 37.94-10.32l3.35-.66c6-.61 9.08 1.28 13.77 4.97 5.63 5 10.34 10.7 14.88 16.69l2.1 2.63A230 230 0 0 1 937.3 430c3.07 6.79 7 10.66 13.69 14a3534 3534 0 0 0-7.2-16.44A237 237 0 0 0 933 406l-1.8-3.24a247 247 0 0 0-20.93-30.45c-2.09-2.66-3.9-5.2-5.27-8.31h-2a263 263 0 0 1-4-5l-2-1v-2l-2.19-.81C892 354 892 354 889.74 352.45c-11.76-6.24-31.35.85-43.2 4.42a325 325 0 0 0-17.8 6.18 130 130 0 0 1-9.18 2.7 179 179 0 0 0-18.31 6.38l-2.67 1.05-2.5 1.02-2.24.9c-2.02.87-2.02.87-3.84 2.9-.48 5.36.55 9.25 2.52 14.22l.79 2q1.24 3.15 2.5 6.28l1.66 4.2c2 5.07 4 10.11 6.19 15.1 1.78 4.25 1.96 7.67 1.34 12.2-1.75 4.16-4.2 6.6-8 9-11.63 4.08-21 1.8-32-3l-3.43-1.25c-4.48-2.2-7.56-5-11.07-8.5l-1.95-1.8c-4.52-4.47-4.52-4.47-4.64-8.84a378 378 0 0 1 4.03-12.67A107 107 0 0 0 753 381l3.37.14c13.48.4 22.44-1.8 32.63-11.14 14.6-14.43 23.97-34.48 24.3-55.18q-.04-3.56-.11-7.13l-.04-3.73q-.06-4.48-.15-8.96l8.56-4.06 2.62-1.25q6.84-3.24 13.7-6.42a617 617 0 0 0 19-9.22q7.26-3.63 14.62-7.05a815 815 0 0 0 22.54-11.01l11.54-5.78q5.83-2.92 11.65-5.8c22.95-11.08 22.95-11.08 44.74-24.23C964 219 964 219 967 219"/><path fill="#fefefe" d="m1148.4 115.7 1.83 1.46q1.78 1.42 3.55 2.88c6.88 5.57 14.58 8.57 22.78 11.71 34.25 13.49 55 36.9 69.8 70.33 21.62 50.65 36.54 110.17 15.68 163.37-7.23 17.44-17.9 32.1-31.04 45.55l-2.54 2.72c-18.88 19.8-43.23 33.16-67.46 45.28l-2.14 1.1c-9.68 4.9-19.72 8.96-29.8 12.96l-2.07.83a522 522 0 0 1-27.19 9.9l-5.71 1.93q-5.54 1.88-11.13 3.64c-10.58 3.5-16.33 6.58-21.96 16.64-16.66 21.03-42.04 32.52-68 37l-3.2.55c-19.99 2.34-39.24.73-56.98-9.06-4.28-2.31-4.28-2.31-8.93-1.87l-2.22 1.03-2.42 1.1-2.5 1.19-2.55 1.17q-3.1 1.43-6.2 2.89a307 307 0 0 0 21.7 15.8c36.18 24.05 72.72 49.95 83.83 94.06l.95 3.67 2 7.76q2.36 9.26 4.78 18.53l1.08 4.18q4.62 17.79 9.62 35.49c8.75 31.17 17.3 62.46 23.16 94.32l.43 2.27c2.74 14.94 4.86 30.14 4.7 45.36v2.88a203 203 0 0 1-1.67 21.95c-.6 5.4-.38 9.97.89 15.3 1.8 8.22 1 16.23-3.47 23.43-5.65 6.69-12.3 12.26-19.14 17.7q-3.74 3.03-7.4 6.18c-8.21 7.07-16.8 13.62-25.46 20.12l-2.01 1.52c-27.29 20.57-27.29 20.57-41.62 23.86-5 1.23-7.56 3.23-11.2 6.77-7.11 6.05-15.63 9.15-24.88 8.74l-3.27-.1q-3.39-.1-6.76-.27c-7.33-.18-7.33-.18-13.42 3.5l-1.56 1.68-1.28 1.3h-2l.05 2.29c.1 8.22-.42 16.28-1.28 24.45l-.62 6.14c-1.02 9.99-1.02 9.99-2.15 11.12q-2.77.23-5.57.32l-3.4.12-3.6.12-3.6.13-8.83.31c.62-12.26 1.6-24.47 2.73-36.7l1.33-14.59.24-2.64.47-4.86q.22-2.15.4-4.31c.19-1.9.19-1.9.83-4.9 3.25-1.62 3.25-1.62 7-3 3.04-2.64 4.72-4.17 6-8l3.91.48c13.73 1.52 28.72 2.56 40.09-6.48l1-2h2l1-4 2.02-.26c21.66-3.3 40.95-19.25 57.14-33.3 7.49-6.44 7.49-6.44 9.84-6.44v-2c1.57-1.33 1.57-1.33 3.69-2.81A71 71 0 0 0 1016 917q3.78-3.39 7.6-6.72c5.4-5.13 7.27-8.46 7.52-15.84.01-3.21.01-3.21-.62-5.33-1.74-7.32-.45-15.59 0-23.05.44-7.37.68-14.68.5-22.06l-.05-3.66c-.76-27.9-9.54-56-16.73-82.8a516 516 0 0 1-3.79-15.2 1741 1741 0 0 0-11.62-45.9l-.57-2.16a15957 15957 0 0 0-9.9-37.65q-1.7-6.46-3.43-12.91-.6-2.18-1.15-4.37c-3.19-12.24-8.38-20.1-16.76-29.35l-3.31-3.87c-15.36-17.43-34.35-30.65-53.86-43.04a253 253 0 0 1-21.65-15.45 83 83 0 0 0-8.75-5.6L878 541v-2l-2.44-.87C873 537 873 537 872 535l1.96-.7c12.92-4.8 26.04-10.07 38.26-16.46 1.78-.84 1.78-.84 3.72-.72 2.06.88 2.06.88 4.3 2.74a44 44 0 0 0 8.88 5.26l3.14 1.51c18.14 6.63 40.54 5.04 58.74-.63l2.08-.63c13.07-4.1 24.54-10.64 34.47-20.16C1029 504 1029 504 1031 504l.79-1.73a42 42 0 0 1 4.59-6.64 57 57 0 0 0 5.37-7.7c2.8-3.64 5.75-4.9 9.94-6.43l1.97-.78c4.33-1.68 8.71-3.2 13.1-4.73a721 721 0 0 0 27.77-10.41l7.21-2.84c14.19-5.59 28.38-11.38 41.82-18.62q1.16-.6 2.36-1.25c13.77-7.41 27.71-15.14 39.81-25.13C1188 416 1188 416 1190 416v-2c1.68-1.73 1.68-1.73 3.88-3.62l2.17-1.92C1198 407 1198 407 1200 407l.81-1.82c1.2-2.22 2.32-3.4 4.19-5.06 18.58-18.19 28.2-43.9 32-69.12l.4-2.5c.3-2.17.47-4.31.6-6.5l.2-2.74c.66-18.09-3.49-36.86-8.2-54.26l-.52-1.94c-5.66-20.96-12.93-41.56-22.48-61.06-.5-1.05-.5-1.05-1.03-2.11-11.73-23.83-29.06-40.17-54.38-48.85l-7.66-2.46c-8.06-2.68-13.57-7-19.93-12.58q-2.55-2.02-5.12-4l-2.08-1.62c-4.84-3.7-7.17-3.54-13.07-2.92q-6.54.94-13.04 2.23l-2.28.41c-5.77 1.24-9.27 3.74-13.41 7.9.74-7.13 4.38-10.78 9-16l2.14-2.5c16.2-17.72 44.53-17.92 62.25-3.8"/><path fill="#012850" d="m501 97 1 2 3.91-.55c7.85-.77 15.68-.17 23.53.3l2.42.14c14.45.84 29.05 1.7 42.86 6.38a61 61 0 0 0 6.33 1.62c17.8 3.86 36.13 9.28 52.3 17.78 2.65 1.33 5.35 2.5 8.08 3.66 20.7 8.79 40.73 19.95 58.57 33.67l1.69 1.3 7.07 5.46A38 38 0 0 0 715 173v-31h1l-.11 2.84c-1.54 18.22-1.54 18.22 3.82 34.74 3.08 3.03 6.62 5.18 10.29 7.42a38 38 0 0 1 3.88 4.25 139 139 0 0 0 4.76 5.54 85 85 0 0 1 10.99 15.4l3.08 5.25 1.6 2.74c3.46 5.8 7.07 11.5 10.68 17.2l1.59 2.53 1.42 2.25c1 1.84 1 1.84 1 3.84l3 1v2l2 1q1.1 3.47 2 7a50 50 0 0 1-9.81-7.25l-2.64-2.41L761 245a203 203 0 0 0-15.31-12.52L744 231v-2l-1.75-.87C740 227 740 227 738.17 225.88c-2.8-1.13-4.26-.77-7.2-.12l-3.05.64-3.3.72a411 411 0 0 1-31.25 5.2l-2.03.26q-5.67.73-11.34 1.42c0 3.6.63 4.02 3 6.56 3 3.23 3 3.23 3 5.44q-5.48-2.19-10.94-4.44l-3.21-1.33C669 239 669 239 666 237.31c-3.86-1.69-7.62-2.11-11.78-2.7a48 48 0 0 1-8.85-2.74c-14.07-4.54-30.68-2.47-45.08-.33-5.8.73-11.64.73-17.48.77l-3.3.06h-5.9c-3.19-.45-5.06-1.43-7.61-3.37-1.99-8.77 2.76-13.51 7-22l35-2c-22.85-14.54-43.81-17.08-70.07-11.26-13.77 3.36-26.45 9.6-36.93 19.26l-1 2 2 1-2.38.52c-8.88 1.98-8.88 1.98-16.62 6.48-2.7 5.87-3.48 10.9-3.62 17.31-.28 8.38-.28 8.38-1.38 11.69-27.18-6.58-58.89-22.41-74-47-9.49-16.95-14.99-35.05-11.34-54.52 4.97-16.75 18.55-28.3 33.34-36.48 22.55-11.62 49.9-15.45 75-15z"/><path fill="#f7ce2d" d="m488 439 .5 2.32 2.31 10.56.8 3.64a218 218 0 0 0 4.71 18.21c.87 2.9 1.52 5.83 2.16 8.79 2.11 11.6 2.11 11.6 9.27 20.36L510 504v2l-2.23.52-2.96.73-2.92.7c-3.26 1.18-5.22 2.85-7.89 5.05-2.62 1.27-2.62 1.27-5.44 2.38l-3.23 1.29L482 518l-6.25 2.69q-6.95 3-13.94 5.88l-3.3 1.37-9.65 3.99-2.77 1.13c-2.03.77-2.03.77-3.09 1.94l-3.88.8c-5.61 1.2-10.72 3.29-16 5.51l-2.95 1.23a450 450 0 0 0-16.47 7.24 310 310 0 0 1-10.26 4.35 1986 1986 0 0 0-45.79 19.44 337 337 0 0 1-17.36 6.95 121 121 0 0 0-12.38 5.53 110 110 0 0 1-8.79 3.76l-1.9.76q-5.36 2.1-10.74 4.16l-2.32.9-4.38 1.66a192 192 0 0 0-12.95 5.58 324 324 0 0 1-20.95 8.7 364 364 0 0 0-22.43 9.32 144 144 0 0 1-10.32 4.11l-4.14 1.53-2.03.75a588 588 0 0 0-24.13 9.54q-3.9 1.62-7.83 3.18a716 716 0 0 0-10.87 4.44l-3.05 1.27-6.16 2.61a132 132 0 0 1-16.63 5.99 50 50 0 0 0-6.1 2.38c-6.07 2.35-13.54 2.3-19.77.6-3.05-1.63-5.1-3.76-7.42-6.29l1.7-.09c20.8-1.2 38.23-6.7 57.2-15.01a205 205 0 0 1 8.97-3.52 216 216 0 0 0 15.86-6.9 166 166 0 0 1 10.08-4.1c4.2-1.58 8.2-3.27 12.16-5.34a238 238 0 0 1 16.47-7.48c11.43-5.01 20.58-9.17 26.56-20.56 1.6-4.82 1.94-10.1.35-15-3.85-7.37-10.22-11.44-17.84-14.25A48 48 0 0 0 236 557c1.71-3.43 5.81-4.06 9.25-5.37q9.67-3.75 19.21-7.75l1.94-.82c3.84-1.61 3.84-1.61 7.67-3.24 6.22-2.65 12.18-5.08 18.84-6.35 3.96-.9 7.66-2.53 11.4-4.1l5.3-2.16 2.71-1.11q6.33-2.58 12.68-5.1l4.92-1.97L355 509a459 459 0 0 0-20.69 7.38 906 906 0 0 1-20.06 7.37 270 270 0 0 0-15.37 6.05c-5.92 2.46-11.83 4.87-18.13 6.14-9.7 1.98-19.06 5.57-28 9.8-6.24 2.86-12.7 5.4-19.31 7.26a72 72 0 0 0-8.56 3.16 361 361 0 0 1-15.32 6l-2.25.82-9.19 3.36c-8.06 2.95-16.01 5.95-23.8 9.6a103 103 0 0 1-10.26 3.87 471 471 0 0 0-26.56 10.16Q135 591 132.52 592c-12.67 5.1-24.52 10.9-30.52 24-3.85 10.06-2.33 21.01 1 31 3.8 8.25 7.18 13.75 15.74 17.06 10.72 3.09 21.07.61 31.26-3.06l5.73-2q13.42-4.7 26.7-9.79l6.7-2.53 4.35-1.66 1.98-.74a62 62 0 0 0 9.2-4.36 41 41 0 0 1 8.15-3.7l2.57-.86 5.24-1.72c3.91-1.31 7.57-2.62 11.13-4.73A41 41 0 0 1 241 625q5.54-2.08 11.06-4.25l3.13-1.22a286 286 0 0 0 18.58-8.07c5.54-2.5 11.25-4.62 16.93-6.8a426 426 0 0 0 13.44-5.48c3.14-1.3 6.3-2.49 9.49-3.68 3.94-1.5 7.7-3.1 11.43-5.06A67 67 0 0 1 336 586a63 63 0 0 0 10.63-4.31c4.62-2.43 9.37-4.28 14.25-6.13 6.3-2.39 12.28-5.05 18.27-8.16 4.09-2 8.33-3.54 12.6-5.13 3.17-1.24 6.23-2.62 9.31-4.08a325 325 0 0 1 19.34-8.15 444 444 0 0 0 16.23-6.79c8.45-3.73 16.59-7.1 25.55-9.39 4.05-1.24 7.74-3.06 11.5-4.97C476 528 476 528 479 529c-3.61 4.69-3.61 4.69-5 6h-3l-.75 1.69c-3.43 6.35-6.78 8.33-13.44 10.37a138 138 0 0 0-15.32 5.84c-5.02 2.21-10.17 4.1-15.3 6.04a679 679 0 0 0-22.45 8.91q-3.58 1.5-7.17 2.96a392 392 0 0 0-19.32 8.32A262 262 0 0 1 358 587c-7.38 2.89-14.7 5.94-22 9q-9.76 4.08-19.56 8.13l-2.1.86q-7.02 2.89-14.08 5.73l-3.6 1.45-7.04 2.83a211 211 0 0 0-17.36 7.89 94 94 0 0 1-10.2 4.11c-5.5 2-10.85 4.16-16.16 6.66q-3.33 1.53-6.7 2.96a164 164 0 0 0-21.38 10.72 109 109 0 0 1-8.13 4.28c-6.13 3-12.02 6.37-17.94 9.75a411 411 0 0 1-25.74 13.66 588 588 0 0 0-6.51 3.2c-11.22 5.53-22.62 9.88-34.5 13.77l-3 1c-4.02.31-8.04.32-12.06.38l-3.32.1c-11.49.13-19-4.14-27.2-11.84-17.61-17.27-25.66-43.11-25.98-67.2.1-20.26 6.9-36.68 21.12-51.19 5.27-5.2 10.42-9.06 17.06-12.25l2.13-1.04A280 280 0 0 1 123 538l2.3-.84a81 81 0 0 1 15.12-3.63c2.64-.46 2.64-.46 5.22-1.59C148 531 148 531 151 531l-.1 1.98c-.18 5.56.16 9.12 3.1 14.02v2l1.56.75c3.21 1.65 6.32 3.45 9.44 5.25a29 29 0 0 1-8.69 4.94c-3.28 1.26-6.5 2.58-9.69 4.06a100 100 0 0 1-10.43 3.94c-7.71 2.5-15.1 5.68-22.5 8.98a436 436 0 0 1-9.19 3.97C92.09 586.14 81.7 591 76 604c-4.84 16.22-2.1 32.83 5.69 47.69 6.43 11.65 14.7 21.2 24.31 30.31-1.66-3.61-3.84-6.77-6.06-10.06C88.84 654.99 80.6 636.64 83 616c1.34-5.32 3.42-9.82 7-14h2l1-3c4.68-3.9 10.1-5.68 15.78-7.79q3.85-1.44 7.6-3.15a249 249 0 0 1 11.8-4.93 541 541 0 0 0 15.13-6.25 518 518 0 0 1 24.57-9.82 394 394 0 0 0 16.5-6.57c6.2-2.55 12.45-4.95 18.7-7.37L206 552l2.63-1.02c2.35-.9 2.35-.9 4.4-2.09 2.37-1.06 4.01-1.07 6.6-.97l2.7.06 5.52.2c8.29.17 16.06-1.16 22.96-6.04l2.08-1.43c2.27-1.7 2.27-1.7 4.21-4.36 4.29-3.46 8.11-2.95 13.46-2.9 8.5-.16 15.62-.85 23.44-4.44l2.66-1.13c5.94-2.71 13.57-6.51 16.16-12.89l.68-2.04c1.44-3.35 2.54-3.96 5.91-5.6 3.5-1.35 7.07-2.51 10.63-3.67 2.58-.88 5-2 7.46-3.17 4.4-2.07 8.88-3.82 13.44-5.5a459 459 0 0 0 25.28-10.29 713 713 0 0 1 31.83-13.19A491 491 0 0 0 424 465l6-2.5 2.99-1.25 6.12-2.54a492 492 0 0 0 13.51-5.77 260 260 0 0 1 11.22-4.66q3.98-1.62 7.95-3.31l2.6-1.1 5.19-2.23 2.42-1.03 2.19-.94C486 439 486 439 488 439"/><path fill="#e5e5e5" d="M920.92 607.96q3.78.04 7.57-.05c10.55.07 16.5 5.18 23.79 12.32L955 623l2.18 1.88c6.57 5.9 8.75 11.15 10.63 19.68l.85 3.48q1.2 4.98 2.34 9.96l1.7 6.9q.66 2.62 1.28 5.24a217 217 0 0 0 2.89 9.82 340 340 0 0 1 5.57 20.73c2.27 9.36 4.55 18.72 7.37 27.93a193 193 0 0 1 4.51 18.25c.6 2.76 1.32 5.39 2.18 8.07 1.68 5.3 2.66 10.7 3.66 16.15.63 2.95 1.36 5.7 2.25 8.56a228 228 0 0 1 4.59 18.47l.8 3.61c3.43 15.76 6.52 31.06 6.2 47.27-2.8-1.4-3.31-3.18-4.75-5.94-9.23-17.3-21.38-35.67-36.81-48.06l-2.44-2v-2l-1.77-.83a36 36 0 0 1-5.88-3.93l-2.08-1.63-2.2-1.74c-20.6-15.9-44.04-27.2-68.32-36.3l-11.13-4.2q-6.86-2.6-13.68-5.28c-5.23-1.94-10.59-3.5-15.94-5.09-28.4-8.7-28.4-8.7-41-14l-.15-2.54A335 335 0 0 0 805 689a104 104 0 0 0-6.1 21.93c-1.3 4.44-3.55 6.28-7.46 8.57-5.6 3.44-6.58 8.66-8.31 14.62a210 210 0 0 1-7.51 21.16c-9.07 21.18-9.07 21.18-9.09 43.9.66 3.95 1.1 7.93 1.56 11.91l.27 2.34.64 5.57-3.28.06a3691 3691 0 0 0-17.62.36c-10.36.2-20.58.67-30.87 1.9-4.1.49-8.08.78-12.23.68-2.4-7.16-3.36-14.11-3.5-21.63l-.1-2.34c0-10.34 5.96-18.05 12.23-25.78l5.61-7.05q2.35-2.95 4.66-5.95a416 416 0 0 1 16.4-19.85 481 481 0 0 0 11.46-13.66 527 527 0 0 1 20.81-24.02c3.37-3.77 6.5-7.72 9.62-11.7L784 688h2l.84-1.81c1.83-3.44 4.56-6.08 7.22-8.88l1.93-2.04c9.59-10.08 19.51-19.85 29.39-29.66l5.31-5.3q3.41-3.4 7-6.62l2.32-2.12C842 630 842 630 844 630v-2a100 100 0 0 1 6.63-4.75l2.03-1.35c21.36-13.8 43.61-14.38 68.26-13.94"/><path fill="#f9b570" d="m301 627 .13 2.03c2.73 44.04 2.73 44.04 6.87 87.97l.34 3.1c2.15 19.37 5.09 39.32 12.71 57.4 7.48 19.74.65 47.4-6.05 66.5l-1.33 4.04c-3.43 10.48-3.43 10.48-4.67 12.96-8.57-2.86-14.5-18.34-19-26l.28 2.55c1.65 15.68 3.02 31.3 3.1 47.08q0 1.85.04 3.76c-.04 7.33-.5 12.45-4.78 18.54-4.14 2.7-10.05 1-14.64.07-29.2-7.26-60.8-19.27-77.7-45.66C195 859 195 859 195 857h-2c-4.15-10.86-7.5-21.43-9-33l-.29-2.2c-1.07-9.77-.95-19.6-.96-29.42v-2.9c0-14.11.63-27.78 2.84-41.73q.62-4.28 1.1-8.55c2.13-18.37 6.08-36.12 10.94-53.95l.87-3.27 1.6-5.7c1.74-4.4 4.88-5.99 8.92-8.17l3.01-1.64 3.22-1.72 3.3-1.77a360 360 0 0 1 35.18-16.35 161 161 0 0 0 13.33-6.2 132 132 0 0 1 17.35-7.3 49 49 0 0 0 9.31-4.3C297 627 297 627 301 627"/><path fill="#f3fdfe" d="M536 748c16.32 4.6 32.2 14.26 46.14 23.74q3.15 2.14 6.34 4.25A485 485 0 0 1 620 799q.93.75 1.9 1.5c6.52 5.23 12.66 10.32 17.1 17.5l1.73 2.74A130 130 0 0 1 651 842c.29-5.63-.69-9.99-2.44-15.31-4.8-15.56-4.8-15.56-2.12-22.32L648 802c4.31 1.49 7.78 3.77 11.44 6.44l1.83 1.33c10.35 7.54 20.48 15.37 29.73 24.23l1.84 1.66c10.67 10.64 8.31 31.97 8.35 45.99v2.39q0 3.6.03 7.17c.05 12.97.05 26.12-6.22 37.79l-1.2 2.48A134 134 0 0 1 685 947c-6.63-.32-12.6-1.57-18.94-3.44l-2.26-.66c-3.3-1-5.9-1.97-8.8-3.9.36-3.12.82-4.78 2.82-7.24a53 53 0 0 0 5.87-9.7l.93-1.8c4.66-9.33 4.21-20.18 2.38-30.26h-2l-.77 3.15q-1.34 5.43-2.72 10.85l-1.23 4.9c-2.36 8.7-6.3 17.22-13.28 23.1l-1.8 1.6c-4.3 2.73-9.3 2.05-14.2 1.4a37 37 0 0 1-9-5l-1.91-1.32q-3.1-2.26-6.09-4.68l-1.52-1.21-4.98-4.04-1.64-1.32A92 92 0 0 1 602 914v-2l-1.75-.77c-2.5-1.37-4.25-2.95-6.31-4.92-8.36-7.54-17.46-12.34-27.94-16.31l1.53 2.48 1.97 3.27 1.97 3.23C573 902 573 902 573 906l-16.35 7.72C531.19 925.77 531.19 925.77 523 924a30 30 0 0 1-8-5v-2l-1.75-.75A22 22 0 0 1 507 911v-2l-3-1c-1.39-1.85-1.39-1.85-2.69-4.06L500 901.7l-1-1.7a256 256 0 0 1 20.9-13.56 960 960 0 0 0 12.79-7.75A3137 3137 0 0 1 562 861c-17.06 1.87-32.4 9.5-47.5 17.25-11.26 5.75-11.26 5.75-14.62 5.75-5.16-2.75-8.7-7.67-10.88-13-1.66-5.92-1.12-9.6 1.75-14.99 1.99-3.2 4.42-5.73 7.13-8.32l1.72-1.68a188 188 0 0 1 17.54-14.61q2.92-2.2 5.8-4.44A318 318 0 0 1 549 809q-1.98.36-3.94.75l-2.21.42c-7.24 2.1-13.92 5.8-20.48 9.46l-2.34 1.3a215 215 0 0 0-16.96 10.65l-1.8 1.21a185 185 0 0 1-8.27 5.34l-1.87 1.13c-3.24 1.13-5.72 1.1-9.13.74a41 41 0 0 1-6.31-4.37l-1.68-1.36c-16.43-13.46-16.43-13.46-17.44-20.1.58-4.26 2.32-5.82 5.3-8.86 3.84-3.93 3.84-3.93 7.13-8.31h2l1-3c1.6-1.58 1.6-1.58 3.63-3.25 2.74-2.32 5.36-4.68 7.87-7.25 3.66-3.71 7.55-7.1 11.5-10.5l2-1.77 1.88-1.67 1.67-1.5C502 767 502 767 504 767v-2c3.11-2.93 6.6-5.43 10-8l1.6-1.25c12.58-9.78 12.58-9.78 20.4-7.75"/><path fill="#e5e5e5" d="M792 501a34 34 0 0 1 9.22 4.94l2.37 1.76 2.47 1.86 2.57 1.92 10.9 8.16 5.76 4.33L828 526l2.96 2.22 2.91 2.15 2.56 1.9c2.57 1.81 2.57 1.81 5.59 3.23 2.9 1.46 5.3 3.07 7.86 5.06l2.36 1.82L854 544v2l-2.06.81c-24.38 9.86-47.07 23.44-67.75 39.64C782 588 782 588 780 588v2c-1.64 1.47-1.64 1.47-3.81 3.06l-2.15 1.6C772 596 772 596 769 597v2c-1.58 1.38-1.58 1.38-3.81 3-4.96 3.72-9.4 7.81-13.9 12.06C749 616 749 616 747 616l-1 3h-2v2c-1.3 1.27-1.3 1.27-3.19 2.81a199 199 0 0 0-22.81 22.9c-2.9 3.3-5.92 6.47-8.94 9.66a182 182 0 0 0-13.6 15.97L694 674h-2l-.74 1.71c-1.49 2.7-3.28 4.66-5.38 6.91a245 245 0 0 0-14.86 18l-1.9 2.5-1.67 2.26L666 707h-2l-.81 1.81c-1.26 2.32-2.05 3.64-4.19 5.19-5.64 1.02-11.31 1.33-17.03 1.65l-6.03.35-3.18.19a1873 1873 0 0 0-43.68 2.88l-12.12 1.02A316 316 0 0 1 546 721l-4.25-8.94-1.2-2.52c-7.5-15.8-7.5-15.8-9.74-23.48-1.16-4.12-1.16-4.12-2.81-8.06q-.14-2.67-.13-5.36l-.01-3.3q.02-8.67.14-17.34l.02-2.3c.23-15.26 3.78-30.93 8.31-45.46a99 99 0 0 0 2.17-9.3c.98-4.72 2.12-9.23 3.74-13.76 1.4-4.01 2.56-8.1 3.76-12.18 5.3-.45 8.97 1.03 13.56 3.44l2.1 1.07c6.86 3.6 13.12 7.88 19.34 12.49l2.36 1.64L585 589v2l3 1c3.08 1.82 4.71 3.65 6 7-.48 5.03-1.88 9.7-3.3 14.53a244 244 0 0 0-3.14 12.66l-.63 2.74c-2.35 10.5-4.02 21.1-5.73 31.72a829 829 0 0 1-4.03 22.7l-.47 2.5-.41 2.15c-.39 2.32-.39 2.32-.29 6 4.88-9.5 9.45-19.1 13.88-28.81 8.6-18.8 17.59-38.36 31.12-54.19l1.68-1.96c5.01-5.46 10.89-9.13 18.45-9.48 4.3.49 7.13 1.21 10.87 3.44 3.6 5.7 6.3 11.82 9.09 17.95 1.68 3.65 3.29 6.96 5.91 10.05 3.45-1.44 5.28-3.24 7.63-6.12A71 71 0 0 1 678 621h2l.74-1.73c1.49-2.67 3.24-4.4 5.45-6.52 4.17-4.08 8.02-8.32 11.81-12.75l4.31-5 2-2.31C706 591 706 591 708 591l.81-1.77a32 32 0 0 1 4.19-5.98l1.56-1.86C716 580 716 580 718 580l.74-1.73c1.49-2.67 3.24-4.4 5.45-6.52 4.8-4.7 9.23-9.62 13.5-14.8l1.62-1.95 1.43-1.75C742 552 742 552 744 552l.75-1.74c1.45-2.62 3.15-4.32 5.31-6.38 2.86-2.66 2.86-2.66 4.94-5.88h2l1-3h3l1-3h2l.75-1.75c1.43-2.57 3.07-4.23 5.19-6.25a45 45 0 0 0 5.69-6.25L777 516h2l.65-1.64c1.83-3.2 4.35-5.57 6.98-8.11l1.56-1.54zm11.19 233.38c3.85.63 6.44 1.74 9.9 3.41 5.3 2.2 10.89 3.5 16.42 4.99q5.6 1.51 11.12 3.28c4.69 1.47 9.4 2.72 14.18 3.88 21.06 5.15 41.45 12.4 60.37 23.05 2.6 1.45 5.25 2.81 7.88 4.2A88 88 0 0 1 936 786l2.47 1.95q3.78 3 7.53 6.05l1.88 1.46c4.62 3.71 8.17 8.11 11.86 12.74q3.1 3.8 6.38 7.42c3.86 4.3 7.38 8.79 10.88 13.38l3.08 4c10.7 13.88 10.7 13.88 15.36 20.92 1.57 2.21 1.57 2.21 3.9 4.3 3.36 3.51 5.73 7.32 8.22 11.47l1.47 2.42c8.76 14.74 8.76 14.74 7.97 21.89-1.25 1.77-1.25 1.77-3 3.38l-1.95 1.8L1010 901l-1.9 1.69q-1.94 1.72-3.92 3.42a478 478 0 0 0-7.3 6.51A286 286 0 0 1 986 922c-3.63-1.48-5.39-3.41-7.75-6.5l-2.12-2.73L974 910a581 581 0 0 0-27.02-31.8c-2.72-3.02-5.35-6.1-7.98-9.2l1.17 2.5 1.58 3.38 1.55 3.3c2.92 6.43 5.4 13.04 7.93 19.63 5.02 13.02 10.59 25.23 17.77 37.19a88 88 0 0 1-12.25 8.44l-2 1.18-3.95 2.32q-2.33 1.37-4.64 2.76l-2.35 1.36-1.98 1.16C940 953 940 953 936 953l-1.44-2.75c-3.75-6.6-8.63-12.56-13.34-18.49C920 930 920 930 920 928h-2c-1.3-1.48-1.3-1.48-2.74-3.52-3-4.15-6.15-8.14-9.38-12.1l-1.68-2.07q-6.6-8.07-13.5-15.88c-2.17-2.48-3.65-4.28-4.7-7.43h-2c-1.34-1.33-1.34-1.33-2.94-3.25a214 214 0 0 0-6.9-7.81l-1.48-1.6-2.95-3.13c-1.93-2.08-3.6-3.95-4.87-6.5-.8-2.08-.8-2.08-3.86-2.71v-2l-3-1v-2l-1.75-.31c-2.6-.8-4.22-1.88-6.25-3.69v-2l-1.64-.7c-3.04-1.67-5.43-3.79-8.05-6.05a128 128 0 0 0-23.02-15.48 442 442 0 0 1-7.6-4.2c-8.1-4.56-16.14-8.92-24.69-12.57l-2-1a126 126 0 0 1-1.12-8.87l-.26-2.61c-.58-6.18-.87-12.3-.62-18.52a397 397 0 0 1 34.68 5.54q6.64 1.29 13.32 2.46a581 581 0 0 0-25.38-17.72l-2.8-1.89-2.52-1.69c-2.4-1.77-4.43-3.37-6.3-5.7-.15-2.29-.15-2.29.34-4.77l.53-2.75.63-2.86.53-2.82c2.68-13.16 2.68-13.16 9.16-14.42"/><path fill="#f9b570" d="m784.5 836.75 3.34.19c10.69.79 18.86 4.56 27.91 10.06l2.17 1.29q6.13 3.7 12.08 7.71l2.38 1.29c3.95 2.58 7.21 5.83 10.62 9.09l2.12 2c5.74 5.44 11.32 11 16.7 16.8l1.51 1.62c3.67 3.97 3.67 3.97 3.67 6.2l1.7.66c3.05 1.78 4.78 4.03 6.99 6.78l2.38 2.93C880 906 880 906 881 909h2q2.24 2.49 4.31 5.13l2.42 3.03L892 920l3.06 3.56C897 926 897 926 897 928h2a109 109 0 0 1 4.69 5.88l1.35 1.78q4.89 6.49 9.49 13.2 1.35 1.98 2.79 3.91c1.7 2.33 2.65 4.05 3.12 6.92-.53 2.77-1.2 3.65-3.44 5.31-14.8 4.93-33.62-1.25-48-5l-4.09-1-2.15-.54-4.15-1.01A130 130 0 0 1 847 954v2l1.7.74c2.74 1.5 4.76 3.33 7.05 5.45q5.78 5.3 11.75 10.4C869 974 869 974 870 976c-27.7 6.13-62.37 11.47-88-3-12.55-6.8-25.43-11.59-39-16l-2.25-.74c-11.49-3.74-23.12-6.99-34.75-10.26l.78-1.74a361 361 0 0 0 5.85-13.63l1.22-3.03c2.87-9 3.46-17.89 3.45-27.3l.01-3.58v-7.49q.01-5.64.05-11.28c.03-13.29-.5-25.95-3.36-38.95 21.78-6.06 48.18-3.66 70.5-2.25"/><path fill="#223d88" d="M469 711h1l-.05 1.92c-.67 24.71-.67 24.71 6.38 48.13.86 2.49.56 3.49-.33 5.95-1.55 1.92-1.55 1.92-3.53 3.9l-2.15 2.14-2.26 2.21-2.25 2.26C460.27 783 460.27 783 458 783l-.8 1.8a19 19 0 0 1-4.39 5.33c-7.25 7.08-12.32 14.22-12.97 24.42.14 10.28 6.44 16.83 13.35 23.83q1.89 1.81 3.81 3.62l3 3 2 2a98 98 0 0 1-9-4 335 335 0 0 0 .31 21.2c.87 18.58 1.1 37.17 1.45 55.76a11527 11527 0 0 0 2.58 118.45l.07 3.39c.2 6.26.85 9.95 4.96 14.83 10.17 9.27 25.64 11.34 38.63 14.37v1l-54.9.08a11418 11418 0 0 1-32.17.03l-2.71.01c-6.1 0-6.1 0-7.22-1.12-4.95-20.28-2.29-40.96-.26-61.42q.62-6.3 1.22-12.63l1.48-15.37c1.61-16.53 2.9-33.08 4.17-49.65.73-9.61 1.49-19.22 2.39-28.82a1668 1668 0 0 0 2.69-33.7c1.22-16.78 2.52-33.52 4.3-50.24a605 605 0 0 0 2.07-26.1c.58-9.37 1.17-18.72 1.94-28.07l.22-2.78A61 61 0 0 1 427 748c11.29-3.15 20.87-1.09 32 2 3-9.68 5.26-19.44 7.34-29.35l.6-2.92.55-2.61C468 713 468 713 469 711"/><path fill="#fcfdfd" d="M680.4 62.63c18.96 15.3 30.58 32.07 33.73 56.37 1.9 17.87 1.11 36.05.87 54-4.34-1.61-7.13-3.62-10.62-6.69A126 126 0 0 0 687 154l-2.95-1.86A365 365 0 0 0 627 123l-6.06-2.56c-14.65-6.07-29.65-10.42-45.14-13.76-2.8-.68-2.8-.68-5.66-1.67a74 74 0 0 0-11.08-2.51l-2.38-.38C543.57 100.17 530.23 99.7 517 99a104 104 0 0 1 5.25-18.06l.93-2.39c2.24-5.54 4.8-10.1 8.82-14.55l1.75-2.56c35.83-38.82 109.1-28.23 146.65 1.19"/><path fill="#ec9157" d="m274 637 2 1c-.96.3-.96.3-1.94.63L272 640l-.4 2.65c-.7 3.94-2.3 6.9-4.29 10.29l-1.17 2.03a952 952 0 0 1-13.18 21.87A369 369 0 0 0 243 694l-1.59 2.87c-9.25 17.62-14.5 37.65-14.61 57.54l-.02 2.68a1586 1586 0 0 0-.03 11.47c0 14.03.42 27.65 3.25 41.44l.4 2.22c2.61 14.19 8.08 27.36 14.87 40.05.73 1.73.73 1.73.73 4.73l3 1a108 108 0 0 1 4.44 6.75 94 94 0 0 0 6.85 10.08C262 877 262 877 262 879l3 1v2h2l1.94 2.56c5.76 7.17 14.4 11.03 23.06 13.44-.3 3.38-.6 5.49-2.71 8.2-3.7 2.91-6.55 2.1-11.07 1.6-28.09-4.76-61.04-18.13-78.67-41.51-4.55-6.72-4.55-6.72-4.55-9.29h-2c-4.15-10.86-7.5-21.43-9-33l-.29-2.2c-1.07-9.77-.95-19.6-.96-29.42v-2.9c0-14.11.63-27.78 2.84-41.73q.62-4.28 1.1-8.55c2.13-18.37 6.08-36.12 10.94-53.95l.87-3.27 1.6-5.7c1.74-4.4 4.88-5.99 8.92-8.17l3.01-1.64 3.22-1.72 3.3-1.77a356 356 0 0 1 35.15-16.34 188 188 0 0 0 17.64-8.45z"/><path fill="#4c4c4d" d="M1154 168c16.43 6.34 26.28 16.11 35 31l1.5 2.51c8.6 14.93 15.23 31.78 19.64 48.4.8 2.9 1.78 5.66 2.86 8.47 11.6 31.09 15.3 69.51 1.63 100.43q-1.3 2.61-2.63 5.19l-1.34 2.7c-3.8 7.36-8.54 13.8-13.66 20.3l-2.02 2.63a46 46 0 0 1-5.98 5.93 92 92 0 0 0-6.37 5.88C1181 403 1181 403 1179 403l-1 3c-1.5 1.33-1.5 1.33-3.43 2.67l-2.14 1.5-2.3 1.58-2.38 1.64-4.68 3.2q-2.43 1.65-4.84 3.37c-9.67 6.58-20.65 11.12-31.23 16.04l-4.5 2.12q-5.25 2.46-10.5 4.88l-2.35 1.1c-8.07 3.71-16.49 6.64-24.83 9.7a73 73 0 0 0-8.7 3.7c-3.48 1.67-6.94 2.68-10.65 3.74a53 53 0 0 0-6.4 2.45C1056 465 1056 465 1053 465a75 75 0 0 1 2.75-10.44c3.04-9.7 5.07-19.64 7.25-29.56l2-9q9.64-2.97 19.41-5.5c12.92-3.4 25.5-7 37.66-12.6q2.6-1.2 5.24-2.27c16.11-6.95 32.23-16.3 43.32-30.16L1172 364h2l.69-1.56c1.31-2.44 1.31-2.44 3.63-5.57 2.79-3.87 4.86-7.92 6.87-12.25l1.03-2.13c3.83-8.13 5.15-15.92 5.1-24.87l-.02-2.62c-.28-15.63-3.96-30.68-7.75-45.78l-1.3-5.4c-2.08-8.89-4.88-17.57-7.56-26.3q-1.89-6.14-3.63-12.33a1298 1298 0 0 0-15.81-51.1l-.73-2.26C1154 170 1154 170 1154 168"/><path fill="#446ece" d="M563 115q2.55.5 5.1.91a179 179 0 0 1 18.4 4.47l3.18.88c9.1 2.56 17.9 5.43 26.32 9.74l6 2a256 256 0 0 1 29.14 13.03l5.09 2.61a273 273 0 0 1 37.59 23.74 94 94 0 0 0 5.87 4L702 178v2l1.66.7c3.01 1.68 5.26 3.82 7.78 6.18 2.68 2.5 5.32 4.93 8.2 7.2a42 42 0 0 1 5.8 5.73l1.78 2.08L729 204l3.44 4 2.56 3a32 32 0 0 1-8.75 3.18l-2.82.62-3 .64-3.09.66c-16.77 3.53-33.42 6.08-50.59 6.09l-3.18.03c-10.67.02-16.93-2.8-24.58-10.15q-2-2.01-3.96-4.05a118 118 0 0 0-8.46-7.48C625 199 625 199 624 196l-1.79-.9c-2.9-1.45-4.51-3.4-6.65-5.85l-2.4-2.72a209 209 0 0 1-4.72-5.72c-3.18-3.67-6.73-6.68-10.44-9.81l-2.91-2.54C581.64 156.8 568.33 148.18 552 141l-3.28-1.5c-7-3.08-14.2-5.23-21.54-7.29q-4.32-1.22-8.54-2.72c-14.73-4.95-30.28-5.88-45.7-5.93l-2.07-.02c-21.14-.12-41.33 4.88-57.87 18.46l-1 2h-2c4.99-11.16 17.5-18.37 28.4-22.8 11.87-4.5 24.12-7.05 36.6-9.2l2.24-.4c25.5-4.39 61.22-5.17 85.76 3.4"/><path fill="#b1b1b2" d="M886 610c-3.21 3.3-6.5 6.28-10.12 9.13C865 627.92 855.47 637.5 849 650l-.95 1.8c-7.63 14.4-13.39 28.02-8.42 44.51 2 5.33 4.57 9.48 8.37 13.69l1.52 1.73c4.39 4.67 9.45 8.38 14.61 12.16 5.5 4.05 5.5 4.05 7.87 6.11v2h2a51 51 0 0 1 3.63 4.5l1.9 2.53L881 741c-3.86 1.29-5.05.46-8.81-1a353 353 0 0 0-18.57-6.31q-12.2-3.85-24.37-7.88l-2.95-.97A275 275 0 0 1 808 718l-.15-2.54A335 335 0 0 0 805 689a104 104 0 0 0-6.1 21.93c-1.3 4.44-3.55 6.28-7.46 8.57-5.6 3.44-6.58 8.66-8.32 14.63a210 210 0 0 1-7.5 21.15c-9.07 21.18-9.07 21.18-9.09 43.9.66 3.95 1.1 7.93 1.56 11.91l.27 2.34.64 5.57-3.28.06a3691 3691 0 0 0-17.62.36c-10.36.2-20.58.67-30.87 1.9-4.1.49-8.08.78-12.23.68-2.4-7.16-3.36-14.11-3.5-21.62l-.1-2.35c0-10.34 5.96-18.05 12.23-25.78l1.86-2.35 3.75-4.7q2.35-2.95 4.66-5.95a416 416 0 0 1 16.4-19.85 481 481 0 0 0 11.46-13.66 527 527 0 0 1 20.81-24.02c3.37-3.77 6.5-7.72 9.62-11.7L784 688h2l.84-1.81c1.83-3.44 4.56-6.08 7.22-8.88l1.93-2.04c9.59-10.08 19.51-19.85 29.39-29.66l5.31-5.3q3.41-3.4 7-6.62l2.32-2.12C842 630 842 630 844 630v-2a100 100 0 0 1 6.63-4.75l2.03-1.35c9.83-6.35 21.46-12.38 33.34-11.9"/><path fill="#656565" d="M879.95 380.61c6.9 4.66 12.96 10.83 18.05 17.39v2h2c1.25 1.59 1.25 1.59 2.64 3.8l1.56 2.47 1.61 2.6 1.58 2.5c5.13 8.2 9.64 16.41 12.24 25.75l.62 2.17c2.08 7.49 3.45 15.06 4.75 22.71l.53 2.19c.62 3.73.6 7.4.57 11.17l-.05 15.09L926 503l-2.17.95-9.83 4.3-3.41 1.49a292 292 0 0 0-15.64 7.29c-4.76 2.37-9.67 4.46-14.53 6.61l-2.54 1.14-2.49 1.1a142 142 0 0 0-6.83 3.46C865 531 865 531 862 530l-.24-2.06q-.97-8.23-1.98-16.45-.66-5.4-1.25-10.82c-1.17-10.18-3.72-19.84-6.53-29.67l-1-3.6c-5.48-18.81-15.3-33.95-26.13-50.08l-1.42-2.1-2.6-3.83C818 407.21 818 407.21 818 405a173 173 0 0 1 18-7.5c5.06-1.77 9.88-3.76 14.73-6.04 5.38-2.4 10.88-4.53 16.37-6.7l2.52-.99 2.26-.89c2.16-.86 2.16-.86 4.27-2.03 1.85-.85 1.85-.85 3.8-.24"/><path fill="#e4e5e5" d="M382 668a55 55 0 0 1 6.5 5.06q.84.75 1.72 1.5a97 97 0 0 1 10.25 10.62 67 67 0 0 0 4.9 5.13c3.78 3.71 7.04 7.79 10.36 11.92a178 178 0 0 0 6.58 7.52A50 50 0 0 1 430 721a775 775 0 0 1-11.12 11l-1.6 1.54-1.54 1.52q-.67.68-1.38 1.35c-3.15 3.68-4.72 7.02-5.24 11.83l-.35 3.08-.33 3.32-.38 3.48a966 966 0 0 0-2.83 34.21A1415 1415 0 0 1 400 853c-2.78-2.78-3.25-6-4.25-9.69-6.3-22.09-16.65-42-30.34-60.4q-1.98-2.7-3.9-5.44C352.4 764.44 342.75 751.73 332 740c-5.1-6.02-5.28-10.63-5.71-18.36-.2-3.52-.2-3.52-.86-6.47-.82-4.13-1.1-6.16 1.29-9.78A79 79 0 0 1 333 699c4.54.89 7.35 3.53 10.81 6.44 7.4 6.08 15.15 11.37 23.19 16.56q6.59 4.37 13 9c-3.65-7.43-8.48-13.78-13.6-20.23l-4.32-5.5-5.54-7.08-1.25-1.6a70 70 0 0 0-2.76-3.2c-3.51-3.86-3.51-3.86-3.6-6.57 1.4-2.38 2.87-3.38 5.2-4.88 3.31-2.18 6.51-4.41 9.62-6.87l1.97-1.54q1.94-1.5 3.84-3.06c4.37-3.36 6.92-4.28 12.44-2.47"/><path fill="#b1b1b2" d="m754 464 1.5 1.14 2.06 1.55 2.2 1.65a213 213 0 0 0 6.24 4.41l3 2.25v2l1.67.75a50 50 0 0 1 7.58 5.25l2.7 2.13L783 487v2h-2l-.64 1.63c-1.86 3.25-4.42 5.67-7.07 8.27l-1.7 1.7-5.4 5.34-10.27 10.17a314 314 0 0 0-15.42 16.37c-2.5 2.52-2.5 2.52-4.9 3.94a33 33 0 0 0-6.56 5.31l-2.18 2.19-2.24 2.27-2.2 2.21a197 197 0 0 0-9.81 10.5c-4.4 5.1-9.2 9.76-13.99 14.48l-5.4 5.33-2.38 2.35c-1.9 1.81-1.9 1.81-2.84 3.94h-2l-.73 1.66c-1.57 2.9-3.53 5.2-5.64 7.72a86 86 0 0 0-7.07 9.3L671 606h-2l-.78-1.84c-4.29-9.38-11-18.22-20.22-23.16-6.6-1.63-11.59.81-17.23 4.16a122 122 0 0 0-10.4 7.87A227 227 0 0 1 610 601c2.11-5.6 5.13-10.55 8.19-15.69l1.67-2.85c3.32-5.6 6.82-11 10.6-16.3a138 138 0 0 0 3.45-5.12c7.75-11.75 21.15-21.95 33.9-27.85 4.84-2.3 8.88-5.64 13.11-8.9 3.67-2.73 7.49-5.14 11.38-7.55 2.75-1.77 5.38-3.66 8.01-5.62a245 245 0 0 1 14.15-9.55A405 405 0 0 0 730 491.09c3.27-2.29 6.54-4.45 10.01-6.4 6.78-3.67 6.78-3.67 11.48-9.59.74-2.72 1.2-5.3 1.5-8.1z"/><path fill="#223d88" d="M699 64c11.01 2.3 21.84 11.2 31.17 17.2q2.97 1.89 5.97 3.73l3.05 1.88 2.79 1.71L744 90v2l2.2.78a33 33 0 0 1 7.61 4.72l2.4 1.84L758 101v2l1.67.72c2.9 1.6 5.13 3.57 7.58 5.78l2.7 2.4C772 114 772 114 772 116l3 1c12.24 16.8 13.4 34.16 13.25 54.31v2.4A591 591 0 0 1 782 257a22 22 0 0 1-8-6v-2h-2c-6.56-7.84-11.46-16.93-16.6-25.74-6.88-11.78-13.47-22.8-23.4-32.26-2-2-2-2-2.21-4.92l.05-3.76.02-2.06.05-4.4q.06-5.83.07-11.65l.01-2.37c.12-34.5-.9-65.9-26.12-92.05q-1.8-1.8-3.66-3.55C699 65 699 65 699 64"/><path fill="#b2b2b2" d="M792 501c4.66 1.72 8.03 4.04 12 7a12 12 0 0 1-3.7 7.14l-1.66 1.73-1.76 1.82a161 161 0 0 0-12.48 14.5c-1.93 2.5-4.15 4.61-6.4 6.81-5.59 5.58-5.59 5.58-10 12h-2l-.65 1.59c-1.88 3.36-4.38 6.1-6.91 8.97l-3.28 3.77-1.63 1.88q-3.16 3.73-6.22 7.54a236 236 0 0 1-8.87 10.31 221 221 0 0 0-10.14 12.1c-3.43 4.24-7.04 8.32-10.64 12.42a145 145 0 0 0-8.35 10.36L707 624h-2l-.68 1.61c-1.77 3.2-4.11 5.83-6.5 8.58a237 237 0 0 0-9.26 11.25c-3.15 4.1-6.46 8.06-9.81 12l-1.58 1.86c-2.26 2.65-4.25 4.75-7.17 6.7l-.73-2.01c-2.51-6.6-4.62-11.68-10.96-15.3-4.51-2.03-8.43-2.72-13.31-1.69-8.7 3.54-15.37 10.56-22 17l-1.56 1.5A203 203 0 0 0 602 687l-7.2 9.23A77 77 0 0 1 587 705c.36-9.3 2.25-17.9 4.48-26.9q1.19-4.84 2.27-9.73l.73-3.22c.64-3.17.64-3.17.36-6.49.21-4.86 1.9-8.29 4.03-12.6l1.22-2.5c5.73-11.52 12.47-22.8 20.91-32.56l1.67-1.95c5.01-5.47 10.9-9.14 18.46-9.49 4.3.49 7.13 1.21 10.87 3.44 3.6 5.7 6.3 11.82 9.09 17.95 1.68 3.65 3.29 6.96 5.91 10.05 3.45-1.44 5.28-3.24 7.63-6.12A71 71 0 0 1 678 621h2l.74-1.73c1.49-2.67 3.24-4.4 5.45-6.52 4.17-4.08 8.02-8.32 11.81-12.75l4.31-5 2-2.31C706 591 706 591 708 591l.81-1.77a32 32 0 0 1 4.19-5.98l1.56-1.86C716 580 716 580 718 580l.74-1.73c1.49-2.67 3.24-4.4 5.45-6.52 4.8-4.7 9.23-9.62 13.5-14.8l1.62-1.95 1.43-1.75C742 552 742 552 744 552l.75-1.74c1.45-2.62 3.15-4.32 5.31-6.38 2.86-2.66 2.86-2.66 4.94-5.88h2l1-3h3l1-3h2l.75-1.75c1.43-2.57 3.07-4.23 5.19-6.25a45 45 0 0 0 5.69-6.25L777 516h2l.65-1.64c1.83-3.2 4.35-5.57 6.98-8.11l1.56-1.54z"/><path fill="#eb9157" d="m566 229 5 2c2.63.3 2.63.3 5.4.27h3.11l3.3-.02 3.42-.01c6-.06 11.78-.35 17.7-1.24 14.36-2.09 30.62-3.32 44.34 2a39 39 0 0 0 8.86 1.94c6.23.94 11.28 3.2 16.87 6.06l3.36 1.66q4.32 2.15 8.64 4.34l-8-11c2.47-2.47 3.64-2.42 7.05-2.85l3.06-.4 3.2-.37 3.17-.41A95 95 0 0 1 708 230l.1 1.8a193 193 0 0 0 7.5 43.21c1.41 5.14 1.73 9.98 1.71 15.3l.05 2.42c0 5.85 0 5.85-1.88 8.02L714 302l-.93-1.43C707.3 292.2 698.27 283.2 688 281c-2.25-.08-4.5-.07-6.74-.06-10.32-.01-10.32-.01-13.51-3.16-1.44-2.84-1.44-2.84-2.6-5.85A26.5 26.5 0 0 0 652 258l-1 1 1.5 2.31c2.04 5 2.34 9.35 1.5 14.69a29 29 0 0 1-6 9c-5.53.96-11.22 1.13-16.81 1.31l-3.21.12c-3.72-.54-5.3-1.85-7.98-4.43-3.7-5.23-3.84-10.81-3-17a22 22 0 0 1 5-8 26.3 26.3 0 0 0-17.06 8.13c-2.9 4.3-4.44 9.01-6.12 13.9-.8 2.13-1.6 4.04-2.82 5.97-2.7 1.15-2.7 1.15-6 2-2.98 1.8-5.76 3.88-8.56 5.94l-4.44 3.21-1.97 1.44c-2.27 1.58-4.66 2.99-7.03 4.41z"/><path fill="#223d88" d="m472.94 122.56 2.15.01c19.38.12 37.5 3.3 55.79 9.7q3.03 1.04 6.1 1.98c9.09 2.86 17.52 6.5 26.02 10.75l2.93 1.43c11.57 5.94 21.38 14.68 31.2 23.1q2.47 2.13 5 4.22c4.46 3.67 8.17 7.82 11.87 12.25l1.55 1.84q1.73 2.07 3.45 4.16a19 19 0 0 1-6.87-4.94c-12.17-12.5-27.9-22.82-43.13-31.06l-2.73-1.48C548 145.35 527 140.67 507 137l-2.63-.5c-11.76-2.13-23.44-2.8-35.37-2.87l-3.87-.05c-12.56.07-27.14 1.33-36.97 10.05-6.1 6.66-8.46 14.34-8.39 23.25.53 7.24 2.77 14.32 5.23 21.12l-.1-2.16c-.22-7.73.4-12.35 5.23-18.59 6.19-4.85 13.32-5.76 21-5.62l2.5.03c17.28.43 35.3 5.85 50.37 14.34l1.98 1.02A36 36 0 0 1 516 185c-1 3-1 3-2.71 4.06l-2.23.96-2.45 1.09-2.61 1.14c-6.45 2.91-12.17 5.8-17.5 10.54C487 204 487 204 485 204l-1 3h-2l-.8 1.73a47 47 0 0 1-4.51 6.65c-4.36 6.09-6.47 12.52-8.69 19.62-14.14-2.45-27.75-11.35-39-20v-2l-1.76-.78c-12.47-6.78-18.34-22.25-22.6-35-3.47-11.98-1.48-22.52 4.36-33.22h3l1-3c16.73-14.42 38.4-18.63 59.94-18.44"/><path fill="#122840" d="M630.56 364.63c5.87.18 11.08 2.1 15.34 6.2A73 73 0 0 1 650 376l-1 2-7-3 .05 1.87c.44 20.25.08 38.2-14.42 53.8-12.56 12.64-27.96 15.54-45.25 15.7-11.32-.05-22.26-1.35-33.38-3.37l-3.48-.55c-14.29-2.78-25.6-13.43-35.52-23.45l1-2 1.83 1.5 2.42 1.94 2.4 1.93A13.6 13.6 0 0 0 524 425c1.9-14.4 1.9-14.4-2-28l-.84-1.88c-1.95-4.02-3.85-6-8.08-7.5q-5-1.51-10.04-2.87C501 384 501 384 500 382c4.95.4 9.48 1.05 14.25 2.44C552.09 395.24 594.52 391 629 373l2-1-1-3c-2.5-1.22-2.5-1.22-5-2 2-2 2-2 5.56-2.37"/><path fill="#b1b2b2" d="M803.19 734.38c3.85.63 6.44 1.74 9.9 3.41 5.3 2.2 10.89 3.5 16.42 4.99q5.6 1.51 11.12 3.28c4.69 1.47 9.4 2.72 14.18 3.88 21.06 5.15 41.45 12.4 60.37 23.05 2.6 1.45 5.25 2.81 7.88 4.2 4.66 2.55 8.8 5.5 12.94 8.81l9 7c-3.37 1.15-5.15.86-8.43-.44l-5.45-2.12a289 289 0 0 0-31.76-9.84q-3.1-.79-6.17-1.64c-7.35-1.9-14.6-2.81-22.19-1.96l-3 2c-1.88 10.45 1.17 17.98 6 27v1c-4.84.24-8.95-.67-13.56-2-7-1.86-14.22-3.43-21.44-2-2.45 1.62-2.45 1.62-4 4-2.15 15.29 12.37 36.32 21 48l-1 2q-2.55-1.93-5-4v-2l-1.64-.7c-3.04-1.67-5.43-3.79-8.05-6.05a128 128 0 0 0-23.02-15.48 442 442 0 0 1-7.6-4.2c-8.1-4.56-16.14-8.92-24.69-12.57l-2-1a126 126 0 0 1-1.12-8.87l-.26-2.61c-.58-6.18-.87-12.3-.62-18.52a397 397 0 0 1 34.68 5.54q6.64 1.29 13.32 2.46a581 581 0 0 0-25.38-17.72l-2.8-1.89-2.52-1.69c-2.4-1.77-4.43-3.37-6.3-5.7-.15-2.29-.15-2.29.34-4.77l.53-2.75.63-2.86.53-2.82c2.68-13.16 2.68-13.16 9.16-14.42"/><path fill="#656565" d="M1118 277c4.22.51 6.32 2.89 9.31 5.75 2.98 2.84 5.77 5.3 9.27 7.43 3 2.13 3.39 2.72 4.63 6.44q.28 2.08.46 4.17l.29 2.26q.43 3.57.79 7.14a1268 1268 0 0 0 1.38 11.62c1.22 9.64 3.07 17.79 10.87 24.19a39 39 0 0 0 8 3c-1.17 7.46-8.74 14.03-14 19l-2.19 2.31C1145 372 1145 372 1143 372v2c-2.62 2.14-5.57 3.84-8.44 5.63l-2.58 1.62a179 179 0 0 1-21.34 11.13q-3.47 1.54-6.85 3.25a40 40 0 0 1-7.16 2.75q-4.78 1.34-9.52 2.85l-2.08.67-4.06 1.3c-4.93 1.57-9.9 2.75-14.97 3.8l.03-1.89c.19-12.75-.08-25.22-1.6-37.9A81 81 0 0 1 1064 356l2.82-1.54c6.65-3.68 12.53-7.32 18.18-12.46h2v-2l2.88-2.25c14.9-12.34 25.14-34.1 27.53-52.96q.36-3.9.59-7.79"/><path fill="#ea9157" d="m784.5 836.75 3.34.19c10.69.79 18.86 4.56 27.91 10.06l2.17 1.29q6.13 3.7 12.08 7.71l2.38 1.29c3.95 2.58 7.21 5.83 10.62 9.09l2.12 2c5.74 5.44 11.32 11 16.7 16.8l1.51 1.62c3.67 3.97 3.67 3.97 3.67 6.2l1.7.66c3.05 1.78 4.78 4.03 6.99 6.78l2.38 2.93C880 906 880 906 881 909h2q2.24 2.49 4.31 5.13l2.42 3.03L892 920l3.06 3.56C897 926 897 926 897 928h2a109 109 0 0 1 4.69 5.88l1.35 1.78q4.89 6.49 9.49 13.2 1.35 1.98 2.79 3.91c1.7 2.33 2.65 4.05 3.12 6.92-.54 2.82-1.21 3.55-3.44 5.31-2.26.51-2.26.51-4.69.69l-2.45.2-1.86.11-.23-2.2c-1.6-12.22-6.84-21.54-14.77-30.8l-1.84-2.24c-5.12-6.05-10.92-10.9-17.16-15.76l-3-2.44c-12.48-10.06-25.84-17.84-41.06-22.91q-2.86-.96-5.71-1.98C794.5 877.36 763 872.07 732 879q-6.5 1.06-13 2v25h-1l-.02-1.74q-.1-9.1-.24-18.2l-.09-6.77c-.14-13.71-.85-26.84-3.65-40.29 21.78-6.06 48.18-3.66 70.5-2.25"/><path fill="#ebebeb" d="m603.65 57.54 4.53-.12c10.62-.4 17.12 1.1 25.82 7.58a65 65 0 0 0 7.81 3.19l2.04.73c5.6 1.98 11.28 3.58 17 5.14 4.97 1.49 9.53 3.63 14.15 5.94.38 1.81.38 1.81.56 4 .07 2.79.07 2.79 1.44 5 .42 4.35.51 8.54-.94 12.69a41 41 0 0 1-6.62 5.75c-3.93 2.92-5.19 4.76-6.44 9.56-2.62 3.37-4.29 4.78-8.37 6.06-4.5-.08-7.02-1.63-10.63-4.06q-2.58-1.58-5.19-3.12l-2.48-1.51L634 113l-1.9-1.12c-3.84-1.6-8-1.8-12.1-2.32-3-.56-3-.56-6-2.56v-4l-2.16.06c-25.26.65-25.26.65-37.84-4.06q-2.27-.6-4.56-1.12C566 97 566 97 563.5 95.94c-2.66-1.13-2.66-1.13-6.37-1.25-4.02-.42-6.22-1.88-9.33-4.36a33 33 0 0 0-6.05-3.4c-5.32-2.6-5.32-2.6-6.75-5.93.13-3.62.13-3.62 1-7 3.68-2.45 6.44-2.23 10.69-2.12l2.12.02 5.19.1-.31-3.75c-.26-3.13.12-4.02 2.15-6.5 4.66-2.58 8.85-2.26 14.1-2.12h2.96c5.07.06 9.35.36 14.1 2.37l1-3c4.53-2.26 10.62-1.4 15.65-1.46"/><path fill="#223c87" d="m465 849 7 4-.1 3.62c-.29 13.52 1.52 21.95 9.1 33.38l1 1q-.01 3.06-.12 6.13c-.04 8.62 2 13.11 7.91 19.39C491 918 491 918 491 920h2a59 59 0 0 1 2.81 3.38c7.45 8.71 16.88 16.4 28.47 17.92 11.54.66 22.56-4.37 32.72-9.3l5.81-2.62a190 190 0 0 0 14.32-7.13c3.18-1.38 3.75-1.38 6.87-.25a32 32 0 0 1 3.72 2.66l2.12 1.65 2.22 1.75 4.57 3.55c1.1.87 1.1.87 2.25 1.75 4.3 3.32 8.7 6.48 13.12 9.64-2.54 6.8-10.75 9.43-16.87 12.39-18.2 7.67-38.14 9.79-57.7 9.8l-3.82.03c-9.8.02-17.75-1.07-26.61-5.22v-2c-4.61.55-7.89 1.9-12 4-5.75 2.04-10.87 2.25-16.94 2.13l-2.65-.03-6.41-.1c-.98-4.15-1.18-8.1-1.28-12.37l-.06-2.2-.16-7.16-.44-18.32-.67-28.41q-.3-13.5-1.18-26.96a186 186 0 0 1-.26-14.72z"/><path fill="#b0b1b1" d="M1146 163c3.8 13.18 3.8 13.18 5.38 19.06a972 972 0 0 0 4.5 16q2.86 9.95 5.62 19.94c4 14.44 8.08 28.85 12.5 43.17 1.36 4.48 2.51 8.95 3.5 13.53.9 4.09 1.95 8.13 3 12.18l.64 2.54.64 2.45.57 2.19c.65 2.23.65 2.23 2.65 4.94.53 4.3.46 8.61.5 12.94l.13 3.55c.07 8.98-1.72 17.48-8.22 24.14-4.64 3.14-10.06 3.18-15.41 2.37-3.82-1.03-6.1-2.6-8.25-5.93-2.94-6.41-3.6-13.23-4.31-20.16-.38-3.34-.9-6.56-1.57-9.85-2.2-12.12-2.2-12.12.63-16.26a80 80 0 0 1 3.77-3.98A18 18 0 0 0 1156 280l-1.97-1.43-2.53-1.88-2.53-1.87L1147 273c0-3.92 1.6-5 4-8v-3l-3.37-1.25c-2.62-1.1-3.46-1.5-5.07-3.94L1142 255l2-2.87c2.18-2.8 2.18-2.8 2-5.13l-1.93-1.02-2.5-1.35-2.5-1.34C1137 242 1137 242 1136 240l1.44-2.37c1.9-2.7 1.9-2.7 1.56-6.63-1.97-1.8-1.97-1.8-4.5-3.25l-2.53-1.58L1130 225a79 79 0 0 1 6-12l-1.69-.81c-2.5-1.3-4.9-2.72-7.31-4.19 1.22-3.74 2.54-7.34 4-11l-9-6 5-10-7-5c2.82-7.45 2.82-7.45 6.98-9.39 12.08-4.3 12.08-4.3 19.02-3.61"/><path fill="#e5e5e5" d="m314 430 3.84 1.98c10.97 5.65 10.97 5.65 12.16 8.02l-14 4v-8c-3.03 3.03-2.32 6.53-2.34 10.6l-.05 2.64-.11 8.38c-.5 42.79-.5 42.79-9.5 55.38-10.13 8.1-21.32 12.18-34.19 12.19l-2.2.03A81 81 0 0 1 262 525c-2-2-2-2-2.24-4.9l.03-3.78v-2.08q0-3.42.06-6.83l.04-4.77.11-10q.08-6.38.1-12.76.02-4.92.1-9.85l.03-4.7c.02-14.35 4.03-24.15 13.96-34.64 11.38-6.83 28.4-7.41 39.81-.69"/><path fill="#aeafaf" d="M648 802c4.31 1.49 7.78 3.77 11.44 6.44l1.83 1.33c10.35 7.54 20.48 15.37 29.73 24.23l1.84 1.66c10.67 10.64 8.31 31.97 8.35 45.99v2.39q0 3.6.03 7.17c.05 12.97.05 26.12-6.22 37.79l-1.2 2.48A134 134 0 0 1 685 947c-6.63-.32-12.6-1.57-18.94-3.44l-2.26-.66c-3.3-1-5.9-1.97-8.8-3.9.36-3.12.82-4.78 2.82-7.25 2.42-3.06 4.07-6.13 5.8-9.62l1.8-3.56A65 65 0 0 0 669 908h2c3.95-17.76-1.07-36.78-10.56-51.87L657 851l-2.31-3.56c-1.6-2.48-1.6-2.48-3.69-4.44q.01-2.88.08-5.77c-.14-3.74-1.35-7.08-2.52-10.6-4.8-15.49-4.8-15.49-2.12-22.25z"/><path fill="#e78f56" d="m781 273 2.41 1.22c8.64 4.7 14.05 10.77 17 20.17 1.12 4.95 1.02 9.88.97 14.92l.03 3.19c-.06 17.57-6.73 35.74-19.03 48.5-6.2 5.79-11.52 7.3-19.84 7.23-4.6-.41-8.24-1.93-11.54-5.23-.5-2-.5-2-.85-4.44l-.4-2.71-.37-2.85-.41-2.75c-1.41-10.13-1-19.46.47-29.56.89-6.4 1.72-12.74 2.12-19.19A50 50 0 0 1 754 289q.49-2.55.94-5.12c1.01-5.24 2.8-9.47 7.06-12.88 6.45-2.63 13.13-1.16 19 2"/><path fill="#f7cf2d" d="M945.56 191.65a17.5 17.5 0 0 1 5.82 5.04c2.92 3.53 6 6.72 9.33 9.86C962 208 962 208 962 210c-6.4 5.11-13.92 8.5-21.31 11.88a255 255 0 0 0-15.25 7.68 219 219 0 0 1-18.49 8.85 232 232 0 0 0-14.01 6.59c-9 4.56-18.1 8.92-27.37 12.92l-2.21.96-4.26 1.81c-2.8 1.2-4.92 2.13-7.1 4.31a87 87 0 0 1-4.62 1.63c-4.92 1.72-9.5 3.82-14.13 6.18a595 595 0 0 1-16.62 8.19l-1.93.92c-4.46 2.08-4.46 2.08-6.7 2.08a87 87 0 0 1-3.25-5.12A56 56 0 0 0 795 267v-2l11.31-5.44 3.45-1.65q10.13-4.87 20.3-9.66a765 765 0 0 0 18.89-9.24 584 584 0 0 1 15.36-7.38 549 549 0 0 0 26.8-13.63l1.89-1 2.05-1.13C897 215 897 215 900 215v-2a981 981 0 0 1 29.4-15.2q3.36-1.65 6.65-3.48l2.64-1.44 2.2-1.26c2.11-.62 2.11-.62 4.67.03"/><path fill="#f6ce2d" d="M480 405q1.01 4.05 2 8.13l.58 2.3c1.03 4.29 1.65 8.12 1.42 12.57l-1.84.75c-14.39 5.8-14.39 5.8-28.57 12.09-5.06 2.27-10.24 4.26-15.4 6.3q-6.19 2.44-12.38 4.92l-2.6 1.04q-9.64 3.87-19.21 7.9l-5.87 2.44q-6.59 2.74-13.13 5.56a1205 1205 0 0 1-33.82 13.93L321 495c-1.37-2.73-.92-4.62-.66-7.66l.28-3.4.32-3.56.3-3.6.76-8.78c7.44-3.18 14.91-6.1 22.58-8.7a64 64 0 0 0 7.22-3.24c5.32-2.72 10.94-4.47 16.6-6.33a107 107 0 0 0 15.02-6.46c4.53-2.23 9.24-3.98 13.95-5.77l6.15-2.37 2.9-1.13q4.39-1.71 8.7-3.56c5.38-2.29 10.85-4.32 16.32-6.38a250 250 0 0 0 19.88-8.4c5.2-2.4 10.54-4.45 15.87-6.54l3.12-1.23 2.92-1.13 2.64-1.03C478 405 478 405 480 405"/><path fill="#223c87" d="M881.79 562.59A81 81 0 0 1 898 572l1 3-3.6.7A248 248 0 0 0 864 584l-2.15.71c-8.36 2.77-16.34 5.75-24.14 9.9a112 112 0 0 1-7.82 3.56A150 150 0 0 0 801 615l-3.06 2c-3.38 2.3-6.58 4.79-9.8 7.32L786 626q-1.05.85-2.15 1.71C782 629 782 629 780 629l-1 3c-1.7 1.46-1.7 1.46-3.9 3.04-5.74 4.33-10.73 9.3-15.79 14.4l-2.76 2.73c-4.56 4.58-8.76 9.1-12.4 14.45L743 668h-2l-.79 1.73a38 38 0 0 1-4.65 6.58c-14.02 17.3-27.76 36.24-37.4 56.35-1.2 2.4-2.5 4.7-3.85 7.03-3.64 6.51-4.68 12.98-5.31 20.31-3.87-1.94-4.76-7.38-6.25-11.25l-1.18-2.9-1.09-2.8-1-2.57c-.82-4.25 1.34-7.42 3.55-10.94l1.2-1.9c.62-1 .62-1 1.27-2.01l1.35-2.14c17.23-27.15 36.3-52.89 58.28-76.4 3.4-3.64 6.67-7.4 9.93-11.16 1.94-1.93 1.94-1.93 4.07-2.95 2-.81 2-.81 2.73-2.76 1.73-3.36 4.59-5.42 7.45-7.78l5.82-4.86a254 254 0 0 0 5.02-4.35c8.4-7.4 17.46-13.61 26.75-19.82q3.96-2.68 7.85-5.47a99 99 0 0 1 9.29-5.85c2.6-1.44 5.15-2.96 7.71-4.47a432 432 0 0 1 14.26-8q3.38-1.83 6.7-3.77c10.8-6.2 17.18-7.53 29.08-3.26M646.82 731.9l2.37.01 2.37.03 2.48.01 5.96.05.33 1.83a981 981 0 0 0 10.08 47.78l.52 2.22.98 4.16A34 34 0 0 1 673 796c-4.8-1.71-8.43-4.34-12.5-7.34-4.97-3.3-9.55-4.44-15.5-3.66-2.42.85-4.66 1.92-7 3-4.34 0-5.64-.67-9.25-2.87l-2.7-1.62L624 782v-2l-2.07-.7c-3.59-1.59-6.63-3.73-9.8-5.99-15.16-10.57-30.54-20.71-46.74-29.63l-2.5-1.39-2.21-1.2C559 740 559 740 558 738c5.82-.93 11.6-1.36 17.48-1.72l3.06-.19 15.98-.98c10.61-.66 21.22-1.29 31.84-1.74 4.58-.21 9.1-.62 13.65-1.16q3.4-.35 6.8-.3"/><path fill="#fafafb" d="M912 608q4.22-.07 8.45-.03 3.52.03 7.04-.06c12.42.1 19.15 6.6 27.51 15.09l2.18 1.88c6.57 5.9 8.75 11.15 10.63 19.68l.85 3.48q1.2 4.98 2.34 9.96l1.7 6.9 1.28 5.24a217 217 0 0 0 2.89 9.82 340 340 0 0 1 5.57 20.73c2.27 9.36 4.55 18.72 7.37 27.93a193 193 0 0 1 4.51 18.25c.6 2.76 1.32 5.39 2.18 8.07 1.68 5.3 2.66 10.7 3.66 16.15.63 2.95 1.36 5.7 2.25 8.56a228 228 0 0 1 4.59 18.48l.8 3.6c3.43 15.76 6.52 31.06 6.2 47.27-2.8-1.4-3.31-3.18-4.75-5.94-9.23-17.3-21.38-35.67-36.81-48.06l-2.44-2v-2l-1.94-.81C966 789 966 789 965 786c3.26.62 5.37 1.77 8.06 3.69 3.48 2.4 7.02 4.51 10.75 6.52l2.96 1.6L989 799c-2.9-21.4-7.56-41.86-13.67-62.55-2.72-9.44-4.8-19.02-6.88-28.62A233 233 0 0 0 963 687a493 493 0 0 1-6-22 429 429 0 0 0-6-22l-.7-2.33c-4.1-12.16-13.17-21.25-24.42-27.1A58 58 0 0 0 912 609z"/><path fill="#646565" d="m1002 197-.94 4.25-.52 2.4q-.73 3.18-1.54 6.35l2.55.15 3.33.22 3.3.22c2.82.41 2.82.41 4.82 2.41l-6 11 11 2c-.87 3.5-1.8 5.69-3.56 8.75l-1.38 2.42L1012 239l1.8.15 2.39.22 2.35.22c2.46.41 2.46.41 7.46 2.41l-6 13 9 2c0 4.96-1.35 8.33-3 13l10 2c1.44 5.76-.66 8.61-3 14l10 3a36 36 0 0 1-4 11c2.66 2.18 4.66 3.28 8 4l-.68 7.52C1046 314 1046 314 1045 317l2.69.38c3.01.56 5.51 1.39 8.31 2.62v2l-9.75 5.44-2.79 1.56-2.7 1.5-2.47 1.38c-2.11 1.03-4 1.66-6.29 2.12l-1.34-2.7-2.88-5.7c-3.54-7.01-6.95-14.08-10.34-21.16l-1.4-2.9a895 895 0 0 1-7.88-16.97 865 865 0 0 0-5.03-10.88l-1.03-2.18a534 534 0 0 0-6.91-14.07 80 80 0 0 1-4.63-10.38c-1.63-4.74-4.18-9.03-6.58-13.41a106 106 0 0 1-6.17-13.56c-.87-2.36-.87-2.36-2.62-5.53C974 212 974 212 975 209c1.56-1.01 1.56-1.01 3.57-1.9l2.22-1.01 2.34-1.03 4.5-2.02 2.23-1c2.07-1 4.03-2.11 6-3.3C999 197 999 197 1002 197"/><path fill="#f5b370" d="M739 428c1.22 3.67.74 6.62.26 10.37l-.27 2.18-.57 4.56a1406 1406 0 0 0-1.41 11.39l-.26 2.1c-1.14 8.93-1.14 8.93-4.74 11.73q-1.93 1.26-3.88 2.48l-2.07 1.34L720 478l-2.98 1.9-5.3 3.35c-4.08 2.63-8.05 5.4-12.02 8.18q-4.05 2.81-8.12 5.58C671 510.99 671 510.99 651.3 526.17a188 188 0 0 1-7.91 5.9A132 132 0 0 0 614 561c-2.86-2.7-5-5.33-7.02-8.7l-1.6-2.66-1.63-2.76-1.68-2.79C598 537.26 598 537.26 598 535h-2c-1.5-2.12-1.5-2.12-3.12-4.87l-1.64-2.75C590 525 590 525 590 523l2.29-.6A276 276 0 0 0 641 504q2.21-.98 4.44-1.94c6.98-3.08 13.76-6.59 20.56-10.06l2.06-1.05c15.92-8.15 31.86-16.87 45.94-27.95l1.93-1.43c10.56-8.28 17.34-21.68 23.07-33.57"/><path fill="#afafaf" d="M562 879c4.12-.7 8.32-.5 12.5-.5l3.48-.09c7.99-.01 13.23 1.47 20.02 5.59l4.96 2.72 7.45 4.17a193 193 0 0 0 30.28 13.42l2.97 1.09c5.7 2 10.3 3.02 16.34 2.6-2.65 8.92-5.72 17.84-13 24l-1.8 1.6c-4.3 2.73-9.31 2.05-14.2 1.4a37 37 0 0 1-9-5l-1.91-1.32q-3.1-2.26-6.09-4.68l-1.52-1.21-4.98-4.04-1.64-1.32A92 92 0 0 1 602 914v-2l-1.75-.77c-2.5-1.37-4.25-2.95-6.31-4.92-8.36-7.54-17.46-12.34-27.94-16.31l1.53 2.48 1.97 3.27 1.97 3.23C573 902 573 902 573 906l-16.35 7.72C531.19 925.77 531.19 925.77 523 924a30 30 0 0 1-8-5v-2l-1.75-.69c-2.81-1.64-4.28-3.75-6.25-6.31l3.18-.55c20.62-3.65 36.35-10.7 49.82-27.45z"/><path fill="#7c7c7d" d="M881 383c5.17 1.46 7.86 4.63 11.31 8.5l1.67 1.8c4.02 4.43 4.02 4.43 4.02 6.7h2c1.25 1.59 1.25 1.59 2.64 3.8l1.56 2.47 1.61 2.6 1.58 2.5c5.13 8.2 9.64 16.41 12.24 25.75l.62 2.17c2.08 7.49 3.45 15.06 4.75 22.71l.53 2.19c.62 3.73.6 7.4.57 11.17l-.05 15.09L926 503l-2.17.95-9.83 4.3-3.41 1.49a292 292 0 0 0-15.64 7.29c-4.76 2.37-9.67 4.46-14.53 6.61l-2.54 1.14-2.49 1.1a142 142 0 0 0-6.83 3.46C865 531 865 531 862 530l-1.5-12-.43-3.41A115 115 0 0 1 859 497l2.79-.6c15.45-3.64 28.58-10.34 37.4-24.09 7.34-13.17 10.1-24.63 6.12-39.43a174 174 0 0 0-20.86-43.65A53 53 0 0 1 881 383"/><path fill="#fcfcfc" d="m442 570-1.47 1.8a354 354 0 0 0-12.48 16.36 426 426 0 0 1-4.93 6.66c-3.06 4.07-6 8.2-8.93 12.37l-1.58 2.24-5.87 8.37a949 949 0 0 0-12.87 18.89q-4.38 6.63-8.87 13.18l-1.62 2.37C382 654 382 654 380 655q-2.22-.17-4.44-.37c-11.5-.04-21.39 11.07-29.87 18-4.74 3.85-9.56 7.6-14.56 11.12-3 2-3 2-4.7 3.9C325 689 325 689 323 689c-2.62-23.17-4.58-46.67-4-70 7.7-3.67 15.47-7.05 23.4-10.18a1352 1352 0 0 0 41.91-17.26 976 976 0 0 1 29.86-12.22l3.64-1.45 3.57-1.41a257 257 0 0 0 9.47-4.07l5.3-2.4C439 569 439 569 442 570m-44.29 31.83-2.2.93-4.7 2q-4.9 2.11-9.83 4.18l-4.95 2.1a954 954 0 0 1-20.72 8.46q-14.2 5.64-28.31 11.5c-.22 9.51 0 18.9.88 28.38l.23 2.75.26 2.58.22 2.3c.34 2.3.34 2.3 2.41 4.99l1.35-1.05q6.68-5.17 13.43-10.26 2.89-2.21 5.75-4.45c5.62-4.2 9.79-6.58 16.78-7.62 5.23-.9 7.6-1.8 10.75-6.12q1.43-2.3 2.82-4.64c2.28-3.78 4.86-7.36 7.37-10.99l3.34-4.9c5.05-7.38 10.23-14.68 15.41-21.97-4.1-1.37-6.52.2-10.29 1.83"/><path fill="#f3fce0" d="M228.33 573.78A22 22 0 0 1 234 580c-1.71 6.46-6.62 9.55-12.02 12.84-10.02 5.69-20.67 9.9-31.36 14.13l-7.8 3.11C126.68 632.54 126.68 632.54 110 632c-.47-8.42.47-14.97 5-22.19 3.81-4.13 9.04-6.34 14-8.81l2.96-1.54A279 279 0 0 1 153 590l16.51-6.85c43.1-17.87 43.1-17.87 58.82-9.37"/><path fill="#e5e5e5" d="M779.87 484.62C782 486 782 486 783 489h-2l-.64 1.63c-1.86 3.25-4.42 5.67-7.07 8.27l-1.7 1.7-5.4 5.34-10.27 10.17a314 314 0 0 0-15.42 16.37c-2.5 2.52-2.5 2.52-4.9 3.94a33 33 0 0 0-6.56 5.31l-2.18 2.19-2.24 2.27-2.2 2.21a197 197 0 0 0-9.81 10.5c-4.4 5.1-9.2 9.76-13.99 14.48l-5.4 5.33-2.38 2.35c-1.9 1.81-1.9 1.81-2.84 3.94h-2l-.73 1.66c-1.57 2.89-3.5 5.24-5.58 7.78l-2.3 2.8A127 127 0 0 1 670 605l-.4-3.18-.8-6.22c-.4-3-.84-5.72-1.8-8.6-1.36-14.84 5.1-23 14-34l2.4-3.03c6.06-7.54 12.2-14.08 19.91-19.9q3.05-2.35 6-4.8c16-13.17 33.54-23.35 51.69-33.27l2.5-1.38a430 430 0 0 1 6.63-3.56l1.91-1.05c2.96-1.52 4.53-2.1 7.83-1.39"/><path fill="#b0b0b1" d="M464 577c1.23 3.7.61 5.03-.51 8.72l-1.05 3.58-2.2 7.25c-5.24 18-7.57 36.17-7.53 54.9v2.11q.01 9.71.18 19.42.08 5.4.06 10.79.01 2.98.12 5.97c-.04 6.92-.65 10.63-5.63 15.65A99 99 0 0 1 443 709a159 159 0 0 1-10.87-11.87c-9.58-11.24-20.2-20.41-32.13-29.13a133 133 0 0 1 9.94-15.25 645 645 0 0 0 13.75-19.56q6.69-9.88 14.03-19.27c6.33-8.11 12.58-16.49 17.72-25.42 2.54-4.06 5.58-7.75 8.56-11.5"/><path fill="#ea9057" d="M335 765c5.37 5.18 9.62 10.98 14 17l1.22 1.68c28.1 38.62 28.1 38.62 31.17 57.29 1.1 5.47 2.88 10.74 4.61 16.03l-5.25 2.69-2.95 1.5c-9.77 4.76-19.97 8.37-30.24 11.87l-3.7 1.28C321.53 882 321.53 882 317 882c1.78-4.65 3.88-9.13 6-13.62l1.08-2.32 1.05-2.22.94-2.02C327 860 327 860 329 857h2l.36-2.66a38 38 0 0 1 2.89-8.78c2.04-4.75 3.86-9.53 5.5-14.43l1.23-3.68c5.76-19.55 3.6-42.65-5.98-60.45z"/><path fill="#e5e5e5" d="M245 457q2.43.96 4.8 2.05l2.4 1.1 1.8.85q.14 12.33.2 24.67l.1 11.46q.07 5.54.08 11.07 0 2.1.04 4.2c.14 8.95-.11 14.44-5.93 21.4-7.36 5.9-17.1 6.88-26.22 5.91-4-.77-6.68-1.38-9.27-4.71-.23-3.12-.3-5.87.5-8.9 2.81-11.8 1.22-26.33-2.16-37.83-1.12-3.82-1.8-6.5-.34-10.27 3.26-4.05 7.14-7.52 11-11l1.63-1.48c6.58-5.85 12.14-10.62 21.37-8.52m281 56c3.17.74 6.1 1.82 9.13 3.02a85 85 0 0 0 21.65 5.27c13.9 1.65 13.9 1.65 18.13 5.05a23 23 0 0 1 2.75 5.42c1.63 3.93 3.9 7 6.38 10.45 3.44 4.9 6.56 10.01 9.71 15.1L601 569l1.72 2.7c1.28 2.3 1.28 2.3 1.1 4.55C603 578 603 578 601 579q-2.64-1.31-5.27-2.7c-6.04-2.89-12.44-5.01-18.73-7.3l-2.99-1.1c-7.32-2.68-14.67-5.28-22.01-7.9 1.52-3.88 3.86-5.74 7.13-8.25l2.75-2.14L564 548c-19.4.74-33.65 12.06-48.32 23.75C514 573 514 573 513 573c-.52-21.73 2.9-40.6 13-60"/><path fill="#fcd8a6" d="M293 635q3.5-.06 7 0c1.87 1.87 1.44 5.01 1.65 7.52l.17 2.06.37 4.45.58 7.11 1.6 19.4c3.06 52.06 3.06 52.06 16.68 101.95 7.48 19.75.65 47.4-6.05 66.51l-1.33 4.04c-3.43 10.48-3.43 10.48-4.67 12.96-8.72-2.9-15.23-19.26-20-27 4.08 0 5.8 1.7 9.13 4 3.17 2.6 3.17 2.6 6.87 4a157 157 0 0 0-1-70l-1.02-4.57a292 292 0 0 0-5.04-19.5c-4.54-15.52-6.13-30.98-6.06-47.12v-3.88c.07-20.65.64-41.3 1.12-61.93"/><path fill="#446ecd" d="M709 73c3.9 1.38 6.84 3.19 10.13 5.69a136 136 0 0 0 11.06 7.5c7.15 4.46 13.54 9.9 20 15.3q1.8 1.5 3.62 2.95 2.14 1.73 4.19 3.56v2l3 1a99 99 0 0 1 5.25 6.19l1.47 1.88c9.43 12.41 12.5 23.45 12.53 38.93v2.05c.02 14.9.03 31.45-3.76 45.9-.66 2.78-.82 5.5-1.03 8.35l-.26 3.65-.26 3.8-.28 3.85-.66 9.4-2-1c-.56-2.52-.56-2.52-1-5.81q-.26-1.76-.5-3.58L770 221c-1-7.33-2.46-13.92-5.2-20.82-.8-2.18-.8-2.18-.8-4.18h-2c-9.03-10.92-12.16-23.16-12.44-37-.8-24.92-2.45-47.4-20.56-66a210 210 0 0 0-6.16-5.41c-2.4-2.08-4.6-4.35-6.84-6.59a338 338 0 0 0-5.64-4.67L709 75z"/><path fill="#f9d5a5" d="m511 257-1.1 1.58c-3.83 6.09-5.15 11.26-3.9 18.42a26 26 0 0 0 4 6v2c-3.91 1.3-7.44 1.08-11.53 1.03L496 286l.07 1.98c.14 7.24-.7 13.98-2 21.08-3.72 20.6-5.83 42.26.24 62.6a365 365 0 0 1 7.76 32.03l2.25 11.18.45 2.18a468 468 0 0 0 4.4 19.35 183 183 0 0 1 1.75 8.62c1.24 6.91 2.55 13.8 4.02 20.67l.7 3.84c1.52 6.9 3 10.9 8.8 15.17q2.74 1.71 5.56 3.3l2.74 1.68C552.5 501.65 575.5 503.43 598 505c-4.94 4.94-15 4.28-21.64 4.38-16.48-.03-30.16-2.84-45.36-9.38l-4.18-1.5-4.32-1.75-2.03-.67c-3.82-1.67-5.2-3.46-6.85-7.3A163 163 0 0 1 510 475l-.67-2.8c-1.72-7.2-3.34-14.42-4.95-21.64l-3.5-15.54a203 203 0 0 0-4.25-15.93 55 55 0 0 1-1.63-7.34q-1.02-6-2.31-11.94-3.12-14.37-6.06-28.78a667 667 0 0 0-1.84-8.5 124 124 0 0 1 4.34-68.73 46 46 0 0 0 2.56-15.11c.41-14.5.41-14.5 3.06-18 5.27-3.95 9.89-3.94 16.25-3.69"/><path fill="#fafbfb" d="M852 542a28 28 0 0 1 2 4l-2.06.81c-24.38 9.86-47.07 23.44-67.75 39.64C782 588 782 588 780 588v2c-1.64 1.47-1.64 1.47-3.81 3.06l-2.15 1.6C772 596 772 596 769 597v2c-1.58 1.38-1.58 1.38-3.81 3-4.96 3.72-9.4 7.81-13.9 12.06C749 616 749 616 747 616l-1 3h-2v2c-1.3 1.27-1.3 1.27-3.19 2.81a199 199 0 0 0-22.81 22.9c-2.9 3.3-5.92 6.47-8.94 9.66a182 182 0 0 0-13.6 15.97L694 674h-2l-.74 1.71c-1.49 2.7-3.28 4.66-5.38 6.91a245 245 0 0 0-14.86 18l-1.9 2.5-1.67 2.26L666 707h-2l-.81 1.81c-1.26 2.32-2.05 3.64-4.19 5.19-5.9 1.08-11.86 1.39-17.84 1.75l-3.15.2-6.6.4-9.93.63c-11.5.72-22.94 1.24-34.48 1.02v-1l3.3-.5 17.68-2.71c9.27-1.42 18.54-2.85 27.8-4.4q1.05-.16 2.15-.35c12.64-1.43 12.64-1.43 23.34-7.24A78 78 0 0 0 666 694q1.4-2 2.88-3.94l1.47-1.94a341 341 0 0 1 17.31-20.54q2.84-3.15 5.63-6.36c4.37-5.02 8.96-9.83 13.54-14.66l1.94-2.05 1.74-1.83c1.68-1.82 1.68-1.82 3.49-4.68h2l1-3h2l.75-1.73c1.46-2.65 3.18-4.46 5.31-6.6l2.42-2.42 2.52-2.5 2.52-2.55 2.42-2.4 2.21-2.21C739 613 739 613 741 613l1-3h2l.7-1.71c1.65-2.9 3.72-4.66 6.24-6.85 3.47-3 3.47-3 6.75-6.22C759 594 759 594 761 594l1-3c2.15-2.02 2.15-2.02 4.94-4.25l2.71-2.2c7.61-5.9 15.6-11.03 23.91-15.86l5.83-3.4 2.88-1.69a775 775 0 0 0 7.37-4.38 323 323 0 0 1 20.92-11.66l1.91-.96c13.63-6.7 13.63-6.7 19.53-4.6"/><path fill="#b1b1b2" d="M546 569c5.3-.45 8.97 1.03 13.56 3.44l2.1 1.07c6.86 3.6 13.12 7.88 19.34 12.49l2.36 1.64L585 589v2l3 1c3.08 1.82 4.72 3.64 6 7-.51 5.03-1.9 9.7-3.32 14.54-1.19 4.3-2.04 8.66-2.93 13.02l-1.02 4.88L586 635h-1l-.56-2.62c-2.43-5.7-6.54-8.35-11.88-11.25-10.19-3.32-22.15-1.88-31.56 2.87a163 163 0 0 0-10 6c1.22-8.8 2.88-17.38 5-26l.98-4.06c1.54-6.35 3.12-12.66 5.3-18.83 1.37-4 2.53-8.06 3.72-12.11"/><path fill="#5d91fb" d="M597 125c10.53 1.55 20.3 5.78 30 10l2.04.88A345 345 0 0 1 660 151l2.37 1.26a251 251 0 0 1 31.34 20.05 98 98 0 0 0 5.98 4.06L702 178v2l1.66.7c3.01 1.68 5.26 3.82 7.78 6.18 2.68 2.5 5.32 4.93 8.2 7.2a42 42 0 0 1 5.8 5.73l1.78 2.08L729 204l3.44 4 2.56 3a32 32 0 0 1-8.75 3.18l-2.82.62-3 .64-3.09.66c-16.77 3.53-33.42 6.08-50.59 6.09l-3.18.03c-10.67.02-16.93-2.8-24.58-10.15q-2-2.01-3.96-4.05a118 118 0 0 0-8.46-7.48C625 199 625 199 624 196h-2v-2c4.77 1.4 8.87 3.48 13.13 6l6.87 4 1.91 1.23c3.37 1.24 6.8 1.06 10.34 1.02l2.4-.02c7.9-.12 15.56-1.02 23.35-2.23l3.16-.44c6.68-1.03 12.91-2.63 17.84-7.56.75-4.26.9-6.59-1.44-10.28-8.18-9.64-19.42-15.57-30.1-22.02a403 403 0 0 1-7.95-4.9c-8.23-5.21-16.74-9.59-25.51-13.8l-2.93-1.4-12.95-6.22Q608.49 131.82 597 126z"/><path fill="#13293c" d="M970 241c1.68 3.75 3.19 7.46 4.44 11.38a85 85 0 0 0 3.32 8.68l1.07 2.37 6.54 14.26a800 800 0 0 1 10.37 23.36q1.81 4.22 3.76 8.39c2.55 5.55 4.8 11.2 7.04 16.88q1.89 4.75 3.9 9.43a344 344 0 0 1 13.9 39.96q1.09 3.75 2.23 7.5c5.6 18.62 11.77 43.69 3.24 62.4-3.87 6.95-8.85 13.7-16.31 16.89l-2.5.5 1.2-1.36c10.5-11.98 12.6-24.14 12-39.9a202 202 0 0 0-2.01-16.24l-.5-3.33a87 87 0 0 0-3.92-15.87 85 85 0 0 1-2.1-7.82c-1.93-7.91-4.68-15.5-7.42-23.17l-.8-2.27a464 464 0 0 0-16.13-40.1 385 385 0 0 1-5.73-13.75c-2.39-5.9-5.2-11.5-8.12-17.14a174 174 0 0 1-8.37-19.11A187 187 0 0 0 965 253a254 254 0 0 0-21.83 9.66l-11.55 5.61q-8.92 4.34-17.87 8.6l-2.8 1.35q-6.48 3.09-12.97 6.13l-2.37 1.1q-2.14 1.01-4.3 2a81 81 0 0 0-7.96 4.16 35 35 0 0 1-7.29 3.14 102 102 0 0 0-15.38 7.05q-2.3 1.18-4.68 2.2l-3-1c17.93-9.5 17.93-9.5 25.81-13.37 7.88-3.91 15.57-8.16 23.28-12.4q7.41-4.05 14.84-8.05 13.71-7.37 27.26-15.06c12.87-7.3 12.87-7.3 18.62-10.43l2.96-1.62C968 241 968 241 970 241"/><path fill="#223c87" d="M694 962c20.07 1.67 40.07 9.4 59 16l2.82.95c2.53 1.22 3.54 2.34 5.18 4.61l1.8 2.45L765 989l6.06 7.94 1.66 2.18q4.54 5.94 9.16 11.84l1.93 2.46 3.7 4.7 1.69 2.15 1.5 1.9a36 36 0 0 1 3.3 5.83 74 74 0 0 1-12.81-5.44c-8.31-4.26-16.84-8-25.4-11.7a260 260 0 0 1-14.94-6.94c-3.18-1.58-6.46-2.96-9.73-4.36a262 262 0 0 1-15.69-7.31q-2.7-1.4-5.42-2.71a376 376 0 0 1-6.16-3.1q-2.66-1.35-5.39-2.55c-2.28-1.11-3.81-1.95-5.46-3.89-.78-3.76-.48-7.2 0-11l.25-2.27q.32-2.37.75-4.73"/><path fill="#fcd8a7" d="M712 934c2.03-.4 2.03-.4 4.5-.37l2.4-.03c13.57 1.75 28.96 7.84 40.96 14.29 3.1 1.61 6.34 2.82 9.6 4.09 2.59 1.04 5.08 2.2 7.6 3.4A146 146 0 0 0 815 967l3.53.59c10.78 1.61 21.6 2.02 32.47 2.41l-1.28-2.7-1.66-3.55-1.65-3.52A33 33 0 0 1 844 953c5.51 3.94 10.68 8.2 15.81 12.63l2 1.7c3.1 2.69 5.92 5.21 8.19 8.67-27.7 6.13-62.37 11.47-88-3-12.55-6.8-25.43-11.59-39-16l-2.25-.74c-11.49-3.74-23.12-6.99-34.75-10.26l1.88-4.31 1.05-2.43C710 937 710 937 712 934"/><path fill="#f1fbfb" d="M507 683c10.96 5.26 15.25 18.29 19.75 28.75l1.46 3.32c2.14 4.93 4.14 9.8 5.79 14.93l-2.61.16c-13.54 1.7-23.19 9.51-33.17 18.43A69 69 0 0 1 494 752l-3-1c-7.48-15.96-10.3-35.3-4.27-52.16 3.84-8.6 9.41-18.4 20.27-15.84"/><path fill="#c9caca" d="m198.25 485.88 2.26.02 5.49.1c1.79 8.97 3.55 17.85 4 27l.16 2.94c.17 5.4.13 8.56-3.16 13.06-6.05 5.66-13.1 10.42-20 15l-2.4 1.67c-4.92 2.52-10.23 2.03-15.6 1.33-3.66-1.42-7.2-3.2-10-6a20 20 0 0 1 0-9c1.72-2.5 3.6-4.54 5.76-6.66 6.43-6.72 9.16-13.89 12.11-22.6 2.3-6.45 5.02-12.26 11.07-15.91 3.34-1.34 6.78-1.04 10.31-.95"/><path fill="#cacacb" d="M693 75c16.48 14.93 20.54 33.66 22 55 .29 7.54.2 15.08.13 22.63l-.03 5.96q-.03 7.2-.1 14.41c-4.34-1.61-7.13-3.62-10.62-6.69A125 125 0 0 0 687 154l-6.44-4a544 544 0 0 0-16.4-9.65q-1.05-.68-2.16-1.35v-1l2.53-.66c12.56-3.54 22.87-9.7 29.47-21.34 2.81-6.65 3.47-12.85 3-20l-.13-2.31a49 49 0 0 0-3.25-13.74C693 78 693 78 693 75"/><path fill="#c8c9c9" d="M302 426c10.15 1.31 19.34 7.92 28 13a46 46 0 0 1-9.25 3.63l-2.7.78-2.05.59v-8c-3.03 3.03-2.32 6.53-2.34 10.6l-.05 2.64-.11 8.38c-.5 42.79-.5 42.79-9.5 55.38-10.13 8.1-21.32 12.18-34.19 12.19l-2.2.03A81 81 0 0 1 262 525c-2-2-2-2-2.2-3.95l.2-6.05 2.75-.11c12.77-.5 12.77-.5 23.25-6.89h2c3.72-10.9 5.1-20.5 5.44-31.94A240 240 0 0 1 296 447l.34-2.25q.53-3.5 1.1-7l.33-2.17c.68-3.93 1.5-6.63 4.23-9.58"/><path fill="#223c86" d="m522 580 2 1-2.05 7.03a100 100 0 0 1-2.33 6.45c-2.26 5.96-3.66 12.15-5.18 18.33l-.92 3.66a199 199 0 0 0-5.64 36.22L507 666l-2.24.33c-10.07 1.63-15.46 5.2-21.51 13.48A115 115 0 0 0 475 695c-1.1-3.29-.9-4.33-.14-7.61l.63-2.79.7-2.91.63-2.79q1.85-7.92 4.17-15.7a232 232 0 0 0 5.01-21.95l.77-4.04a616 616 0 0 0 4.85-29.48A176 176 0 0 1 496 587c2.75 2.75 2.82 5.15 3.56 8.94 1.01 5.08 1.01 5.08 2.44 10.06l1.25-1.84A316 316 0 0 1 522 580"/><path fill="#f2cb2e" d="M248.69 567.13c4.3 3.48 7.68 7.01 8.9 12.56.34 5.96-.7 10.05-4.67 14.55-7.56 6.92-17.65 10.45-26.92 14.51a202 202 0 0 0-9.91 4.71 291 291 0 0 1-16.47 7.54l-3.08 1.33L188 626l-3.53 1.51C152.52 641 152.52 641 144 641v2a85 85 0 0 1-19.44 2.25l-2.08.03c-6.63-.04-6.63-.04-9.48-2.28q-1.06-2.48-2-5l1.9-.35A457 457 0 0 0 161 626l2.14-.62c17.41-5.09 33.9-13.42 50.24-21.2l2.75-1.3c14.26-5.8 14.26-5.8 24.87-15.88q.14-2.2.13-4.37v-2.34c-.13-2.32-.26-4.14-1.13-6.29-1.77-1.22-1.77-1.22-4-2l-2.44-1-2.56-1a92 92 0 0 1-9-4c9.14-3.05 17.79-2.6 26.69 1.13"/><path fill="#fbfcfc" d="M955 806c8.13 1.34 13.46 12.1 18.12 18.23q3.16 4.15 6.39 8.26c11.51 14.7 11.51 14.7 15.96 21.47 1.54 2.18 1.54 2.18 3.87 4.26 3.36 3.5 5.73 7.31 8.22 11.47l1.47 2.42c8.76 14.74 8.76 14.74 7.97 21.89-1.25 1.77-1.25 1.77-3 3.38l-1.95 1.8L1010 901l-1.9 1.69q-1.94 1.72-3.92 3.42a478 478 0 0 0-7.3 6.51A286 286 0 0 1 986 922c-3.78-1.51-5.69-3.71-8.19-6.87l-2.1-2.62c-2.68-3.94-2.68-3.94-2.71-6.51 1.55-2.09 1.55-2.09 3.88-4.37a82 82 0 0 0 10.06-13l1.14-1.8q1.49-2.4 2.92-4.83l1.25-1.98c1.62-4.38 1.15-8.05-.6-12.3l-1.84-3.22-1.94-3.43a102 102 0 0 0-5.65-8.32 62 62 0 0 1-3.78-6.44c-6.77-12.68-14.5-24.88-22.11-37.07C955 807 955 807 955 806"/><path fill="#e99157" d="M510 316a41 41 0 0 1 3.25 8.19c3.04 9.19 8.95 16.17 16.75 21.81 6.74 3.05 15.9 3.12 23 1l1-8-2.13 1.48c-5.19 2.75-11.62 2.47-17.2.84-1.92-.82-1.92-.82-4.67-2.32 2.66-2.66 4.63-2.61 8.31-3.25A57 57 0 0 0 552.7 331c13.2-6.35 24.86-6.37 39.31-6l-5-7c6.5 1.08 10.56 2 15 7 1.19 3.5 1.19 3.5 1 7-2.95 4.09-6.48 5.86-10.92 7.91a33 33 0 0 0-5.7 3.9c-12.6 9.75-28.47 14.96-44.38 14.01-12.6-1.61-22.32-7.74-31-16.82-5-7.51-2.56-16.67-1-25"/><path fill="#b1b1b1" d="m853 997-6 63c-3.33-1.1-3.84-1.75-5.86-4.46l-1.62-2.16-1.7-2.32-3.55-4.72-1.73-2.3q-2.65-3.5-5.48-6.85c-9.65-11.97-18.27-24.94-26.06-38.19 3.96-1.31 7.94-1.1 12.05-1.06h2.37l9.97.08 7.29.04 2.25.03c6.11.03 11.96-1.24 18.07-1.09"/><path fill="#112740" d="M662.93 257.23c3.17 2.68 5.49 5.82 7.76 9.27l1.14 1.68C678 277.34 678 277.34 678 280h-8l-1.07-2.12c-4.13-7.94-8.58-15.83-16.93-19.88l-1 1 1.5 2.31c2.04 5 2.34 9.35 1.5 14.69a29 29 0 0 1-6 9c-5.53.96-11.22 1.13-16.81 1.31l-3.21.12c-3.72-.54-5.3-1.85-7.98-4.43-3.7-5.23-3.84-10.81-3-17a22 22 0 0 1 5-8 26 26 0 0 0-17.09 8.19c-2.68 3.95-4.08 8.14-5.62 12.63-.73 1.98-.73 1.98-2.29 5.18-2.19.95-2.19.95-4 1-.73-9.81 2.81-17.43 9-24.96 15.55-15.9 43.85-14.78 60.93-1.81"/><path fill="#e2e2e3" d="M636 378c1.31 3.93 2.2 7.98 1 12-10.96 13.12-37.09 16.28-53.04 17.8-5.57.38-11.15.42-16.73.44q-3.15.02-6.29.07c-9.5.08-17.91-1.3-26.94-4.31-1.48-3.5-1.02-7.27-1-11l3.89.05q7.3.08 14.61.11l6.26.07c14.37.17 28.08-.75 42.24-3.23l2.24-.38C612.64 387.86 626.82 378 636 378"/><path fill="#0d243d" d="M593.55 205.74c16.53-.78 16.53-.78 22.33 3.63 1.92 1.9 1.92 1.9 3.12 3.63v2l2.22.79a29 29 0 0 1 7.22 4.59 97 97 0 0 0 8.12 6L639 228v1l-2.22.06c-16.5.34-16.5.34-32.9 2-7.03 1-13.98 1.2-21.07 1.25l-3.3.06h-5.9c-3.19-.45-5.06-1.43-7.61-3.37-1.51-6.67 1.13-13.33 4.53-19.1 2.47-2.9 2.47-2.9 5.5-4.02 3.25-.23 6.36-.2 9.6.02 2.67.11 5.26-.01 7.92-.16"/><path fill="#afafaf" d="M546.87 804.05c1.7 1.08 1.7 1.08 4.13 2.95v1l-2.09.52-2.85.73-2.77.7c-7.38 2.35-14.18 5.91-20.91 9.67l-2.35 1.3a215 215 0 0 0-15.1 9.4l-1.86 1.26-1.8 1.21a185 185 0 0 1-8.27 5.34l-1.87 1.13c-3.28 1.14-5.68 1.14-9.13.74a39 39 0 0 1-6.94-5l-1.78-1.45A322 322 0 0 1 469 830c19.97-16.4 51.31-40.92 77.87-25.95"/><path fill="#c7c7c8" d="m239.56 456.69 2.44-.12c2.98.43 4.98 1.22 7.69 2.46l2.45 1.11 1.86.86q.14 12.33.2 24.67l.1 11.46q.07 5.54.08 11.07 0 2.1.04 4.2c.14 8.95-.11 14.44-5.93 21.4-7.36 5.9-17.1 6.88-26.22 5.91-4-.77-6.67-1.39-9.27-4.71v-3l3.62-.33C228.6 530.6 228.6 530.6 240 527c3.35-5.03 2.34-10.98 2.31-16.87v-2.05c.55-26.63.55-26.63-9.31-50.08 2.36-1.18 3.93-1.23 6.56-1.31"/><path fill="#fbfbfb" d="M382 668a55 55 0 0 1 6.5 5.06q.84.75 1.72 1.5a97 97 0 0 1 10.25 10.62 67 67 0 0 0 4.9 5.13c3.78 3.71 7.04 7.79 10.36 11.92a178 178 0 0 0 6.58 7.52A50 50 0 0 1 430 721l-3 2-4.5-3.87-2.53-2.18L418 715v-2l-1.76-.78a27 27 0 0 1-6.1-4.7l-2.2-2.09-2.25-2.18c-6.2-5.94-6.2-5.94-12.54-11.72l-1.62-1.44c-1.66-1.33-1.66-1.33-4.65-1.78-8.61 1.53-16.59 5.16-23.98 9.77-1.9.92-1.9.92-5.9.92-2.18-2.05-2.18-2.05-4.31-4.75l-2.18-2.67c-1.51-2.58-1.51-2.58-1.5-4.72 1.32-2.47 2.76-3.4 5.12-4.92 3.31-2.18 6.51-4.41 9.62-6.87l1.97-1.54q1.94-1.5 3.84-3.06c4.37-3.36 6.92-4.28 12.44-2.47"/><path fill="#fafafa" d="M777 484c2.44.81 2.44.81 5 2l1 3h-2l-.64 1.63c-1.86 3.25-4.42 5.67-7.07 8.27l-1.7 1.7-5.4 5.34-10.27 10.17a314 314 0 0 0-15.42 16.37c-2.5 2.52-2.5 2.52-4.9 3.94a33 33 0 0 0-6.56 5.31l-2.18 2.19-2.24 2.27-2.2 2.21a197 197 0 0 0-9.81 10.5c-4.4 5.1-9.2 9.76-13.99 14.48l-5.4 5.33-2.38 2.35c-1.9 1.81-1.9 1.81-2.84 3.94h-2l-.72 1.64c-1.62 2.98-3.6 5.47-5.72 8.11l-2.37 2.98L675 600h-3c3.38-11.4 8.07-19.64 16.28-28.14 1.9-2 3.67-3.97 5.42-6.1 2.3-2.76 2.3-2.76 4.67-4.63a41 41 0 0 0 5.78-5.73 260 260 0 0 1 12.1-12.9l2.14-2.2 2.06-2.08 1.85-1.88C724 535 724 535 727 535l1-3h2l1-3c1.67-1.61 1.67-1.61 3.75-3.31a52 52 0 0 0 6.75-6.69 43 43 0 0 1 5.84-5.88c6.2-5.36 11.9-11.24 17.66-17.06z"/><path fill="#e99057" d="M724 340c3.61 4.3 6.6 8.9 9.63 13.63l4.2 6.55q1.56 2.43 3.17 4.82c1.91 26.9-10.66 59.82-27.8 80.46L711 448c-1.59-4-.32-6.68 1.06-10.62A221 221 0 0 0 723 383l.33-4.03c.99-12.97.77-25.98.67-38.97"/><path fill="#b0b0b1" d="M565 524h7c1.97 2.05 1.97 2.05 3.5 4.88 2.08 3.72 4.26 7.26 6.73 10.73a344 344 0 0 1 11.52 17.7L601 569l1.72 2.7c1.28 2.3 1.28 2.3 1.1 4.55C603 578 603 578 601 579q-2.64-1.31-5.27-2.7c-6.04-2.89-12.44-5.01-18.73-7.3l-2.99-1.1c-7.32-2.68-14.67-5.28-22.01-7.9 1.52-3.88 3.86-5.74 7.13-8.25l2.75-2.14L564 548h-9c2.43-2.43 4.7-3.3 7.88-4.62l3.17-1.36C569 541 569 541 573 541z"/><path fill="#fafafb" d="M939 873c3.47 2.31 3.87 3.49 5.37 7.28l1.3 3.28q2.59 6.7 5.12 13.44A239 239 0 0 0 969 935a88 88 0 0 1-12.25 8.44l-2 1.18-3.95 2.32q-2.33 1.37-4.64 2.76l-2.35 1.36-1.98 1.16C940 953 940 953 936 953l-1.56-2.87c-2.39-4.22-5.2-8.09-8.05-12C925 936 925 936 925 934l3.5.44c4.85-.02 7.22-2 10.6-5.31 5.37-6.02 8.24-9.87 7.9-18.13a129 129 0 0 0-1.96-9.15l-.98-4.09q-.75-3.12-1.48-6.26c-1.32-6.41-1.32-6.41-3.58-12.5q-.06-3 0-6"/><path fill="#e78f57" d="M527.25 236.83A30 30 0 0 1 532 244l1.6 2.55c2.95 5.14 3.7 10.57 3.4 16.45l-1.29-1.2c-9.2-8.33-18.88-9.19-30.84-9.03-5.49.32-9.86 1.22-13.87 5.23-2.77 6.78-2.18 13.78-2 21-2-1-2-1-2.76-2.97l-.71-2.59-.79-2.86-.8-3.02-.82-2.91c-3.56-13.19-3.56-13.19-3.12-18.65 8.7-12.23 34.8-16.19 47.25-9.17"/><path fill="#f4b370" d="M335 765c5.37 5.18 9.62 10.98 14 17l1.22 1.68a636 636 0 0 1 15.38 22.08C373 816.9 373 816.9 373 821c-24.1 10-24.1 10-32 10 .46-3.3.92-6.57 1.52-9.84 2.84-18.71 1.47-37.46-7.52-54.16z"/><path fill="#afafb0" d="M563 857c.82 2.14.82 2.14 1 4l-3.04-.13c-4.09.13-7.55.92-11.4 2.2l-2.09.67c-11.44 3.8-22.27 9.02-32.98 14.5-11.25 5.76-11.25 5.76-14.62 5.76-4.28-2.28-6.87-5.7-8.87-10 19.25-14.04 47.75-31.2 72-17"/><path fill="#14283f" d="M775.38 281.06c4.43 1.15 5.88 2.28 8.62 5.94 4.02 7.47 3.3 15.78 3 24-3.16-3.16-4.23-7.47-5.79-11.59-1.54-4.05-1.54-4.05-4.21-7.41h-4c-2.35 4.61-2.35 4.61-2.94 9.63 1.16 2.94 2.96 4.91 4.94 7.37 1.59 3.7 2.48 6.15 1 10l-1.75-2.69c-1.93-2.9-4.03-5.62-6.25-8.31-.6 2.66-.6 2.66 0 6 1.69 2.13 3.5 4 5.47 5.88 1.53 2.12 1.53 2.12 2.06 4.94-.72 4.33-2.76 6.76-5.47 10.12-3.8 4.73-5.7 7.92-6.06 14.06l4.31-2.37 2.43-1.34A89 89 0 0 0 776 342c-.64 5.53-1.83 9.25-6.25 12.81-3.6 1.55-5.88 1.82-9.75 1.19-3.25-3.25-4.26-6.02-4.44-10.5.4-7.36 4.41-11.92 9.01-17.35 1.8-2.28 1.8-2.28 1.43-6.15l-1.81-.69c-2.93-1.75-3.83-3.18-5.19-6.31-1.39-11.08 3.84-22.99 10-32 3-2 3-2 6.38-1.94"/><path fill="#aeafaf" d="M507 683c10.96 5.18 15.27 18.34 19.75 28.75l1.46 3.32c2.14 4.93 4.14 9.8 5.79 14.93l-3.14.59-4.11.78-2.07.39c-3.5.68-6.59 1.4-9.68 3.24l-.77-3.37c-4.06-21.4-4.06-21.4-16.23-38.63-3.17-1.8-3.17-1.8-6-3 4.55-5.62 7.25-8.38 15-7"/><path fill="#f4b26f" d="m781 273 2.41 1.22c7.57 4.11 13.18 9.77 16.59 17.78.57 5.16.57 5.16 0 8-2.44 2.94-2.44 2.94-5 5l-1 1q-3 .06-6 0l-.33-1.87c-1.83-10.34-1.83-10.34-6.42-19.63-3.15-2.1-5.48-2.5-9.25-2.5-3.3 2.67-4.9 5.45-6.56 9.31l-1.27 2.92L763 297l-.98 2.27L760 304c-3.07-.95-4.04-2.06-5.87-4.75-2.25-5.79-.56-12.42.87-18.25 2.01-4.52 3.99-8.7 8.75-10.75 6.63-.74 11.33-.44 17.25 2.75"/><path fill="#e1e1e2" d="M452 595c1.37 4.1-.03 6.86-1.44 10.75l-.82 2.28a119 119 0 0 1-16.4 30.02c-1.51 2-1.51 2-2.34 4.95h-2l-.34 1.75c-.73 2.49-1.75 4.16-3.2 6.3l-1.57 2.3-1.64 2.4-3.17 4.67-1.56 2.3Q414.16 667.8 411 673c-5.42-.38-7.35-2.1-11-6l1.94-2.71c6.09-8.5 12.17-17.01 18.03-25.67a435 435 0 0 1 17.74-24.68 379 379 0 0 0 8.5-11.5q2.8-3.8 5.79-7.44"/><path fill="#e4e4e4" d="m186 488 3 1c2.05 5.27 2.2 10.45 2.25 16.06l.03 2.04c-.07 10.5-4.87 20.37-12.19 27.85a18.4 18.4 0 0 1-7.59 3.61c-3.79-.85-6.29-2.34-9.5-4.56-.96-1.81-.96-1.81-1-4 1.73-2.52 1.73-2.52 4.19-5.25a51 51 0 0 0 10.17-17.55l1.51-4.26.77-2.13A31 31 0 0 1 186 488"/><path fill="#fbc997" d="m629.56 509.94 2.44.06c.4 7.67.01 11.66-5.25 17.5-5.4 4.91-9.62 7.6-16.75 9.5a94 94 0 0 0-3.69 2.25C603 541 603 541 600.63 540.5c-1.93-1.78-2.29-2.94-2.63-5.5h-2c-1.5-2.12-1.5-2.12-3.12-4.87l-1.64-2.75C590 525 590 525 590 523l2.29-.6a295 295 0 0 0 23.52-7.59l2.99-1.08c10.29-3.78 10.29-3.78 10.76-3.8"/><path fill="#b45f61" d="m589 418-1 4 2.54-.66c9.94-2.37 21.62-4.98 31.34-.59 3.25 2.34 3.52 2.6 4.12 6.25a709 709 0 0 1-13 3l-2.76.64c-17.88 3.63-36.44 1.14-54.24-1.64 3.7-4.19 7.28-6.4 12.56-8.31l2.12-.79c6.14-2.13 11.84-2.56 18.32-1.9"/><path fill="#afb0b0" d="M975 175c4.02 2.12 7.87 4.52 11.75 6.88l3.27 1.93 3.09 1.87 2.84 1.71L998 189v3l-3.5 1.6-4.62 2.15-2.31 1.05c-3.5 1.63-6.75 3.24-9.87 5.53-2.7 1.67-2.7 1.67-4.77 1.81-3.05-1.8-4.84-4.56-6.87-7.39a76 76 0 0 0-7.88-9.55C956 185 956 185 956 183a118 118 0 0 1 7.25-4.69l2.07-1.3 2-1.2 1.85-1.13c2.43-.9 3.42-.6 5.83.32"/><path fill="#636465" d="M843 469c1.8 2.7 2.44 4.16 3.18 7.22l.62 2.55.64 2.73.66 2.82a300 300 0 0 1 4.09 21.2A90 90 0 0 1 853 521a22 22 0 0 1-6.99-4.76l-1.63-1.63-1.7-1.74-1.74-1.76c-4.14-4.23-8.2-8.51-11.94-13.11l-1.74-2.03L826 494c1.16-3.48 1.7-3.61 4.69-5.44 5.54-3.95 7.65-9.48 10.31-15.56z"/><path fill="#e1e1e2" d="M1117 139a381 381 0 0 0 5.93 4.43 579 579 0 0 1 6.1 4.57l11.97 9c-1 2-1 2-4.24 3.1q-2.03.56-4.07 1.09l-2.06.57c-6.48 1.72-6.48 1.72-9.63.24-2.41-1.75-2.41-1.75-5.06-4l-5.94-5a400 400 0 0 0-19-15l1-2c10.18-3.3 16.73-4.4 25 3"/><path fill="#e2e2e2" d="M792 501c4.6 1.67 7.37 3.8 11 7-1.39 3.22-2.91 5.04-5.62 7.23l-2.15 1.74-2.23 1.78-2.23 1.82c-5.5 4.43-5.5 4.43-7.77 4.43v2a90 90 0 0 1-5.19 3.94l-2.92 2.09a93 93 0 0 1-5.4 3.43 72 72 0 0 0-8.24 6.16l-2.92 2.42c-1.7 1.43-1.7 1.43-3.33 2.96q-3.5.06-7 0c1.67-3.96 4.13-6.84 7-10h2l1-3h3l1-3h2l.75-1.75c1.43-2.57 3.07-4.23 5.19-6.25a45 45 0 0 0 5.69-6.25L777 516h2l.65-1.64c1.83-3.2 4.35-5.57 6.98-8.11l1.56-1.54z"/><path fill="#fafbfb" d="M333 699c4.54.89 7.35 3.53 10.81 6.44 7.4 6.08 15.15 11.37 23.19 16.56 4.26 2.8 8.14 5.7 12 9l-1 2-2.75-1.54a206 206 0 0 0-20.31-10.02l-3.6-1.5c-4.7-1.32-7.65-.8-11.97 1.4l-2.5 1.6A84 84 0 0 1 328 728c-1.83-1.83-1.68-4.71-2.06-7.19l-.54-3.42c-1-8.5-1-8.5 1.35-11.94l2.25-2.33 2.25-2.36z"/><path fill="#e79057" d="m523 450 1.47 1.17c9.04 7.03 16.26 10.03 27.65 10.02h2.66c8.82-.07 17.48-1 26.22-2.19-1.38 4.14-3.41 4.6-7.17 6.53q-3.03 1.58-5.94 3.35c-10.17 5.8-19.52 7.09-31.05 4.38-4.91-1.75-8.04-3.72-10.84-8.26l-2-3c-.41-2.92-.41-2.92-.62-6.19l-.23-3.29z"/><path fill="#fad6a5" d="M534 232c10.94 10.36 19.88 24.5 20.65 39.8.16 11.25-1.3 25.66-7.65 35.2-2.62.19-2.62.19-5 0-1.12-3.37-.84-4.7-.12-8.12 4.01-19.52 5.15-42.67-5.88-59.88l-2-3z"/><path fill="#f8f8f8" d="m623 257-1.94 2.31c-3.86 5.04-3.84 10.56-3.06 16.69a39 39 0 0 0 5 8l1 2h-28c1.71-8.56 4.25-18.11 11-24 11.37-6.87 11.37-6.87 16-5"/><path fill="#f9f9fa" d="m526 513 4 1c1.59 4.78.1 8.13-1.75 12.56-4.2 10.6-6.55 21.17-8.25 32.44l2.26-.5c3.28-.6 6.41-.57 9.74-.5v2c-2.12 1.52-2.12 1.52-5 3.25a153 153 0 0 0-14 9.75c-.52-21.73 2.9-40.6 13-60"/><path fill="#dedfe0" d="M1085 138c4.86 1.51 7.97 4.3 11.69 7.63l3.72 3.25 1.84 1.61c3.82 3.3 7.8 6.4 11.75 9.51l5 4a37 37 0 0 1-4 8c-3.4-1.55-6.21-3.55-9.19-5.81l-3.16-2.4-1.74-1.34a2174 2174 0 0 0-10.97-8.32l-2.24-1.7-2.11-1.61-1.88-1.43C1082 148 1082 148 1079 145z"/><path fill="#d7d9db" d="m537 428 2.2.59A220 220 0 0 0 561 433l2.5.52c4.74.65 9.38.6 14.15.58h3.07l16.22-.05L613 434c-11.25 7.5-26.21 7.17-39.25 7.25l-3.01.03a92 92 0 0 1-26.8-4.22l-3.29-.96C538 435 538 435 536 432c.38-2.19.38-2.19 1-4"/><path fill="#f5f5f5" d="m511 257-1.1 1.58c-3.83 6.09-5.15 11.26-3.9 18.42a26 26 0 0 0 4 6v2c-3.62 1.2-6.93 1.1-10.69 1.06L492 286l-.06-7.56-.03-2.14c-.05-11.8-.05-11.8 2.84-15.61 5.27-3.95 9.89-3.94 16.25-3.69"/><path fill="#dedfe0" d="M1105 224c3.83.6 5.95 2.35 8.88 4.81 3.57 3 7.23 5.62 11.12 8.19q3.95 2.84 7.88 5.75l2.08 1.54L1140 248a17 17 0 0 1-3 7c-5.2-1.65-9.22-4.86-13.56-8.06l-2.4-1.76q-9.59-7-19.04-14.18c1.88-4.75 1.88-4.75 3-7"/><path fill="#dcddde" d="M1114 257c12.56 2.5 25.9 16.37 36 24a37 37 0 0 1-4 8c-4.09-1.69-7.16-4.55-10.44-7.44l-3.73-3.24-1.92-1.66q-4.52-3.92-9.1-7.79l-1.63-1.4A77 77 0 0 0 1112 262z"/><path fill="#dedfe0" d="M1093 175c4 1.4 6.96 3.29 10.31 5.88l3.13 2.39 1.7 1.31q5.29 4.02 10.61 7.98l4.17 3.13L1126 198l-3 7c-3.96-1.37-6.73-3.19-9.94-5.87A122 122 0 0 0 1102 191a503 503 0 0 1-6.31-4.62l-3.18-2.36C1090 182 1090 182 1089 180z"/><path fill="#dddedf" d="M1088 158a41 41 0 0 1 7.47 4.5l1.96 1.49 2.07 1.57 2.13 1.62L1108 172l9.74 7.36A15 15 0 0 0 1122 182l-3 6c-4.17-.58-7.09-3-10.37-5.44l-3.73-2.72-1.94-1.42q-2.93-2.12-5.92-4.17l-1.93-1.33q-1.82-1.27-3.67-2.52c-5.44-3.8-5.44-3.8-6.44-7.4 1.38-2.75 1.38-2.75 3-5"/><path fill="#adadae" d="m380 804 1.25 1.12a80 80 0 0 0 9.75 7.5c10.25 6.97 10.25 6.97 11.6 13.11.42 6.84-.48 13.53-1.6 20.27l-.6 4.2-.4 2.8c-2.78-2.78-3.25-6-4.25-9.69a155 155 0 0 0-14.43-34.8C380 806 380 806 380 804"/><path fill="#dcdddf" d="m1102 207 4.5 2.88 2.53 1.61L1111 213v2l1.73.82c4.07 2.12 7.72 4.85 11.46 7.5l2.52 1.72 4.59 3.23c2.17 2.2 2.54 3.66 2.7 6.73l-2 3a30 30 0 0 1-9.07-5.01l-2.26-1.79-2.36-1.89c-5.74-4.56-11.45-8.96-17.66-12.88-1.98-1.71-2.3-2.88-2.65-5.43l3-1z"/><path fill="#dddedf" d="M1096 192c9.7 3.5 18.15 10.75 26.45 16.76 3.16 2.3 3.16 2.3 6.55 4.24v2h2c-.81 2.94-.81 2.94-2 6l-3 1c-2.34-1.3-2.34-1.3-4.94-3.19l-2.59-1.85c-2.47-1.96-2.47-1.96-4.42-3.92a68 68 0 0 0-7.92-6.48A207 207 0 0 1 1094 197z"/><path fill="#f8f8f8" d="M649 257c6.28.97 10.68 5.27 14.54 10 6.46 8.88 6.46 8.88 6.46 14l-7.12 2-2.02.58A36 36 0 0 1 649 285c1.83-4.7 1.83-4.7 3.05-6.84 1.82-4.15 1.39-8.71.95-13.16-1.27-3.47-1.27-3.47-3-6z"/><path fill="#dcddde" d="M1110 241c5.2 1.6 8.98 4.87 13.19 8.19l4.55 3.53 2.21 1.71c4.88 3.73 9.95 7.17 15.05 10.57l-2 5c-4.2 0-4.73-.18-7.87-2.53l-2.22-1.64-2.35-1.77-4.83-3.58-2.42-1.79c-4.25-3.11-8.63-6.04-13-8.98C1108 248 1108 248 1107 246c1.44-2.62 1.44-2.62 3-5"/><path fill="#1b2c41" d="m523 450 1.47 1.17c9.04 7.03 16.26 10.03 27.65 10.02h2.66c8.82-.07 17.48-1 26.22-2.19-3.29 2.2-6.67 3.6-10.31 5.06l-1.98.82a52.2 52.2 0 0 1-34.3 1.3c-4.88-2.38-8.2-6.27-10.28-11.26-.57-1.92-.57-1.92-1.13-4.92"/><path fill="#dcbb31" d="m296 528 3 1c-5.43 3.62-11.87 5.66-18.25 6.94-9.7 1.98-19.05 5.57-27.98 9.79C239.07 552 239.07 552 234 552c.71-1.91.71-1.91 2-4 2.07-.84 2.07-.84 4.56-1.37 6.6-1.76 12.27-4.88 16.54-10.29 4.29-3.46 8.11-2.96 13.46-2.9 9.43-.14 16.92-1.18 25.44-5.44"/><path fill="#f8f8f9" d="M302 426c-3.08 3.64-5.11 4.54-9.81 5.06-9.36 1.33-15.8 4.58-21.86 11.98-3.8 5.32-5.82 10.62-7.33 16.96h-1c-1.1-9.84 1.04-16.13 7-24 8.76-10.38 20.21-10.5 33-10"/><path fill="#172a40" d="M587 318c6.36.95 10.65 2.1 15 7 1.19 3.5 1.19 3.5 1 7-3.43 5.1-9.16 7.54-15 9-2.3-.4-2.3-.4-4-1q.82-.6 1.68-1.2l2.2-1.61 2.17-1.58c2.18-1.64 2.18-1.64 3.95-4.61 0-5.9-3.12-8.99-7-13"/><path fill="#f2d0a2" d="m533.19 309.94 2.27.01 5.54.05c-3 2-3 2-6.44 2.88-3.78 1.19-5.3 1.9-7.56 5.12-1.79 6.64-.12 11.64 2 18-1.75-.06-1.75-.06-4-1-3.56-5.4-5.14-9.57-5.19-16.06l-.04-2.6C520 314 520 314 522 311c3.76-1.25 7.27-1.1 11.19-1.06"/><path fill="#f5d2a2" d="M524 450c6.06 1.7 11.88 3.66 17.68 6.13 4.37 1.64 8.63 2.02 13.28 2.19l3.37.12 3.48.12 3.55.13 8.64.31-1 2c-12.61 2.07-29.63 3.75-41-3a54 54 0 0 1-8-7z"/><path fill="#f6f7f8" d="M235 459c-.32 3-.95 3.95-3.19 6.04L229 467.2c-6.69 5.27-13 10.86-18 17.81-.83-2.63-.83-2.63-1-6a37 37 0 0 1 5.31-5.87l1.65-1.57C230.4 459 230.4 459 235 459"/><path fill="#185893" d="m650 275 1 3c-4.83 4.81-8.26 5.88-15 6.13l-2.37.2c-4.29.21-6.82-.04-10.2-2.84L621 279l1-2 2 1c3.06.26 6.12.23 9.19.25l2.54.06c5.54.04 9.33-.77 14.27-3.31"/><path fill="#f0f1f3" d="M639 259c2.94-.44 2.94-.44 6 0 2.6 2.25 2.96 3.65 3.38 7.06-.38 2.94-.38 2.94-1.5 4.88-1.88 1.06-1.88 1.06-4.94.94C639 271 639 271 637 268c-.34-4.07-.31-5.53 2-9"/><path fill="#1c2d41" d="M680 234v3a22 22 0 0 0 3 3.56c3 3.23 3 3.23 3 5.44q-5.5-2.19-11-4.44l-3.06-1.24A63 63 0 0 1 664 236a20 20 0 0 1 8.56-2.69l2.32-.26C677 233 677 233 680 234"/><path fill="#3d483c" d="m357 509-2.56 1.02-21.7 8.66a264 264 0 0 0-12.41 5.28l-2.77 1.27c-2.94.88-4.65.61-7.56-.23 3.28-2.19 6.55-3.32 10.25-4.56a312 312 0 0 0 15.85-5.87l3.12-1.26q3.06-1.24 6.11-2.5l2.85-1.15 2.52-1.04c2.54-.68 3.86-.49 6.3.38"/><path fill="#eef0f1" d="M522 262c4.75.75 4.75.75 7 3 .34 3.2.52 5.2-1.25 7.94-1.75 1.06-1.75 1.06-3.81.87C522 273 522 273 520 271c-.34-4.05-.3-5.55 2-9"/><path fill="#1b5d9a" d="m530 276 2 1c-1.5 2.96-1.5 2.96-4 6-3 .58-5.09.76-8.06.63l-2.18.01c-3.47-.07-5.28-.15-7.76-2.68l-1-1.96 1-2 2 1c5.98 2 11.26 1.38 17-1z"/><path fill="#f4f5f6" d="m186 488 3 1c-.52 4.06-1.56 6.06-4.37 9a42 42 0 0 0-6.63 9c-1.52-4.35-.15-6.74 1.74-10.74A42 42 0 0 1 186 488"/><path fill="#28383c" d="m883 287 2 1v3l-2.79 1.07a208 208 0 0 0-23.38 10.7C856 304 856 304 853 303l1.57-.82 7.24-3.8 2.63-1.38a462 462 0 0 0 16.63-9.14z"/><path fill="#1b2c40" d="m574.25 333.94 3.27.02 2.48.04v4c-2.99 1.5-5.7 1.12-9 1l-2-1q-2.31-.32-4.62-.56l-2.48-.26-1.9-.18c4.9-2.62 8.7-3.12 14.25-3.06"/><path fill="#25363c" d="m310.56 524.94 2.44.06c-2.14 2.36-4 3.63-6.94 4.82l-2.27.93-2.35.94-2.37.97C293.3 535 293.3 535 291 535c.56-1.83.56-1.83 2-4a60 60 0 0 1 7.06-2.69c10.34-3.37 10.34-3.37 10.5-3.37"/><path fill="#c8ae35" d="M247 544c2 1 2 1 3 3l-6.31 2.5-3.55 1.4C237 552 237 552 234 552c.68-1.9.68-1.9 2-4 2.35-1.01 2.35-1.01 5.06-1.69 3.26-.63 3.26-.63 5.94-2.31"/><path fill="#e7e9ec" d="m535 271 2 1v12h-6l1.44-2.56c1.62-3.57 2.17-6.57 2.56-10.44"/><path fill="#484a4d" d="M500 382a95 95 0 0 1 17 3l-2 2c-5.67-.29-9.9-1.56-15-4z"/><path fill="#23384f" d="M1098 175c3.58 1.65 6.75 3.78 10 6l-2 3-10-7z"/><path fill="#17558e" d="m530 276 2 1-4 6-7-1c2.42-3.63 3.94-3.8 8-5z"/><path fill="#d4b633" d="m305 523 2 1v3l-9 2a41 41 0 0 1 7-6"/><path fill="#162b3c" d="M313 525c-2.66 3.44-5.9 4-10 5 1-3 1-3 2.75-4.19 2.55-.92 4.56-.96 7.25-.81"/><path fill="#598bf0" d="M597 125c3.72.5 6.73 1.12 10 3l-1 2c-3.78-1.1-6.47-1.9-9-5"/><path fill="#4e5052" d="M289 834c4 4 4 4 4 6h-2v7h-1z"/><path fill="#efcea2" d="M534 232c2.8 2.53 4.46 4.2 5 8-1.94-.62-1.94-.62-4-2-.75-3.12-.75-3.12-1-6"/><path fill="#424c3b" d="m883 287 2 1v3l-6 2c.31-1.87.31-1.87 1-4z"/></svg>