<svg xmlns="http://www.w3.org/2000/svg" width="972" height="1619" fill="none" viewBox="0 0 972 1619"><g clip-path="url(#a)"><path fill="#d9e2f1" d="M0 0h972v1619H0z"/><path fill="#fff" d="M275.9 0H972v1619H275.95c.03-13.63.25-27.95-.22-41.51 30.43 13.26 86.36 19.78 120.41 14.57 12.87-1.98 26.05-9.71 33.55-20.95 21.93-32.86-11.47-83.31-13.48-114.6-1.36-21.24 10.32-71.85 14.2-94.58 5.55-32.56 12.76-67.23 18.8-99.9 2.2-11.94 10.27-19.34 10.53-29.41.61-24.04-5.48-54.05-10.57-77.56l41.01-15.87a7055 7055 0 0 1 36.84-100.21c-10.1-12.54-20.64-24.39-30.61-37.16q6.56-38.34 11.46-76.92c1.91-14.02 3.96-29.53 6.49-43.36 1.42-7.81 5.62-20.79 7.98-28.83l14.44-48.89c13.36 3.17 18.4 3.8 30.79-3.13 3.02.49 11.04.64 14.24-.38 23.51-7.62 48.14-18.58 68.54-32.58 5.7-3.9 3.92-11.88 5.44-17.37 4.4-15.87 9.33-31.72 9.61-48.36 1.11-52.99-.89-106.32-4.12-159.2-1.52-23.6-52.9-71-69.8-89.17 11.02-2.31 24.66-6.19 35.78-9.01a80 80 0 0 0 5.56 5.68c11.4 10.47 31.5 14.25 46.68 13.24 22.06-1.47 36.93-9.13 51.62-25.33 7-1.92 18.1-3.87 25.49-5 65.87-10.08 139.07-30.27 144.56-109.1 2.23-31.84-2.95-86.3-24.35-112.5-6.93-8.48-19.45-13.95-27.85-20.85-3.22-2.57-11.7-14.01-15.3-18.21-7.71-.12-16.18-.33-23.77.74l-11.88 10.25 7.36 8.52c-2 2.27-4.06 4.93-5.98 7.3l5.83 6.59-5.84 6 6.77 6.67-5.75 5.66 6.95 7.18-6.06 5.59 6.68 7.56-5.42 6.9 6.2 6.14c-1.51 2.1-3.58 4.37-5.29 6.36 1.92 1.93 2.84 2.7 4.2 5.15-3.1 5.56-.56 12.7-4.88 22.53-8.52 19.35-21.58 30.32-40.18 38.43-.21-3.09-.88-7.75.43-10.36 1.9-1.93 4.2-2.08 6.95-2.7l-8.7-9.56c.3-.75 2.47-6.04 2.46-6.2-.94-9.8-3.26-6.6 2.1-15.49l-8.09-4.39 4.26-7.78-6.98-5.19c1.14-2.61 1.84-4 2.4-6.85-1.2-3.24-1.45-2.66-4.58-5.15l4.78-7.62-7.37-5.6 4.47-7.2-6.83-4.4 5.17-7.83-7.75-3.96c-.73-4.54-.86-9.41-1.1-14.03a917 917 0 0 0-24.48-25.1c-45.9 15.54-99.47 30.27-146.43 42.93 8.89-23.57 27.4-81.03 17.3-102.83-30.6-66.08-119.66-117.82-192.5-93.6-20.55 6.83-25.55 22.34-33.57 39.47-32.32-3.48-66.81-5.46-88.45 23.49-.7-7.6-.25-23.02-.25-31.17z"/><path fill="#fff" d="M0 0h275.9l-.05 59c0 8.15-.45 23.58.25 31.17a13 13 0 0 0-1.67 4.52c-3.44 11.15-2.88 20.5-.16 31.74.38 2.51.6 4.44 1.4 6.89l.6.34c-1.64 38.52.56 80-.3 118.67-.19 8.89.76 37.86-.3 45.23-1.4 2.45-.93 8.37-.37 11.19l1.31.83c-1.09 2.12-.74 15.31-.89 19.02-1.37 2.45-1.15 7.12.14 9.6q.19 20.39.08 40.76c4.4 4.24 5.86 6.89 8.2 12.57a92 92 0 0 1 2.33 4.78l3.49.6.18.98c-3.33 3.21-8.78 8.63-13.03 10.03l-1.46-.2c-.91 3.73-1.33 51.29-.42 53.25l1.51-.93c1.05 1 1.02 1.42 1.44 2.82l.52-.38-.76.16c2.6-1.87 5.1-11 7.01-15.04 5.28-11.15 11.75-20.55 18.65-30.65-3.6 13.57-3.78 29.5-8.92 41.89-1.8 4.33-9.5 28.39-11.29 30.6 5.84 6.58 2.9 16.06-7.72 15.34l-1.64.94c-3.46 2.4-8.05 2.98-11.95 4.5-16.27 6.38-41.09 11.68-45.2 31.68-1.77 8.61-.91 22.92 5.86 29.35l-3.4 3.24c-9.87 13.2-7.24 29.92 2.16 42.6-6.31 12.46-3.47 36.7 10.44 42.65 10.56 4.52 30.63 2.78 42.57 2.6q-.13 10.87-.14 21.75c-1.44 55.21-.14 116.34-.14 171.85l.02 317.53.02 301.2c0 47.15-.95 97.36.12 144.33H0z"/><path fill="#e9eff9" d="M274.27 126.43c.38 2.51.6 4.44 1.4 6.89l.6.34c-1.64 38.52.56 80-.3 118.67-.19 8.88.76 37.86-.3 45.23-1.4 2.45-.93 8.37-.37 11.19l1.31.83c-1.09 2.11-.74 15.31-.89 19.02-1.37 2.45-1.15 7.12.14 9.6q.19 20.38.08 40.76c4.4 4.24 5.86 6.89 8.2 12.57a92 92 0 0 1 2.33 4.78l3.49.6.18.98c-3.33 3.21-8.78 8.63-13.04 10.03l-1.45-.2c-.91 3.73-1.33 51.29-.42 53.25l1.51-.93c1.05 1 1.02 1.42 1.44 2.82l.52-.38-.76.16c2.6-1.87 5.1-11 7.01-15.04 5.28-11.15 11.75-20.55 18.65-30.65-3.6 13.57-3.78 29.5-8.92 41.89-1.8 4.33-9.5 28.39-11.29 30.6 5.84 6.58 2.9 16.06-7.72 15.34l-1.64.94c.71-53.45.2-108.24.14-161.78zM274.23 0h1.67l-.05 59c0 8.15-.45 23.58.25 31.17a13 13 0 0 0-1.67 4.52zm.14 684.09c1.97 5.55.92 51.66.89 60.92l-.04-.64c13.24 12.6 32.07 18.09 50.21 17.88 6.75-.07 20.88-5.8 27.24-4.23l.54.13c8.04 1.98 16.08 7.57 24.54 9.36 2.83.6 5.29 3.69 9.51 4.2 1.74-1.3 2.25-4.84 4.31-7.54l1.19-.58 1.23.72c-.38 3-1.68 8.98-1.82 11.1-3.37 14.59-7.2 30.52-10.16 45.13-31.98 7.32-75.45 11.79-106.37-2.1l-.28-.81c-1.03 8.92.23 23.66-.03 33.49l-.08-1.66c28.45.37 44.88-.75 72.05-10.27 8.41-2.95 32.45.91 40.98-8.94 8.48-9.98 9.31-38.47 14.89-52.09 9.86 7.12 64.96 41.26 67.92 45.73 4.56 6.86 8.48 14.36 12.12 21.75-2.96 1.13-1.88.4-4 3.12-2.09 7.33 7.17 19.8 6.07 27.32-6.43 43.78-14.24 87.35-20.24 131.2-.47 3.41-.98 6.65-1.17 10.1-17.93-5.33-54.58-31.09-72.58-41.3-3.77.92-29.98 6.07-30.65 8.56-9.28 34.75-2.73 73.73 5.87 108.07 7.64 28.26 29.57 43.93 48.43 63.85 2.54 2.61 9.88-1.92 12.52-3.21 5.24 3.63-9.29 12.07 1.6 17.82 3.81-1.39 4.15-5.55 8.43-7.72l1.51-3.21q1.11 2.86 2.25 5.7c-5.69 8.59-.14 21.89 1.31 31.26.65 4.21.82 8.42.77 12.67-14 19.32-34.83 15.44-55.87 8.9-28.6-8.89-77.89-32.17-83.02-66.32-2.7-18 1.8-46-6.73-63.8-1.23-2.43-19.45-19.8-22.5-22.81q-.6 38.8-.4 77.61c0 11.52-.3 24.44.62 35.94.21 2.65 1.96 3.48 2.28 4.65-1.95 2.64-1.73 3.08-1.74 6.94-.08 21.68-.05 43.41-.05 65.09v124.87l-.01 70.48c0 7.9-.51 27.59.2 34.75-2.01 3.62-1.51 89.94-.38 91.32.47 13.56.25 27.88.22 41.51h-1.56c-1.07-46.97-.11-97.18-.12-144.33l-.02-301.2-.02-317.53c0-55.5-1.3-116.64.14-171.85"/><path fill="#f6f7fa" d="M379.66 805.76a484 484 0 0 0 2.74-29.09l.52-.4 1.19 6.76c2.43-2.16.73-4.7 3.79-8.06 2.6-.75 1.48-.8 4.27.45-3.36 14.58-7.19 30.5-10.16 45.12-31.98 7.32-75.45 11.8-106.37-2.1l1.07-2.32c8.99-.09 18.85 2.83 27.83 2.75 25.17-.23 51.74-3.29 75.12-13.1"/><path fill="#fff" d="M349.45 156.92c27.85-13.86 61.96-17.36 85.04 7.67-7.97-1.15-18.6-1.86-25.88-3.76-2.9 3.95-8.92 10.8-8.5 15.46 8.17 9.59 46.01 2.76 61.33 14.36l3.41 1.63c9.65 2.89 17.96 8.66 26.12 14.55l-6.5-10.67c7.79.26 16.13.7 23.88.71-.85 5.49-1.56 11-1.52 16.59.14 17.02 4.6 28.81-4.46 44.62-5.06 8.83 5.87 33.54 10.1 41.96l2.73 6.55c-1.34 3.88-3.24 8.88-4.22 12.76-4.7 13.58-12.76 28.55-22.76 38.95a54 54 0 0 1-13 10.13c-20.56 11.64-73.4 26.8-97.86 27.65-17.93.63-40.44-10.67-53.3-23.17l-4.15-68.68c-1.64-31.96-3.73-49.87 8.76-79.76-.68-4-3.3-8.7-7.5-9.72 3.07-5.2.64-13.13-.4-19.42-.04-1.66-.32-4.09-.47-5.8-.41-3.38-.27-4.07.22-7.37l2.65-.88c1.73 1.52 1.97 1.64 4.27 1.75 1.74-1.5 1.19-1.28 1.6-4.32l1.41 3.36.69-3.5c6.48-3.9 9.79-4.53 17.03-5.8 4.2.04 15.85.7 18.54 4.04 1.33 1.64 2.42 3.2 3.9 3.46 2.07-1.63 3.37-3.5 3.68-6.17-.9-12-2.2-15.15-15.43-16.27-2.99-.26-6.36-.67-9.4-.91"/><path fill="#d9e2f1" d="M348.17 172.76c4.2.05 15.85.71 18.54 4.05 1.33 1.64 2.42 3.2 3.9 3.46 2.07-1.63 3.37-3.5 3.68-6.17l.09.76c1 8.15 4.28 12.8 4.34 22.3.06 8.86-4.1 17.61-1.62 25.3.72 2.25-1.56 9.72-5.23 10.84 3.07 1.84 6.38 3.31 9.62 4.83-7.22-1.4-21.72-5.38-27.45-1.53-5.04 6.14 2.06 14.07 6.63 18.04 5.28 4.59 8.71-.02 13.77 1.9.22 1.66.26 1.68.02 3.43l1.75 1.38c.03 1.68-.83 3.9-2.07 4.72-6.77 4.5-17.4-1.05-21.65-6.26-6.32-7.77-10.6-20.59-3.58-28.76 1-1.04 5.57-1.56 6.95-2.44 2.38-1.9 2.37-7.8 7.14-6.73l2.4 2.75c2.3-.79 2.9-3.23 2.63-5.52-2.12-2.9-1.56-1.38-4.73-3.21l.6-.07c-4.85-.82-12.72-.86-15.19-4.33-4.01-5.66 1.45-14.35-5.81-16.07-1.2-.28-2.56-.52-3.63.04-2.27 4.9-3.17 10.8-4.87 15.97-1.45 4.42-3.7 8.84-5.73 13.03-.68-4-3.3-8.7-7.5-9.72 3.07-5.2.64-13.13-.4-19.43-.04-1.65-.32-4.08-.47-5.8-.41-3.37-.27-4.06.22-7.36l2.65-.88c1.73 1.52 1.97 1.64 4.27 1.75 1.74-1.5 1.19-1.28 1.6-4.32l1.41 3.36.69-3.5c6.48-3.9 9.79-4.53 17.03-5.8"/><path fill="#f6f7fa" d="M331.14 178.57c6.48-3.9 9.78-4.53 17.03-5.8l1.54 1.96c1.54-.29 2.43-.44 4-.55 1.23 1.1 1.4.86 1.6 2.17 1.15 7.49 7.02 7.42 12.62 15.5-8.67-3.9-14.46-5.67-24.07-5.63-6.68.03-2.47-4.28-5.6-7.22l-.88.1c-2.66.28-3.7.51-6.24-.53"/><path fill="#d9e2f1" d="M320.3 189.52c.97-3.8.16-2.75 2.68-4.78 5.89.56 6.72 9.05-2.22 10.58-.03-1.66-.31-4.08-.46-5.8"/><path fill="#fff" d="M361.6 197.64a3.98 3.98 0 1 1 1.3 7.85 3.98 3.98 0 0 1-1.3-7.85"/><path fill="#f6f7fa" d="m512.47 300.04 2.73 6.55c-1.34 3.87-3.24 8.88-4.22 12.76-8.66-9.24-.76-12.37 1.49-19.31m-51.03-109.39 3.41 1.63c-2.68 2.46-6.56 4.27-9.92 2.16.94-2.3 3.03-1.97 6.14-3.6z"/><path fill="#d9e2f1" d="M329.2 287.92c6.3.53 16.6 6.87 22.97 8.63 24.05 6.66 51.62 10.94 75.42.9 2.08-.87 2.27-1.33 2.76-2.89a43 43 0 0 1-3.23-3.31c4.68-2.14 12.26 4.3 14.65 8.16l-.3 1.26-2.8-.14-1.19 1.31c-5.41 56.45-53.29 53.73-91.81 31.87-2.58-1.46-2.86-1-5.4-.15l-.17 6.64c-1.67.1-1.92-.02-3.43.75-.9 15.07 32.16 16.51 42.3 16.92l.5.58c-9.5 1.22-21.84 3.5-31.27.66-1-.3-6.74-4.56-8-5.49-3.87 12.2-3.42 17.77 11.44 19.11l-.48.34c-18.95 1.94-18.45-2.93-12.33-18.98 1.93-5.05-6.1-12.58-9.22-14.2-3.33-1.74-1.37-20.77 1.45-22.93 1.65.2 7.04 5.28 9.35 6.98 6.09-18.19 7.5-27.21-11.2-36.02"/><path fill="#fff" d="M351.82 299.5c22.83 5.7 38.26 8.58 62.24 7.15 4.33-.26 12.19-3.72 17.7-4.15 1.37 2.38.44 6.39-.54 8.82-18.6 8.75-62.44 9.39-78.76-3.33-1.22-2.38-.74-5.65-.64-8.5"/><path fill="#f6f7fa" d="M377.16 325.83c3.1-.29 12.35-1.02 13.78 1.95l-1.21 1.15c2.26 1.9 28.53-2.18 28.48 8.18-2.38 1.68-2.82 1.13-6.17 1.25-20.58.51-28.73-1.45-48.3-7.96 5.3-2.27 7.7-3.37 13.42-4.57"/><path fill="#fff" d="M358.78 331.7s8.64 2.93 8.53 2.83c3.38 3.1 38.25 7.87 38.4 7.99l-1.17.49c-9.46 1.98-43.2-.3-48.23-7.6 2.18-1.64 1.47-.77 2.47-3.72"/><path fill="#d9e2f1" d="m452.25 199.42 3.37.56c2.87-1.1 2.4-1.42 5-.16 1.5 2.35 1.38 1.44 1.25 3.88l-1.58 1.27c7.07 3.95 19.46 16.99 17.32 25.5-2.21.74-1.33.61-3.79.03-1.27-5.56-7.25-17.06-12.05-20.21l-.92.58c.4 4.51.5 7.94.5 12.48-2.36 3.8-2.73 5.09-6.95 6.85-4.14 1.72-13.44.8-17.3-1.17-3.47-4.94-4.4-8.45-3.3-14.4 1.06-5.74 4.77-4.5 5.97-9.05-9.37-5.9-20.54 12.56-25.9 17.6l-.65-.58c1.27-9.56 8-17.5 17.12-20.3 8.9-2.75 14.35-1.44 23.09-.47z"/><path fill="#fff" d="M452.5 211.02a4.76 4.76 0 1 1 2.71 9.13 4.76 4.76 0 0 1-2.72-9.13"/><path fill="#d9e2f1" d="M383.12 259.67c3.96-.5 9.74-1.13 13.1 1.2l.33 2.08c-4.3.95-10.22-.28-13.44-3.28"/><path fill="#fff" d="M228.2 549.3c.04-4.69-.46-10.3 3.26-13.4 10.44-8.62 38.21-18.58 51.13-19.33 7.98 4.72 11.8 9.54 18.13 14.8 23.28 19.4 32.02 41.38 43.32 68.7 2.56 6.19 9.14 20.98 10.72 27.21q.57 2.22.82 4.5c-.21 10.83-.98 21.88.33 32.64.26 2.11.07 4.7-.03 6.85-.3 6.22-2.72 23.99-7.56 27.85l-.72-.17.26-2.23-.79-.67c-1.26 2.82-2.64 6.18-4.3 8.71-.28-2.27 4.14-11.18 5.37-14.04-5.4 5.08-16.15 15.77-22.16 18.84-4.6-.58-3.36-6.68-8.83-3.26-2.85 1.78-3.2 5.12-3.21 8.03-14.73-4.53-16.67-13.48-21.21-27.13-1.9-5.23-5.33-19.87-7.2-26.3l.67-1.82 1.58-.7c-1.3-4.58-2.79-2.62-1.09-10.59a7.6 7.6 0 0 0-1.57-5.7c-3.02-.04-4.9 1.88-6.92 3.93-3.55 3.6-2.1-.07-6.49.16l-1.7 1.99c-5.11 1.09-17.83 1.13-23.65 1.07-3.77-.04-8.65-1.67-11.4-5.06-3.82-4.69-3.88-14.12-3.98-19.9-.08-4.74 17.48-8.82 20.7-10.1 19.25-7.69 29.05-3.6 47.79 1.92l-10.8-7.75c-9.55-6.74-14.16-8.63-25.24-6.7-7.6 1.98-18.06 5.04-25.59 6.23-5.07.33-4.98.2-9-2.75-10.1-25.04 7.64-14.55 7.12-28.97 37.41-16.91 37.2-18.28 70.87 4.27-2.82-4.12-5.82-8.64-8.88-12.34-17.38-21-30.53-16.48-53-6.87-2.33 1-7.25 2.73-9.88 2.3-2.45-.42-3.15-1.93-4.62-3.76-1.99-4.15-2.11-5.92-2.26-10.46"/><path fill="#f6f7fa" d="M237.84 607.88c-1.09-5.49-2.68-8.47.18-12.83 2.18-1.48 21.37-5.85 24.09-5.5l.55 1.09c-2.38 3.33-7.83 5.4-6.26 9.13 2.06 1.67 4.39 1.62 7.03 1.87-7.6 2-18.06 5.05-25.59 6.24m14.89 26.6c4.2-.61 10.49-.85 14.87-1.15-4.5 4.06-7.49 7.54-13.04 9.85-4.2.08-9.02-1.42-10.96-5.34l.68-1.43c2.15-1.92 5.47-1.73 8.45-1.93"/><path fill="#fff" d="M276.27 133.66c11.42 20.46 19.92 29.28 39.83 41.65 3.7 2.3 4.23 2.7 4.42 6.85-.49 3.3-.63 4-.22 7.36.15 1.72.43 4.15.46 5.8 1.05 6.3 3.48 14.24.41 19.43-13.05 27.1-14.72 44.66-12.44 74.88-10.89 2.97-22.05 5.4-33.06 7.93 1.06-7.37.11-36.34.3-45.23.86-38.66-1.34-80.15.3-118.67m-.17 1352.51c-.7-7.16-.2-26.85-.2-34.75l.01-70.48.01-124.87c0-21.68-.03-43.41.05-65.09 0-3.86-.21-4.3 1.74-6.94a93 93 0 0 0 5.56 9.92l-.78 10.97c-.37 2.57-.6 4.5-.77 7.11-.98 7.58.26 10.69 4.76 16.97q.94 68.06 3.3 136.1c.88 29.36 2.72 62.91-.74 92.13-.78 6.63-8.96 23.4-12.94 28.93"/><path fill="#f6f7fa" d="M363.21 629.92c3.24-.48 3.78-1.13 6.35.08 5.67 7.89 17.24 34.16 15.06 43.75-3.5 15.41-13.27 32.57-22.04 45.67-6.44 9.6-16.07 13.67-25.82 19.1-4.17-3.68-14.7-12.14-16.35-16.65.91-2.11 2.4-4.78 2.22-6.91-2-1.55-2.36-1.5-5.34-1.12q-1.68.22-3.35.49c.02-2.92.36-6.25 3.21-8.03 5.48-3.42 4.23 2.68 8.83 3.26 6-3.07 16.76-13.76 22.16-18.84-1.23 2.86-5.65 11.76-5.37 14.04 1.66-2.53 3.04-5.9 4.3-8.7l.8.66-.27 2.23.72.17c4.84-3.86 7.25-21.63 7.56-27.85.1-2.15.29-4.74.03-6.85-1.31-10.76-.54-21.81-.33-32.65 3.45 1.34 5.3.98 7.63-1.85"/><path fill="#e9eff9" d="M363.21 629.92c-1.4 8.84-6.45 21.73-6.76 26.2 1.37.99 2.35 1.6 3.8 2.46.15 7.13.97 7.66-4.37 12.7.1-2.16.29-4.75.03-6.86-1.31-10.76-.54-21.81-.33-32.64 3.45 1.33 5.3.97 7.63-1.86"/><path fill="#f6f7fa" d="M463.87 1017.38c.2-3.45.7-6.69 1.17-10.1 6-43.85 13.81-87.42 20.24-131.2 1.1-7.51-8.16-19.99-6.08-27.32 2.13-2.71 1.05-1.99 4.01-3.12q7.74 14.14 15.68 28.2l-22.16 146.56z"/><path fill="#fff" d="M275.86 338.2c8.52-2.13 26.7-7.19 34.62-8.36 1.06 12.44 1.5 24.85 2.1 37.32.35 6.84-.1 9.74 4.74 14.85-11.95 3.44-20.58 6.65-33.18 9.52-2.34-5.68-3.8-8.33-8.2-12.57q.11-20.38-.08-40.76m.75-28.62q16.3-3.87 32.55-8.02l.75 18.86c-11.17 2.5-23.16 5.15-34.19 8.18.15-3.7-.2-16.9.9-19.02"/><path fill="#e9eff9" d="m270 648.17 1.71-2c4.4-.22 2.94 3.45 6.49-.15 2.03-2.05 3.9-3.97 6.92-3.92a7.6 7.6 0 0 1 1.57 5.7c-1.7 7.96-.2 6 1.09 10.58l-1.58.7-.66 1.82-.75 1.42c-5.32 3.3-9.6-3.47-13.26-7.32l-1.26.12c-3.08 2.64-1.93 3.97-3.74 6.37-1.27-3.72-.59-7.74 1.29-11.12a4 4 0 0 0 1.68-1.5zm-47.26-76.92c6.42 3.95 1.78 10.07 13.22 4.9.52 14.43-17.22 3.94-7.11 28.98-1.27.35-1.45.16-2.78-.1-7.11-5.17-7.23-8.3-4.22-16.65.18-.51 2.05-.51 2.65-.58l.55-.76c.12-4.39-3.13-9.05-5.7-12.55z"/><path fill="#fff" d="M580.14 262.3c8.41-3.4 26.34-7.92 35.78-10.6a2574 2574 0 0 0 64.46-19.05c6.93-2.17 20.41-6.11 26.73-9 3.7 15.75 8.73 31.54 13.26 47.1a2286 2286 0 0 1 16.28 59.13c4.42-1.94 8.65-3.82 13.2-5.5 2.94 39.4-4.78 74.02-29.28 106.05-9.91 12.96-27.27 19.58-43.08 20.82-8.9.71-31.82-1.94-36.25-9.9 9.15-30.6 10.73-60.03-4.36-89.58-2.27-4.44-11.67-21.59-16.01-21.59-14.1 0-37.06 7.4-51.53 9.77-2.41.49-4.15 1.57-6.3 2.77l-1.04-.59c-.73-3.37-.84-5.8-3.27-8.23l-.08.33c-2.18-2.52-1.48-2.94-1.76-7.08l-1.84.19c-1.94-.82-2.65-2.7-3.8-4.63-2.04 7.33-.35 12.11 1.24 19.51l1.05 5.38c1.27 6.34 3.24 12.81-.42 18.75-4.75 7.71-15.45 5.12-22.16 2.28-.5-.5-5.97-3.88-6.8-4.33-7.05-3.83-9.53-10.23-13.5-17.38 6-10.66 8.33-15.83 12.26-27.41 6.94 2.76 10.45 2.96 17.8 2.43-2.91-3.94-4.69-4.96-4.57-10.03-14.95.56-12.86-12.02-11.85-22.7.45-4.65 1.18-8.38 3.23-12.62l.32-2.98c3.19-9.99 6.58-22.45 11.34-31.55 2.31-4.4 4.62-5.27 9.1-6.38 1.1.26 3.2.66 4.1 1.14l3.26.39c5.75 3.4 9 8.72 13.16 7.71l1.23-.33c5.1 4.09 1.88 14.54 10.1 17.7"/><path fill="#f6f7fa" d="M548.29 235.68c1.1.26 3.2.66 4.1 1.14l3.26.38c5.75 3.4 9 8.72 13.16 7.72l1.23-.33c5.1 4.09 1.88 14.54 10.1 17.7.9 7.07-.65 13.18-2.5 19.97-4.87 11.1-8.46 18.56-17.24 27.26-5.88 6.61-11.14 9.75-19.68 12.42-2.91-3.94-4.7-4.96-4.57-10.03-14.95.56-12.86-12.02-11.85-22.7.45-4.65 1.18-8.38 3.23-12.62l.31-2.98c3.2-9.99 6.59-22.45 11.35-31.55 2.31-4.4 4.62-5.27 9.1-6.38"/><path fill="#d9e2f1" d="M570.43 267.62c5.01 2.16 5.7 9.4 7.2 14.64-4.87 11.1-8.45 18.56-17.23 27.26-8.07-1.04-12.3 8.25-19.33 7.57-2.18-1.32-2.37-1.56-3.59-3.8.94-1.75 2.42-1.73 4.8-2.57 16.7-7.47 25.21-26 28.15-43.1"/><path fill="#fff" d="M555.65 237.2c1.97 2.43 2.4 4.77 1.51 7.8-1.9.58-8.33 1.27-10.22.43.26-3.06 1.98-5.7 3.43-8.49l2.02-.12zm12.19 14.45c2.62 1.05 2.7 4.2 1.62 6.48-2.25.32-1.8.02-4.32-1.46-1.26.76-1.52.69-2.95.9l-.49-1.32c1.74-2.8 3.04-2.88 6.14-4.6"/><path fill="#d9e2f1" d="M551.26 322.71c7.6-6.89 59.97-10.89 72.26-10.27q1.28.06 2.54.2c22.1 14.08 33.23 58.07 38.62 82.22l-7.74-7.38c-5-21.67-15.26-52.44-31.2-68.61-9.1-1.52-63.9 3.31-68.85 8.28l-1.84.19c-1.94-.82-2.65-2.7-3.8-4.63"/><path fill="#d9e2f1" d="M704.25 241.9c1.52-.09.78-.24 2.2.73 8.7 40.6 36 120.34 19.03 161-3.26 7.8-13.51 11.93-21.2 14.5 5.67-2.88 9.8-5.58 13.24-11.15 14.4-23.28 3.75-73.06-1.88-98.93-3.38-18.01-9.7-40.85-14.15-58.97-9.12 1.9-18.62 5.42-27.59 7.56-26.28 6.3-55.45 16.57-81.46 21.85a74 74 0 0 1 8.8-2.85c34.91-9.6 68.76-21.96 103-33.74"/><path fill="#fff" d="M425.63 651.03c-.86-8.47-2.13-19.78 4.68-26.6 34.08-34.1 72.46-64.57 112.08-92.03 26.81-18.58 43.09-21.86 74.77-15.36l14.96 4.38c5.72 6.04 11.11 13.95 15.71 20.89q3.39 54.22 3.96 108.55c.35 23.77 1.29 46.33-2.07 69.87-18.94-49.83-31.85-67.84-76.02-98.48-18.68-11.37-38.32-24.47-57.67-34.52.46-9.17.79-16.6 2.17-25.71-3.68 6.4-6.77 14.83-10.87 21.03-.8 1.23-2.64.89-4.22.91l3.9 1.29c-.12 1.01-.86 7-.78 7.12-1.19-.72-.4-2.78-3.58-3.88-1.85 1.56-1.55.85-2.03 2.87 1.57 2.41 1.81 3 1.8 5.88 1.37 2 .65 1.54 2.7 2.28l-3.73 5.27c-4.22-3.07-2.01-9.07-3.76-14.48l-.92-.03-2.46 3.67c-6.74 11.88-17.31 25.54-22.48 37.61-1.64 3.85-2.82 19.65-3.32 24.45a273 273 0 0 0-42.82-4.98"/><path fill="#f6f7fa" d="M425.63 651.03c-.86-8.47-2.13-19.78 4.68-26.6 34.08-34.1 72.46-64.57 112.08-92.03 26.81-18.58 43.09-21.86 74.77-15.36-3.5.57-8.26 3.79-11.71 5.59-3.31-1.7-1.26-5.14-7.54-3.46-2.02 3.75 2.46 8.83-4.28 11.83-1.55.7-6.41-1.55-9.36-.66-6.13 1.82-9.41 8.74-13.73 12.46-5.47 4.73-9.24 6.48-13.23 13.14-7.5 12.55-1.72 24.59 4.76 36 3.66 6.44 18.49 21.16 14.18 29.05l-2.55 1.26c-18.68-11.37-38.32-24.47-57.67-34.52.46-9.17.79-16.6 2.17-25.71-3.68 6.4-6.77 14.83-10.87 21.03-.8 1.23-2.64.89-4.22.91l3.9 1.29c-.12 1.01-.86 7-.78 7.12-1.19-.72-.4-2.78-3.58-3.88-1.85 1.56-1.55.85-2.03 2.87 1.57 2.41 1.81 3 1.8 5.88 1.37 2 .65 1.54 2.7 2.28l-3.73 5.27c-4.22-3.07-2.01-9.07-3.76-14.48l-.92-.03-2.46 3.67c-6.74 11.88-17.31 25.54-22.48 37.61-1.64 3.85-2.82 19.65-3.32 24.45a273 273 0 0 0-42.82-4.98"/><path fill="#e9eff9" d="M494.25 593.95c-2.65-2.65-3-5.11-.83-7.9 2.74-1.02 4.25-1.62 7.12-.51l2.57-1.58 3.9 1.29c-.12 1.01-.86 7-.78 7.12-1.18-.72-.4-2.78-3.58-3.88-1.85 1.56-1.55.85-2.03 2.87 1.57 2.42 1.81 3 1.8 5.88 1.37 2 .65 1.54 2.7 2.28l-3.73 5.27c-4.22-3.07-2.01-9.07-3.76-14.48l-.91-.03z"/><path fill="#fff" d="M571.31 527c1.46-.12.74-.2 2.12.55-.62 3.8-8.25 8.6-11.83 11.72l-1.48.6-.8-1c1.06-3.55 8.8-9.35 12-11.86"/><path fill="#f6f7fa" d="M536.82 414.69c13.23 15.1 27.35 29.46 40.55 44.65-56.58 15.13-100.13 45.21-144.92 81.72-7.96 6.49-19.87 16.2-27.17 23.13-7.57-.64-15.47-1.18-22.94-2.38-2.99-.05-11.67-1.24-15-1.61a411 411 0 0 1-29.7-3.88c-8.68-14.24-13.91-20.46-25.94-31.82-.03-30.37 15.25-61.06 27.49-88.5 13.03 5.65 22.88 17.79 30.7 29.25-8.83 18.48-24.5 54.99-28.24 75.01 3.7-6.47 13.87-20.34 18.47-27.01 6.85-10.36 32.41-49.05 49.16-39.34 5.44 3.15 8.9 20.68 12.02 27.93l71.2-53.63c12.67-9.68 31.16-24.75 44.32-33.52"/><path fill="#fff" d="M360.12 513.25c1.33 4.81-7.35 29.16-12.24 31.18-2.55-.39-5.59-1.1-6.23-4.16 3.7-6.48 13.87-20.35 18.47-27.02m7.21 46.95c-.68-5.65-3.17-5.51-3.36-8.83.76-1.62 1.64-1.96 3.14-2.94 2.94 9.1 7.78 4.81 11.14 11.92l3.85.35.24 1.11c-2.99-.05-11.67-1.24-15-1.61m14.68-28.21 1.47.25c-4.34 4.68-7.59 10.06-13 11.33l-.82.65c1.66-4.38 8.51-9.14 12.35-12.23"/><path fill="#f6f7fa" d="M397.4 662.35c26.53 1.7 65.86 3.33 90.67 14.7 5.09 2.34 13.86 12.89 17.69 16.45 11.5 10.7 50.85 81.95 51.94 95.16-5.1 11.46-49-14.38-57.42-18.03 5.15 7.41 10.62 14.9 16.68 21.61a338 338 0 0 1-23.66-2.08c-36.11-6.62-47.7-12.93-79.15-31.07a2596 2596 0 0 0-39.91-22.59c-1.67-.82-3.97-1.87-5.47-2.87 16.35-19.32 29.96-45.54 28.62-71.28"/><path fill="#fff" d="M374.24 736.5c1.96-2.08 4.56-3.9 7.55-3.93 4.9-.05 53 26.66 61.06 31.46 5.82 3.47 11.65 8.36 17.76 11.1 6.33 2.82 32.54 9.58 34.8 11.15l.67 1.57c-.91 1.9-.43 1.25-2.78 2.31-36.11-6.62-47.7-12.93-79.15-31.07a2596 2596 0 0 0-39.91-22.58"/><path fill="#f6f7fa" d="M505.11 599.52c7.37-1.04 21.8 10.25 28.94 13.88 26.52 13.47 53.37 28.55 71.51 52.88 13.1 19.08 35.42 62.4 38.31 84.51q.34 2.72.52 5.45c-7.75 5.05-22 13.7-30.66 17.17-7.97-16.3-15.61-32.15-25.22-47.57 4.59 21.3 4.58 32.27 11.18 54.48-11.6 4.5-15.73 5.88-27.9 7.83-10.58-29.8-34.94-75.4-54.14-100.83-7.05-9.34-27.76-27.33-37.4-34.2a697 697 0 0 0 3.24-23.21c11.98 5.06 24.6 10.19 36.37 15.6a1688 1688 0 0 0-24.24-26.92c1.19-2.78 5.02-11.33 5.77-13.8z"/><path fill="#fff" d="M566.64 731.2c3.26.56-.22.16 2.4 3.59a38 38 0 0 0 3.44-.29l.64 1.1-1.54 2.11c.75 2.41 1.14 3.3 1.07 5.87-2.4 2.18-4.15 2.89-6.36 5.46l-.41.5q-1.48-1.25-2.97-2.46c-1.76.44-2.22.67-4.06.36 2.22-4.85 3.27-5.09 1.93-11.18-.37-1.7-.02-1.97.96-3.22 2.36-.22 3-.4 4.9-1.84m-6.32-74.6c2.27 4.47-.66 9.92-3.49 13.35l-2 .02-.6-.58c5.59-6.98 1.94-7.5 6.1-12.79m-13.5 57.56c2.47.26 3.03.22 5.29 1.14.22 2.16.15 1.46-1.64 3.78l-2.83.11-1.23-1.2c-.2-2.02-.29-1.98.4-3.83M432.2 29.59c39.1-4.02 86.85 23.34 96.1 63.27 3.35 14.52-2.59 47.39-5.71 62.75-4.93-6.87-17.3-18.5-23.77-24.67-6.72-4.76-14.47-12-22.24-17.48-31.75-22.4-61.58-36.72-99.5-44.43 13.22-28.91 22.86-36.72 55.12-39.44"/><path fill="#e9eff9" d="M443.2 1141.25c-10.05-8.26-27.07-31.77-28.52-44.8-2.76-24.82 8-54.66 18.07-77 17.07 10.23 29.42 14.74 49.36 17.49 4.1.56 11.2 1.5 15.2 1.03 1.43-1.82 1.31-2.65 1.5-4.98l.07-.8 1.13.55c.3 1.99.48 2.62 1.1 4.54q3.48 1.49 7.04 2.77c-2.1 7.23-5.1 15.06-7.78 22.11-8.2 21.46-15.42 43.51-23.66 64.92-7.27 2.88-15.94 6.86-22.94 9.4-1.05.92-8.78 4.01-10.56 4.77"/><path fill="#f6f7fa" d="M508.15 1040.05c-2.1 7.23-5.1 15.06-7.78 22.11-8.2 21.46-15.42 43.51-23.66 64.92-7.27 2.88-15.94 6.86-22.94 9.4 1.35-4.14 14.2-11.67 18.78-14.9 6.34-16.75 15.37-39.89 21.34-57.47.42-1.24-3.02-6.16-2.97-10.09.86-2.31 1.01-2.56 3.06-3.92 6.83-.5 7.46-1.19 8.85-7.86 2.3-2.3 1.57-1.63 5.32-2.19"/><path fill="#e9eff9" d="M552.49 342.22c-1.6-7.4-3.28-12.18-1.23-19.5 1.13 1.92 1.85 3.8 3.79 4.62l1.84-.2c.28 4.15-.42 4.57 1.76 7.09l.08-.33c2.43 2.43 2.53 4.85 3.27 8.23l1.03.6c2.16-1.21 3.9-2.3 6.31-2.78 1.17 2.89 1.91 3.3 4.27 5.15 3.75.89 37.97-7.78 45.56-8.77 18.99 23.97 25.25 47.4 21.7 77.97q-1.28 10.73-4.03 21.17l-15 4.1-9.89 2.51c-2.96 1.3-22.94 5.56-26.44 6.25.3-23.03 3.52-48.19-4.4-70.17-1.64-4.57-7.82-23.74-11.6-25.64-4.92 10.46-2.77 22.45-1.16 33.08 1.33 8.6-4.17 19.16-14.1 17.57-9.05-1.44-16.5-13.57-21.53-20.89-2.08-2.5-4.95-5.96-5.22-9.18 1.15-3.47.28-2.26 3.46-4.47 6.71 2.84 17.4 5.43 22.16-2.29 3.66-5.92 1.69-12.4.42-18.74z"/><path fill="#fff" d="M532.72 382.28c10.85 1.6 14.11-8.38 23.44-7.27 5.5 3.97 2.06 7.09 10.2 7.81l1.99 2.78c1.33 8.6-4.17 19.16-14.1 17.58-9.05-1.45-16.5-13.58-21.53-20.9"/><path fill="#f6f7fa" d="M611.95 442.09c-.05-4.18 4.03-12.51 9.13-12.08 3.25 3.28 1.88 5.41.76 9.57z"/><path fill="#d9e2f1" d="M552.48 342.22c2.55-2.28 1.4-1.88 4.3-2.04 1.93 1.38 2.53 3.51 2.94 5.8q.75 4.39.64 8.84l-1.02-.03c-.68-3.03-1.22-6.44-2.69-9.09-1.58.72-1.76.9-3.12 1.9z"/><path fill="#f6f7fa" d="m638.6 402.67 1.6 1.43c.7 5.34.75 8.62-1.02 13.73l-1.2-.5c-1.79-.94-1.73-.96-3.13-2.46-.85-5.42-1.28-9.15 3.75-12.2"/><path fill="#fff" d="M563.68 355.94c2.72 6.05 2.93 15.01-3.31 19.04-.51-.64-1.09-1.6-1.54-2.31 3.69-7.33 2.5-12.26 4.85-16.73"/><path fill="#e9eff9" d="M447.73 159.98c-8-9.34-15.44-22.22-24.1-31.77-21.96-24.22-64.17-46-97.09-47.04-8.12-.26-24.57-.04-30.6 5.45l.89 2.17c-1.73 1.07-5.41.59-7.27.09 3.4-7.38 28.2-13.1 36.35-13.72 43.26-3.33 86.07 11.02 123.34 32.07 6.08 3.43 14.17 7.99 19.5 12.36 29.39 20.69 44.86 36.5 63.76 66.65-9.71.32-19.68.51-29.37.61-28.85.28-39.33-.52-55.41-26.87"/><path fill="#f6f7fa" d="M467.86 173.04c8.4.57 35.32 3.11 40.26-1.9 11.37-11.53-36.41-43.66-42.08-49.88l2.7-1.67c29.4 20.69 44.87 36.5 63.78 66.65-9.72.32-19.69.51-29.38.61-28.85.28-39.33-.52-55.41-26.87l.82-.33c7.18 4.22 12.61 8.49 19.31 13.39"/><path fill="#e9eff9" d="M864.62 225.6c8.24 6.27-4.49 20.24 11.85 22.7l.88.12c4.45 4.69-5.2 16.36-1.9 22.75 9.17 17.77-4.21 38.73 11.04 54.77l1.94-3.12.78.26c1.57 10.25-6.89 32.23-12.87 41.18-23.62 35.32-68.7 46.01-107.22 54.28a605 605 0 0 1-28.78 4.96c6.86-12.87 10.54-21.68 15.81-35.12 35.94-2.1 92.7-9.37 107.62-51.05 7.85-21.94 1.34-56.44 0-79.35-.42-7.14-3.28-19.47-1.96-26.37 2.05-2.07 2.13-3.25 2.81-6.01"/><path fill="#f6f7fa" d="M498.94 373.97c2.3 2.53 2.76 3.51 4 6.68a12.5 12.5 0 0 0 5.5 2.26c7.05 1.22 9.72 5.9 14.18 11.47.9 1.18 3.83 4.83 4.5 5.9 1.65 2.05 2.65 2.46 2.5 4.55-3.86 3.31-19.2 14.56-23.68 17.2l-1.25 1.38a327 327 0 0 0-14.85 10.43c-18.46 13.68-38 26-55.86 40.49-.44.63-6.14 5.63-7.11 6.5-9.8-30.82-23.24-26.89-46.6-10.46 22.37-31.35 35.41-37.73 69.3-52.78q25.08-11.2 50.4-21.85l.37-.95c-1.83-4.4-.6-10.11-5.7-11.22 2.64-2.14 3.37-6.3 4.3-9.6"/><path fill="#fff" d="M433.98 474.33c-8.52-3.7-8.23-17.8-.53-22.8 1.97.28 2.48 1.17 3.9 2.69l.54.58c7.81.56 14.69-11.42 19.62-15.11 8.3-6.23 21.76-9.55 28.27-17.93.97-1.25-.74-3.95-1.37-5.34 2.55-3.72 14.97-3.39 19.19-1.42 1.44 2.44 1 5.24 1.09 8.41a327 327 0 0 0-14.85 10.43c-18.46 13.68-38 26-55.86 40.49"/><path fill="#e9eff9" d="M498.94 373.97c2.3 2.53 2.76 3.51 4 6.68a12.5 12.5 0 0 0 5.5 2.26c7.05 1.22 9.72 5.9 14.18 11.47-3.09.72-7.5 4.56-11.28.94-.34-4.78 3.64-4.6 1.21-7.34l-2.96.25c-3 3.77-4.77 6.32-9.63 7.5l.38-.94c-1.83-4.4-.6-10.11-5.7-11.22 2.64-2.14 3.37-6.3 4.3-9.6"/><path fill="#fff" d="M505.94 422.03c-.62-1.57-1.74-4.65-1.13-6.2 2.99-7.63 15.43-12.3 22.3-15.54 1.66 2.04 2.66 2.45 2.51 4.54-3.86 3.31-19.2 14.56-23.68 17.2"/><path fill="#e9eff9" d="M420.47 608.27c-.27-9.24 2.58-14.1 8.08-21.44 38.06-50.85 90.9-88.12 154.65-97.4 6.96-1.02 15.58-2.18 22.57-1.78 3.43 1.63 6.5 6.63 8.57 9.78 1.98 2.84 4.38 6.1 6.21 8.96-65.35-18.9-134.91 48.83-179.7 88.53-2.79 2.47-16.44 15.7-19.01 16.5-.74-1.37-.92-1.62-1.37-3.15"/><path fill="#f6f7fa" d="M420.47 608.27c7.1-7.45 22.18-20.71 30.46-27.91 36.35-31.72 68.46-63.84 116.09-78.2 23.8-7.17 23.2-6.09 47.32-4.73 1.98 2.84 4.38 6.09 6.21 8.96-65.35-18.9-134.91 48.83-179.7 88.53-2.79 2.47-16.44 15.7-19.01 16.5-.74-1.37-.92-1.62-1.37-3.15"/><path fill="#e9eff9" d="M815.96 289.71c2.63 1.38 11.07 11.59 13.07 14.56-.69 9.72-2.52 25.17-.5 34.41 1.4 6.45 5.26 9.1 10.69 12.12-15.94 17.26-34.71 23.1-57.14 27.3-8.25 1.31-15.6 2.4-23.91 3.22 2.57-16.61 4.52-21.57 4.61-38.82 27.98-7.73 43.04-26.9 53.18-52.79"/><path fill="#f6f7fa" d="M851.05 205.95c.26.11 1.07.9 1.33 1.13l6.74 76.87c1 12.29 2.33 25.55 2.28 37.85-.03 13.82-11.64 33.36-26.48 19.42-3.09-2.9-1.62-13.66-1.33-17.7q.1-9.3.57-18.6c2.85-2.36 6.6-5.02 9.62-7.29-2.19-2.75-4.72-5.65-7-8.37 1.93-1.96 2.96-2.83 4.24-5.34-1.35-1.67-1.36-1.91-2.07-3.98.76-2.2 1.24-1.9 3.64-3.35 3.27-6.24-5.79-21.37-10.56-25.74l6-6.69-6.1-6.23c1.6-2.52 3.6-4.52 5.62-6.7l-6.43-6.64 5.77-6.04c-2-1.92-3.65-3.2-4.6-5.84.5-7.38 12.69-6.35 18.75-6.76"/><path fill="#e9eff9" d="M552.29 105.08c1.72-.14 1.8.06 3.3.87 2.79-2.51 2.25-4.8 4.67-5.64 4.52 4.81 10.9 15.56 13.34 22.01 2.03 5.33-1.4 18.1.41 21.61l1.5 1.22c.79 8.06-1.47 14.04-3.62 21.82l.58.74 1.12-1.32.66.47c1.49 13.29-2.77 27.11-6.01 39.85-1 3.94 1.84 1.98-.28 9.3-2.53 8.72-9.16 14.62-12.31 21.2l-3.26-.4c-.9-.47-3-.87-4.1-1.13l1.3-.06.95-1.34 1.17.44-1.56.8c1.1-.5 1.46-.4 1.82-1.14-1.19-.77-2.32-1.47-3.53-2.2-.14-3.5 7.68-10.92 7.28-13-1.39-7.09-13.24-28.01-12.59-33.96l1.63.28c3.14-5.95 6.5-6.22 10.01-9.51l.47-.45c-8.9-13.63-2.15-33.52-1.39-48.6-.26-3.1.43-5.93-.97-8.05-3.62-1.63.24.4-3.53 1.1-3.62-3.28-9.18-7.08-3.17-11.28 2.66-1.86 2.42-2.4 5.54-1.98z"/><path fill="#fff" d="M693.04 200.15c3.75 1.18 9.73 12.94 11.95 16.81-38.94 12.75-81.81 23.69-121.61 34.32l-2.5.47c-1.13-.89-6.9-11.88-9.64-15.54zM430.96 1271.11c.61.04.6.25 1.26.8-9.85 56.82-26.24 121.62-32.55 178.32-2.96-.32-6.85-1.18-9.86-1.78l-1.66-.51c-2.1-4.33 26.78-157.2 30.24-171.85a87 87 0 0 0 12.57-4.98"/><path fill="#e9eff9" d="m733.46 213.62 1.71-.1c.61 2.14-1.1 5.66-1.96 8l9.71 4.05-6.66 8.13 8.26 3.88-6.07 8.2 9.46 4.42c-1.88 2.85-4.62 6.24-6.73 9.01l8.66 3.3-6.04 8.57 9.23 4.23-5.35 8.76a64 64 0 0 1 8.53 4.83l-5.32 7.95 6.43 3.67c-1.3 2.6-3.23 5.55-3.06 8.28l1.62 1.43c2.03 1.25 2.53 1.4 3.89 3.27l-.64 1.43c-3.75 2.86-12.63 4.69-17.55 6.04-6.84-30.86-19.38-70.65-27.87-102.12 6-1.84 13.58-3.6 19.75-5.23"/><path fill="#fff" d="m505 355.43-6.06 18.54c-.93 3.3-1.66 7.46-4.3 9.6-29.17 11.68-61.95 26.34-89.18 42.36-3.54 2.09-14.18 12.69-16.27 12.04a18 18 0 0 0-1.71-3.65c-1.66 2.99 2.3 14.37 1.28 19.65a20 20 0 0 1-5.73-14.28c-.01-3.8 1.55-4.75 4.13-7.23l-4.57-11.82c-1.7-3.86-3.56-9.26-5.09-13.32 34.1-2.69 77.43-15.4 107.55-31.79 7.14-3.88 14.96-13.61 19.95-20.1"/><path fill="#e9eff9" d="M382.6 420.64c3.28 1.75 9.66 1.2 11.04 4.37-1.3 4.73-3.25 8.7-4.45 12.95-.62-1.71-.8-2.04-1.7-3.64-1.67 2.99 2.29 14.37 1.27 19.64a20 20 0 0 1-5.73-14.27c-.01-3.8 1.55-4.75 4.13-7.23z"/><path fill="#fff" d="M330.1 392.11c9.92 5.54 18.58 10.78 29.79 13.18 6.4 2.45 7.03 9.86 9.94 16.16l1.42 3.85c2.53 5.6 8.24 16.97 8.56 22.5l-.8 1.42c-2.72.16-14.31-7.27-16.15-9.27a454 454 0 0 0-19.28-10.53c4.44-3.05 9.53-6.05 14.14-8.9-23.4 3.28-22.62 1.08-45.44 14.92 3.74-16.94 8.64-28.87 17.82-43.33"/><path fill="#f6f7fa" d="M371.25 425.3c2.53 5.6 8.24 16.97 8.56 22.5l-.8 1.42c-2.71.16-14.31-7.27-16.15-9.27 6.47-4.93 3.43-11.01 8.4-14.65m-11.36-20.01c6.4 2.45 7.02 9.86 9.93 16.16l-1.49-.42-.58-.18c-2.34-.72-3.61-2.38-5.35-4.15-1.17-4.09-2.16-7.14-2.52-11.41"/><path fill="#fff" d="M479.83 801.84c16 2.74 24.56 3.8 40.73 3.77a3066 3066 0 0 1-11.75 38.22l-3.56 11.27c-7.24-12.57-20.88-39.56-25.42-53.26m-106.62 644.95c13.04 6.28 17.68 9.2 29.49 17.72 1.92 15.7 8.8 35.39 14.4 50.35l-2.87 1.13c-2.91 8.04-1.75 10.65-8.05 14.11-2.35-16.79-7.88-42.46-14.78-58.15-2.88-6.55-13.58-19.41-18.19-25.16"/><path fill="#f6f7fa" d="M417.1 1514.86c1.63 5.44 3.23 16.54 6.38 18.94 3.48.22 3.77-.38 5.98 1.54 2.38 5.31.65 9.18-.18 13.97-3.42-.43-4.39-1.16-7.07.12l-1.63 3.24c-1.37-1.36-1.77-3.5-2.97-5.66l-1.8 1.59c-.35-2.61-1.12-4.96-3.4-6.24-3.35-.14-9.15 3.71-12.43 5.51 6.63-7.36 7.48-7.16 6.2-17.77 6.3-3.46 5.14-6.07 8.05-14.11z"/><path fill="#e9eff9" d="m415.81 1548.59 1.8-1.58c1.2 2.16 1.6 4.3 2.97 5.66.26 2.67-.47 3.8-1.49 6.29l-.36 1.46c-2.69 5.14-10.64 14.61-16.96 14.2-.92-1.55-.58-1.34-.45-3.54-15.85-7.05 2.75-16.22 9.59-19.24z"/><path fill="#fff" d="M401.32 1571.08c10.62-7.08 6.43-12.03 10.47-15.53 3.44 2.55 3.74 1.41 6.45 2.97l.5 1.9c-2.7 5.14-10.65 14.61-16.97 14.2-.92-1.55-.58-1.34-.45-3.54m14.49-22.49 1.8-1.58c1.2 2.16 1.6 4.3 2.97 5.66.26 2.67-.47 3.8-1.49 6.29l-.74-1.43c-3.66-2.09-4.25-2.77-7.44-5.69zM814.73 178.66c5.09.04 11.06.48 16.22.74 5.92 7.67 12.68 14.23 18.66 22.61-4.36.13-10.17 1.04-14.6 1.6-6.51-8.24-14.11-16.76-20.28-24.95m-.05 94.24c3.32.36 22.72 21.76 23.34 24.75l-2.28 2.99-1.64.36c-3.39-1.43-17.75-19.62-20.35-23.95-.8-1.34.23-2.67.93-4.14m-1.92-38.67c2.56.65 18.23 19.26 20.86 22.32-.32 2.54-1.3 2.97-3.13 5.25-4.62-5.15-16.5-17.42-20.09-23.72-.3-.53 1.75-3 2.36-3.85m6.1-29.44c3.45 1.5 10.35 9.38 11.74 12.98.57 1.5-.1 1.89-.97 3.78l-1.88.34a20 20 0 0 1-6.66-5.9c-3.75-6.03-3.3-5.06-2.23-11.2m-7.2 16.4c2.69 2.52 6.92 6.08 8.52 9.33 1.34 2.7.28 3.7-.85 6.55-2.84-3.03-9.24-8.18-9.78-12.19-.16-1.22 1.2-2.47 2.11-3.68"/><path fill="#f6f7fa" d="M811.03 208.44c1.4.44 5.03 3.77 5.77 5.04 1.69 2.95.18 4.75-1.05 7.84-2.64-2.88-5.73-4.91-7.3-8.56.17-2.76-.12-1.7 2.58-4.32"/><path fill="#fff" d="M810.6 194.98c2.62 1.82 4.57 4.07 4.86 7.26l-1.72 1.5c-3.06-.6-4.93-1.08-6.5-3.81.75-3.04.88-2.43 3.36-4.95"/><path fill="#e9eff9" d="M573.64 428c3.07.66 4.47 1.77 6 4.33.21 2.89 0 3.34-1 6.08-2.83-3.35-6.7-6.2-5-10.41"/><path fill="#fff" d="M824.18 259.52c4.1 1.48 8.07 4.73 6.42 9.41-2.78-1.22-3.55-1.44-5.7-3.77-.98-2.57-1-2.9-.72-5.64"/><path fill="#e9eff9" d="M566.76 419.54c2.4.75 3.44.87 4.96 2.9.94 2.66.45 4.2.05 7.01a73 73 0 0 1-5.5-8.19z"/></g><defs><clipPath id="a"><path fill="#fff" d="M0 0h972v1619H0z"/></clipPath></defs></svg>