<svg width="1495" height="1200" viewBox="0 0 1495 1200" fill="none" xmlns="http://www.w3.org/2000/svg">
<path d="M296.826 622.523C287.457 616.916 277.827 610.748 269.05 604.365C189.491 546.513 151.996 442.333 166.867 346.758C189.527 201.118 322.333 88.7713 469.738 93.0107C587.93 96.4102 698.796 176.208 734.873 289.172C739.68 304.18 743.481 310.657 742.657 326.554C832.904 330.015 847.012 494.579 842.066 559.996C841.935 561.76 841.862 563.453 841.614 565.209C841.716 566.512 841.899 569.901 842.125 571.048C853.359 579.979 865.6 588.802 875.222 599.584C883.13 608.454 891.111 619.2 898.822 628.508C916.636 650.017 932.021 668.04 952.448 687.184C953.119 687.956 954.643 689.564 955.03 690.374C960.392 695.091 966.469 700.934 972.874 703.929C1008.67 727.86 1049.06 739.268 1092.44 730.651C1138.26 721.543 1163.1 696.283 1214.45 706.189C1263.34 715.622 1278.16 753.813 1290.27 797.57C1292.56 805.83 1293.72 816.955 1295.25 825.718L1295.91 826.512C1302.96 834.947 1314.99 840.145 1323.32 847.786C1338.07 861.361 1351.38 876.619 1365.25 891.069C1375.4 901.64 1393.71 915.003 1401.25 926.69C1407.46 936.32 1405.18 969.725 1402.37 980.325C1401.28 982.221 1400.24 984.014 1398.74 985.458C1393.54 990.444 1392.12 1002.25 1386.09 1005.43C1385.83 1005.56 1385.26 1006.37 1385.02 1006.69C1386.82 1012.73 1393.1 1007.49 1386.98 1019.02C1379.54 1033.07 1366.21 1040.66 1356.38 1052.74C1354.38 1055.2 1352.89 1060.22 1350.36 1061.96C1346.58 1062.31 1343.4 1061.64 1340.28 1059.42C1338.54 1055.45 1341.19 1058.46 1339.57 1054.93C1337.55 1056.13 1336.51 1057.07 1334.7 1058.58C1328.83 1052.95 1320.21 1047.41 1313.81 1042.29C1281.61 1016.5 1244.86 998.515 1202.83 998.646C1185.93 998.697 1170.31 999.82 1154.16 1005.65C1122.63 1016.16 1104.11 1026.58 1069.8 1028.54C1051.76 1029.53 1033.68 1028.04 1016.05 1024.1C951.667 1010.03 915.695 966.372 876.404 917.672C861.923 899.73 844.539 882.751 829.548 865.086C826.652 861.681 821.013 855.251 817.891 852.554L817.103 851.89C786.653 868.615 758.48 874.082 731.386 898.323C717.781 910.498 675.718 927.018 661.715 912.765C658.35 909.339 666.564 870 666.471 863.533C666.964 847.042 667.018 830.683 666.704 814.25C666.48 802.527 664.418 794.486 667.4 783.084C630.642 779.759 587.447 781.691 549.829 781.327C534.979 781.625 519.846 781.093 504.947 781.246C477.128 781.538 449.627 781.815 421.814 781.02C420.384 790.994 422.722 803.453 418.867 812.704C417.208 816.678 413.827 818.865 409.967 820.447C402.661 823.436 332.749 823.232 321.514 822.313C318.239 822.043 315.15 821.511 312.143 820.112C308.399 818.369 302.832 814.257 301.196 810.379C299.676 806.777 299.18 802.52 298.919 798.656C297.681 780.306 298.836 761.285 298.942 742.877L298.791 659.104C298.819 651.45 299.641 628.196 296.826 622.523Z" fill="#9FBFF9"/>
<path d="M720.717 784.064H420.717V328.686H725.498L720.717 784.064Z" fill="url(#paint0_linear_35_481)"/>
<path d="M296.826 622.523C287.457 616.916 277.827 610.748 269.05 604.365C189.491 546.513 151.996 442.333 166.867 346.758C189.527 201.118 322.333 88.7713 469.738 93.0107C587.93 96.4102 698.796 176.208 734.873 289.172C739.68 304.18 743.481 310.657 742.657 326.554C736.697 328.045 730.839 328.551 725.016 329.963L718.099 331.98C717.899 331.233 717.241 328.531 716.349 328.522C711.279 328.472 704.947 328.399 700.02 328.303C625.052 327.48 550.078 327.296 475.107 327.751C467.263 327.749 425.929 329.014 422.951 327.29L421.885 321.817L421.982 612.033L422.025 686.083C421.911 699.346 421.183 724.916 422.305 737.584C421.684 744.393 421.259 774.415 421.814 781.02C420.384 790.994 422.722 803.453 418.867 812.704C417.208 816.678 413.827 818.865 409.967 820.447C402.661 823.436 332.749 823.232 321.514 822.313C318.239 822.043 315.15 821.511 312.143 820.112C308.399 818.369 302.832 814.257 301.196 810.379C299.676 806.777 299.18 802.52 298.919 798.656C297.681 780.306 298.836 761.285 298.942 742.877L298.791 659.104C298.819 651.45 299.641 628.196 296.826 622.523Z" fill="#E7EDFA"/>
<path d="M296.826 622.523C298.76 618.379 297.519 578.895 297.512 571.711L297.693 397.083L297.669 345.036C297.667 334.52 297.356 323.315 298.508 312.867C298.999 308.416 301.594 304.152 304.731 301.011C311.416 294.27 321.376 293.545 330.329 293.547C351.082 293.55 371.845 293.932 392.599 293.653C397.602 293.585 402.659 293.425 407.628 294.133C410.814 294.587 414.018 296.092 416.263 298.416C422.468 304.986 421.819 313.482 421.885 321.818L421.982 612.034L422.025 686.083C421.911 699.347 421.183 724.916 422.305 737.585C421.684 744.394 421.259 774.416 421.814 781.021C420.384 790.994 422.722 803.454 418.867 812.705C417.208 816.678 413.827 818.865 409.967 820.447C402.661 823.437 332.749 823.232 321.514 822.314C318.24 822.044 315.15 821.512 312.143 820.112C308.399 818.37 302.832 814.258 301.196 810.379C299.676 806.778 299.18 802.52 298.919 798.656C297.681 780.307 298.836 761.286 298.942 742.878L298.791 659.105C298.819 651.45 299.641 628.197 296.826 622.523Z" fill="#002EA5"/>
<path d="M723.191 782.129C727.491 782.384 735.238 782.647 739.155 784.425C767.372 797.308 789.71 821.475 811.04 843.368C812.711 845.082 816.855 849.784 817.103 851.891C786.653 868.615 758.48 874.083 731.386 898.323C717.781 910.498 675.718 927.018 661.715 912.766C658.35 909.339 666.564 870 666.471 863.534C666.964 847.043 667.017 830.683 666.704 814.25C666.48 802.527 664.417 794.486 667.4 783.084C681.941 781.349 706.686 782.909 723.191 782.129Z" fill="#E7EDFA"/>
<path d="M842.125 571.049C853.359 579.98 865.6 588.802 875.222 599.585C883.13 608.454 891.111 619.2 898.822 628.509C916.636 650.018 932.021 668.04 952.448 687.185C953.119 687.957 954.643 689.565 955.03 690.375C951.689 689.621 951.273 687.012 947.713 684.842C932.153 691.234 929.694 701.823 917.913 708.094C913.726 710.32 891.797 705.31 885.304 710.691C884.669 712.579 884.443 714.352 885.8 716.227C895.072 729.001 905.913 741.245 915.571 753.777C917.599 756.401 922.151 761.614 923.406 763.976C918.664 760.397 903.95 742.338 899.799 736.725C874.04 701.863 860.457 685.45 824.04 662.683C827.009 658.38 828.6 650.308 830.059 645.104C837.332 619.163 840.658 597.635 842.125 571.049Z" fill="#81AEFC"/>
<path d="M1192.54 889.698C1198.29 893.504 1202.92 896.916 1208.39 901.071C1204.88 901.166 1184.89 901.91 1182.73 901.523C1186.52 898.629 1195.73 901.924 1199.19 899.278C1199.38 894.051 1195.01 894.495 1192.54 889.698Z" fill="#ADC7F5"/>
<path d="M702.71 679.383C706.558 679.478 711.278 679.47 715.042 679.752C711.367 682.357 697.983 681.351 692.803 681.28C691.688 693.529 688.492 701.502 686.244 712.967C685.286 717.859 686.417 731.767 686.166 737.475C685.926 742.906 685.299 749.147 685.277 754.462C687.369 756.568 691.811 761.249 693.952 762.831L693.067 763.458C682.11 761.562 656.341 702.757 653.938 690.302C657.625 693.952 657.103 700.329 660.51 704.81L661.57 704.654C663.274 701.753 664.201 694.23 664.028 690.811C662.581 691.185 662.819 694.891 660.962 697.924L659.976 697.639C659.981 695.584 660.09 694.795 659.037 692.92C669.651 681.727 688.129 679.511 702.71 679.383Z" fill="#4579D8"/>
<path d="M421.814 781.02C421.259 774.415 421.684 744.393 422.305 737.584L422.389 738.422C423.388 748.811 422.95 764.07 423.667 775.552C442.899 777.929 456.228 767.446 473.12 779.292C482.384 779.686 547.744 779.686 549.829 781.326C534.979 781.625 519.846 781.093 504.947 781.246C477.128 781.538 449.627 781.815 421.814 781.02Z" fill="#3B82FE"/>
<path d="M1137.2 500.254C1163.13 495.952 1187.66 513.385 1192.12 539.281C1196.6 565.177 1179.32 589.824 1153.45 594.461C1127.35 599.14 1102.43 581.673 1097.92 555.539C1093.4 529.404 1111.03 504.593 1137.2 500.254Z" fill="url(#paint1_linear_35_481)"/>
<path d="M983.276 655.691L983.962 655.222C1001.21 643.309 1019.98 613.379 1043.97 617.216C1058.73 619.577 1056.69 638.124 1054.1 649.362C1053.05 654.051 1051.86 658.705 1050.53 663.318C1046.73 666.475 1041.88 670.648 1037.36 672.661C1036.72 670.671 1036.54 668.043 1036.33 665.926C1031.65 665.703 1024.83 669.073 1020.78 671.433C1017.23 673.502 1017.8 676.44 1016.86 680.882C1016.45 681.444 1015.61 682.572 1014.81 682.841C998.939 688.146 985.122 683.672 969.802 679.286C968.052 678.784 967.242 676.539 966.731 675.139C966.476 668.527 979.264 661.118 983.276 655.691Z" fill="#E7EEF9" fill-opacity="0.839216"/>
<path d="M544.872 943.443C561.298 942.736 565.664 949.283 573.303 962.654L573.398 974.829C568.143 983.322 564.883 988.819 554.719 991.509C518.744 993.922 516.328 951.594 544.872 943.443Z" fill="#3B82FE"/>
<path d="M1320.2 673.023C1326.47 669.729 1334.48 666.525 1340.95 671.271C1346.53 673.714 1351.17 676.885 1353.27 682.895C1364.58 715.057 1319.56 726.886 1309.28 698.185C1305.98 688.935 1312.95 678.778 1320.2 673.023Z" fill="#3B82FE"/>
<path d="M952.448 687.184C952.061 676.74 975.573 660.69 983.276 655.691C979.264 661.118 966.476 668.527 966.731 675.139C967.242 676.539 968.052 678.784 969.803 679.286C985.122 683.673 998.939 688.146 1014.81 682.841C1015.61 682.573 1016.45 681.445 1016.86 680.883C1017.8 676.44 1017.23 673.502 1020.78 671.434C1024.83 669.073 1031.65 665.703 1036.33 665.926C1036.54 668.043 1036.72 670.672 1037.36 672.661C1035.2 675.509 1035.71 679.018 1033.71 681.538C1030.66 685.36 1024.3 686.068 1022.13 690.666C1018.37 698.619 1011.24 698.935 1003.68 701.393C997.772 703.317 976.835 702.706 972.874 703.93C966.469 700.934 960.392 695.091 955.03 690.375C954.643 689.565 953.119 687.957 952.448 687.184Z" fill="#ADC7F5" fill-opacity="0.184314"/>
<path d="M1334.7 1058.58C1336.51 1057.07 1337.55 1056.13 1339.57 1054.93C1341.19 1058.46 1338.54 1055.45 1340.28 1059.42C1343.4 1061.64 1346.58 1062.31 1350.36 1061.96C1352.89 1060.22 1354.38 1055.2 1356.38 1052.74C1366.21 1040.66 1379.54 1033.07 1386.98 1019.02C1393.1 1007.49 1386.82 1012.73 1385.02 1006.69C1385.26 1006.37 1385.83 1005.57 1386.09 1005.43C1392.12 1002.26 1393.54 990.445 1398.74 985.459C1400.24 984.015 1401.28 982.222 1402.37 980.326C1399.79 991.429 1405.13 1011.79 1400.36 1022.56C1393.53 1037.99 1373.66 1056.12 1361.47 1067.93C1358.97 1070.33 1351.49 1070.63 1347.93 1070.65C1341.68 1066.45 1338.77 1065.06 1334.7 1058.58Z" fill="#E7EDFA" fill-opacity="0.717647"/>
<ellipse cx="742.231" cy="559.363" rx="106.375" ry="229.482" fill="url(#paint2_linear_35_481)"/>
<path d="M842.125 571.049C853.359 579.98 865.6 588.802 875.222 599.585C883.13 608.454 891.111 619.2 898.822 628.509C916.636 650.018 932.021 668.04 952.447 687.185C953.119 687.957 954.643 689.565 955.03 690.375C960.392 695.091 966.468 700.935 972.874 703.93C1008.67 727.861 1049.06 739.269 1092.44 730.652C1138.26 721.544 1163.1 696.283 1214.45 706.19C1263.34 715.623 1278.16 753.813 1290.27 797.57C1292.56 805.83 1293.72 816.955 1295.25 825.719L1295.91 826.513C1302.96 834.948 1314.99 840.146 1323.32 847.787C1338.07 861.361 1351.38 876.62 1365.25 891.07C1375.4 901.641 1393.71 915.004 1401.25 926.691C1407.46 936.321 1405.18 969.726 1402.37 980.326C1401.28 982.222 1400.24 984.015 1398.74 985.459C1393.54 990.445 1392.12 1002.26 1386.09 1005.43C1385.83 1005.57 1385.26 1006.37 1385.02 1006.69C1386.82 1012.73 1393.1 1007.49 1386.98 1019.02C1379.54 1033.07 1366.21 1040.66 1356.38 1052.74C1354.38 1055.2 1352.89 1060.22 1350.36 1061.96C1346.58 1062.31 1343.4 1061.64 1340.28 1059.42C1338.54 1055.45 1341.19 1058.46 1339.57 1054.93C1337.55 1056.13 1336.51 1057.07 1334.7 1058.58C1328.83 1052.95 1320.2 1047.41 1313.81 1042.29C1281.61 1016.5 1244.86 998.516 1202.83 998.647C1185.93 998.698 1170.31 999.821 1154.16 1005.65C1122.63 1016.17 1104.11 1026.58 1069.8 1028.54C1051.76 1029.53 1033.68 1028.04 1016.05 1024.1C951.667 1010.03 915.695 966.372 876.404 917.672C861.923 899.731 844.539 882.751 829.548 865.087C826.652 861.682 821.013 855.252 817.89 852.555L817.103 851.891C786.653 868.615 758.48 874.083 731.386 898.324C717.781 910.499 675.718 927.019 661.715 912.766C658.35 909.339 666.564 870 666.471 863.534C666.964 847.043 667.017 830.683 666.704 814.251C666.48 802.528 664.417 794.486 667.4 783.084C681.941 781.349 706.686 782.909 723.191 782.129C744.845 775.327 775.054 808.214 790.213 819.514L790.84 819.966C797.413 813.325 803.884 806.647 810.683 800.231C814.455 796.659 818.97 793.612 822.494 789.959C822.661 788.304 822.348 787.83 821.72 786.358C822.713 785.104 822.953 785.096 823.033 783.565C818.328 781.721 775.287 780.037 766.708 779.643C762.528 779.446 752.848 780.314 748.143 780.256C746.042 780.226 744.794 780.263 743.299 779.126C744.641 777.66 756.422 772.258 759.961 770.188C773.5 762.292 785.909 744.941 795.203 732.474C796.304 730.987 795.305 731.286 797.588 729.339L797.049 728.375C797.056 725.664 796.706 726.929 798.457 724.55L798.661 725.256C806.532 715.776 818.613 677.464 823.34 664.502C820.05 661.598 812.565 657.632 808.458 654.985L809.005 654.536C812.901 655.639 819.59 660.352 824.04 662.683C827.009 658.38 828.6 650.308 830.059 645.104C837.332 619.163 840.658 597.635 842.125 571.049Z" fill="url(#paint3_linear_35_481)"/>
<path d="M797.049 728.374C797.056 725.664 796.706 726.929 798.457 724.55L798.661 725.256C806.532 715.775 818.613 677.463 823.34 664.502C820.05 661.598 812.565 657.631 808.458 654.985L809.005 654.535C812.901 655.638 819.59 660.351 824.04 662.682C860.457 685.449 874.04 701.862 899.799 736.724C903.95 742.338 918.664 760.396 923.406 763.976C961.165 804.007 998.085 828.846 1055.12 832.243C1067.99 833.009 1078.18 831.047 1091.68 832.958C1123.16 837.405 1144.41 852.758 1168.39 871.845C1175.65 877.626 1185.63 883.925 1192.54 889.699C1195.01 894.496 1199.38 894.051 1199.19 899.278C1195.73 901.925 1186.52 898.629 1182.73 901.524C1133.98 905.344 1108.34 937.043 1050.1 932.42C961.369 925.378 924.165 866.8 872.209 803.329C859.874 788.253 841.913 776.69 827.732 763.589C817.752 753.842 807.24 740.122 797.588 729.339L797.049 728.374Z" fill="url(#paint4_linear_35_481)"/>
<path d="M672.955 543.553C676.149 543.788 687.749 539.723 692.68 539.004C709.859 536.542 727.235 535.742 744.568 536.616C770.021 539.565 784.632 541.646 808.976 552.602C814.258 554.978 838.134 568.653 840.629 568.565C841.475 567.117 841.366 566.903 841.614 565.21C841.716 566.512 841.899 569.901 842.125 571.049C840.658 597.634 837.332 619.163 830.059 645.104C828.6 650.308 827.009 658.38 824.04 662.682C819.59 660.352 812.901 655.638 809.005 654.535L808.458 654.985C812.565 657.632 820.05 661.598 823.34 664.502C818.613 677.464 806.532 715.775 798.661 725.256L798.457 724.55C796.706 726.929 797.056 725.664 797.049 728.375C778.009 704.758 745.757 682.342 715.042 679.752C711.278 679.47 706.558 679.478 702.71 679.383L703.386 678.762L703.372 677.99C701.678 678.111 700.16 678.39 698.555 677.693L698.548 677.701L714.476 674.796C711.803 674.147 707.288 674.843 704.154 675.019L703.628 674.503C706.221 672.869 709.882 674.069 714.209 673.132C709.216 672.056 704.673 673.57 699.358 672.631C696.273 669.475 689.433 625.749 689.508 619.159C689.785 594.949 687.595 576.4 678.585 553.636C677.934 551.99 677.551 547.21 676.885 544.828C673.209 546.202 671.098 546.495 667.364 545.313L672.955 543.553Z" fill="url(#paint5_linear_35_481)"/>
<defs>
<linearGradient id="paint0_linear_35_481" x1="573.108" y1="328.686" x2="573.108" y2="784.064" gradientUnits="userSpaceOnUse">
<stop stop-color="#C1D5FA"/>
<stop offset="1" stop-color="#5993F9"/>
</linearGradient>
<linearGradient id="paint1_linear_35_481" x1="1145.02" y1="499.602" x2="1145.02" y2="595.219" gradientUnits="userSpaceOnUse">
<stop stop-color="#9CC0FF"/>
<stop offset="1" stop-color="#6CA3FD"/>
</linearGradient>
<linearGradient id="paint2_linear_35_481" x1="848.606" y1="559.363" x2="635.857" y2="559.363" gradientUnits="userSpaceOnUse">
<stop stop-color="#A6C4FD"/>
<stop offset="0.5" stop-color="#7DA7F7"/>
<stop offset="1" stop-color="#074EBF"/>
</linearGradient>
<linearGradient id="paint3_linear_35_481" x1="1405.21" y1="816.55" x2="660.905" y2="816.55" gradientUnits="userSpaceOnUse">
<stop stop-color="white"/>
<stop offset="1" stop-color="#6897EE"/>
</linearGradient>
<linearGradient id="paint4_linear_35_481" x1="816.335" y1="683.666" x2="1104.38" y2="952.591" gradientUnits="userSpaceOnUse">
<stop stop-color="#81A8EE"/>
<stop offset="1" stop-color="#6FA2FA"/>
</linearGradient>
<linearGradient id="paint5_linear_35_481" x1="842.125" y1="632.324" x2="667.364" y2="632.324" gradientUnits="userSpaceOnUse">
<stop stop-color="#8EB1F2"/>
<stop offset="1" stop-color="#417ADB"/>
</linearGradient>
</defs>
</svg>
