<svg width="1118" height="1132" viewBox="0 0 1118 1132" fill="none" xmlns="http://www.w3.org/2000/svg">
<circle cx="557.057" cy="571.09" r="380" stroke="white" stroke-width="33"/>
<path d="M543.136 0.463978C556.594 -0.610541 572.703 0.420115 586.2 1.15263C676.18 6.5557 763.456 33.9437 840.39 80.9163C855.502 90.1964 867.647 99.8175 881.898 110.086C897.495 121.922 914.989 134.091 929.072 147.809C943.114 161.493 957.345 176.531 970.566 191.03C975.196 196.321 981.312 201.331 985.605 206.817C1013.68 242.704 1040.25 282.143 1060.76 322.856C1085.92 372.793 1102.24 429.691 1110.8 484.825C1111.6 490.012 1112.91 495.168 1113.56 500.388C1114.58 506.731 1113.94 514.268 1114.91 520.545C1119.02 547.123 1117.33 573.927 1117.36 600.734C1117.37 605.961 1115.4 612.187 1115.28 617.461C1114.85 635.752 1110.99 653.317 1109.24 671.466C1107.22 687.578 1101.5 705.257 1097.42 720.978C1082.13 779.907 1055.85 835.143 1020.96 884.978C1007.18 904.654 994.634 924.318 977.578 941.593C962.109 957.476 944.258 977.717 927.591 992.295C829.826 1077.17 706.075 1126.24 576.699 1131.41C424.716 1136.48 288.584 1079.45 176.97 977.926C111.793 918.64 58.8532 831.544 29.9556 748.492C26.1459 737.547 23.6113 726.178 20.3789 715.051C10.424 680.79 2.74479 645.237 1.10909 609.483C-0.328799 578.05 -0.731161 545.37 2.14057 513.993C8.05628 449.371 27.1437 386.285 54.5315 327.679C57.8897 320.492 60.7897 313.09 64.4789 306.061C75.7048 284.671 88.9976 264.043 102.976 244.361C110.32 234.02 117.954 224.119 125.655 214.064C129.56 208.963 132.93 203.523 137.281 198.766C159.671 174.286 182.883 149.917 208.531 128.79C303.402 51.2243 420.718 6.23213 543.136 0.463978Z" fill="#C6DBFF"/>
<path d="M535.507 180.383C748.749 166.827 932.544 328.659 945.8 541.647C959.049 754.639 796.736 937.952 583.458 950.869C370.621 963.765 187.541 802.075 174.314 589.534C161.087 376.994 322.712 193.909 535.507 180.383Z" fill="white"/>
<path d="M532.865 125.258C779.414 111.879 990.006 301.145 1002.93 547.715C1015.86 794.282 826.206 1004.53 579.617 1017.01C333.66 1029.45 124.073 840.394 111.18 594.465C98.2871 348.534 286.956 138.601 532.865 125.258Z" fill="#2D6FCF"/>
<path d="M535.583 197.171C740.364 184.139 916.866 339.717 929.597 544.476C942.32 749.238 786.448 925.468 581.632 937.886C377.24 950.284 201.423 794.841 188.721 590.513C176.019 386.185 331.231 210.174 535.583 197.171Z" fill="url(#paint0_linear_37_519)"/>
<path d="M509.754 430.811C509.919 412.433 509.947 394.055 509.838 375.677C509.82 365.03 509.105 345.376 511.445 335.94C513.593 327.369 518.081 319.565 524.409 313.397C533.447 304.616 545.615 299.803 558.216 300.027C570.509 300.281 582.203 305.399 590.735 314.262C596.346 320.195 600.256 327.528 602.066 335.492C603.889 343.228 603.532 350.523 603.6 358.392C603.802 382.182 603.095 406.108 603.546 429.883C606.157 434.116 605.174 452.951 605.161 458.995L605.12 522.474C605.12 529.853 604.017 562.993 607.428 567.206C612.333 567.95 615.334 566.244 619.694 564.324C622.581 563.05 660.718 559.488 663.934 560.242L664.876 561.324C669.997 560.926 688.904 557.465 692.483 554.553C693.398 549.517 692.968 527.387 692.968 521.33L692.954 448.572L693.58 448.344C694.522 451.956 693.755 476.736 693.755 482.143C693.425 519.266 693.594 556.391 694.273 593.509C694.374 601.138 694.118 629.504 695.094 635.545L696.218 525.481C696.231 506.159 695.121 472.71 696.918 454.416L697.335 454.195L697.839 457.946C699.871 455.485 698.337 451.791 700.14 449.747C700.712 431.427 711.882 411.64 730.506 406.715C742.84 400.589 759.183 402.447 771.086 408.799C791.386 418.631 795.537 436.55 796.136 457.506C801.122 468.88 794.252 566.932 798.545 569.352C802.051 566.882 801.149 564.268 805.415 564.754C807.743 561.469 824.255 549.498 828.507 546.348C834.617 541.83 850.22 540.399 857.44 535.643C868.259 536.024 878.594 533.107 889.528 535.21C892.374 535.758 898.625 536.562 901.188 535.69C902.164 533.857 903.18 532.045 904.23 530.256L904.977 530.499L905.946 533.226L906.477 532.83C907.076 521.61 895.328 475.29 891.096 462.409C889.467 457.45 880.431 435.72 880.196 431.826C882.853 435.654 888.721 452.828 890.423 457.724C909.404 511.819 914.242 569.868 904.472 626.356C897.528 664.646 887.853 694.467 870.587 729.267C854.156 762.377 836.036 785.579 810.576 811.956C763.893 860.311 703.377 893.771 637.733 908.14C625.716 910.77 608.263 914.665 595.795 914.356L592.37 915.547L595.431 915.903C593.628 916.038 593.218 916.159 591.488 916.408C573.644 918.957 553.197 917.202 535.012 917.518C530.447 917.592 527.54 917.249 524.874 914.316C511.599 914.477 496.999 911.551 484.067 908.672C403.12 890.663 330.4 843.701 279.866 778.079C260.013 752.3 244.02 720.091 232.003 689.88C202.632 616.043 201.619 530.216 228.188 455.361C229.954 450.382 232.521 440.493 235.703 437.007C235.666 438.232 227.503 460.517 226.604 463.298C219.847 484.177 214.629 505.532 212.279 527.397C211.814 531.714 209.64 547.289 210.001 550.506C216.498 552.633 221.425 550.154 226.709 550.249C231.694 550.338 255.888 550.052 258.68 551.942L260.03 551.373L260.429 552.589L261.651 551.726C264.462 553.294 266.319 553.307 269.015 554.723C279.001 560.106 288.248 563.576 299.498 565.562C305.358 566.596 310.834 565.634 316.146 568.458C318.981 569.965 317.934 556.099 317.934 554.6L317.868 481.352C317.883 470.759 317.764 459.812 317.919 449.21C317.956 446.681 318.218 446.962 319.697 445.276C320.146 444.39 321.476 438.042 321.885 436.533C325.304 423.921 331.638 413.93 344.307 408.877C356.42 401.175 372.122 401.25 385.282 406.923C386.872 407.608 392.1 410.304 392.954 411.444C405.964 418.558 410.711 430.599 413.284 444.329L414.115 444.427C417.066 450.032 414.135 546.853 415.843 560.538C415.962 561.482 416.62 564.501 417.494 564.828C429.2 569.2 457.337 572.517 468.853 571.34C479.95 570.207 490.418 568.043 500.599 568.723C504.375 571.87 502.735 576.761 504.971 582.985C504.538 548.129 504.612 512.637 505.624 477.813C506.003 464.759 505.162 450.914 505.561 437.737C505.727 432.242 506.986 430.905 507.368 426.539C507.783 421.822 507.111 415.921 508.143 410.852C510.005 416.104 507.786 425.096 509.754 430.811Z" fill="#3E84FF" fill-opacity="0.2"/>
<path d="M509.754 430.811C509.92 412.433 509.947 394.055 509.838 375.677C509.821 365.03 509.105 345.376 511.446 335.94C513.593 327.369 518.081 319.565 524.409 313.397C533.447 304.616 545.616 299.803 558.216 300.027C570.509 300.281 582.203 305.399 590.735 314.262C596.347 320.195 600.256 327.528 602.066 335.492C603.889 343.228 603.533 350.523 603.6 358.392C603.802 382.182 603.095 406.108 603.546 429.883L603.425 509.826C603.412 522.997 603.762 537.709 603.317 550.658C603.99 584.506 603.513 619.844 603.539 653.789V789.441C603.412 804.099 600.148 813.793 589.255 824.334C580.723 832.676 569.184 837.223 557.256 836.934C536.146 836.47 515.697 823.809 510.662 801.146C508.613 791.916 509.722 773.968 509.706 764.093L509.738 699.156L509.796 581.384C509.798 560.45 509.308 537.347 509.979 516.552C509.495 508.114 509.815 496.558 509.824 487.871C509.913 468.852 509.89 449.831 509.754 430.811Z" fill="url(#paint1_linear_37_519)"/>
<path d="M509.754 430.811C509.92 412.433 509.947 394.055 509.838 375.677C509.821 365.03 509.105 345.376 511.446 335.94C513.593 327.369 518.081 319.565 524.409 313.397C533.447 304.616 545.616 299.803 558.216 300.027C570.509 300.281 582.203 305.399 590.735 314.262C596.347 320.195 600.256 327.528 602.066 335.492C603.889 343.228 603.533 350.523 603.6 358.392C603.802 382.182 603.095 406.108 603.546 429.883L603.425 509.826C603.412 522.997 603.762 537.709 603.317 550.658C600.505 545.768 602.221 500.745 601.837 492.089C601.649 487.72 602.719 476.23 601.386 472.027C599.415 470.575 600.424 470.724 598.412 470.921L597.423 471.858C586.947 474.128 578.57 473.817 568.147 471.876C550.433 468.578 519.023 473.546 511.577 452.659C511.606 463.076 512.072 509.3 509.979 516.552C509.495 508.114 509.815 496.558 509.824 487.871C509.913 468.852 509.89 449.831 509.754 430.811Z" fill="#71A2FA"/>
<path d="M730.506 406.713C742.84 400.587 759.183 402.445 771.086 408.798C791.386 418.629 795.537 436.548 796.136 457.504C796.863 486.403 796.318 516.929 796.123 545.856L796.109 621.685L796.116 674.406C796.015 693.369 797.502 710.57 783.614 725.646C766.84 743.392 733.682 744.932 715.993 727.738C697.994 710.241 700.087 695.603 700.214 672.522L700.288 632.772L700.336 516.406C700.336 494.553 700.645 471.534 700.14 449.745C700.712 431.425 711.882 411.638 730.506 406.713Z" fill="url(#paint2_linear_37_519)"/>
<path d="M730.507 406.713C742.84 400.587 759.184 402.445 771.087 408.798C768.368 408.877 762.218 406.692 761.7 406.815C752.267 409.048 747.443 408.42 738.137 405.147C734.995 406.304 733.797 407.03 730.507 406.713Z" fill="#79A7FB"/>
<path d="M344.307 408.877C356.421 401.175 372.122 401.25 385.283 406.922C386.872 407.608 392.1 410.303 392.954 411.444C405.965 418.558 410.712 430.599 413.285 444.329C414.01 466.249 413.695 489.645 413.682 511.712L413.691 615.572L413.719 670.849C413.738 680.623 414.598 694.817 412.933 703.798C409.278 723.522 389.305 739.788 369.213 739.606C355.419 739.485 343.724 736.095 333.552 726.414C321.113 714.164 319.61 702.459 319.4 686.005C319.18 638.451 319.207 590.892 319.48 543.337L319.381 482.568C319.366 470.552 319.072 457.144 319.697 445.276C320.147 444.39 321.477 438.042 321.885 436.533C325.304 423.921 331.638 413.93 344.307 408.877Z" fill="url(#paint3_linear_37_519)"/>
<path d="M344.307 408.877C356.42 401.175 372.122 401.25 385.282 406.922C386.872 407.608 392.1 410.303 392.954 411.444C389.38 411.991 388.322 408.588 384.733 409.113C373.297 410.786 372.409 413.148 360.401 412.823L359.269 412.082C353.282 408.244 350.913 407.469 344.307 408.877Z" fill="#79A7FB"/>
<path d="M524.874 914.314C537.165 914.409 549.321 914.96 561.606 915.088C573.059 915.202 584.376 914.496 595.795 914.355L592.37 915.545L595.431 915.902C593.628 916.037 593.218 916.158 591.488 916.407C573.644 918.956 553.197 917.2 535.012 917.517C530.447 917.591 527.54 917.247 524.874 914.314Z" fill="#BAD7FD"/>
<defs>
<linearGradient id="paint0_linear_37_519" x1="559.159" y1="196.408" x2="559.159" y2="938.579" gradientUnits="userSpaceOnUse">
<stop stop-color="#D2DFFF"/>
<stop offset="1" stop-color="#3C84FF"/>
</linearGradient>
<linearGradient id="paint1_linear_37_519" x1="556.55" y1="300.02" x2="556.55" y2="836.947" gradientUnits="userSpaceOnUse">
<stop stop-color="#76A5F9"/>
<stop offset="1" stop-color="#012DA1"/>
</linearGradient>
<linearGradient id="paint2_linear_37_519" x1="748.29" y1="402.961" x2="748.29" y2="739.83" gradientUnits="userSpaceOnUse">
<stop stop-color="#76A5F9"/>
<stop offset="1" stop-color="#012DA1"/>
</linearGradient>
<linearGradient id="paint3_linear_37_519" x1="366.605" y1="402.859" x2="366.605" y2="739.608" gradientUnits="userSpaceOnUse">
<stop stop-color="#76A5F9"/>
<stop offset="1" stop-color="#012DA1"/>
</linearGradient>
</defs>
</svg>
