<svg width="1061" height="1345" viewBox="0 0 1061 1345" fill="none" xmlns="http://www.w3.org/2000/svg">
<path d="M161.258 104.14C179.67 97.0206 219.562 100.22 240.904 100.368L347.558 100.453L430.024 99.6825C445.656 99.6914 460.018 99.6188 475.617 101.4C602.812 115.926 704.216 191.394 754.75 310.337C759.401 317.877 787.882 331.324 796.707 336.13C814.675 345.913 829.831 355.562 846.251 367.779C876.509 390.314 903.753 416.645 927.309 446.123C991.672 525.427 1022.42 612.719 1030.87 714.068C1032.93 738.733 1031.26 770.579 1031.43 795.978C1031.48 804.777 1031.17 813.789 1032.13 822.527C1039.37 827.568 1059.33 818.167 1059.94 834.678C1061.01 863.393 1061.76 893.922 1059.71 922.567C1057.22 926.051 1054.93 929.535 1050.26 929.801C1037.55 930.508 1023.81 930.225 1011.11 930.199L933.684 930.101L792.613 930.181C774.787 930.234 721.379 932.834 706.612 928.412C699.556 917.03 703.827 868.638 702.801 852.003C701.298 827.576 701.563 822.173 727.056 823.703C727.294 822.942 727.807 821.351 727.869 820.652C731.671 774.116 728.727 721.435 703.491 681.594C693.19 687.095 689.219 696.168 680.545 704.897C671.269 714.253 661.525 723.141 651.356 731.525C612.114 763.76 563.084 785.861 514.495 799.666C473.903 811.207 429.101 812.365 387.29 808.218C316.235 801.275 248.525 774.638 191.772 731.322C170.547 715.253 118.336 671.211 121.377 643.221C125.663 640.347 138.739 644.662 150.844 633.148C164.743 619.936 161.04 592.724 160.907 573.259C160.116 562.982 161.195 543.457 161.167 532.129L160.933 437.609C161.007 362.985 159.364 284.714 160.92 210.601C160.185 194.111 160.901 172.67 160.79 155.83C160.695 141.527 160.141 117.827 161.258 104.14Z" fill="#BDD2FA"/>
<path d="M417.616 554.106C450.111 555.695 490.713 552.207 522.054 554.704C571.575 558.649 633.477 591.388 666.609 627.93C674.196 636.296 702.695 671.963 703.491 681.594C693.19 687.094 689.219 696.168 680.545 704.897C671.269 714.253 661.525 723.141 651.356 731.525C612.114 763.76 563.084 785.861 514.495 799.666C473.903 811.207 429.101 812.365 387.291 808.218C316.235 801.275 248.525 774.638 191.772 731.322C170.547 715.253 118.336 671.211 121.377 643.221C125.663 640.347 138.739 644.662 150.844 633.148C164.743 619.935 161.04 592.723 160.907 573.259C161.678 567.077 160.617 561.178 162.037 554.828L163.786 553.942C179.48 554.289 195.177 554.457 210.875 554.448C216.871 554.474 229.797 554.784 235.421 554.229C294.182 555.527 358.474 554.501 417.616 554.106Z" fill="#EBF0FB" fill-opacity="0.47"/>
<path d="M161.258 104.14C179.67 97.0206 219.562 100.22 240.904 100.368L347.558 100.453L430.024 99.6825C445.656 99.6914 460.018 99.6188 475.617 101.4C602.812 115.926 704.216 191.394 754.75 310.337C750.727 312.109 699.689 293.28 689.936 290.305C615.615 267.645 540.739 272.251 464.254 270.355C462.912 289.594 463.74 306.697 463.615 325.635L271.218 325.662C259.429 325.659 195.76 324.624 188.601 326.912C179.786 327.084 170.743 326.86 161.91 326.749C160.81 300.297 162.264 271.774 161.761 245.199C161.604 236.891 162.46 217.8 160.92 210.601C160.185 194.111 160.901 172.67 160.79 155.83C160.695 141.527 160.141 117.827 161.258 104.14Z" fill="url(#paint0_linear_35_423)" fill-opacity="0.65"/>
<path d="M160.92 210.601C162.46 217.799 161.604 236.89 161.762 245.199C162.264 271.773 160.81 300.297 161.91 326.748C170.743 326.86 179.786 327.083 188.601 326.912L201.933 327.156C234.961 326.857 267.992 326.821 301.021 327.046L464.735 326.999C462.317 394.247 465.283 462.669 464.401 529.982C464.298 537.792 464.36 545.421 464.764 553.224C455.233 553.261 445.389 553.424 435.887 553.309C430.706 553.497 422.596 553.563 417.616 554.105C358.474 554.501 294.182 555.527 235.421 554.228C229.797 554.784 216.871 554.474 210.875 554.448C195.177 554.457 179.48 554.289 163.787 553.942L162.037 554.828C160.617 561.178 161.678 567.076 160.907 573.258C160.116 562.982 161.195 543.457 161.167 532.129L160.933 437.608C161.007 362.984 159.364 284.713 160.92 210.601Z" fill="url(#paint1_linear_35_423)"/>
<path d="M163.786 553.942C166.642 553.436 169.496 552.911 172.346 552.371C182.999 550.284 193.187 550.245 204.014 550.445C226.36 550.859 249.013 549.758 271.319 550.636C320.688 549.281 371.292 551.163 420.75 550.858C425.417 550.829 431.786 551.012 435.887 553.309C430.706 553.497 422.596 553.564 417.616 554.106C358.474 554.501 294.182 555.527 235.421 554.229C229.797 554.784 216.871 554.475 210.875 554.448C195.177 554.457 179.48 554.289 163.786 553.942Z" fill="#84AEFA"/>
<path d="M161.91 326.748C170.742 326.859 179.785 327.083 188.6 326.912L201.933 327.156C200.85 327.399 197.631 327.858 196.497 327.94C189.4 328.455 184.212 337.235 176.216 338.297C173.133 338.707 166.904 338.438 163.629 338.369L162.555 339.167C161.56 336.97 161.908 329.595 161.91 326.748Z" fill="#84AEFA"/>
<path d="M1032.13 822.526C1039.37 827.567 1059.33 818.166 1059.94 834.678C1061.01 863.393 1061.76 893.921 1059.71 922.566C1057.22 926.051 1054.93 929.535 1050.26 929.8C1037.55 930.508 1023.81 930.225 1011.11 930.198L933.684 930.101L792.613 930.181C774.787 930.234 721.379 932.834 706.612 928.412C699.556 917.03 703.827 868.637 702.801 852.002C701.298 827.576 701.563 822.173 727.056 823.703C733.113 824.454 751.788 824.039 758.588 824.039L823.252 824.074C891.586 824.154 962.802 824.949 1030.84 824.03L1032.13 822.526Z" fill="#2D6FCF"/>
<path d="M25.447 2.7578C28.5684 1.64526 31.6199 1.12085 34.9207 0.900645C47.1515 0.0852573 129.858 -0.939741 135.562 1.67622C136.032 1.89289 136.477 2.16086 136.942 2.38991C137.239 2.53584 137.544 2.66407 137.846 2.80114C146.276 6.02732 152.56 12.0189 156.372 20.2276C163.218 34.9665 160.512 85.0934 161.258 104.14C160.14 117.827 160.695 141.528 160.789 155.831C160.901 172.671 160.184 194.111 160.919 210.601C159.364 284.714 161.007 362.985 160.932 437.609L161.167 532.13C161.194 543.457 160.115 562.983 160.907 573.259C161.039 592.724 164.743 619.936 150.843 633.148C138.738 644.663 125.662 640.347 121.376 643.221C118.177 641.921 113.874 641.842 110.386 641.444C87.7689 638.87 36.1746 645.361 18.9107 637.048C11.1135 633.29 5.25017 626.958 2.42061 618.751C-1.69021 606.838 0.676886 532.676 0.689265 514.077L0.880264 307.158L0.927109 149.615C0.768831 113.206 0.557521 76.6539 0.823676 40.2418C0.86612 34.4571 1.73354 26.2688 4.3889 21.1969C8.74465 12.8785 16.6338 5.94683 25.447 2.7578Z" fill="#012DA1"/>
<path d="M25.4473 2.7578C28.5686 1.64526 31.6201 1.12085 34.921 0.900646C47.1517 0.0852574 129.858 -0.939741 135.562 1.67622C136.033 1.89289 136.477 2.16086 136.942 2.38991C137.24 2.53584 137.545 2.66407 137.846 2.80114C133.893 4.09497 116.814 4.7096 112.754 4.25592C101.33 2.97889 31.6528 6.59419 25.4473 2.7578Z" fill="#1C44AF"/>
<g clip-path="url(#paint2_diamond_35_423_clip_path)" data-figma-skip-parse="true"><g transform="matrix(-0.0811104 -0.382975 0.271399 -0.0574798 960.782 1316.16)"><rect x="0" y="0" width="908.192" height="743.885" fill="url(#paint2_diamond_35_423)" opacity="1" shape-rendering="crispEdges"/><rect x="0" y="0" width="908.192" height="743.885" transform="scale(1 -1)" fill="url(#paint2_diamond_35_423)" opacity="1" shape-rendering="crispEdges"/><rect x="0" y="0" width="908.192" height="743.885" transform="scale(-1 1)" fill="url(#paint2_diamond_35_423)" opacity="1" shape-rendering="crispEdges"/><rect x="0" y="0" width="908.192" height="743.885" transform="scale(-1)" fill="url(#paint2_diamond_35_423)" opacity="1" shape-rendering="crispEdges"/></g></g><path d="M777.413 1145.82C781.64 1132.12 868.958 1010.01 881.311 996.668C898.66 1017.16 914.081 1042.2 928.971 1064.96C952.969 1101.64 985.686 1142.89 999.295 1184.77C1003.39 1197.38 1003.24 1226.64 1001.92 1240.63C999.471 1266.44 980.487 1298.51 960.813 1314.85C934.966 1336.27 901.728 1346.67 868.286 1343.78C850.088 1342.06 806.31 1326.73 796.185 1312.05C747.844 1270.31 746.093 1198.28 777.413 1145.82Z" data-figma-gradient-fill="{&#34;type&#34;:&#34;GRADIENT_DIAMOND&#34;,&#34;stops&#34;:[{&#34;color&#34;:{&#34;r&#34;:0.23360501229763031,&#34;g&#34;:0.50638973712921143,&#34;b&#34;:1.0,&#34;a&#34;:1.0},&#34;position&#34;:0.0},{&#34;color&#34;:{&#34;r&#34;:0.62941181659698486,&#34;g&#34;:0.75294119119644165,&#34;b&#34;:0.98627448081970215,&#34;a&#34;:1.0},&#34;position&#34;:0.250},{&#34;color&#34;:{&#34;r&#34;:0.74117648601531982,&#34;g&#34;:0.82352942228317261,&#34;b&#34;:0.99215686321258545,&#34;a&#34;:1.0},&#34;position&#34;:0.50},{&#34;color&#34;:{&#34;r&#34;:0.38823530077934265,&#34;g&#34;:0.58823531866073608,&#34;b&#34;:0.94509804248809814,&#34;a&#34;:1.0},&#34;position&#34;:1.0}],&#34;stopsVar&#34;:[{&#34;color&#34;:{&#34;r&#34;:0.23360501229763031,&#34;g&#34;:0.50638973712921143,&#34;b&#34;:1.0,&#34;a&#34;:1.0},&#34;position&#34;:0.0},{&#34;color&#34;:{&#34;r&#34;:0.62941181659698486,&#34;g&#34;:0.75294119119644165,&#34;b&#34;:0.98627448081970215,&#34;a&#34;:1.0},&#34;position&#34;:0.250},{&#34;color&#34;:{&#34;r&#34;:0.74117648601531982,&#34;g&#34;:0.82352942228317261,&#34;b&#34;:0.99215686321258545,&#34;a&#34;:1.0},&#34;position&#34;:0.50},{&#34;color&#34;:{&#34;r&#34;:0.38823530077934265,&#34;g&#34;:0.58823531866073608,&#34;b&#34;:0.94509804248809814,&#34;a&#34;:1.0},&#34;position&#34;:1.0}],&#34;transform&#34;:{&#34;m00&#34;:-162.22087097167969,&#34;m01&#34;:542.79876708984375,&#34;m02&#34;:770.4934082031250,&#34;m10&#34;:-765.95007324218750,&#34;m11&#34;:-114.95958709716797,&#34;m12&#34;:1756.617675781250},&#34;opacity&#34;:1.0,&#34;blendMode&#34;:&#34;NORMAL&#34;,&#34;visible&#34;:true}"/>
<defs>
<clipPath id="paint2_diamond_35_423_clip_path"><path d="M777.413 1145.82C781.64 1132.12 868.958 1010.01 881.311 996.668C898.66 1017.16 914.081 1042.2 928.971 1064.96C952.969 1101.64 985.686 1142.89 999.295 1184.77C1003.39 1197.38 1003.24 1226.64 1001.92 1240.63C999.471 1266.44 980.487 1298.51 960.813 1314.85C934.966 1336.27 901.728 1346.67 868.286 1343.78C850.088 1342.06 806.31 1326.73 796.185 1312.05C747.844 1270.31 746.093 1198.28 777.413 1145.82Z"/></clipPath><linearGradient id="paint0_linear_35_423" x1="457.659" y1="99.5244" x2="457.659" y2="326.975" gradientUnits="userSpaceOnUse">
<stop stop-color="#D7E3FA"/>
<stop offset="1" stop-color="#7FABF8"/>
</linearGradient>
<linearGradient id="paint1_linear_35_423" x1="312.506" y1="210.601" x2="312.506" y2="573.258" gradientUnits="userSpaceOnUse">
<stop stop-color="#A3C4FF"/>
<stop offset="1" stop-color="#528CEF"/>
</linearGradient>
<linearGradient id="paint2_diamond_35_423" x1="0" y1="0" x2="500" y2="500" gradientUnits="userSpaceOnUse">
<stop stop-color="#3C81FF"/>
<stop offset="0.25" stop-color="#A1C0FC"/>
<stop offset="0.5" stop-color="#BDD2FD"/>
<stop offset="1" stop-color="#6396F1"/>
</linearGradient>
</defs>
</svg>
