<svg width="1324" height="1680" viewBox="0 0 1324 1680" fill="none" xmlns="http://www.w3.org/2000/svg">
<path d="M346.487 293.381C349.08 285.924 348.61 275.472 347.849 267.189C343.333 217.946 367.448 168.568 417.72 155.207C432.804 151.198 455.06 152.304 471.607 152.318L530.875 152.421L723.304 152.451L920.475 152.513L984.387 152.525C995.297 152.54 1011.38 152.203 1022.04 153.09C1037.86 154.488 1053.13 159.617 1066.58 168.053C1090.25 183.043 1099.56 205.142 1105.52 231.033C1107.61 247.894 1106.82 272.974 1106.8 290.54L1106.62 392.797L1106.74 763.677L1107.3 1203.06L1107.29 1325.56C1107.3 1338.75 1108.21 1376.23 1106.21 1387.36C1099.13 1413.17 1093.52 1429.81 1068.41 1445.24C1062.46 1448.89 1050.49 1453.71 1045.61 1457.33C1041.18 1478.49 1034.58 1496.02 1015.5 1508.45C1005.25 1515.13 992.311 1520.47 979.9 1520.5L979.35 1520.38C964.297 1517.27 934.962 1518.16 918.679 1518.14L825.531 1518.03L583.209 1517.99C549.665 1518.09 516.092 1517.42 482.559 1517.96C477.672 1518.03 472.314 1518.02 468.196 1520.7C450.065 1521.41 428.335 1508.5 417.912 1494.02C407.954 1480.19 405.968 1471.85 403.134 1455.77C385.401 1446.48 371.942 1434.15 358.413 1419.8L315.955 1419.68C287.524 1419.53 266.026 1420.81 243.163 1400.1C227.201 1385.65 219.175 1370.67 215.235 1349.25C213.838 1341.65 214.638 1327.7 214.65 1319.26L214.647 1270.05L214.758 1132.02C215.618 1037.22 214.494 940.514 214.449 845.603L214.218 731.303C214.235 700.639 214.667 668.969 213.464 638.449C213.262 622.568 213.29 606.685 213.544 590.806C213.673 572.666 214.92 554.93 214.993 536.828C215.043 524.763 214.728 512.6 215.133 500.557C215.048 498.303 214.695 495.241 214.438 492.931L214.291 491.667C213.564 484.876 215.079 466.741 215.101 458.259L214.965 397.008C214.939 383.299 214.251 365.105 216.802 352.119C219.055 340.164 224.277 328.967 231.989 319.556C263.09 281.734 299.002 291.378 341.855 290.809C343.949 290.781 345.04 292.15 346.487 293.381Z" fill="url(#paint0_linear_35_454)"/>
<path d="M215.133 500.557C215.048 498.303 214.695 495.241 214.438 492.931L214.291 491.667C213.564 484.876 215.079 466.741 215.101 458.26L214.965 397.008C214.939 383.299 214.251 365.105 216.802 352.12C219.055 340.164 224.277 328.967 231.989 319.556C263.09 281.734 299.002 291.378 341.855 290.809C343.949 290.781 345.04 292.15 346.487 293.382C345.632 299.781 346.1 314.346 346.119 321.467L346.229 375.457V523.73C346.247 549.137 347.057 579.895 346.028 604.752L346.144 1135.03L346.339 1297.24C346.366 1326.01 345.617 1356.14 347.302 1384.81C347.982 1396.38 353.931 1408.99 358.413 1419.8L315.955 1419.68C287.524 1419.53 266.026 1420.81 243.163 1400.1C227.201 1385.65 219.175 1370.67 215.235 1349.25C213.838 1341.65 214.638 1327.7 214.65 1319.26L214.647 1270.05L214.758 1132.02C215.618 1037.22 214.494 940.515 214.449 845.604L214.218 731.303C214.235 700.64 214.667 668.969 213.464 638.45C213.262 622.568 213.29 606.686 213.544 590.806C213.673 572.666 214.92 554.93 214.993 536.828C215.043 524.763 214.728 512.6 215.133 500.557Z" fill="url(#paint1_linear_35_454)"/>
<path d="M216.983 368.34C220.992 371.134 219.522 382.155 219.428 387.089C218.744 386.622 218.021 385.898 217.387 385.322C216.488 380.564 216.891 373.366 216.983 368.34Z" fill="#A7C3F9"/>
<path d="M403.134 1455.77C425.481 1459.11 443.104 1458.39 465.664 1458.38L533.007 1458.33L774.804 1458.3L954.19 1458.33L1007.05 1458.33C1019.35 1458.35 1033.52 1458.78 1045.61 1457.33C1041.18 1478.49 1034.58 1496.02 1015.5 1508.45C1005.25 1515.13 992.311 1520.47 979.899 1520.5L979.35 1520.38C964.297 1517.27 934.962 1518.16 918.679 1518.14L825.531 1518.04L583.209 1517.99C549.665 1518.09 516.092 1517.42 482.559 1517.96C477.672 1518.04 472.314 1518.02 468.196 1520.7C450.065 1521.41 428.334 1508.5 417.911 1494.02C407.954 1480.19 405.968 1471.85 403.134 1455.77Z" fill="#002EA6"/>
<path d="M591.042 522.635C591.405 521.958 591.791 521.295 592.2 520.645C595.995 514.586 603.87 506.319 608.8 501.05C632.639 475.581 662.286 459.052 696.55 451.967C739.563 442.874 784.427 451.298 821.208 475.371C819.252 475.65 817.329 473.829 815.148 472.489C807.268 467.649 799.357 464 790.934 460.235C792.923 465.418 793.188 475.553 794.607 478.177C798.941 486.191 816.644 483.843 813.495 498.739C814.264 501.578 819.126 504.455 821.832 506.449L821.241 507.415C826.827 513.719 834.817 518.97 840.018 525.296C865.194 555.875 874.349 586.733 876.137 625.823C883.864 625.932 895.218 626.453 902.658 626.109C897.752 706.024 836.712 776.842 756.689 788.798C745.164 790.521 734.342 791.786 722.622 791.078C675.623 788.123 631.725 766.617 600.589 731.293C581.88 709.887 567.09 682.091 562.404 653.9C561.026 645.609 561.257 633.859 559.513 626.515C558.895 625.638 558.63 625.126 558.609 624.019C557.988 590.72 570.198 548.231 591.042 522.635Z" fill="#FEFEFE"/>
<path d="M591.042 522.635C591.405 521.958 591.791 521.295 592.2 520.645C595.995 514.586 603.87 506.319 608.801 501.05C632.639 475.581 662.285 459.052 696.55 451.967C739.563 442.874 784.427 451.298 821.208 475.371C819.252 475.65 817.329 473.829 815.148 472.489C807.268 467.649 799.357 464 790.934 460.235C792.923 465.418 793.188 475.553 794.607 478.177C798.941 486.191 816.644 483.843 813.495 498.739C814.264 501.578 819.126 504.455 821.832 506.449L821.241 507.415C788.996 483.482 754.065 470.665 713.483 476.712C673.579 482.464 637.663 504.014 613.812 536.513C612.348 538.493 607.308 546.365 606.531 547.178L605.717 546.809C604.802 547.314 603.963 547.778 603.022 548.24L602.4 548.54C602.125 550.047 602.171 550.537 602.556 552.019L601.293 554.029L601.146 553.963C597.373 547.583 590.366 542.159 584.039 538.484L583.055 537.919C585.26 532.854 591.018 526.546 591.042 522.635Z" fill="url(#paint2_linear_35_454)"/>
<path d="M591.042 522.635C591.018 526.545 585.26 532.853 583.055 537.919L584.039 538.484C590.366 542.159 597.373 547.583 601.146 553.963L601.293 554.029L602.556 552.018C602.171 550.537 602.125 550.047 602.4 548.54L603.022 548.24C603.963 547.777 604.802 547.314 605.717 546.809L606.531 547.178C592.018 574.267 585.04 595.308 584.857 626.442L559.513 626.514C558.895 625.638 558.63 625.126 558.609 624.019C557.988 590.719 570.198 548.231 591.042 522.635Z" fill="url(#paint3_linear_35_454)"/>
<path d="M802.254 551.042L802.986 551.723C803.898 558.3 765.661 606.352 759.292 615.946C755.408 621.797 753.03 628.505 749.075 634.315C745.049 640.228 741.04 643.658 733.744 644.764C726.18 645.91 720.801 643.145 714.972 638.84C701.466 625.176 709.41 605.442 726.308 599.941C736.011 596.782 744.148 590.073 752.572 584.607C769.212 573.81 785.226 561.103 802.254 551.042Z" fill="#002EA6"/>
<path d="M729.597 1255.61C753.987 1254.96 774.353 1274.06 775.268 1298.44C776.182 1322.82 757.303 1343.39 732.933 1344.58C716.928 1345.35 701.739 1337.47 693.162 1323.94C684.586 1310.41 683.944 1293.31 691.483 1279.17C699.022 1265.03 713.578 1256.03 729.597 1255.61Z" fill="#71A0F6"/>
<path d="M468.196 1520.7C472.314 1518.02 477.672 1518.03 482.559 1517.96C516.092 1517.42 549.665 1518.09 583.209 1517.99L825.531 1518.03L918.679 1518.14C934.962 1518.16 964.297 1517.27 979.35 1520.38L979.9 1520.5C970.088 1521.33 953.329 1521.12 943.272 1521.07L884.529 1520.75C819.75 1521.32 754.968 1521.55 690.186 1521.42L552.883 1521.16L499.876 1521.38C490.439 1521.39 477.198 1521.78 468.196 1520.7Z" fill="#213AA8" fill-opacity="0.984314"/>
<defs>
<linearGradient id="paint0_linear_35_454" x1="660.416" y1="152.168" x2="660.416" y2="1520.73" gradientUnits="userSpaceOnUse">
<stop stop-color="#EDF1FB"/>
<stop offset="1" stop-color="#ADC8FB"/>
</linearGradient>
<linearGradient id="paint1_linear_35_454" x1="285.872" y1="290.107" x2="285.872" y2="1419.8" gradientUnits="userSpaceOnUse">
<stop stop-color="#A2C0F7"/>
<stop offset="1" stop-color="#4C86E3"/>
</linearGradient>
<linearGradient id="paint2_linear_35_454" x1="821.832" y1="501.211" x2="583.055" y2="501.211" gradientUnits="userSpaceOnUse">
<stop stop-color="#DDE7FC"/>
<stop offset="0.5" stop-color="#DCE5FB"/>
<stop offset="1" stop-color="#B3CCFC"/>
</linearGradient>
<linearGradient id="paint3_linear_35_454" x1="597.81" y1="541.4" x2="558.907" y2="667.835" gradientUnits="userSpaceOnUse">
<stop stop-color="#BAD0FC"/>
<stop offset="1" stop-color="#0A4398"/>
</linearGradient>
</defs>
</svg>
